<svg width="255" height="40" viewBox="0 0 255 40" fill="none" xmlns="http://www.w3.org/2000/svg">
<path d="M3.48002 19.7877C2.82402 19.7877 2.23202 19.6637 1.70402 19.4157C1.17602 19.1757 0.76002 18.8397 0.45602 18.4077C0.15202 17.9837 1.95652e-05 17.4997 1.95652e-05 16.9557C1.95652e-05 16.7877 0.0120196 16.5677 0.0360195 16.2957C0.0680196 16.0237 0.10402 15.7237 0.14402 15.3957C0.19202 15.0677 0.24002 14.7277 0.28802 14.3757C0.34402 14.0237 0.39602 13.6917 0.44402 13.3797L2.02802 13.6077C1.94802 14.1357 1.87602 14.6197 1.81202 15.0597C1.74802 15.4997 1.69602 15.8757 1.65602 16.1877C1.62402 16.4997 1.60802 16.7397 1.60802 16.9077C1.60802 17.2277 1.68002 17.4957 1.82402 17.7117C1.97602 17.9357 2.19202 18.1037 2.47202 18.2157C2.75202 18.3357 3.08802 18.3957 3.48002 18.3957H6.28802C6.68002 18.3957 7.00402 18.3437 7.26002 18.2397C7.51602 18.1357 7.70802 17.9797 7.83602 17.7717C7.96402 17.5717 8.02802 17.3237 8.02802 17.0277V11.6157L8.42402 11.9637H6.91202C6.56002 11.9637 6.28402 12.0077 6.08402 12.0957C5.88402 12.1837 5.74402 12.3477 5.66402 12.5877C5.58402 12.8197 5.54402 13.1517 5.54402 13.5837C5.54402 14.0557 5.58402 14.4077 5.66402 14.6397C5.74402 14.8637 5.88402 15.0157 6.08402 15.0957C6.28402 15.1677 6.56002 15.2037 6.91202 15.2037H8.02802V16.5957H6.91202C6.23202 16.5957 5.67202 16.4917 5.23202 16.2837C4.79202 16.0677 4.46402 15.7357 4.24802 15.2877C4.04002 14.8397 3.93602 14.2717 3.93602 13.5837C3.93602 12.9277 4.04002 12.3757 4.24802 11.9277C4.46402 11.4797 4.79202 11.1437 5.23202 10.9197C5.67202 10.6877 6.23202 10.5717 6.91202 10.5717H9.62402V17.0277C9.62402 17.5957 9.47602 18.0837 9.18002 18.4917C8.89202 18.9077 8.49602 19.2277 7.99202 19.4517C7.49602 19.6757 6.92802 19.7877 6.28802 19.7877H3.48002ZM5.23202 9.4677V8.0997H6.78002V9.4677H5.23202ZM7.41602 9.4677V8.0997H8.96402V9.4677H7.41602ZM10.9453 16.5957V15.2037H15.3013L14.2093 16.1517V14.1357C14.2093 13.5677 14.1493 13.1277 14.0293 12.8157C13.9173 12.5037 13.7253 12.2837 13.4533 12.1557C13.1893 12.0277 12.8253 11.9637 12.3613 11.9637H11.3893V10.5717H12.3613C13.0973 10.5717 13.7213 10.6917 14.2333 10.9317C14.7533 11.1717 15.1453 11.5557 15.4093 12.0837C15.6813 12.6037 15.8173 13.2877 15.8173 14.1357V16.5957H10.9453ZM19.0945 16.5957V15.2037H20.4625V16.5957H19.0945ZM17.4985 16.5957V8.1117H19.0945V16.5957H17.4985ZM20.4625 16.5957V15.2037C20.5105 15.2037 20.5465 15.2197 20.5705 15.2517C20.6025 15.2837 20.6265 15.3317 20.6425 15.3957C20.6665 15.4597 20.6825 15.5357 20.6905 15.6237C20.6985 15.7037 20.7025 15.7957 20.7025 15.8997C20.7025 16.0037 20.6985 16.0997 20.6905 16.1877C20.6825 16.2757 20.6665 16.3517 20.6425 16.4157C20.6265 16.4717 20.6025 16.5157 20.5705 16.5477C20.5465 16.5797 20.5105 16.5957 20.4625 16.5957ZM23.3294 16.5957V15.2037H24.5894V16.5957H23.3294ZM20.4614 16.5957C20.4134 16.5957 20.3774 16.5797 20.3534 16.5477C20.3214 16.5157 20.2974 16.4717 20.2814 16.4157C20.2574 16.3517 20.2414 16.2757 20.2334 16.1877C20.2254 16.0997 20.2214 16.0037 20.2214 15.8997C20.2214 15.7557 20.2294 15.6357 20.2454 15.5397C20.2614 15.4357 20.2894 15.3557 20.3294 15.2997C20.3614 15.2357 20.4054 15.2037 20.4614 15.2037V16.5957ZM20.4614 16.5957V15.2037H22.6574L21.7214 15.9837V10.5717H23.3294V16.5957H20.4614ZM24.5894 16.5957V15.2037C24.6374 15.2037 24.6774 15.2197 24.7094 15.2517C24.7414 15.2837 24.7654 15.3317 24.7814 15.3957C24.7974 15.4597 24.8094 15.5357 24.8174 15.6237C24.8254 15.7037 24.8294 15.7957 24.8294 15.8997C24.8294 16.0037 24.8254 16.0997 24.8174 16.1877C24.8094 16.2757 24.7974 16.3517 24.7814 16.4157C24.7654 16.4717 24.7414 16.5157 24.7094 16.5477C24.6774 16.5797 24.6374 16.5957 24.5894 16.5957ZM21.7214 9.4677V8.0997H23.3294V9.4677H21.7214ZM31.3064 16.5957V15.2037H32.5664V16.5957H31.3064ZM24.5864 16.5957C24.5384 16.5957 24.5024 16.5797 24.4784 16.5477C24.4464 16.5157 24.4224 16.4717 24.4064 16.4157C24.3824 16.3517 24.3664 16.2757 24.3584 16.1877C24.3504 16.0997 24.3464 16.0037 24.3464 15.8997C24.3464 15.7557 24.3544 15.6357 24.3704 15.5397C24.3864 15.4357 24.4144 15.3557 24.4544 15.2997C24.4864 15.2357 24.5304 15.2037 24.5864 15.2037V16.5957ZM24.5864 16.5957V15.2037H30.1904L29.6984 15.6237V11.6157L30.1064 11.9637H28.5944C28.2424 11.9637 27.9664 12.0077 27.7664 12.0957C27.5664 12.1837 27.4264 12.3477 27.3464 12.5877C27.2664 12.8197 27.2264 13.1517 27.2264 13.5837C27.2264 14.0557 27.2664 14.4077 27.3464 14.6397C27.4264 14.8637 27.5664 15.0157 27.7664 15.0957C27.9664 15.1677 28.2424 15.2037 28.5944 15.2037V16.4517C27.9144 16.4517 27.3544 16.3557 26.9144 16.1637C26.4744 15.9717 26.1464 15.6677 25.9304 15.2517C25.7224 14.8277 25.6184 14.2717 25.6184 13.5837C25.6184 12.9277 25.7224 12.3757 25.9304 11.9277C26.1464 11.4797 26.4744 11.1437 26.9144 10.9197C27.3544 10.6877 27.9144 10.5717 28.5944 10.5717H31.3064V16.5957H24.5864ZM32.5664 16.5957V15.2037C32.6144 15.2037 32.6544 15.2197 32.6864 15.2517C32.7184 15.2837 32.7424 15.3317 32.7584 15.3957C32.7744 15.4597 32.7864 15.5357 32.7944 15.6237C32.8024 15.7037 32.8064 15.7957 32.8064 15.8997C32.8064 16.0037 32.8024 16.0997 32.7944 16.1877C32.7864 16.2757 32.7744 16.3517 32.7584 16.4157C32.7424 16.4717 32.7184 16.5157 32.6864 16.5477C32.6544 16.5797 32.6144 16.5957 32.5664 16.5957ZM27.9584 9.4677V8.0997H29.5664V9.4677H27.9584ZM33.9229 16.5957V8.1117H35.5309V16.5957H33.9229ZM32.5669 16.5957V15.2037H33.9229V16.5957H32.5669ZM32.5669 16.5957C32.5189 16.5957 32.4829 16.5797 32.4589 16.5477C32.4269 16.5157 32.4029 16.4717 32.3869 16.4157C32.3629 16.3517 32.3469 16.2757 32.3389 16.1877C32.3309 16.0997 32.3269 16.0037 32.3269 15.8997C32.3269 15.7557 32.3349 15.6357 32.3509 15.5397C32.3669 15.4357 32.3949 15.3557 32.4349 15.2997C32.4669 15.2357 32.5109 15.2037 32.5669 15.2037V16.5957ZM37.4555 16.5957V8.1117H39.0515V16.5957H37.4555ZM46.8545 19.5717C46.1585 19.5717 45.5345 19.4437 44.9825 19.1877C44.4385 18.9397 44.0105 18.5917 43.6985 18.1437C43.3865 17.6957 43.2305 17.1877 43.2305 16.6197C43.2305 16.4597 43.2425 16.2477 43.2665 15.9837C43.2905 15.7197 43.3225 15.4237 43.3625 15.0957C43.4105 14.7677 43.4585 14.4357 43.5065 14.0997C43.5625 13.7557 43.6145 13.4237 43.6625 13.1037L45.2465 13.3197C45.1585 13.8557 45.0825 14.3477 45.0185 14.7957C44.9625 15.2357 44.9185 15.6117 44.8865 15.9237C44.8545 16.2357 44.8385 16.4637 44.8385 16.6077C44.8385 16.9277 44.9185 17.2037 45.0785 17.4357C45.2385 17.6677 45.4665 17.8477 45.7625 17.9757C46.0665 18.1117 46.4305 18.1797 46.8545 18.1797C47.2945 18.1797 47.6505 18.1157 47.9225 17.9877C48.1945 17.8597 48.3905 17.6837 48.5105 17.4597C48.6385 17.2357 48.7025 16.9837 48.7025 16.7037V8.1117H50.3105V16.7037C50.3105 17.2797 50.1585 17.7837 49.8545 18.2157C49.5585 18.6477 49.1505 18.9797 48.6305 19.2117C48.1105 19.4517 47.5185 19.5717 46.8545 19.5717ZM57.3091 16.5957V15.2037H58.5691V16.5957H57.3091ZM54.0691 19.5717C53.7731 19.5717 53.4611 19.5477 53.1331 19.4997C52.8131 19.4597 52.4691 19.4037 52.1011 19.3317L52.3411 18.0477C52.7411 18.0957 53.0811 18.1317 53.3611 18.1557C53.6411 18.1797 53.8771 18.1917 54.0691 18.1917C54.6451 18.1917 55.0611 18.0877 55.3171 17.8797C55.5731 17.6717 55.7011 17.3597 55.7011 16.9437V11.6757L56.0971 11.9637H54.5971C54.2691 11.9637 54.0051 12.0037 53.8051 12.0837C53.6051 12.1557 53.4571 12.3117 53.3611 12.5517C53.2731 12.7837 53.2291 13.1397 53.2291 13.6197C53.2291 14.0757 53.2691 14.4197 53.3491 14.6517C53.4371 14.8757 53.5811 15.0237 53.7811 15.0957C53.9811 15.1677 54.2531 15.2037 54.5971 15.2037H55.7011V16.5957H54.5971C53.9171 16.5957 53.3571 16.4877 52.9171 16.2717C52.4771 16.0557 52.1491 15.7277 51.9331 15.2877C51.7251 14.8477 51.6211 14.2917 51.6211 13.6197C51.6211 12.9477 51.7251 12.3877 51.9331 11.9397C52.1491 11.4837 52.4771 11.1437 52.9171 10.9197C53.3571 10.6877 53.9171 10.5717 54.5971 10.5717H57.3091V16.9437C57.3091 17.4877 57.1731 17.9557 56.9011 18.3477C56.6371 18.7477 56.2611 19.0517 55.7731 19.2597C55.2931 19.4677 54.7251 19.5717 54.0691 19.5717ZM58.5691 16.5957V15.2037C58.6171 15.2037 58.6531 15.2197 58.6771 15.2517C58.7091 15.2837 58.7331 15.3317 58.7491 15.3957C58.7731 15.4597 58.7891 15.5357 58.7971 15.6237C58.8051 15.7037 58.8091 15.7957 58.8091 15.8997C58.8091 16.0037 58.8051 16.0997 58.7971 16.1877C58.7891 16.2757 58.7731 16.3517 58.7491 16.4157C58.7331 16.4717 58.7091 16.5157 58.6771 16.5477C58.6531 16.5797 58.6171 16.5957 58.5691 16.5957ZM58.5708 16.5957V15.2037H67.6428L66.2868 16.3797V13.8597C66.2868 13.4037 66.2268 13.0397 66.1068 12.7677C65.9868 12.4877 65.8108 12.2837 65.5788 12.1557C65.3548 12.0277 65.0828 11.9637 64.7628 11.9637C64.4188 11.9637 64.0908 12.0317 63.7788 12.1677C63.4748 12.3037 63.1908 12.4797 62.9268 12.6957C62.6628 12.9117 62.4188 13.1437 62.1948 13.3917C61.9708 13.6397 61.7708 13.8797 61.5948 14.1117C61.4188 14.3357 61.2668 14.5277 61.1388 14.6877L60.7788 13.5237C61.0908 13.1477 61.3708 12.8037 61.6188 12.4917C61.8668 12.1797 62.1028 11.9037 62.3268 11.6637C62.5588 11.4237 62.7988 11.2237 63.0468 11.0637C63.3028 10.9037 63.5788 10.7837 63.8748 10.7037C64.1788 10.6157 64.5308 10.5717 64.9308 10.5717C65.4668 10.5717 65.9228 10.6637 66.2988 10.8477C66.6748 11.0237 66.9788 11.2677 67.2108 11.5797C67.4508 11.8917 67.6228 12.2437 67.7268 12.6357C67.8388 13.0277 67.8948 13.4357 67.8948 13.8597V16.5957H58.5708ZM60.0828 15.2037V10.5717H61.6908V15.2037H60.0828ZM58.5708 16.5957C58.5228 16.5957 58.4868 16.5797 58.4628 16.5477C58.4308 16.5157 58.4068 16.4717 58.3908 16.4157C58.3668 16.3517 58.3508 16.2757 58.3428 16.1877C58.3348 16.0997 58.3308 16.0037 58.3308 15.8997C58.3308 15.7557 58.3388 15.6357 58.3548 15.5397C58.3708 15.4357 58.3988 15.3557 58.4388 15.2997C58.4708 15.2357 58.5148 15.2037 58.5708 15.2037V16.5957ZM69.7992 16.5957V8.1117H71.3952V16.5957H69.7992ZM69.8712 7.1517C69.7192 6.9677 69.6032 6.7917 69.5232 6.6237C69.4432 6.4557 69.4032 6.2757 69.4032 6.0837C69.4032 5.8117 69.4752 5.5677 69.6192 5.3517C69.7632 5.1277 69.9512 4.9557 70.1832 4.8357C70.4152 4.7077 70.6712 4.6437 70.9512 4.6437C71.1032 4.6437 71.2592 4.6637 71.4192 4.7037C71.5792 4.7437 71.7152 4.8037 71.8272 4.8837L71.4192 5.6157C71.3472 5.5757 71.2752 5.5517 71.2032 5.5437C71.1392 5.5277 71.0712 5.5197 70.9992 5.5197C70.8072 5.5197 70.6592 5.5717 70.5552 5.6757C70.4512 5.7717 70.3992 5.9037 70.3992 6.0717C70.3992 6.1677 70.4192 6.2597 70.4592 6.3477C70.4992 6.4357 70.5592 6.5317 70.6392 6.6357L69.8712 7.1517ZM69.1392 7.2477V6.3717H72.0432V7.2477H69.1392ZM75.5742 16.5957V13.8717C75.5742 13.0797 75.6982 12.4437 75.9462 11.9637C76.1942 11.4757 76.5622 11.1237 77.0502 10.9077C77.5382 10.6837 78.1382 10.5717 78.8502 10.5717C79.5702 10.5717 80.1742 10.6837 80.6622 10.9077C81.1502 11.1237 81.5182 11.4757 81.7662 11.9637C82.0142 12.4437 82.1382 13.0797 82.1382 13.8717V16.5957H75.5742ZM77.1822 15.9237L76.4142 15.2037H81.2982L80.5422 15.9237V13.9077C80.5422 13.4277 80.4942 13.0477 80.3982 12.7677C80.3022 12.4797 80.1302 12.2757 79.8822 12.1557C79.6422 12.0277 79.2982 11.9637 78.8502 11.9637C78.4102 11.9637 78.0662 12.0277 77.8182 12.1557C77.5782 12.2757 77.4102 12.4797 77.3142 12.7677C77.2262 13.0477 77.1822 13.4277 77.1822 13.9077V15.9237ZM76.9902 9.4677V8.0997H78.5382V9.4677H76.9902ZM79.1742 9.4677V8.0997H80.7222V9.4677H79.1742ZM83.0737 19.5717C82.9697 19.5717 82.8577 19.5677 82.7377 19.5597C82.6177 19.5517 82.4937 19.5397 82.3657 19.5237L82.4257 18.1557C82.5537 18.1637 82.6737 18.1717 82.7857 18.1797C82.9057 18.1877 82.9937 18.1917 83.0497 18.1917C83.3617 18.1917 83.6097 18.0677 83.7937 17.8197C83.9857 17.5717 84.0817 17.2237 84.0817 16.7757V10.5717H85.6897V16.7757C85.6897 17.3197 85.5777 17.8037 85.3537 18.2277C85.1377 18.6517 84.8337 18.9797 84.4417 19.2117C84.0497 19.4517 83.5937 19.5717 83.0737 19.5717ZM87.5766 16.5957V8.1117H89.1726V16.5957H87.5766ZM90.7383 16.5957V15.2037H95.0943L94.0023 16.1517V14.1357C94.0023 13.5677 93.9423 13.1277 93.8223 12.8157C93.7103 12.5037 93.5183 12.2837 93.2463 12.1557C92.9823 12.0277 92.6183 11.9637 92.1543 11.9637H91.1823V10.5717H92.1543C92.8903 10.5717 93.5143 10.6917 94.0263 10.9317C94.5463 11.1717 94.9383 11.5557 95.2023 12.0837C95.4743 12.6037 95.6103 13.2877 95.6103 14.1357V16.5957H90.7383ZM97.2914 16.5957V8.1117H98.8874V16.5957H97.2914ZM103.354 20.5797C103.282 20.1477 103.214 19.7277 103.15 19.3197C103.094 18.9117 103.066 18.5517 103.066 18.2397C103.066 17.6157 103.186 17.0757 103.426 16.6197C103.666 16.1717 104.006 15.8237 104.446 15.5757C104.886 15.3277 105.406 15.2037 106.006 15.2037C106.126 15.2037 106.274 15.2037 106.45 15.2037C106.634 15.2037 106.846 15.2037 107.086 15.2037C107.326 15.2037 107.594 15.2037 107.89 15.2037C108.186 15.2037 108.51 15.2037 108.862 15.2037L108.13 15.8997V13.6317C108.13 13.2157 108.082 12.8877 107.986 12.6477C107.898 12.3997 107.734 12.2237 107.494 12.1197C107.262 12.0157 106.922 11.9637 106.474 11.9637C106.17 11.9637 105.858 11.9877 105.538 12.0357C105.226 12.0757 104.978 12.1317 104.794 12.2037L105.802 11.2677C105.746 11.4597 105.694 11.6997 105.646 11.9877C105.606 12.2757 105.574 12.5757 105.55 12.8877C105.526 13.1917 105.514 13.4797 105.514 13.7517C105.514 14.0477 105.526 14.3477 105.55 14.6517C105.574 14.9477 105.602 15.2117 105.634 15.4437C105.674 15.6757 105.706 15.8357 105.73 15.9237L104.206 16.3437C104.166 16.2317 104.122 16.0477 104.074 15.7917C104.034 15.5357 103.994 15.2357 103.954 14.8917C103.922 14.5397 103.906 14.1677 103.906 13.7757C103.906 13.3837 103.922 13.0037 103.954 12.6357C103.994 12.2597 104.042 11.9237 104.098 11.6277C104.154 11.3237 104.206 11.0797 104.254 10.8957C104.462 10.8157 104.77 10.7437 105.178 10.6797C105.586 10.6077 106.026 10.5717 106.498 10.5717C107.018 10.5717 107.462 10.6237 107.83 10.7277C108.206 10.8237 108.514 10.9637 108.754 11.1477C109.002 11.3317 109.198 11.5517 109.342 11.8077C109.486 12.0557 109.586 12.3357 109.642 12.6477C109.698 12.9597 109.726 13.2917 109.726 13.6437V16.5957C109.374 16.5957 109.006 16.5957 108.622 16.5957C108.246 16.5957 107.878 16.5957 107.518 16.5957C107.166 16.5957 106.854 16.5957 106.582 16.5957C106.318 16.5957 106.126 16.5957 106.006 16.5957C105.878 16.5957 105.738 16.6117 105.586 16.6437C105.434 16.6837 105.286 16.7557 105.142 16.8597C105.006 16.9717 104.894 17.1357 104.806 17.3517C104.718 17.5757 104.674 17.8717 104.674 18.2397C104.674 18.5277 104.698 18.8637 104.746 19.2477C104.802 19.6317 104.866 20.0757 104.938 20.5797H103.354ZM113.243 16.5957V15.2037H114.611V16.5957H113.243ZM111.647 16.5957V8.1117H113.243V16.5957H111.647ZM114.611 16.5957V15.2037C114.659 15.2037 114.695 15.2197 114.719 15.2517C114.751 15.2837 114.775 15.3317 114.791 15.3957C114.815 15.4597 114.831 15.5357 114.839 15.6237C114.847 15.7037 114.851 15.7957 114.851 15.8997C114.851 16.0037 114.847 16.0997 114.839 16.1877C114.831 16.2757 114.815 16.3517 114.791 16.4157C114.775 16.4717 114.751 16.5157 114.719 16.5477C114.695 16.5797 114.659 16.5957 114.611 16.5957ZM122.974 16.5957V15.2037H124.234V16.5957H122.974ZM114.61 16.5957V15.2037H122.986L121.63 16.3797V13.8597C121.63 13.4037 121.57 13.0397 121.45 12.7677C121.33 12.4877 121.154 12.2837 120.922 12.1557C120.698 12.0277 120.426 11.9637 120.106 11.9637C119.762 11.9637 119.438 12.0317 119.134 12.1677C118.83 12.3037 118.542 12.4797 118.27 12.6957C118.006 12.9117 117.762 13.1437 117.538 13.3917C117.314 13.6397 117.114 13.8797 116.938 14.1117C116.762 14.3357 116.61 14.5277 116.482 14.6877L116.122 13.5237C116.45 13.1077 116.754 12.7197 117.034 12.3597C117.322 11.9997 117.622 11.6877 117.934 11.4237C118.246 11.1517 118.59 10.9437 118.966 10.7997C119.342 10.6477 119.778 10.5717 120.274 10.5717C120.81 10.5717 121.262 10.6637 121.63 10.8477C122.006 11.0237 122.314 11.2677 122.554 11.5797C122.794 11.8917 122.966 12.2437 123.07 12.6357C123.174 13.0277 123.226 13.4357 123.226 13.8597V16.5957H114.61ZM115.438 15.2037V8.1117H117.034V15.2037H115.438ZM114.61 16.5957C114.562 16.5957 114.526 16.5797 114.502 16.5477C114.47 16.5157 114.446 16.4717 114.43 16.4157C114.406 16.3517 114.39 16.2757 114.382 16.1877C114.374 16.0997 114.37 16.0037 114.37 15.8997C114.37 15.7557 114.378 15.6357 114.394 15.5397C114.41 15.4357 114.438 15.3557 114.478 15.2997C114.51 15.2357 114.554 15.2037 114.61 15.2037V16.5957ZM124.234 16.5957V15.2037C124.282 15.2037 124.322 15.2197 124.354 15.2517C124.386 15.2837 124.41 15.3317 124.426 15.3957C124.442 15.4597 124.454 15.5357 124.462 15.6237C124.47 15.7037 124.474 15.7957 124.474 15.8997C124.474 16.0037 124.47 16.0997 124.462 16.1877C124.454 16.2757 124.442 16.3517 124.426 16.4157C124.41 16.4717 124.386 16.5157 124.354 16.5477C124.322 16.5797 124.282 16.5957 124.234 16.5957ZM118.906 9.4677V8.0997H120.514V9.4677H118.906ZM124.231 16.5957V15.2037H126.427L125.491 15.9837V10.5717H127.099V16.5957H124.231ZM124.231 16.5957C124.183 16.5957 124.147 16.5797 124.123 16.5477C124.091 16.5157 124.067 16.4717 124.051 16.4157C124.027 16.3517 124.011 16.2757 124.003 16.1877C123.995 16.0997 123.991 16.0037 123.991 15.8997C123.991 15.7557 123.999 15.6357 124.015 15.5397C124.031 15.4357 124.059 15.3557 124.099 15.2997C124.131 15.2357 124.175 15.2037 124.231 15.2037V16.5957ZM125.491 9.4677V8.0997H127.099V9.4677H125.491Z" fill="#373753"/>
<path d="M13.4647 34.5957H12.9607C12.8701 34.5957 12.8247 34.5504 12.8247 34.4597V29.5877C12.8247 29.497 12.8701 29.4517 12.9607 29.4517H13.4647C13.5554 29.4517 13.6007 29.497 13.6007 29.5877V31.5877C13.6007 31.641 13.6327 31.6677 13.6967 31.6677H15.3847C15.4381 31.6677 15.4647 31.641 15.4647 31.5877V29.5877C15.4647 29.497 15.5101 29.4517 15.6007 29.4517H16.1127C16.2034 29.4517 16.2487 29.497 16.2487 29.5877V34.4597C16.2487 34.5504 16.2034 34.5957 16.1127 34.5957H15.6007C15.5101 34.5957 15.4647 34.5504 15.4647 34.4597V32.4357C15.4647 32.3824 15.4381 32.3557 15.3847 32.3557H13.6967C13.6327 32.3557 13.6007 32.3824 13.6007 32.4357V34.4597C13.6007 34.5504 13.5554 34.5957 13.4647 34.5957ZM19.2025 34.5957H18.4985C18.1038 34.5957 17.7971 34.4864 17.5785 34.2677C17.3651 34.049 17.2585 33.745 17.2585 33.3557V31.7557C17.2585 31.361 17.3651 31.057 17.5785 30.8437C17.7971 30.625 18.1038 30.5157 18.4985 30.5157H19.2025C19.5918 30.5157 19.8958 30.625 20.1145 30.8437C20.3385 31.057 20.4505 31.361 20.4505 31.7557V33.3557C20.4505 33.745 20.3385 34.049 20.1145 34.2677C19.8958 34.4864 19.5918 34.5957 19.2025 34.5957ZM18.6105 33.9157H19.0985C19.4825 33.9157 19.6745 33.721 19.6745 33.3317V31.7797C19.6745 31.3904 19.4825 31.1957 19.0985 31.1957H18.6105C18.4078 31.1957 18.2611 31.2437 18.1705 31.3397C18.0798 31.4304 18.0345 31.577 18.0345 31.7797V33.3317C18.0345 33.5344 18.0798 33.6837 18.1705 33.7797C18.2611 33.8704 18.4078 33.9157 18.6105 33.9157ZM21.4897 31.1957H21.1057C21.0524 31.1957 21.0151 31.1877 20.9937 31.1717C20.9777 31.1504 20.9697 31.1157 20.9697 31.0677V30.6517C20.9697 30.561 21.0151 30.5157 21.1057 30.5157H21.4897C21.5431 30.5157 21.5697 30.489 21.5697 30.4357V29.7157C21.5697 29.625 21.6177 29.5797 21.7137 29.5797H22.2177C22.3084 29.5797 22.3537 29.625 22.3537 29.7157V30.4357C22.3537 30.489 22.3831 30.5157 22.4417 30.5157H23.1857C23.2817 30.5157 23.3297 30.561 23.3297 30.6517V31.0677C23.3297 31.153 23.2817 31.1957 23.1857 31.1957H22.4417C22.3831 31.1957 22.3537 31.2224 22.3537 31.2757V33.3317C22.3537 33.721 22.5537 33.9157 22.9537 33.9157H23.2657C23.3617 33.9157 23.4097 33.961 23.4097 34.0517V34.4677C23.4097 34.553 23.3617 34.5957 23.2657 34.5957H22.8337C22.4391 34.5957 22.1297 34.489 21.9057 34.2757C21.6817 34.0624 21.5697 33.761 21.5697 33.3717V31.2757C21.5697 31.2224 21.5431 31.1957 21.4897 31.1957ZM27.0624 34.5957H25.3344C24.9397 34.5957 24.6331 34.4864 24.4144 34.2677C24.2011 34.049 24.0944 33.745 24.0944 33.3557V31.7557C24.0944 31.361 24.2011 31.057 24.4144 30.8437C24.6331 30.625 24.9397 30.5157 25.3344 30.5157H25.9904C26.3851 30.5157 26.6917 30.625 26.9104 30.8437C27.1291 31.057 27.2384 31.361 27.2384 31.7557V32.7717C27.2384 32.8677 27.1904 32.9157 27.0944 32.9157H24.9504C24.8917 32.9157 24.8624 32.9424 24.8624 32.9957V33.3397C24.8624 33.729 25.0571 33.9237 25.4464 33.9237H27.0624C27.1584 33.9237 27.2064 33.9717 27.2064 34.0677V34.4677C27.2064 34.553 27.1584 34.5957 27.0624 34.5957ZM24.9504 32.3717H26.3824C26.4357 32.3717 26.4624 32.345 26.4624 32.2917V31.7797C26.4624 31.577 26.4171 31.4304 26.3264 31.3397C26.2357 31.2437 26.0891 31.1957 25.8864 31.1957H25.4464C25.2437 31.1957 25.0971 31.2437 25.0064 31.3397C24.9157 31.4304 24.8704 31.577 24.8704 31.7797V32.2917C24.8704 32.345 24.8971 32.3717 24.9504 32.3717ZM28.7997 34.5957H28.2957C28.2051 34.5957 28.1597 34.5504 28.1597 34.4597V29.1077C28.1597 29.017 28.2051 28.9717 28.2957 28.9717H28.7997C28.8904 28.9717 28.9357 29.017 28.9357 29.1077V34.4597C28.9357 34.5504 28.8904 34.5957 28.7997 34.5957ZM31.4429 34.5957H29.9709C29.8802 34.5957 29.8349 34.5504 29.8349 34.4597V34.0677C29.8349 33.9824 29.8802 33.9397 29.9709 33.9397H31.3149C31.6616 33.9397 31.8349 33.8197 31.8349 33.5797V33.4837C31.8349 33.2704 31.7096 33.1077 31.4589 32.9957L30.5869 32.5797C30.3149 32.4517 30.1176 32.3104 29.9949 32.1557C29.8722 32.001 29.8109 31.7984 29.8109 31.5477C29.8109 30.8597 30.1922 30.5157 30.9549 30.5157H32.2829C32.3682 30.5157 32.4109 30.561 32.4109 30.6517V31.0437C32.4109 31.1344 32.3682 31.1797 32.2829 31.1797H31.1149C30.9549 31.1797 30.8322 31.209 30.7469 31.2677C30.6616 31.321 30.6189 31.393 30.6189 31.4837V31.5717C30.6189 31.7424 30.7549 31.8917 31.0269 32.0197L31.9069 32.4677C32.1842 32.5904 32.3736 32.737 32.4749 32.9077C32.5816 33.073 32.6349 33.289 32.6349 33.5557C32.6349 34.249 32.2376 34.5957 31.4429 34.5957ZM35.7297 34.5957H35.1537C35.0791 34.5957 35.0524 34.5504 35.0737 34.4597L36.4657 29.5877C36.4924 29.497 36.5564 29.4517 36.6577 29.4517H37.4577C37.5644 29.4517 37.6284 29.497 37.6497 29.5877L39.0417 34.4597C39.0631 34.5504 39.0337 34.5957 38.9537 34.5957H38.3857C38.3377 34.5957 38.3031 34.5877 38.2817 34.5717C38.2657 34.5504 38.2524 34.513 38.2417 34.4597L37.9377 33.4197H36.1777L35.8737 34.4597C35.8524 34.5504 35.8044 34.5957 35.7297 34.5957ZM37.0417 30.2197L36.3377 32.7797H37.7857L37.0737 30.2197H37.0417ZM41.2085 34.5957H39.7365C39.6459 34.5957 39.6005 34.5504 39.6005 34.4597V34.0677C39.6005 33.9824 39.6459 33.9397 39.7365 33.9397H41.0805C41.4272 33.9397 41.6005 33.8197 41.6005 33.5797V33.4837C41.6005 33.2704 41.4752 33.1077 41.2245 32.9957L40.3525 32.5797C40.0805 32.4517 39.8832 32.3104 39.7605 32.1557C39.6379 32.001 39.5765 31.7984 39.5765 31.5477C39.5765 30.8597 39.9579 30.5157 40.7205 30.5157H42.0485C42.1339 30.5157 42.1765 30.561 42.1765 30.6517V31.0437C42.1765 31.1344 42.1339 31.1797 42.0485 31.1797H40.8805C40.7205 31.1797 40.5979 31.209 40.5125 31.2677C40.4272 31.321 40.3845 31.393 40.3845 31.4837V31.5717C40.3845 31.7424 40.5205 31.8917 40.7925 32.0197L41.6725 32.4677C41.9499 32.5904 42.1392 32.737 42.2405 32.9077C42.3472 33.073 42.4005 33.289 42.4005 33.5557C42.4005 34.249 42.0032 34.5957 41.2085 34.5957ZM44.6851 34.5957H43.2131C43.1224 34.5957 43.0771 34.5504 43.0771 34.4597V34.0677C43.0771 33.9824 43.1224 33.9397 43.2131 33.9397H44.5571C44.9038 33.9397 45.0771 33.8197 45.0771 33.5797V33.4837C45.0771 33.2704 44.9518 33.1077 44.7011 32.9957L43.8291 32.5797C43.5571 32.4517 43.3598 32.3104 43.2371 32.1557C43.1144 32.001 43.0531 31.7984 43.0531 31.5477C43.0531 30.8597 43.4344 30.5157 44.1971 30.5157H45.5251C45.6104 30.5157 45.6531 30.561 45.6531 30.6517V31.0437C45.6531 31.1344 45.6104 31.1797 45.5251 31.1797H44.3571C44.1971 31.1797 44.0744 31.209 43.9891 31.2677C43.9038 31.321 43.8611 31.393 43.8611 31.4837V31.5717C43.8611 31.7424 43.9971 31.8917 44.2691 32.0197L45.1491 32.4677C45.4264 32.5904 45.6158 32.737 45.7171 32.9077C45.8238 33.073 45.8771 33.289 45.8771 33.5557C45.8771 34.249 45.4798 34.5957 44.6851 34.5957ZM49.5937 34.5957H47.8657C47.471 34.5957 47.1643 34.4864 46.9457 34.2677C46.7323 34.049 46.6257 33.745 46.6257 33.3557V31.7557C46.6257 31.361 46.7323 31.057 46.9457 30.8437C47.1643 30.625 47.471 30.5157 47.8657 30.5157H48.5217C48.9163 30.5157 49.223 30.625 49.4417 30.8437C49.6603 31.057 49.7697 31.361 49.7697 31.7557V32.7717C49.7697 32.8677 49.7217 32.9157 49.6257 32.9157H47.4817C47.423 32.9157 47.3937 32.9424 47.3937 32.9957V33.3397C47.3937 33.729 47.5883 33.9237 47.9777 33.9237H49.5937C49.6897 33.9237 49.7377 33.9717 49.7377 34.0677V34.4677C49.7377 34.553 49.6897 34.5957 49.5937 34.5957ZM47.4817 32.3717H48.9137C48.967 32.3717 48.9937 32.345 48.9937 32.2917V31.7797C48.9937 31.577 48.9483 31.4304 48.8577 31.3397C48.767 31.2437 48.6203 31.1957 48.4177 31.1957H47.9777C47.775 31.1957 47.6283 31.2437 47.5377 31.3397C47.447 31.4304 47.4017 31.577 47.4017 31.7797V32.2917C47.4017 32.345 47.4283 32.3717 47.4817 32.3717ZM50.771 31.1957H50.387C50.3336 31.1957 50.2963 31.1877 50.275 31.1717C50.259 31.1504 50.251 31.1157 50.251 31.0677V30.6517C50.251 30.561 50.2963 30.5157 50.387 30.5157H50.771C50.8243 30.5157 50.851 30.489 50.851 30.4357V29.7157C50.851 29.625 50.899 29.5797 50.995 29.5797H51.499C51.5896 29.5797 51.635 29.625 51.635 29.7157V30.4357C51.635 30.489 51.6643 30.5157 51.723 30.5157H52.467C52.563 30.5157 52.611 30.561 52.611 30.6517V31.0677C52.611 31.153 52.563 31.1957 52.467 31.1957H51.723C51.6643 31.1957 51.635 31.2224 51.635 31.2757V33.3317C51.635 33.721 51.835 33.9157 52.235 33.9157H52.547C52.643 33.9157 52.691 33.961 52.691 34.0517V34.4677C52.691 34.553 52.643 34.5957 52.547 34.5957H52.115C51.7203 34.5957 51.411 34.489 51.187 34.2757C50.963 34.0624 50.851 33.761 50.851 33.3717V31.2757C50.851 31.2224 50.8243 31.1957 50.771 31.1957ZM54.9117 34.5957H53.4397C53.349 34.5957 53.3037 34.5504 53.3037 34.4597V34.0677C53.3037 33.9824 53.349 33.9397 53.4397 33.9397H54.7837C55.1303 33.9397 55.3037 33.8197 55.3037 33.5797V33.4837C55.3037 33.2704 55.1783 33.1077 54.9277 32.9957L54.0557 32.5797C53.7837 32.4517 53.5863 32.3104 53.4637 32.1557C53.341 32.001 53.2797 31.7984 53.2797 31.5477C53.2797 30.8597 53.661 30.5157 54.4237 30.5157H55.7517C55.837 30.5157 55.8797 30.561 55.8797 30.6517V31.0437C55.8797 31.1344 55.837 31.1797 55.7517 31.1797H54.5837C54.4237 31.1797 54.301 31.209 54.2157 31.2677C54.1303 31.321 54.0877 31.393 54.0877 31.4837V31.5717C54.0877 31.7424 54.2237 31.8917 54.4957 32.0197L55.3757 32.4677C55.653 32.5904 55.8423 32.737 55.9437 32.9077C56.0503 33.073 56.1037 33.289 56.1037 33.5557C56.1037 34.249 55.7063 34.5957 54.9117 34.5957ZM62.4385 29.4517H63.3345C63.4251 29.4517 63.4705 29.497 63.4705 29.5877V34.4597C63.4705 34.5504 63.4251 34.5957 63.3345 34.5957H62.8385C62.7478 34.5957 62.7025 34.5504 62.7025 34.4597V30.4197H62.6705L61.6305 33.3477C61.5985 33.433 61.5398 33.4757 61.4545 33.4757H60.9425C60.8625 33.4757 60.8065 33.433 60.7745 33.3477L59.7105 30.4117H59.6785V34.4597C59.6785 34.513 59.6678 34.5504 59.6465 34.5717C59.6305 34.5877 59.5958 34.5957 59.5425 34.5957H59.0545C58.9638 34.5957 58.9185 34.5504 58.9185 34.4597V29.5877C58.9185 29.497 58.9638 29.4517 59.0545 29.4517H59.9505C60.0091 29.4517 60.0518 29.481 60.0785 29.5397L61.1745 32.6277H61.2145L62.3185 29.5397C62.3291 29.481 62.3691 29.4517 62.4385 29.4517ZM66.0292 34.5957H65.7172C65.3226 34.5957 65.0159 34.4864 64.7972 34.2677C64.5839 34.049 64.4772 33.745 64.4772 33.3557V31.7557C64.4772 31.361 64.5839 31.057 64.7972 30.8437C65.0159 30.625 65.3226 30.5157 65.7172 30.5157H67.5092C67.6052 30.5157 67.6532 30.561 67.6532 30.6517V34.4597C67.6532 34.5504 67.6052 34.5957 67.5092 34.5957H67.0052C66.9146 34.5957 66.8692 34.5504 66.8692 34.4597V34.1717H66.8372C66.7092 34.4544 66.4399 34.5957 66.0292 34.5957ZM66.8692 33.2357V31.2757C66.8692 31.2224 66.8399 31.1957 66.7812 31.1957H65.8292C65.4452 31.1957 65.2532 31.393 65.2532 31.7877V33.3237C65.2532 33.7184 65.4452 33.9157 65.8292 33.9157H66.2132C66.6506 33.9157 66.8692 33.689 66.8692 33.2357ZM69.291 34.5957H68.787C68.6963 34.5957 68.651 34.5504 68.651 34.4597V30.6517C68.651 30.561 68.6963 30.5157 68.787 30.5157H69.291C69.3816 30.5157 69.427 30.561 69.427 30.6517V30.9397H69.459C69.587 30.657 69.8563 30.5157 70.267 30.5157H70.619C71.0083 30.5157 71.307 30.6224 71.515 30.8357C71.723 31.049 71.827 31.3557 71.827 31.7557V34.4597C71.827 34.5504 71.779 34.5957 71.683 34.5957H71.179C71.0883 34.5957 71.043 34.5504 71.043 34.4597V31.7877C71.043 31.393 70.8483 31.1957 70.459 31.1957H70.083C69.6456 31.1957 69.427 31.4224 69.427 31.8757V34.4597C69.427 34.5504 69.3816 34.5957 69.291 34.5957ZM74.2558 34.5957H73.9438C73.5491 34.5957 73.2425 34.4864 73.0238 34.2677C72.8105 34.049 72.7038 33.745 72.7038 33.3557V31.7557C72.7038 31.361 72.8105 31.057 73.0238 30.8437C73.2425 30.625 73.5491 30.5157 73.9438 30.5157H75.7358C75.8318 30.5157 75.8798 30.561 75.8798 30.6517V34.4597C75.8798 34.5504 75.8318 34.5957 75.7358 34.5957H75.2318C75.1411 34.5957 75.0958 34.5504 75.0958 34.4597V34.1717H75.0638C74.9358 34.4544 74.6665 34.5957 74.2558 34.5957ZM75.0958 33.2357V31.2757C75.0958 31.2224 75.0665 31.1957 75.0078 31.1957H74.0558C73.6718 31.1957 73.4798 31.393 73.4798 31.7877V33.3237C73.4798 33.7184 73.6718 33.9157 74.0558 33.9157H74.4398C74.8771 33.9157 75.0958 33.689 75.0958 33.2357ZM78.3655 34.3957H78.0055C77.6215 34.3957 77.3255 34.289 77.1175 34.0757C76.9149 33.857 76.8135 33.5504 76.8135 33.1557V31.7557C76.8135 31.361 76.9229 31.057 77.1415 30.8437C77.3602 30.625 77.6642 30.5157 78.0535 30.5157H79.8455C79.9415 30.5157 79.9895 30.561 79.9895 30.6517V34.6117C79.9895 35.001 79.8775 35.3024 79.6535 35.5157C79.4349 35.7344 79.1309 35.8437 78.7415 35.8437H77.2375C77.1469 35.8437 77.1015 35.801 77.1015 35.7157V35.2997C77.1015 35.209 77.1469 35.1637 77.2375 35.1637H78.6215C79.0109 35.1637 79.2055 34.9664 79.2055 34.5717V33.9637H79.1735C79.0402 34.2517 78.7709 34.3957 78.3655 34.3957ZM79.2055 33.0357V31.2757C79.2055 31.2224 79.1762 31.1957 79.1175 31.1957H78.1655C77.7869 31.1957 77.5975 31.393 77.5975 31.7877V33.1157C77.5975 33.5104 77.7869 33.7077 78.1655 33.7077H78.5495C78.9869 33.7077 79.2055 33.4837 79.2055 33.0357ZM83.8749 34.5957H82.1469C81.7522 34.5957 81.4456 34.4864 81.2269 34.2677C81.0136 34.049 80.9069 33.745 80.9069 33.3557V31.7557C80.9069 31.361 81.0136 31.057 81.2269 30.8437C81.4456 30.625 81.7522 30.5157 82.1469 30.5157H82.8029C83.1976 30.5157 83.5042 30.625 83.7229 30.8437C83.9416 31.057 84.0509 31.361 84.0509 31.7557V32.7717C84.0509 32.8677 84.0029 32.9157 83.9069 32.9157H81.7629C81.7042 32.9157 81.6749 32.9424 81.6749 32.9957V33.3397C81.6749 33.729 81.8696 33.9237 82.2589 33.9237H83.8749C83.9709 33.9237 84.0189 33.9717 84.0189 34.0677V34.4677C84.0189 34.553 83.9709 34.5957 83.8749 34.5957ZM81.7629 32.3717H83.1949C83.2482 32.3717 83.2749 32.345 83.2749 32.2917V31.7797C83.2749 31.577 83.2296 31.4304 83.1389 31.3397C83.0482 31.2437 82.9016 31.1957 82.6989 31.1957H82.2589C82.0562 31.1957 81.9096 31.2437 81.8189 31.3397C81.7282 31.4304 81.6829 31.577 81.6829 31.7797V32.2917C81.6829 32.345 81.7096 32.3717 81.7629 32.3717ZM85.5722 34.5957H85.0682C84.9776 34.5957 84.9322 34.5504 84.9322 34.4597V30.6517C84.9322 30.561 84.9776 30.5157 85.0682 30.5157H85.5722C85.6629 30.5157 85.7082 30.561 85.7082 30.6517V30.9397H85.7402C85.8949 30.657 86.1776 30.5157 86.5882 30.5157H86.8522C87.3162 30.5157 87.6469 30.6917 87.8442 31.0437C87.9296 30.873 88.0602 30.7424 88.2362 30.6517C88.4122 30.561 88.6016 30.5157 88.8042 30.5157H89.0602C89.4496 30.5157 89.7456 30.625 89.9482 30.8437C90.1562 31.057 90.2602 31.361 90.2602 31.7557V34.4597C90.2602 34.5504 90.2149 34.5957 90.1242 34.5957H89.6122C89.5216 34.5957 89.4762 34.5504 89.4762 34.4597V31.7877C89.4762 31.393 89.2842 31.1957 88.9002 31.1957H88.6682C88.2256 31.1957 88.0042 31.4277 88.0042 31.8917V34.4597C88.0042 34.5504 87.9562 34.5957 87.8602 34.5957H87.3562C87.2656 34.5957 87.2202 34.5504 87.2202 34.4597V31.7877C87.2202 31.393 87.0282 31.1957 86.6442 31.1957H86.3642C85.9269 31.1957 85.7082 31.4224 85.7082 31.8757V34.4597C85.7082 34.5504 85.6629 34.5957 85.5722 34.5957ZM94.1171 34.5957H92.3891C91.9944 34.5957 91.6878 34.4864 91.4691 34.2677C91.2558 34.049 91.1491 33.745 91.1491 33.3557V31.7557C91.1491 31.361 91.2558 31.057 91.4691 30.8437C91.6878 30.625 91.9944 30.5157 92.3891 30.5157H93.0451C93.4398 30.5157 93.7464 30.625 93.9651 30.8437C94.1838 31.057 94.2931 31.361 94.2931 31.7557V32.7717C94.2931 32.8677 94.2451 32.9157 94.1491 32.9157H92.0051C91.9464 32.9157 91.9171 32.9424 91.9171 32.9957V33.3397C91.9171 33.729 92.1118 33.9237 92.5011 33.9237H94.1171C94.2131 33.9237 94.2611 33.9717 94.2611 34.0677V34.4677C94.2611 34.553 94.2131 34.5957 94.1171 34.5957ZM92.0051 32.3717H93.4371C93.4904 32.3717 93.5171 32.345 93.5171 32.2917V31.7797C93.5171 31.577 93.4718 31.4304 93.3811 31.3397C93.2904 31.2437 93.1438 31.1957 92.9411 31.1957H92.5011C92.2984 31.1957 92.1518 31.2437 92.0611 31.3397C91.9704 31.4304 91.9251 31.577 91.9251 31.7797V32.2917C91.9251 32.345 91.9518 32.3717 92.0051 32.3717ZM95.8144 34.5957H95.3104C95.2197 34.5957 95.1744 34.5504 95.1744 34.4597V30.6517C95.1744 30.561 95.2197 30.5157 95.3104 30.5157H95.8144C95.9051 30.5157 95.9504 30.561 95.9504 30.6517V30.9397H95.9824C96.1104 30.657 96.3797 30.5157 96.7904 30.5157H97.1424C97.5317 30.5157 97.8304 30.6224 98.0384 30.8357C98.2464 31.049 98.3504 31.3557 98.3504 31.7557V34.4597C98.3504 34.5504 98.3024 34.5957 98.2064 34.5957H97.7024C97.6117 34.5957 97.5664 34.5504 97.5664 34.4597V31.7877C97.5664 31.393 97.3717 31.1957 96.9824 31.1957H96.6064C96.1691 31.1957 95.9504 31.4224 95.9504 31.8757V34.4597C95.9504 34.5504 95.9051 34.5957 95.8144 34.5957ZM99.4272 31.1957H99.0432C98.9899 31.1957 98.9526 31.1877 98.9312 31.1717C98.9152 31.1504 98.9072 31.1157 98.9072 31.0677V30.6517C98.9072 30.561 98.9526 30.5157 99.0432 30.5157H99.4272C99.4806 30.5157 99.5072 30.489 99.5072 30.4357V29.7157C99.5072 29.625 99.5552 29.5797 99.6512 29.5797H100.155C100.246 29.5797 100.291 29.625 100.291 29.7157V30.4357C100.291 30.489 100.321 30.5157 100.379 30.5157H101.123C101.219 30.5157 101.267 30.561 101.267 30.6517V31.0677C101.267 31.153 101.219 31.1957 101.123 31.1957H100.379C100.321 31.1957 100.291 31.2224 100.291 31.2757V33.3317C100.291 33.721 100.491 33.9157 100.891 33.9157H101.203C101.299 33.9157 101.347 33.961 101.347 34.0517V34.4677C101.347 34.553 101.299 34.5957 101.203 34.5957H100.771C100.377 34.5957 100.067 34.489 99.8432 34.2757C99.6192 34.0624 99.5072 33.761 99.5072 33.3717V31.2757C99.5072 31.2224 99.4806 31.1957 99.4272 31.1957ZM104.002 33.3477V33.1397C104.002 33.049 104.047 33.0037 104.138 33.0037H104.65C104.741 33.0037 104.786 33.049 104.786 33.1397V33.2837C104.786 33.5077 104.834 33.6704 104.93 33.7717C105.031 33.8677 105.197 33.9157 105.426 33.9157H105.978C106.207 33.9157 106.373 33.865 106.474 33.7637C106.575 33.657 106.626 33.4864 106.626 33.2517V33.0677C106.626 32.897 106.559 32.7637 106.426 32.6677C106.298 32.5664 106.138 32.5024 105.946 32.4757C105.754 32.4437 105.543 32.401 105.314 32.3477C105.085 32.2944 104.874 32.233 104.682 32.1637C104.49 32.0944 104.327 31.9637 104.194 31.7717C104.066 31.5797 104.002 31.3344 104.002 31.0357V30.6997C104.002 30.3104 104.111 30.0064 104.33 29.7877C104.554 29.5637 104.861 29.4517 105.25 29.4517H106.098C106.493 29.4517 106.799 29.5637 107.018 29.7877C107.242 30.0064 107.354 30.3104 107.354 30.6997V30.8757C107.354 30.9664 107.309 31.0117 107.218 31.0117H106.706C106.615 31.0117 106.57 30.9664 106.57 30.8757V30.7717C106.57 30.5424 106.519 30.3797 106.418 30.2837C106.322 30.1824 106.159 30.1317 105.93 30.1317H105.426C105.197 30.1317 105.031 30.185 104.93 30.2917C104.834 30.393 104.786 30.569 104.786 30.8197V31.0677C104.786 31.3077 104.959 31.4704 105.306 31.5557C105.461 31.593 105.629 31.625 105.81 31.6517C105.997 31.6784 106.183 31.7184 106.37 31.7717C106.557 31.825 106.727 31.897 106.882 31.9877C107.037 32.073 107.162 32.2064 107.258 32.3877C107.354 32.5637 107.402 32.7797 107.402 33.0357V33.3477C107.402 33.737 107.29 34.0437 107.066 34.2677C106.847 34.4864 106.543 34.5957 106.154 34.5957H105.258C104.869 34.5957 104.562 34.4864 104.338 34.2677C104.114 34.0437 104.002 33.737 104.002 33.3477ZM108.881 35.8917H108.457C108.366 35.8917 108.321 35.8464 108.321 35.7557V35.3477C108.321 35.2517 108.366 35.2037 108.457 35.2037H108.641C108.966 35.2037 109.19 35.1397 109.313 35.0117C109.441 34.8837 109.548 34.673 109.633 34.3797H109.313C109.233 34.3797 109.177 34.3344 109.145 34.2437L108.081 30.6517C108.06 30.561 108.094 30.5157 108.185 30.5157H108.721C108.806 30.5157 108.86 30.561 108.881 30.6517L109.753 33.7877H109.785L110.657 30.6517C110.673 30.561 110.726 30.5157 110.817 30.5157H111.329C111.43 30.5157 111.473 30.5637 111.457 30.6597L110.361 34.5077C110.238 34.9557 110.065 35.297 109.841 35.5317C109.617 35.7717 109.297 35.8917 108.881 35.8917ZM113.591 34.5957H112.119C112.029 34.5957 111.983 34.5504 111.983 34.4597V34.0677C111.983 33.9824 112.029 33.9397 112.119 33.9397H113.463C113.81 33.9397 113.983 33.8197 113.983 33.5797V33.4837C113.983 33.2704 113.858 33.1077 113.607 32.9957L112.735 32.5797C112.463 32.4517 112.266 32.3104 112.143 32.1557C112.021 32.001 111.959 31.7984 111.959 31.5477C111.959 30.8597 112.341 30.5157 113.103 30.5157H114.431C114.517 30.5157 114.559 30.561 114.559 30.6517V31.0437C114.559 31.1344 114.517 31.1797 114.431 31.1797H113.263C113.103 31.1797 112.981 31.209 112.895 31.2677C112.81 31.321 112.767 31.393 112.767 31.4837V31.5717C112.767 31.7424 112.903 31.8917 113.175 32.0197L114.055 32.4677C114.333 32.5904 114.522 32.737 114.623 32.9077C114.73 33.073 114.783 33.289 114.783 33.5557C114.783 34.249 114.386 34.5957 113.591 34.5957ZM115.732 31.1957H115.348C115.295 31.1957 115.257 31.1877 115.236 31.1717C115.22 31.1504 115.212 31.1157 115.212 31.0677V30.6517C115.212 30.561 115.257 30.5157 115.348 30.5157H115.732C115.785 30.5157 115.812 30.489 115.812 30.4357V29.7157C115.812 29.625 115.86 29.5797 115.956 29.5797H116.46C116.551 29.5797 116.596 29.625 116.596 29.7157V30.4357C116.596 30.489 116.625 30.5157 116.684 30.5157H117.428C117.524 30.5157 117.572 30.561 117.572 30.6517V31.0677C117.572 31.153 117.524 31.1957 117.428 31.1957H116.684C116.625 31.1957 116.596 31.2224 116.596 31.2757V33.3317C116.596 33.721 116.796 33.9157 117.196 33.9157H117.508C117.604 33.9157 117.652 33.961 117.652 34.0517V34.4677C117.652 34.553 117.604 34.5957 117.508 34.5957H117.076C116.681 34.5957 116.372 34.489 116.148 34.2757C115.924 34.0624 115.812 33.761 115.812 33.3717V31.2757C115.812 31.2224 115.785 31.1957 115.732 31.1957ZM121.305 34.5957H119.577C119.182 34.5957 118.875 34.4864 118.657 34.2677C118.443 34.049 118.337 33.745 118.337 33.3557V31.7557C118.337 31.361 118.443 31.057 118.657 30.8437C118.875 30.625 119.182 30.5157 119.577 30.5157H120.233C120.627 30.5157 120.934 30.625 121.153 30.8437C121.371 31.057 121.481 31.361 121.481 31.7557V32.7717C121.481 32.8677 121.433 32.9157 121.337 32.9157H119.193C119.134 32.9157 119.105 32.9424 119.105 32.9957V33.3397C119.105 33.729 119.299 33.9237 119.689 33.9237H121.305C121.401 33.9237 121.449 33.9717 121.449 34.0677V34.4677C121.449 34.553 121.401 34.5957 121.305 34.5957ZM119.193 32.3717H120.625C120.678 32.3717 120.705 32.345 120.705 32.2917V31.7797C120.705 31.577 120.659 31.4304 120.569 31.3397C120.478 31.2437 120.331 31.1957 120.129 31.1957H119.689C119.486 31.1957 119.339 31.2437 119.249 31.3397C119.158 31.4304 119.113 31.577 119.113 31.7797V32.2917C119.113 32.345 119.139 32.3717 119.193 32.3717ZM123.002 34.5957H122.498C122.407 34.5957 122.362 34.5504 122.362 34.4597V30.6517C122.362 30.561 122.407 30.5157 122.498 30.5157H123.002C123.093 30.5157 123.138 30.561 123.138 30.6517V30.9397H123.17C123.325 30.657 123.607 30.5157 124.018 30.5157H124.282C124.746 30.5157 125.077 30.6917 125.274 31.0437C125.359 30.873 125.49 30.7424 125.666 30.6517C125.842 30.561 126.031 30.5157 126.234 30.5157H126.49C126.879 30.5157 127.175 30.625 127.378 30.8437C127.586 31.057 127.69 31.361 127.69 31.7557V34.4597C127.69 34.5504 127.645 34.5957 127.554 34.5957H127.042C126.951 34.5957 126.906 34.5504 126.906 34.4597V31.7877C126.906 31.393 126.714 31.1957 126.33 31.1957H126.098C125.655 31.1957 125.434 31.4277 125.434 31.8917V34.4597C125.434 34.5504 125.386 34.5957 125.29 34.5957H124.786C124.695 34.5957 124.65 34.5504 124.65 34.4597V31.7877C124.65 31.393 124.458 31.1957 124.074 31.1957H123.794C123.357 31.1957 123.138 31.4224 123.138 31.8757V34.4597C123.138 34.5504 123.093 34.5957 123.002 34.5957Z" fill="#373753"/>
<path fill-rule="evenodd" clip-rule="evenodd" d="M245.984 23.0263C248.545 25.3439 250.455 28.2659 249.936 31.8915C248.938 35.7701 246.154 38.7225 241.955 39.0964H228.487V31.5592H240.181C241.289 31.1152 241.289 29.675 240.958 28.9001C238.652 26.5938 235.036 25.1457 232.467 23.0362C229.906 20.7187 227.997 17.7967 228.515 14.1717C229.513 10.2918 232.299 7.34072 236.496 6.9668H250.001V14.5041H238.269C237.161 14.9473 237.161 16.3882 237.493 17.1638C239.799 19.4688 243.415 20.9176 245.984 23.0263ZM215.317 26.8032L219.523 23.4088L219.501 39.1579H227.054L227.039 7.37772C227.039 7.37772 219.169 13.5851 215.289 16.6888H215.214C211.336 13.5851 203.465 7.37772 203.465 7.37772L203.451 39.1579H211.003L210.982 23.4088L215.188 26.8032H215.317ZM193.932 7.37772L201.912 22.5632L201.897 38.0817L193.821 23.6718L185.175 39.1902H176.862C182.182 28.4376 188.057 17.7967 193.932 7.37772ZM145.97 27.6442L144.523 30.6237H178.815L180.262 27.6442H145.97ZM137.664 32.7708L136.218 35.7503H175.975L177.422 32.7708H137.664ZM251.532 37.421C251.532 36.9388 251.138 36.545 250.656 36.545C250.168 36.545 249.786 36.9388 249.786 37.421C249.786 37.9086 250.175 38.2904 250.656 38.2904C250.77 38.291 250.884 38.2689 250.99 38.2255C251.096 38.182 251.193 38.1181 251.274 38.0374C251.355 37.9566 251.42 37.8606 251.464 37.7549C251.509 37.6491 251.531 37.5357 251.532 37.421Z" fill="#373753"/>
<path d="M145.977 27.5205H180.412L178.897 30.6558H144.409L145.977 27.5205Z" fill="#373753"/>
<g clip-path="url(#clip0_6826_18661)">
<path d="M157.054 4.04395C157.054 3.24883 157.696 2.60645 158.491 2.60645H178.616C179.411 2.60645 180.054 3.24883 180.054 4.04395C180.054 4.83906 179.411 5.48145 178.616 5.48145V22.7314C179.411 22.7314 180.054 23.3738 180.054 24.1689C180.054 24.9641 179.411 25.6064 178.616 25.6064H170.71V23.4502C170.71 22.2598 169.744 21.2939 168.554 21.2939C167.363 21.2939 166.398 22.2598 166.398 23.4502V25.6064H158.491C157.696 25.6064 157.054 24.9641 157.054 24.1689C157.054 23.3738 157.696 22.7314 158.491 22.7314V5.48145C157.696 5.48145 157.054 4.83906 157.054 4.04395ZM161.366 7.6377V9.0752C161.366 9.47051 161.69 9.79395 162.085 9.79395H163.523C163.918 9.79395 164.241 9.47051 164.241 9.0752V7.6377C164.241 7.24238 163.918 6.91895 163.523 6.91895H162.085C161.69 6.91895 161.366 7.24238 161.366 7.6377ZM167.835 6.91895C167.44 6.91895 167.116 7.24238 167.116 7.6377V9.0752C167.116 9.47051 167.44 9.79395 167.835 9.79395H169.273C169.668 9.79395 169.991 9.47051 169.991 9.0752V7.6377C169.991 7.24238 169.668 6.91895 169.273 6.91895H167.835ZM172.866 7.6377V9.0752C172.866 9.47051 173.19 9.79395 173.585 9.79395H175.023C175.418 9.79395 175.741 9.47051 175.741 9.0752V7.6377C175.741 7.24238 175.418 6.91895 175.023 6.91895H173.585C173.19 6.91895 172.866 7.24238 172.866 7.6377ZM162.085 11.2314C161.69 11.2314 161.366 11.5549 161.366 11.9502V13.3877C161.366 13.783 161.69 14.1064 162.085 14.1064H163.523C163.918 14.1064 164.241 13.783 164.241 13.3877V11.9502C164.241 11.5549 163.918 11.2314 163.523 11.2314H162.085ZM167.116 11.9502V13.3877C167.116 13.783 167.44 14.1064 167.835 14.1064H169.273C169.668 14.1064 169.991 13.783 169.991 13.3877V11.9502C169.991 11.5549 169.668 11.2314 169.273 11.2314H167.835C167.44 11.2314 167.116 11.5549 167.116 11.9502ZM173.585 11.2314C173.19 11.2314 172.866 11.5549 172.866 11.9502V13.3877C172.866 13.783 173.19 14.1064 173.585 14.1064H175.023C175.418 14.1064 175.741 13.783 175.741 13.3877V11.9502C175.741 11.5549 175.418 11.2314 175.023 11.2314H173.585ZM171.788 19.8564C172.386 19.8564 172.88 19.3668 172.732 18.7873C172.255 16.923 170.566 15.5439 168.554 15.5439C166.541 15.5439 164.848 16.923 164.376 18.7873C164.228 19.3623 164.726 19.8564 165.319 19.8564H171.788Z" fill="#3FDCC0"/>
</g>
<path d="M137.617 32.7461H177.505L175.937 35.8814H136.05L137.617 32.7461Z" fill="#373753"/>
<defs>
<clipPath id="clip0_6826_18661">
<rect width="23" height="23" fill="white" transform="translate(157.054 2.60645)"/>
</clipPath>
</defs>
</svg>
