<svg width="24" height="24" viewBox="0 0 24 24" fill="none" xmlns="http://www.w3.org/2000/svg">
<path d="M13 16L8 12L13 8V11H22V13H13V16Z" fill="white"/>
<path d="M11.0032 2.99808C12.1856 2.99491 13.357 3.22635 14.4494 3.679C15.5418 4.13164 16.5335 4.7965 17.3672 5.63508L15.9532 7.04908C14.6312 5.72708 12.8732 4.99808 11.0032 4.99808C9.13319 4.99808 7.37519 5.72708 6.05319 7.04908C4.73119 8.37108 4.00219 10.1291 4.00219 11.9991C4.00219 13.8691 4.73119 15.6271 6.05319 16.9491C7.37519 18.2711 9.13319 19.0001 11.0032 19.0001C12.8732 19.0001 14.6312 18.2711 15.9532 16.9491L17.3672 18.3631C15.6682 20.0631 13.4082 21.0001 11.0032 21.0001C8.59819 21.0001 6.33819 20.0631 4.63919 18.3631C2.93919 16.6641 2.00219 14.4041 2.00219 11.9991C2.00219 9.59408 2.93919 7.33408 4.63919 5.63508C5.47286 4.7965 6.4646 4.13164 7.557 3.679C8.64939 3.22635 9.82073 2.99491 11.0032 2.99808Z" fill="white"/>
</svg>
