<svg width="151" height="150" viewBox="0 0 151 150" fill="none" xmlns="http://www.w3.org/2000/svg">
<path d="M64.5187 101.962L38 75.4367L46.8375 66.5992L64.5187 84.2742L99.8688 48.918L108.712 57.7617L64.5187 101.962Z" fill="#17BBB1"/>
<path fill-rule="evenodd" clip-rule="evenodd" d="M6.75 75C6.75 37.0313 37.5313 6.25 75.5 6.25C113.469 6.25 144.25 37.0313 144.25 75C144.25 112.969 113.469 143.75 75.5 143.75C37.5313 143.75 6.75 112.969 6.75 75ZM75.5 131.25C68.1131 131.25 60.7986 129.795 53.9741 126.968C47.1495 124.141 40.9485 119.998 35.7252 114.775C30.5019 109.551 26.3586 103.351 23.5318 96.5259C20.7049 89.7014 19.25 82.3869 19.25 75C19.25 67.6131 20.7049 60.2986 23.5318 53.4741C26.3586 46.6495 30.5019 40.4485 35.7252 35.2252C40.9485 30.0019 47.1495 25.8586 53.9741 23.0318C60.7986 20.2049 68.1131 18.75 75.5 18.75C90.4184 18.75 104.726 24.6763 115.275 35.2252C125.824 45.7742 131.75 60.0816 131.75 75C131.75 89.9184 125.824 104.226 115.275 114.775C104.726 125.324 90.4184 131.25 75.5 131.25Z" fill="#17BBB1"/>
</svg>
