<svg width="134" height="91" viewBox="0 0 134 91" fill="none" xmlns="http://www.w3.org/2000/svg">
<path fill-rule="evenodd" clip-rule="evenodd" d="M45.1089 59.1113C44.3651 59.5065 43.8073 59.704 43.0635 60.0992C43.4354 60.8895 43.8073 61.4822 44.1792 62.2725C44.923 61.8774 45.6668 61.4822 46.2246 61.0871C45.8527 60.4943 45.4808 59.704 45.1089 59.1113Z" fill="#17BBB1"/>
<path fill-rule="evenodd" clip-rule="evenodd" d="M6.02545 38.7038L0.709853 34.5634C0.709853 34.5634 5.70329 26.7603 14.5626 27.5566C14.5626 27.5566 22.1333 27.875 24.5495 33.9264C24.5495 33.9264 27.1267 42.048 21.1668 47.3032C21.1668 47.3032 11.5021 55.584 7.79731 57.6542L12.3075 55.7432H25.677V62.2724H0.387695V56.0617L14.4015 44.9145C17.301 42.5258 19.5561 37.7483 16.0123 34.8819C15.0458 34.0857 13.9183 33.7672 12.4686 34.0857C9.73026 34.5634 7.31408 37.1114 6.02545 38.7038Z" fill="#3F4254"/>
<path fill-rule="evenodd" clip-rule="evenodd" d="M71.6834 33.6841V27.4995H94.5772V33.0498L85.992 41.4546C85.992 41.4546 93.1463 42.2475 94.8951 48.9078C96.8029 56.5197 90.1256 62.8629 82.1764 62.2286C82.1764 62.2286 75.34 62.5457 69.9346 56.2025L74.7041 51.6037C74.7041 51.6037 78.2018 56.2025 83.2893 55.5682C83.2893 55.5682 87.7408 55.5682 87.8998 51.6037C88.2178 46.5291 82.0174 46.212 78.2018 46.6877L77.0889 42.0889L88.0588 31.1469L83.7662 33.6841H71.6834Z" fill="#3F4254"/>
<path fill-rule="evenodd" clip-rule="evenodd" d="M114.981 27.4995C124.954 27.4995 133.158 35.2613 133.158 44.8859C133.158 54.5106 124.954 62.2724 114.981 62.2724C105.008 62.2724 96.8047 54.5106 96.8047 44.8859C96.9655 35.2613 105.008 27.4995 114.981 27.4995ZM114.981 34.1747C120.772 34.1747 125.437 38.987 125.437 44.8859C125.437 50.7849 120.772 55.5972 114.981 55.5972C109.191 55.5972 104.526 50.7849 104.526 44.8859C104.526 38.987 109.351 34.1747 114.981 34.1747Z" fill="#3F4254"/>
<path fill-rule="evenodd" clip-rule="evenodd" d="M49.3862 30.6607C49.979 30.1028 50.3741 29.7309 50.9668 29.1731C50.3741 28.6152 49.979 28.0574 49.3862 27.4995C48.7935 28.0574 48.2008 28.6152 47.8057 29.1731C48.2008 29.545 48.7935 30.1028 49.3862 30.6607Z" fill="#17BBB1"/>
<path fill-rule="evenodd" clip-rule="evenodd" d="M49.3862 24.3384C49.961 23.8116 50.3921 23.4164 50.9668 22.8895C50.3921 22.3627 49.961 21.7041 49.3862 21.1772C48.8115 21.7041 48.2367 22.231 47.8057 22.8895C48.3804 23.4164 48.8115 23.8116 49.3862 24.3384Z" fill="#17BBB1"/>
<path fill-rule="evenodd" clip-rule="evenodd" d="M50.7177 27.4991C51.3832 27.0249 51.8824 26.7088 52.5479 26.2346C52.0488 25.6024 51.716 24.9701 51.2169 24.3379C50.5514 24.8121 49.8859 25.2862 49.3867 25.7604C49.7195 26.3926 50.2186 27.0249 50.7177 27.4991Z" fill="#17BBB1"/>
<path fill-rule="evenodd" clip-rule="evenodd" d="M54.5805 33.8218C54.4676 33.4266 54.2418 33.0315 54.1289 32.6364C54.4676 32.5046 54.9192 32.3729 55.2579 32.2412C55.3708 32.6364 55.5966 33.0315 55.7095 33.5584C55.3708 33.5584 54.9192 33.6901 54.5805 33.8218Z" fill="#17BBB1"/>
<path fill-rule="evenodd" clip-rule="evenodd" d="M53.2055 35.4024C53.0737 35.115 52.8103 34.6839 52.5469 34.3965C52.942 34.2528 53.2055 33.9655 53.6006 33.8218C53.864 34.2528 53.9957 34.5402 54.1275 34.9713C53.864 35.115 53.4689 35.2587 53.2055 35.4024Z" fill="#17BBB1"/>
<path fill-rule="evenodd" clip-rule="evenodd" d="M53.6626 32.2408C53.2907 31.648 52.9188 30.8577 52.5469 30.265C53.2907 29.8699 53.8485 29.4747 54.5923 29.0796C54.9642 29.8699 55.3361 30.6602 55.708 31.2529C54.9642 31.648 54.4064 32.0432 53.6626 32.2408Z" fill="#17BBB1"/>
<path fill-rule="evenodd" clip-rule="evenodd" d="M50.7697 32.2407C50.3746 31.902 49.7819 31.6762 49.3867 31.3375C49.9794 31.1118 50.5722 30.886 51.1649 30.6602C51.56 30.9989 51.9552 31.3375 52.5479 31.6762C51.9552 31.902 51.3624 32.1278 50.7697 32.2407Z" fill="#17BBB1"/>
<path fill-rule="evenodd" clip-rule="evenodd" d="M46.4737 29.0791C46.9728 28.58 47.3056 27.9145 47.8047 27.4154C47.1392 26.9162 46.6401 26.4171 45.9746 25.918C45.4754 26.5835 45.1427 27.249 44.6436 27.9145C45.3091 28.2473 45.9746 28.7464 46.4737 29.0791Z" fill="#17BBB1"/>
<path fill-rule="evenodd" clip-rule="evenodd" d="M49.3862 60.6914C49.979 61.2493 50.3741 61.6212 50.9668 62.179C50.3741 62.7369 49.979 63.2947 49.3862 63.8526C48.7935 63.2947 48.2008 62.7369 47.8057 62.179C48.2008 61.6212 48.7935 61.0633 49.3862 60.6914Z" fill="#17BBB1"/>
<path fill-rule="evenodd" clip-rule="evenodd" d="M49.3862 65.4336C49.961 65.9605 50.3921 66.3556 50.9668 66.8825C50.3921 67.4093 49.961 68.0679 49.3862 68.5948C48.8115 68.0679 48.2367 67.541 47.8057 66.8825C48.3804 66.3556 48.8115 65.8287 49.3862 65.4336Z" fill="#17BBB1"/>
<path fill-rule="evenodd" clip-rule="evenodd" d="M50.7177 62.272C51.3832 62.7461 51.8824 63.0623 52.5479 63.5364C52.0488 64.1687 51.716 64.8009 51.2169 65.4331C50.5514 64.959 49.8859 64.4848 49.3867 64.0106C49.7195 63.3784 50.2186 62.9042 50.7177 62.272Z" fill="#17BBB1"/>
<path fill-rule="evenodd" clip-rule="evenodd" d="M46.4737 62.272C46.9728 62.7711 47.3056 63.4366 47.8047 63.9357C47.1392 64.4349 46.6401 64.934 45.9746 65.4331C45.4754 64.7676 45.1427 64.1021 44.6436 63.4366C45.3091 63.1039 45.9746 62.7711 46.4737 62.272Z" fill="#17BBB1"/>
<path fill-rule="evenodd" clip-rule="evenodd" d="M57.6248 32.2407C58.0764 32.1192 58.4151 32.1192 58.8667 32.1192C58.8667 31.6328 58.7538 31.1465 58.6409 30.6602C58.1893 30.7817 57.7377 30.7817 57.2861 30.9033C57.5119 31.3897 57.5119 31.876 57.6248 32.2407Z" fill="#17BBB1"/>
<path fill-rule="evenodd" clip-rule="evenodd" d="M60.9493 29.0791C61.7812 28.9128 62.6131 28.7464 63.6114 28.7464C63.6114 27.7481 63.445 26.9162 63.2786 25.918C62.2803 26.0843 61.4485 26.2507 60.4502 26.5835C60.6166 27.249 60.7829 28.2473 60.9493 29.0791Z" fill="#17BBB1"/>
<path fill-rule="evenodd" clip-rule="evenodd" d="M60.8717 32.2407H63.6114V30.6602C62.5576 30.6602 61.5039 30.6602 60.4502 30.7731C60.6609 31.2247 60.8717 31.6762 60.8717 32.2407Z" fill="#17BBB1"/>
<path fill-rule="evenodd" clip-rule="evenodd" d="M60.4502 36.3507C60.4502 35.5077 60.5718 34.6648 60.5718 33.8218C61.0581 33.8218 61.5444 34.0325 62.0308 34.2433C61.9092 35.0862 61.9092 35.9292 61.7876 36.9829C61.4229 36.7722 60.9365 36.5615 60.4502 36.3507Z" fill="#17BBB1"/>
<path fill-rule="evenodd" clip-rule="evenodd" d="M57.4298 35.1389C57.4298 34.7438 57.2861 34.2169 57.2861 33.8218C57.8609 33.8218 58.292 33.8218 58.8667 33.9535V35.4024C58.292 35.1389 57.8609 35.1389 57.4298 35.1389Z" fill="#17BBB1"/>
<path fill-rule="evenodd" clip-rule="evenodd" d="M56.1391 36.7255C55.9954 36.2846 55.8517 35.9907 55.708 35.5498C56.1391 35.4028 56.5701 35.4028 57.0012 35.4028C57.1449 35.8437 57.1449 36.2846 57.2886 36.7255C57.0012 36.5786 56.5701 36.5786 56.1391 36.7255Z" fill="#17BBB1"/>
<path fill-rule="evenodd" clip-rule="evenodd" d="M56.4518 30.6607C57.1956 30.4747 57.9394 30.2888 58.8692 30.1028C58.6832 29.1731 58.4973 28.4293 58.1254 27.4995C57.3816 27.8714 56.4518 28.0574 55.708 28.4293C55.894 28.9871 56.2659 29.7309 56.4518 30.6607Z" fill="#17BBB1"/>
<path fill-rule="evenodd" clip-rule="evenodd" d="M39.6771 57.5308C39.79 58.0171 39.79 58.3818 39.9028 58.8682C39.4513 58.9898 38.9997 59.1113 38.5481 59.1113C38.4352 58.625 38.4352 58.1387 38.3223 57.6523C38.8868 57.6523 39.2255 57.6523 39.6771 57.5308Z" fill="#17BBB1"/>
<path fill-rule="evenodd" clip-rule="evenodd" d="M39.7592 54.6326C39.7592 55.0277 39.9028 55.5546 39.9028 55.9497C39.3281 55.9497 38.897 55.9497 38.3223 55.818V54.3691C38.7533 54.5009 39.3281 54.5009 39.7592 54.6326Z" fill="#17BBB1"/>
<path fill-rule="evenodd" clip-rule="evenodd" d="M37.8232 60.6914C37.9895 61.5233 38.1559 62.3552 38.3223 63.1871C37.324 63.5198 36.4921 63.6862 35.4939 63.8526C35.3275 62.8543 35.3275 62.0224 35.1611 61.0242C35.993 61.0242 36.9913 60.8578 37.8232 60.6914Z" fill="#17BBB1"/>
<path fill-rule="evenodd" clip-rule="evenodd" d="M42.1338 60.6914C42.3197 61.3939 42.6916 62.0964 43.0635 62.9745C42.3197 63.3257 41.39 63.5013 40.6461 63.8526C40.4602 62.9745 40.0883 62.272 39.9023 61.3939C40.6461 61.2183 41.39 61.0426 42.1338 60.6914Z" fill="#17BBB1"/>
<path fill-rule="evenodd" clip-rule="evenodd" d="M47.9115 57.5308C47.2793 57.7566 46.6471 57.8695 46.2256 58.0953C46.6471 58.434 47.0686 58.7726 47.4901 59.1113C48.1223 58.8855 48.7545 58.6598 49.3868 58.434C48.9653 58.0953 48.333 57.7566 47.9115 57.5308Z" fill="#17BBB1"/>
<path fill-rule="evenodd" clip-rule="evenodd" d="M45.6162 55.9497C45.2515 56.0934 45.0083 56.2371 44.6436 56.3808C44.7651 56.8118 45.0083 57.0992 45.2515 57.5303C45.6162 57.3866 45.981 57.0992 46.2241 56.9555C45.981 56.5245 45.8594 56.2371 45.6162 55.9497Z" fill="#17BBB1"/>
<path fill-rule="evenodd" clip-rule="evenodd" d="M42.5361 55.9492C42.22 56.0809 41.7985 56.2127 41.4824 56.2127C41.5878 56.6078 41.7985 57.1347 41.9039 57.5298C42.3254 57.3981 42.6415 57.2664 43.063 57.0029C42.8523 56.7395 42.7469 56.3444 42.5361 55.9492Z" fill="#17BBB1"/>
<path fill-rule="evenodd" clip-rule="evenodd" d="M42.6319 54.3691H41.4824C41.4824 54.81 41.6261 55.2509 41.7698 55.6918C42.2009 55.6918 42.6319 55.5449 43.063 55.5449C42.9193 55.104 42.7756 54.81 42.6319 54.3691Z" fill="#17BBB1"/>
<path fill-rule="evenodd" clip-rule="evenodd" d="M36.6363 57.5308C36.6363 57.9824 36.6363 58.5468 36.7417 58.9984C36.2149 59.1113 35.688 59.1113 35.1611 59.1113V57.5308C35.688 57.5308 36.1095 57.5308 36.6363 57.5308Z" fill="#17BBB1"/>
<path fill-rule="evenodd" clip-rule="evenodd" d="M63.6133 40.5397C64.206 40.9348 64.9963 41.33 65.589 41.7251C65.9842 40.9348 66.3793 40.3421 66.7744 39.5518C65.9842 39.1567 65.3914 38.7615 64.6011 38.564C64.206 39.3543 63.8109 39.947 63.6133 40.5397Z" fill="#17BBB1"/>
<path fill-rule="evenodd" clip-rule="evenodd" d="M57.2861 38.2756C57.7268 38.4193 58.0206 38.4193 58.4613 38.563C58.4613 38.1319 58.6082 37.7009 58.6082 37.2698C58.1675 37.1261 57.7268 37.1261 57.2861 36.9824V38.2756Z" fill="#17BBB1"/>
<path fill-rule="evenodd" clip-rule="evenodd" d="M60.4502 39.6582C60.8149 39.7798 61.1797 40.023 61.666 40.1445C61.7876 39.7798 61.9092 39.2935 62.0308 38.9287C61.5444 38.8071 61.1797 38.6855 60.6934 38.564C60.5718 38.9287 60.5718 39.2935 60.4502 39.6582Z" fill="#17BBB1"/>
<path fill-rule="evenodd" clip-rule="evenodd" d="M68.3525 39.1378C69.0397 39.4251 69.5895 39.8562 70.2767 40.1436C70.6891 39.4251 71.1014 38.7067 71.5137 37.9882C70.8265 37.7009 70.1393 37.2698 69.3146 36.9824C69.0397 37.7009 68.6274 38.4193 68.3525 39.1378Z" fill="#17BBB1"/>
<path fill-rule="evenodd" clip-rule="evenodd" d="M65.1914 41.9742C65.8236 42.4733 66.2978 42.8061 66.93 43.3052C67.4042 42.6397 67.8784 42.1406 68.3526 41.4751C67.7203 40.9759 67.0881 40.6432 66.4559 40.144C65.9817 40.8096 65.5075 41.4751 65.1914 41.9742Z" fill="#17BBB1"/>
<path fill-rule="evenodd" clip-rule="evenodd" d="M63.6133 37.6859C64.3571 37.8615 65.1009 38.2128 65.8447 38.564C66.2166 37.8615 66.5885 36.9834 66.7744 36.1053C66.0306 35.9297 65.1009 35.5785 64.1711 35.4028C63.9852 36.2809 63.7992 36.9834 63.6133 37.6859Z" fill="#17BBB1"/>
<path fill-rule="evenodd" clip-rule="evenodd" d="M35.1592 49.2323C34.7641 49.825 34.5665 50.6153 34.1713 51.208C33.3811 50.8129 32.7883 50.6153 31.998 50.2202C32.3932 49.4299 32.7883 48.8372 33.1835 48.0469C33.7762 48.6396 34.5665 49.0347 35.1592 49.2323Z" fill="#17BBB1"/>
<path fill-rule="evenodd" clip-rule="evenodd" d="M38.3218 44.095C38.0344 44.3208 37.747 44.5466 37.6033 44.8853C37.316 44.6595 37.0286 44.4337 36.7412 44.095C37.0286 43.8692 37.316 43.5305 37.6033 43.3047C37.747 43.5305 38.0344 43.8692 38.3218 44.095Z" fill="#17BBB1"/>
<path fill-rule="evenodd" clip-rule="evenodd" d="M35.1636 47.8493C34.9204 48.442 34.6773 49.0348 34.5557 49.6275C34.1909 49.2323 33.8262 48.8372 33.583 48.2445C33.8262 47.6517 34.0693 47.059 34.4341 46.4663C34.5557 47.059 34.7988 47.4542 35.1636 47.8493Z" fill="#17BBB1"/>
<path fill-rule="evenodd" clip-rule="evenodd" d="M30.417 50.7765C30.1421 51.4949 29.7298 52.0697 29.4549 52.7881C28.7677 52.5007 27.9431 52.2134 27.2559 51.7823C27.6682 51.0638 28.0805 50.3454 28.4928 49.627C29.18 50.058 29.7298 50.3454 30.417 50.7765Z" fill="#17BBB1"/>
<path fill-rule="evenodd" clip-rule="evenodd" d="M33.5811 53.6667C33.4055 54.3692 33.0542 55.2473 32.8786 55.9497C32.0005 55.7741 31.298 55.5985 30.4199 55.2473C30.7712 54.3692 30.9468 53.6667 31.298 52.7886C32.1761 53.1398 32.8786 53.3154 33.5811 53.6667Z" fill="#17BBB1"/>
<path fill-rule="evenodd" clip-rule="evenodd" d="M39.6444 51.4959C39.2037 51.3522 38.9099 51.3522 38.4692 51.2085C38.4692 51.6396 38.3223 52.0706 38.3223 52.5017C38.763 52.6454 39.2037 52.6454 39.6444 52.7891C39.4975 52.358 39.4975 51.9269 39.6444 51.4959Z" fill="#17BBB1"/>
<path fill-rule="evenodd" clip-rule="evenodd" d="M36.7417 53.1273C36.2554 53.0144 35.7691 52.9015 35.4043 52.7886C35.2827 53.2402 35.2827 53.6918 35.1611 54.1434C35.6475 54.2563 36.1338 54.2563 36.7417 54.3692C36.6201 53.9176 36.7417 53.466 36.7417 53.1273Z" fill="#17BBB1"/>
<path fill-rule="evenodd" clip-rule="evenodd" d="M36.7417 50.1133C36.377 49.9917 35.8906 49.7485 35.5259 49.627C35.4043 49.9917 35.2827 50.478 35.1611 50.8428C35.6475 50.9644 36.0122 51.086 36.4985 51.2075C36.4985 50.9644 36.6201 50.478 36.7417 50.1133Z" fill="#17BBB1"/>
<path fill-rule="evenodd" clip-rule="evenodd" d="M38.3218 48.6548C38.0344 48.4116 37.6033 48.29 37.316 48.0469C37.1723 48.4116 36.8849 48.6548 36.7412 49.0195C37.1723 49.2627 37.4597 49.3843 37.8907 49.6275C38.0344 49.3843 38.1781 49.0195 38.3218 48.6548Z" fill="#17BBB1"/>
<path fill-rule="evenodd" clip-rule="evenodd" d="M31.9991 47.7973C31.6663 48.4628 31.1672 48.962 30.8344 49.6275C30.1689 49.2947 29.5034 48.7956 28.8379 48.2965C29.337 47.6309 29.8362 46.9654 30.3353 46.4663C30.668 46.9654 31.3335 47.2982 31.9991 47.7973Z" fill="#17BBB1"/>
<path fill-rule="evenodd" clip-rule="evenodd" d="M63.6133 49.2323C64.0084 49.825 64.206 50.6153 64.6011 51.208C65.3914 50.8129 65.9842 50.6153 66.7744 50.2202C66.3793 49.4299 65.9842 48.8372 65.589 48.0469C64.7987 48.6396 64.206 48.8372 63.6133 49.2323Z" fill="#17BBB1"/>
<path fill-rule="evenodd" clip-rule="evenodd" d="M62.0293 43.5028C62.2725 43.8979 62.6372 44.2931 62.8804 44.8858C63.1235 44.2931 63.3667 43.7003 63.6099 43.1076C63.2451 42.7125 63.002 42.3173 62.6372 41.7246C62.5156 42.3173 62.2725 42.91 62.0293 43.5028Z" fill="#17BBB1"/>
<path fill-rule="evenodd" clip-rule="evenodd" d="M60.4502 44.095C60.7376 44.3208 61.025 44.5466 61.1686 44.8853C61.456 44.6595 61.7434 44.4337 62.0308 44.095C61.7434 43.8692 61.456 43.6434 61.1686 43.3047C61.025 43.5305 60.7376 43.8692 60.4502 44.095Z" fill="#17BBB1"/>
<path fill-rule="evenodd" clip-rule="evenodd" d="M63.6133 44.8853C64.1711 45.4121 64.543 45.939 65.1009 46.4659C65.6587 45.939 66.2166 45.4121 66.7744 44.8853C66.2166 44.3584 65.6587 43.8315 65.1009 43.3047C64.729 43.8315 64.1711 44.3584 63.6133 44.8853Z" fill="#17BBB1"/>
<path fill-rule="evenodd" clip-rule="evenodd" d="M62.0293 47.8493C62.2725 48.442 62.5156 49.0348 62.6372 49.6275C63.002 49.2323 63.3667 48.8372 63.6099 48.2445C63.3667 47.6517 63.1236 47.059 62.7588 46.4663C62.6372 47.059 62.2725 47.4542 62.0293 47.8493Z" fill="#17BBB1"/>
<path fill-rule="evenodd" clip-rule="evenodd" d="M68.3525 50.7765C68.6274 51.4949 69.0397 52.0697 69.3146 52.7881C70.0018 52.5007 70.8265 52.2134 71.5137 51.7823C71.1014 51.0638 70.6891 50.3454 70.2767 49.627C69.5895 50.058 69.0397 50.4891 68.3525 50.7765Z" fill="#17BBB1"/>
<path fill-rule="evenodd" clip-rule="evenodd" d="M58.8701 41.1978C59.1639 41.3295 59.6046 41.5929 59.8984 41.7246C60.0453 41.3295 60.1922 40.9343 60.3391 40.6709C59.8984 40.5392 59.6046 40.2758 59.1639 40.144C59.1639 40.4075 59.017 40.8026 58.8701 41.1978Z" fill="#17BBB1"/>
<path fill-rule="evenodd" clip-rule="evenodd" d="M65.1914 52.0866C65.367 52.7891 65.7183 53.4916 65.8939 54.3697C66.772 54.194 67.4745 54.0184 68.3526 53.6672C68.0013 52.7891 67.8257 52.0866 67.4745 51.2085C66.5964 51.5597 65.8939 51.911 65.1914 52.0866Z" fill="#17BBB1"/>
<path fill-rule="evenodd" clip-rule="evenodd" d="M65.1914 47.7973C65.6905 48.4628 66.0233 48.962 66.356 49.6275C67.0216 49.2947 67.6871 48.7956 68.3526 48.2965C67.8534 47.6309 67.3543 47.1318 66.8552 46.4663C66.356 46.9654 65.8569 47.4646 65.1914 47.7973Z" fill="#17BBB1"/>
<path fill-rule="evenodd" clip-rule="evenodd" d="M35.1592 40.5397C34.5665 40.9348 33.7762 41.33 33.1835 41.7251C32.7883 41.1324 32.3932 40.3421 31.998 39.5518C32.7883 39.1567 33.3811 38.7615 34.1713 38.564C34.5665 39.1567 34.9616 39.7494 35.1592 40.5397Z" fill="#17BBB1"/>
<path fill-rule="evenodd" clip-rule="evenodd" d="M30.417 38.9941C29.7298 39.2815 29.18 39.7125 28.4928 40.1436C28.0805 39.4251 27.6682 38.7067 27.2559 37.9882C27.9431 37.5572 28.6303 37.2698 29.4549 36.9824C29.7298 37.7009 30.1421 38.4193 30.417 38.9941Z" fill="#17BBB1"/>
<path fill-rule="evenodd" clip-rule="evenodd" d="M31.9991 41.9742C31.3668 42.4733 30.8926 42.8061 30.2604 43.3052C29.7862 42.6397 29.3121 42.1406 28.8379 41.4751C29.4701 40.9759 30.1024 40.4768 30.7346 40.144C31.2088 40.6432 31.5249 41.3087 31.9991 41.9742Z" fill="#17BBB1"/>
<path fill-rule="evenodd" clip-rule="evenodd" d="M35.1592 44.8853C34.6014 44.3584 34.2295 43.8315 33.6716 43.3047C33.1138 43.8315 32.5559 44.3584 31.998 44.8853C32.5559 45.4121 33.1138 45.939 33.6716 46.4659C34.2295 45.939 34.6014 45.4121 35.1592 44.8853Z" fill="#17BBB1"/>
<path fill-rule="evenodd" clip-rule="evenodd" d="M35.1636 43.5028C34.9204 42.91 34.6773 42.3173 34.5557 41.7246C34.1909 42.1198 33.8262 42.5149 33.583 43.1076C33.8262 43.7003 34.0693 44.2931 34.4341 44.8858C34.6773 44.4906 34.9204 44.0955 35.1636 43.5028Z" fill="#17BBB1"/>
<path fill-rule="evenodd" clip-rule="evenodd" d="M33.5811 37.6859C32.8373 37.8615 32.0935 38.2128 31.3497 38.564C30.9778 37.8615 30.6059 36.9834 30.4199 36.1053C31.1637 35.9297 32.0935 35.5785 33.0232 35.4028C33.2092 36.1053 33.3951 36.9834 33.5811 37.6859Z" fill="#17BBB1"/>
<path fill-rule="evenodd" clip-rule="evenodd" d="M57.5293 57.5308C57.4077 58.0171 57.4077 58.3818 57.2861 58.8682C57.7725 58.9898 58.2588 59.1113 58.7451 59.1113C58.8667 58.625 58.8667 58.1387 58.8667 57.6523C58.502 57.6523 58.0156 57.6523 57.5293 57.5308Z" fill="#17BBB1"/>
<path fill-rule="evenodd" clip-rule="evenodd" d="M60.4502 50.1133C60.5819 50.478 60.5819 50.8428 60.7136 51.2075C61.1088 51.086 61.6356 50.9644 62.0308 50.8428C61.8991 50.478 61.7673 49.9917 61.6356 49.627C61.2405 49.7485 60.8453 49.8701 60.4502 50.1133Z" fill="#17BBB1"/>
<path fill-rule="evenodd" clip-rule="evenodd" d="M58.8701 51.6396V52.7891C59.3108 52.6454 59.7515 52.6454 60.1922 52.5017C60.1922 52.0706 60.0453 51.6396 60.0453 51.2085C59.7515 51.4959 59.3108 51.4959 58.8701 51.6396Z" fill="#17BBB1"/>
<path fill-rule="evenodd" clip-rule="evenodd" d="M60.4502 53.4208C60.4502 54.2638 60.5718 55.1068 60.5718 55.9497C61.0581 55.739 61.5444 55.739 62.0308 55.5283C61.9092 54.6853 61.9092 53.8423 61.7876 52.7886C61.3013 52.9993 60.9365 53.2101 60.4502 53.4208Z" fill="#17BBB1"/>
<path fill-rule="evenodd" clip-rule="evenodd" d="M57.4298 54.6326C57.4298 55.0277 57.4298 55.5546 57.2861 55.9497C57.8609 55.9497 58.292 55.9497 58.8667 55.818V54.3691C58.4356 54.5009 58.0046 54.6326 57.4298 54.6326Z" fill="#17BBB1"/>
<path fill-rule="evenodd" clip-rule="evenodd" d="M60.9493 60.6914C60.7829 61.5233 60.6166 62.3552 60.4502 63.1871C61.4485 63.3534 62.2803 63.6862 63.2786 63.8526C63.445 62.8543 63.445 62.0224 63.6114 61.0242C62.6131 60.8578 61.7812 60.8578 60.9493 60.6914Z" fill="#17BBB1"/>
<path fill-rule="evenodd" clip-rule="evenodd" d="M58.8701 48.6548C59.0138 49.0195 59.1575 49.2627 59.3012 49.6275C59.7323 49.5059 60.0196 49.2627 60.4507 49.0195C60.307 48.6548 60.0196 48.4116 59.8759 48.0469C59.5886 48.29 59.1575 48.5332 58.8701 48.6548Z" fill="#17BBB1"/>
<path fill-rule="evenodd" clip-rule="evenodd" d="M56.4518 60.6914C56.2659 61.3939 55.894 62.0964 55.708 62.9745C56.4518 63.3257 57.3816 63.5013 58.1254 63.8526C58.3113 62.9745 58.6832 62.272 58.8692 61.3939C57.9394 61.0426 57.1956 60.867 56.4518 60.6914Z" fill="#17BBB1"/>
<path fill-rule="evenodd" clip-rule="evenodd" d="M50.1243 57.5308C50.4404 57.7566 50.7566 57.8695 50.9673 58.0953C50.7566 58.434 50.5458 58.7726 50.3351 59.1113C50.019 58.8855 49.7028 58.6598 49.3867 58.434C49.7028 58.0953 49.9136 57.7566 50.1243 57.5308Z" fill="#17BBB1"/>
<path fill-rule="evenodd" clip-rule="evenodd" d="M51.4937 55.9497C51.8888 56.0934 52.1522 56.2371 52.5474 56.3808C52.4157 56.8118 52.1522 57.0992 52.0205 57.5303C51.6254 57.3866 51.2302 57.2429 50.9668 56.9555C51.0985 56.6682 51.3619 56.3808 51.4937 55.9497Z" fill="#17BBB1"/>
<path fill-rule="evenodd" clip-rule="evenodd" d="M53.6626 59.1113C54.4064 59.3221 54.9642 59.4274 55.708 59.5328C55.3361 59.9543 54.9642 60.3758 54.5923 60.6919C53.8485 60.4812 53.1047 60.2704 52.5469 60.0597C52.9188 59.7436 53.2907 59.4274 53.6626 59.1113Z" fill="#17BBB1"/>
<path fill-rule="evenodd" clip-rule="evenodd" d="M54.6558 55.9492C54.9719 56.0809 55.3934 56.2127 55.7095 56.2127C55.6041 56.6078 55.4987 57.1347 55.288 57.5298C54.8665 57.3981 54.5504 57.2664 54.1289 57.1347C54.3397 56.7395 54.5504 56.3444 54.6558 55.9492Z" fill="#17BBB1"/>
<path fill-rule="evenodd" clip-rule="evenodd" d="M48.5352 55.9492C48.7783 56.2366 49.0215 56.524 49.3862 56.6677C49.1431 56.955 48.8999 57.2424 48.5352 57.5298C48.292 57.2424 48.0488 56.955 47.8057 56.6677C48.0488 56.524 48.292 56.2366 48.5352 55.9492Z" fill="#17BBB1"/>
<path fill-rule="evenodd" clip-rule="evenodd" d="M56.1391 54.3691H57.2886C57.2886 54.81 57.1449 55.2509 57.0012 55.6918C56.5701 55.6918 56.1391 55.5449 55.708 55.5449C55.8517 55.2509 55.9954 54.81 56.1391 54.3691Z" fill="#17BBB1"/>
<path fill-rule="evenodd" clip-rule="evenodd" d="M60.5556 57.5308C60.5556 57.9824 60.5556 58.5468 60.4502 58.9984C60.9771 58.9984 61.5039 59.1113 62.0308 59.1113C62.0308 58.5469 62.0308 58.0953 61.9254 57.5308C61.5039 57.5308 60.9771 57.5308 60.5556 57.5308Z" fill="#17BBB1"/>
<path fill-rule="evenodd" clip-rule="evenodd" d="M39.6597 32.2407C39.1733 32.1192 38.8086 32.1192 38.3223 32.1192C38.3223 31.6328 38.4438 31.1465 38.4438 30.6602C38.9302 30.7817 39.4165 30.7817 39.9028 30.9033C39.9028 31.3897 39.7813 31.7544 39.6597 32.2407Z" fill="#17BBB1"/>
<path fill-rule="evenodd" clip-rule="evenodd" d="M47.0686 32.2407C46.7524 32.0149 46.4363 31.902 46.2256 31.6762C46.4363 31.3375 46.6471 30.9989 46.8578 30.6602C47.1739 30.886 47.4901 31.1118 47.8062 31.3375C47.5954 31.5633 47.2793 31.902 47.0686 32.2407Z" fill="#17BBB1"/>
<path fill-rule="evenodd" clip-rule="evenodd" d="M45.6973 33.8228C45.3021 33.6791 45.0387 33.5354 44.6436 33.3917C44.7753 32.9606 45.0387 32.6733 45.1704 32.2422C45.5656 32.3859 45.9607 32.5296 46.2241 32.8169C46.0924 33.1043 45.9607 33.5354 45.6973 33.8228Z" fill="#17BBB1"/>
<path fill-rule="evenodd" clip-rule="evenodd" d="M45.1089 30.6602C44.3651 30.4494 43.8073 30.3441 43.0635 30.2387C43.4354 29.8172 43.8073 29.3957 44.1792 29.0796C44.923 29.2903 45.6668 29.5011 46.2246 29.7118C45.6668 29.9226 45.2949 30.2387 45.1089 30.6602Z" fill="#17BBB1"/>
<path fill-rule="evenodd" clip-rule="evenodd" d="M42.5361 33.8218C42.22 33.6901 41.7985 33.5584 41.4824 33.5584C41.5878 33.1632 41.6932 32.6364 41.9039 32.2412C42.3254 32.3729 42.6415 32.5046 43.063 32.6364C42.7469 33.0315 42.6415 33.4266 42.5361 33.8218Z" fill="#17BBB1"/>
<path fill-rule="evenodd" clip-rule="evenodd" d="M37.8232 29.0791C36.9913 28.9128 36.1594 28.9128 35.1611 28.7464C35.1611 27.7481 35.3275 26.9162 35.4939 25.918C36.4921 26.0843 37.324 26.2507 38.3223 26.5835C37.9895 27.249 37.8232 28.0809 37.8232 29.0791Z" fill="#17BBB1"/>
<path fill-rule="evenodd" clip-rule="evenodd" d="M48.6567 33.8218C48.4136 33.5344 48.1704 33.247 47.8057 33.1033C48.0488 32.816 48.292 32.5286 48.6567 32.2412C48.8999 32.5286 49.1431 32.816 49.3862 33.1033C49.2647 33.3907 49.0215 33.5344 48.6567 33.8218Z" fill="#17BBB1"/>
<path fill-rule="evenodd" clip-rule="evenodd" d="M36.6363 32.2407H35.2665C35.2665 31.6762 35.1611 31.2247 35.1611 30.6602C35.688 30.6602 36.2149 30.6602 36.7417 30.7731C36.6363 31.3375 36.6363 31.7891 36.6363 32.2407Z" fill="#17BBB1"/>
<path fill-rule="evenodd" clip-rule="evenodd" d="M36.7417 39.6577C36.61 39.293 36.61 38.9282 36.4783 38.5635C36.0831 38.6851 35.5563 38.8066 35.1611 38.9282C35.2928 39.293 35.4246 39.7793 35.5563 40.1441C35.9514 39.9009 36.3466 39.7793 36.7417 39.6577Z" fill="#17BBB1"/>
<path fill-rule="evenodd" clip-rule="evenodd" d="M39.6444 38.1319V36.9824C39.2037 37.1261 38.763 37.1261 38.3223 37.2698C38.3223 37.7009 38.4692 38.1319 38.4692 38.563C38.9099 38.4193 39.3506 38.2756 39.6444 38.1319Z" fill="#17BBB1"/>
<path fill-rule="evenodd" clip-rule="evenodd" d="M36.7417 36.6673C36.7417 36.2458 36.6201 35.8243 36.6201 35.4028C36.1338 35.5082 35.6475 35.5082 35.1611 35.6136C35.2827 36.0351 35.2827 36.4566 35.4043 36.9834C35.7691 36.878 36.2554 36.7727 36.7417 36.6673Z" fill="#17BBB1"/>
<path fill-rule="evenodd" clip-rule="evenodd" d="M39.7592 35.1389C39.7592 34.7438 39.7592 34.2169 39.9028 33.8218C39.3281 33.8218 38.897 33.8218 38.3223 33.9535V35.4024C38.897 35.2706 39.3281 35.2706 39.7592 35.1389Z" fill="#17BBB1"/>
<path fill-rule="evenodd" clip-rule="evenodd" d="M38.3218 41.1167C38.1781 40.752 38.0344 40.5088 37.8907 40.144C37.4597 40.2656 37.1723 40.5088 36.7412 40.752C36.8849 41.1167 37.1723 41.3599 37.316 41.7246C37.6033 41.4815 37.8907 41.3599 38.3218 41.1167Z" fill="#17BBB1"/>
<path fill-rule="evenodd" clip-rule="evenodd" d="M42.7756 36.7255C42.9193 36.2846 43.063 35.9907 43.063 35.5498C42.6319 35.5498 42.2009 35.4028 41.7698 35.4028C41.6261 35.8437 41.6261 36.2846 41.4824 36.7255C41.9135 36.7255 42.3446 36.7255 42.7756 36.7255Z" fill="#17BBB1"/>
<path fill-rule="evenodd" clip-rule="evenodd" d="M42.3197 30.6607C41.5759 30.4747 40.8321 30.2888 39.9023 30.1028C40.0883 29.1731 40.2742 28.4293 40.6461 27.4995C41.39 27.6855 42.3197 28.0574 43.0635 28.4293C42.8776 29.1731 42.5057 29.9169 42.3197 30.6607Z" fill="#17BBB1"/>
<path fill-rule="evenodd" clip-rule="evenodd" d="M0.387695 90.386V83.1556H1.34064V86.8549L4.83476 83.1556H6.10535L2.92888 86.1823L5.94653 90.5541H4.67594L2.29358 86.8549L1.18181 88.0319V90.5541H0.387695V90.386ZM125.064 90.386L127.764 83.1556H128.717L131.576 90.386H130.464L129.67 88.2H126.811L126.017 90.386H125.064ZM126.97 87.5275H129.353L128.558 85.5097C128.4 84.8371 128.241 84.3327 128.082 83.9964C127.923 84.5008 127.923 85.0053 127.764 85.3415L126.97 87.5275ZM123.317 83.1556H124.27V90.386H123.317V83.1556ZM116.647 90.386V83.1556H119.188C119.664 83.1556 120.141 83.1556 120.458 83.3238C120.776 83.4919 121.094 83.6601 121.253 83.9964C121.411 84.3327 121.57 84.669 121.57 85.0053C121.57 85.3415 121.57 85.6778 121.253 85.846C121.094 86.1823 120.776 86.3504 120.458 86.5186C120.935 86.6867 121.253 86.8549 121.411 87.1912C121.57 87.5275 121.729 87.8638 121.729 88.3682C121.729 88.7045 121.729 89.0408 121.57 89.3771C121.411 89.7134 121.253 89.8815 121.094 90.0497C120.935 90.2178 120.617 90.386 120.3 90.386C119.982 90.386 119.664 90.5541 119.188 90.5541H116.647V90.386ZM117.6 86.1823H119.029C119.506 86.1823 119.664 86.1823 119.823 86.0141C119.982 86.0141 120.3 85.846 120.3 85.6778C120.458 85.5097 120.458 85.3415 120.458 85.0053C120.458 84.8371 120.458 84.5008 120.3 84.3327C120.141 84.1645 119.982 83.9964 119.823 83.9964C119.664 83.9964 119.347 83.8282 118.711 83.8282H117.282V86.1823H117.6ZM117.6 89.5452H119.347H119.982C120.141 89.5452 120.3 89.3771 120.458 89.3771C120.617 89.2089 120.776 89.2089 120.776 89.0408C120.935 88.8726 120.935 88.7045 120.935 88.3682C120.935 88.0319 120.935 87.8638 120.776 87.6956C120.617 87.5275 120.458 87.3593 120.3 87.1912C120.141 87.1912 119.664 87.023 119.347 87.023H117.758V89.5452H117.6ZM109.5 90.386L112.2 83.1556H113.153L116.011 90.386H114.9L114.106 88.2H111.247L110.453 90.386H109.5ZM111.406 87.5275H113.788L112.994 85.5097C112.835 84.8371 112.676 84.3327 112.517 83.9964C112.358 84.5008 112.358 85.0053 112.2 85.3415L111.406 87.5275ZM103.306 90.386V83.1556H106.323C106.958 83.1556 107.435 83.1556 107.753 83.3238C108.07 83.4919 108.388 83.6601 108.547 83.9964C108.706 84.3327 108.864 84.669 108.864 85.1734C108.864 85.6778 108.706 86.1823 108.388 86.5186C108.07 86.8549 107.594 87.023 106.958 87.1912C107.276 87.3593 107.435 87.3593 107.435 87.5275C107.753 87.8637 107.911 88.0319 108.229 88.5363L109.5 90.5541H108.388L107.435 89.0408C107.117 88.5363 106.958 88.2 106.8 88.0319C106.641 87.8637 106.482 87.6956 106.323 87.5275C106.164 87.3593 106.006 87.3593 105.847 87.3593H105.37H104.258V90.5541H103.306V90.386ZM104.258 86.3504H106.164C106.641 86.3504 106.958 86.3504 107.117 86.1823C107.276 86.0141 107.594 86.0141 107.594 85.6778C107.753 85.5097 107.753 85.3415 107.753 85.0053C107.753 84.669 107.594 84.3327 107.435 84.1645C107.276 83.9964 106.8 83.8282 106.323 83.8282H104.1V86.3504H104.258ZM96.1584 90.386L98.8584 83.1556H99.8114L102.67 90.386H101.558L100.764 88.2H97.9055L97.1114 90.386H96.1584ZM98.0643 87.5275H100.447L99.6526 85.5097C99.4937 84.8371 99.3349 84.3327 99.1761 83.9964C99.0173 84.5008 99.0173 85.0053 98.8584 85.3415L98.0643 87.5275ZM92.1878 83.1556H93.1408V90.386H92.1878V83.1556ZM85.0408 90.386V83.1556H87.4231C87.8996 83.1556 88.3761 83.1556 88.6937 83.3238C89.0114 83.4919 89.4878 83.6601 89.6467 83.8282C89.9643 84.1645 90.282 84.5008 90.4408 85.0053C90.5996 85.5097 90.7584 86.0141 90.7584 86.6867C90.7584 87.1912 90.7584 87.6956 90.5996 88.2C90.4408 88.7045 90.282 89.0408 90.1231 89.2089C89.9643 89.5452 89.6467 89.7134 89.4878 89.8815C89.329 90.0497 89.0114 90.2178 88.6937 90.2178C88.3761 90.2178 88.0584 90.386 87.582 90.386H85.0408ZM85.9937 89.5452H87.4231C87.8996 89.5452 88.2172 89.5452 88.5349 89.3771C88.8525 89.2089 89.0114 89.2089 89.1702 89.0408C89.329 88.8726 89.4878 88.5363 89.6467 88.0319C89.8055 87.6956 89.8055 87.1912 89.8055 86.6867C89.8055 85.846 89.6467 85.3415 89.4878 85.0053C89.329 84.669 89.0114 84.3327 88.6937 84.1645C88.3761 83.9964 88.0584 83.9964 87.582 83.9964H86.1525V89.5452H85.9937ZM82.6584 83.1556H83.6114V87.3593C83.6114 88.0319 83.6114 88.7045 83.4525 89.0408C83.2937 89.5452 82.9761 89.8815 82.6584 90.0497C82.1819 90.386 81.7055 90.386 81.0702 90.386C80.4349 90.386 79.9584 90.2178 79.4819 90.0497C79.0055 89.8815 78.8466 89.5452 78.529 89.0408C78.3702 88.5363 78.2113 88.0319 78.2113 87.1912V82.9875H79.1643V87.1912C79.1643 87.8638 79.1643 88.3682 79.3231 88.5363C79.4819 88.8726 79.6408 89.0408 79.9584 89.2089C80.2761 89.3771 80.5937 89.3771 80.9114 89.3771C81.5467 89.3771 82.0231 89.2089 82.3408 88.8726C82.6584 88.5363 82.8172 87.8637 82.8172 87.023V83.1556H82.6584ZM70.9055 90.386L73.6055 83.1556H74.5584L77.4172 90.386H76.3055L75.5113 88.2H72.6525L71.8584 90.386H70.9055ZM72.8113 87.5275H75.1937L74.3996 85.5097C74.2408 84.8371 74.0819 84.3327 73.9231 83.9964C73.7643 84.5008 73.7643 85.0053 73.6055 85.3415L72.8113 87.5275ZM64.8702 88.0319H65.6643C65.6643 88.3682 65.8231 88.7045 65.9819 88.8726C66.1407 89.0408 66.2996 89.3771 66.6172 89.3771C66.9349 89.5452 67.2525 89.5452 67.729 89.5452C68.0466 89.5452 68.3643 89.5452 68.6819 89.3771C68.9996 89.2089 69.1584 89.0408 69.3172 88.8726C69.476 88.7045 69.476 88.5363 69.476 88.2C69.476 88.0319 69.476 87.6956 69.3172 87.5275C69.1584 87.3593 68.9996 87.1912 68.6819 87.023C68.5231 87.023 68.0466 86.8549 67.4113 86.6867C66.776 86.5186 66.2996 86.3504 66.1407 86.1823C65.8231 86.0141 65.5054 85.846 65.3466 85.5097C65.1878 85.1734 65.029 85.0052 65.029 84.669C65.029 84.3327 65.1878 83.9964 65.3466 83.6601C65.5054 83.3238 65.8231 83.1556 66.1407 82.9875C66.4584 82.8193 66.9349 82.8193 67.4113 82.8193C67.8878 82.8193 68.3643 82.9875 68.8407 83.1556C69.1584 83.3238 69.476 83.6601 69.7937 83.9964C69.9525 84.3327 70.1113 84.669 70.1113 85.1734H69.1584C69.1584 84.669 68.9996 84.3327 68.6819 84.1645C68.3643 83.9964 68.0466 83.8282 67.4113 83.8282C66.9349 83.8282 66.4584 83.9964 66.1407 84.1645C65.8231 84.3327 65.8231 84.669 65.8231 85.0053C65.8231 85.3415 65.9819 85.5097 66.1407 85.6778C66.2996 85.846 66.776 86.0141 67.5702 86.1823C68.3643 86.3504 68.8407 86.5186 69.1584 86.6867C69.6349 86.8549 69.7937 87.1912 70.1113 87.3593C70.2702 87.6956 70.429 88.0319 70.429 88.3682C70.429 88.7045 70.2702 89.0408 70.1113 89.5452C69.9525 89.8815 69.6349 90.2178 69.1584 90.386C68.8407 90.5541 68.3643 90.7223 67.8878 90.7223C67.2525 90.7223 66.776 90.5541 66.2996 90.386C65.8231 90.2178 65.5054 89.8815 65.3466 89.5452C65.029 89.0408 64.8702 88.5363 64.8702 88.0319ZM56.6113 90.386V83.1556H61.2172V83.9964H57.4054V86.1823H60.5819V87.023H57.4054V90.386H56.6113ZM48.8289 86.8549C48.8289 85.6778 49.1466 84.669 49.7819 83.9964C50.4172 83.3238 51.2113 82.9875 52.1642 82.9875C52.7995 82.9875 53.4348 83.1556 53.9113 83.4919C54.3878 83.8282 54.8643 84.3327 55.0231 84.8371C55.3407 85.3415 55.4995 86.0141 55.4995 86.8549C55.4995 87.5275 55.3407 88.2 55.0231 88.8726C54.7054 89.3771 54.3878 89.8815 53.7525 90.2178C53.276 90.5541 52.6407 90.7223 52.0054 90.7223C51.3701 90.7223 50.7348 90.5541 50.2584 90.2178C49.7819 89.8815 49.3054 89.3771 49.1466 88.8726C48.9878 88.2 48.8289 87.5275 48.8289 86.8549ZM49.7819 86.8549C49.7819 87.6956 49.9407 88.3682 50.4172 88.8726C50.8937 89.3771 51.3701 89.7134 52.1642 89.7134C52.7995 89.7134 53.4348 89.3771 53.9113 88.8726C54.3878 88.3682 54.5466 87.6956 54.5466 86.6867C54.5466 86.0141 54.3878 85.5097 54.229 85.1734C54.0701 84.669 53.7525 84.3327 53.4348 84.1645C53.1172 83.9964 52.6407 83.8282 52.1642 83.8282C51.529 83.8282 50.8937 83.9964 50.4172 84.5008C50.0995 85.0053 49.7819 85.846 49.7819 86.8549ZM38.3466 90.386V83.1556H39.776L41.3642 88.3682C41.5231 88.8726 41.6819 89.2089 41.6819 89.3771C41.6819 89.0408 41.8407 88.7045 41.9995 88.2L43.5878 83.1556H44.8584V90.386H43.9054V84.3327L41.8407 90.386H41.0466L38.9819 84.1645V90.386H38.3466ZM30.5642 86.8549C30.5642 85.6778 30.8819 84.669 31.5172 83.9964C32.1525 83.3238 32.9466 82.9875 33.8995 82.9875C34.5348 82.9875 35.1701 83.1556 35.6466 83.4919C36.123 83.8282 36.5995 84.3327 36.7583 84.8371C37.076 85.3415 37.2348 86.0141 37.2348 86.8549C37.2348 87.5275 37.076 88.2 36.7583 88.8726C36.4407 89.3771 36.123 89.8815 35.4878 90.2178C35.0113 90.5541 34.376 90.7223 33.7407 90.7223C33.1054 90.7223 32.4701 90.5541 31.9936 90.2178C31.5172 89.8815 31.0407 89.3771 30.8819 88.8726C30.723 88.2 30.5642 87.5275 30.5642 86.8549ZM31.5172 86.8549C31.5172 87.6956 31.676 88.3682 32.1525 88.8726C32.6289 89.3771 33.1054 89.7134 33.8995 89.7134C34.5348 89.7134 35.1701 89.3771 35.6466 88.8726C36.123 88.3682 36.2819 87.6956 36.2819 86.6867C36.2819 86.0141 36.123 85.5097 35.9642 85.1734C35.8054 84.669 35.4878 84.3327 35.1701 84.1645C34.8525 83.9964 34.376 83.8282 33.8995 83.8282C33.2642 83.8282 32.6289 83.9964 32.1525 84.5008C31.8348 85.0053 31.5172 85.846 31.5172 86.8549ZM23.8936 90.386V83.1556H26.276C26.7524 83.1556 27.2289 83.1556 27.5466 83.3238C27.8642 83.4919 28.3407 83.6601 28.4995 83.8282C28.8172 84.1645 29.1348 84.5008 29.2936 85.0053C29.4524 85.5097 29.6113 86.0141 29.6113 86.6867C29.6113 87.1912 29.6113 87.6956 29.4524 88.2C29.2936 88.7045 29.1348 89.0408 28.976 89.2089C28.8172 89.5452 28.4995 89.7134 28.3407 89.8815C28.1819 90.0497 27.8642 90.2178 27.5466 90.2178C27.2289 90.2178 26.9113 90.386 26.4348 90.386H23.8936ZM24.8466 89.5452H26.276C26.7524 89.5452 27.0701 89.5452 27.3877 89.3771C27.7054 89.2089 27.8642 89.2089 28.023 89.0408C28.1819 88.8726 28.3407 88.5363 28.4995 88.0319C28.6583 87.6956 28.6583 87.1912 28.6583 86.6867C28.6583 85.846 28.4995 85.3415 28.3407 85.0053C28.1819 84.669 27.8642 84.3327 27.5466 84.1645C27.2289 83.9964 26.9113 83.9964 26.4348 83.9964H25.0054V89.5452H24.8466ZM19.6054 87.5275V86.6867H22.4642V89.3771C21.9877 89.7134 21.5113 90.0497 21.0348 90.2178C20.5583 90.386 20.0818 90.5541 19.6054 90.5541C18.9701 90.5541 18.3348 90.386 17.6995 90.0497C17.223 89.7134 16.7465 89.3771 16.4289 88.7045C16.1112 88.2 15.9524 87.5275 15.9524 86.6867C15.9524 86.0141 16.1112 85.3415 16.4289 84.669C16.7465 83.9964 17.0642 83.6601 17.6995 83.3238C18.176 82.9875 18.8113 82.8193 19.4465 82.8193C19.923 82.8193 20.3995 82.9875 20.876 83.1556C21.3524 83.3238 21.6701 83.4919 21.8289 83.8282C21.9877 84.1645 22.3054 84.5008 22.3054 85.0053L21.5113 85.1734C21.3524 84.8371 21.3524 84.5008 21.1936 84.3327C21.0348 84.1645 20.876 83.9964 20.5583 83.8282C20.2407 83.6601 19.923 83.6601 19.6054 83.6601C19.1289 83.6601 18.8113 83.6601 18.4936 83.8282C18.176 83.9964 18.0171 84.1645 17.6995 84.3327C17.5407 84.5008 17.3818 84.8371 17.223 85.0053C17.0642 85.5097 16.9054 86.0141 16.9054 86.5186C16.9054 87.1912 17.0642 87.6956 17.223 88.2C17.3818 88.7045 17.6995 89.0408 18.176 89.2089C18.6524 89.3771 18.9701 89.5452 19.4465 89.5452C19.7642 89.5452 20.2407 89.5452 20.5583 89.3771C20.876 89.2089 21.1936 89.0408 21.3524 88.8726V87.5275H19.6054ZM9.44065 90.386V83.1556H10.3936L14.0465 88.8726V83.1556H14.9995V90.386H14.0465L10.3936 84.669V90.386H9.44065ZM6.89947 83.1556H7.85241V90.386H6.89947V83.1556Z" fill="#3F4254"/>
<path fill-rule="evenodd" clip-rule="evenodd" d="M49.3858 35.4028C49.5494 35.7196 49.8764 36.353 49.8764 36.8281C49.8764 36.8281 50.8574 35.2445 52.8195 36.5114C52.8195 36.5114 51.1844 36.353 50.6939 37.1448C50.6939 37.1448 53.3101 36.5114 53.8006 38.8868C53.8006 38.8868 52.656 37.6199 51.5115 37.7783C51.5115 37.7783 53.9641 38.5701 53.3101 41.1039C53.3101 41.1039 53.1465 38.8868 51.348 38.5701C51.348 38.5701 52.983 39.837 52.329 42.3708C52.329 42.3708 52.329 40.4705 51.1844 39.6787C51.1844 39.6787 52.002 41.579 50.6939 43.321C50.6939 43.321 51.3479 41.1039 50.2034 40.3121C50.2034 40.3121 49.7129 39.9954 49.7129 40.7872C49.7129 40.7872 49.5494 45.3798 49.8764 47.7552C49.8764 47.7552 54.6181 43.7961 58.8694 46.4883C58.8694 46.4883 54.7816 44.5879 50.0399 48.8638L53.1465 51.556C53.3101 51.3976 53.4736 51.2392 53.8006 51.2392C54.2911 51.2392 54.6181 51.556 54.6181 52.031C54.6181 52.9812 53.1465 52.9812 52.656 52.3478L49.3858 49.3389L46.1157 52.3478C45.6251 52.9812 44.1536 52.9812 44.1536 52.031C44.1536 51.556 44.4806 51.2392 44.9711 51.2392C45.2981 51.2392 45.4616 51.3976 45.6251 51.556L48.7318 48.8638C43.9901 44.5879 39.9023 46.4883 39.9023 46.4883C43.9901 43.7961 48.8953 47.7552 48.8953 47.7552C49.0588 45.5381 49.0588 40.7872 49.0588 40.7872C49.0588 39.9954 48.5683 40.3121 48.5683 40.3121C47.4237 41.1039 48.0778 43.321 48.0778 43.321C46.7697 41.579 47.5873 39.6787 47.5873 39.6787C46.4427 40.6288 46.4427 42.3708 46.4427 42.3708C45.7887 39.837 47.4237 38.5701 47.4237 38.5701C45.7887 38.8868 45.4616 41.1039 45.4616 41.1039C44.8076 38.5701 47.2602 37.7783 47.2602 37.7783C46.1157 37.6199 44.9711 38.8868 44.9711 38.8868C45.4616 36.5114 48.0778 37.1448 48.0778 37.1448C47.7508 36.353 45.9522 36.5114 45.9522 36.5114C47.9143 35.2445 48.8953 36.8281 48.8953 36.8281C48.8953 36.353 49.2223 35.7196 49.3858 35.4028Z" fill="#17BBB1"/>
<path fill-rule="evenodd" clip-rule="evenodd" d="M7.34226 80.4137H8.29061V79.4229H7.34226V80.4137ZM5.2875 70.3404H4.33915V71.3312H5.2875V70.3404ZM8.92285 80.4137H9.8712V79.4229H8.92285V80.4137ZM3.86498 70.3404H2.91663V71.3312H3.86498V70.3404ZM15.0871 73.1477C14.9291 72.8175 14.6129 72.6523 14.2968 72.4872C13.9807 72.3221 13.6646 72.3221 13.3485 72.3221H12.7162V73.1477H13.5065C13.6646 73.1477 13.8227 73.1477 14.1388 73.3129C14.2968 73.478 14.4549 73.478 14.6129 73.6431C14.771 73.8083 14.771 73.9734 14.9291 74.1385V74.7991V77.4413H10.9776V78.2669H15.8774V74.7991C15.8774 74.4688 15.8774 74.1385 15.7194 73.8083C15.4032 73.6431 15.2452 73.3129 15.0871 73.1477ZM48.4374 78.4321H49.2277V70.3404H48.4374V78.4321ZM44.9602 77.6064H43.5376C43.0635 77.6064 42.5893 77.6064 42.2732 77.4413C41.957 77.2761 41.799 77.111 41.6409 76.7807C41.6409 76.6156 41.799 76.2853 41.799 75.955V73.1477H41.0087V76.1202C41.0087 76.6156 40.8506 77.111 40.5345 77.4413C40.2184 77.7715 39.9023 77.9367 39.2701 77.9367C38.9539 77.9367 38.7959 77.9367 38.6378 77.7715C38.4798 77.7715 38.3217 77.6064 38.1636 77.4413C38.0056 77.2761 37.8475 77.111 37.8475 76.9459C37.6895 76.7807 37.6895 76.6156 37.6895 76.2853V73.1477H36.8992V76.2853C36.8992 76.6156 36.8992 76.7807 36.7411 76.9459C36.7411 77.111 36.5831 77.2761 36.425 77.4413C36.2669 77.6064 36.1089 77.6064 35.9508 77.7715C35.7928 77.7715 35.6347 77.9367 35.4767 77.9367H33.738V73.3129H32.9477V77.9367H28.5221L29.9446 74.1385C29.7866 73.9734 29.4704 73.8083 29.1543 73.478C28.8382 73.3129 28.6801 73.1477 28.364 72.9826C28.0479 72.8175 27.7318 72.6523 27.5737 72.6523C27.2576 72.6523 26.9415 72.4872 26.7834 72.4872C26.4673 72.4872 26.1512 72.4872 25.9932 72.6523C25.8351 72.8175 25.3609 72.8175 25.2029 72.9826C24.8867 73.1477 24.7287 73.3129 24.4126 73.478C24.0965 73.6431 23.9384 73.8083 23.6223 74.1385L25.2029 77.9367H22.1998V72.8175H20.7772C20.303 72.8175 19.8289 72.8175 19.3547 72.9826C18.8805 73.1477 18.5644 73.3129 18.2483 73.6431C17.9322 73.9734 17.6161 74.3037 17.458 74.634C17.2999 74.9642 17.1419 75.4596 17.1419 75.7899C17.1419 76.2853 17.2999 76.7807 17.458 77.111C17.6161 77.4413 17.9322 77.7715 18.2483 78.1018C18.5644 78.2669 18.8805 78.5972 19.3547 78.5972C19.8289 78.7623 20.303 78.7623 20.7772 78.7623H21.2514V78.9275C21.2514 79.4229 21.0933 79.7532 20.9353 79.9183C20.6192 80.0834 20.3031 80.2486 19.8289 80.2486H19.0386C18.8805 80.2486 18.5644 80.0834 18.2483 79.9183L17.9322 80.744C18.2483 80.9091 18.5644 80.9091 18.7225 81.0742C19.0386 81.0742 19.1966 81.2394 19.5128 81.2394C20.3031 81.2394 20.9353 81.0742 21.4095 80.5788C21.7256 80.2486 22.0417 79.588 22.0417 78.9275V78.7623H35.4767C35.9508 78.7623 36.2669 78.5972 36.5831 78.4321C36.8992 78.2669 37.2153 77.9367 37.3734 77.6064C37.5314 77.9367 37.8475 78.2669 38.1636 78.4321C38.4798 78.5972 38.9539 78.7623 39.4281 78.7623C39.9023 78.7623 40.3765 78.5972 40.6926 78.4321C41.0087 78.2669 41.3248 77.9367 41.4829 77.6064C41.4829 77.7715 41.6409 77.9367 41.799 77.9367C41.957 78.1018 41.957 78.1018 42.1151 78.2669C42.2732 78.4321 42.4312 78.4321 42.7473 78.4321H43.3796H45.9085V70.3404H45.1182V77.6064H44.9602ZM65.8239 80.4137H66.7722V79.4229H65.8239V80.4137ZM74.201 77.6064L72.9365 74.1385C73.2526 73.8083 73.5687 73.6431 73.8848 73.478C74.201 73.3129 74.6751 73.3129 74.9912 73.3129C75.3074 73.3129 75.7815 73.3129 76.0977 73.478C76.5718 73.6431 76.8879 73.8083 77.046 74.1385L75.6235 77.6064H74.201ZM80.3652 77.6064H76.7299L78.3105 73.8083C78.1524 73.6431 77.8363 73.478 77.5202 73.1477C77.2041 72.9826 77.046 72.8175 76.7299 72.6523C76.4138 72.4872 76.2557 72.4872 75.9396 72.3221C75.6235 72.3221 75.3074 72.1569 75.1493 72.1569C74.8332 72.1569 74.5171 72.1569 74.359 72.3221C74.0429 72.3221 73.7268 72.4872 73.5687 72.6523C73.2526 72.8175 73.0945 72.9826 72.7784 73.1477C72.4623 73.3129 72.3043 73.478 71.9881 73.8083C73.5687 77.4413 73.5687 77.6064 73.5687 77.6064H70.4076V72.3221H69.6173V78.5972V79.2578C69.6173 79.4229 69.6173 79.588 69.4592 79.588C69.4592 79.7532 69.3011 79.7532 69.1431 79.7532H68.827H68.6689H68.5108L68.3528 80.5788C68.6689 80.5788 68.827 80.744 68.985 80.744C69.3011 80.744 69.6173 80.744 69.7753 80.5788C69.9334 80.4137 70.0914 80.4137 70.2495 80.0834C70.4076 79.9183 70.4076 79.588 70.5656 79.4229V78.4321V78.2669H81.6297V70.1753H80.8394V77.6064H80.3652ZM62.6627 80.4137H63.611V79.4229H62.6627V80.4137ZM57.4468 77.6064H56.6565C56.3404 77.6064 56.0242 77.6064 55.7081 77.4413C55.392 77.2761 55.2339 77.2761 54.9178 76.9459C54.7598 76.7807 54.6017 76.6156 54.4437 76.2853C54.2856 75.955 54.2856 75.6248 54.2856 75.4596C54.2856 75.1294 54.2856 74.7991 54.4437 74.634C54.6017 74.4688 54.7598 74.1385 54.9178 73.9734C55.0759 73.8083 55.392 73.6431 55.7081 73.478C56.0242 73.3129 56.3404 73.3129 56.4984 73.3129H57.2887V77.6064H57.4468ZM66.6142 72.3221H65.8239V77.6064H62.6627V72.3221H61.8724V77.6064H58.3951V72.3221H56.9726C56.4984 72.3221 56.0242 72.4872 55.5501 72.4872C55.0759 72.6523 54.7598 72.8175 54.4437 73.1477C54.1275 73.478 53.8114 73.8083 53.6534 74.1385C53.4953 74.4688 53.3372 74.9642 53.3372 75.2945C53.3372 75.7899 53.4953 76.2853 53.6534 76.6156C53.8114 76.9459 54.1275 77.2761 54.4437 77.6064C54.7598 77.7715 55.0759 77.9367 55.5501 78.1018C56.0242 78.2669 56.3404 78.2669 56.9726 78.2669H66.7722V72.3221H66.6142ZM61.2402 80.4137H62.1885V79.4229H61.2402V80.4137ZM58.2371 70.5056H57.4468V71.4964H58.3951V70.5056H58.2371ZM56.8145 70.5056H55.8662V71.4964H56.8145V70.5056ZM83.6845 78.4321H84.4747V70.3404H83.6845V78.4321ZM122.093 77.6064C121.935 77.9367 121.777 78.1018 121.618 78.4321C121.46 78.5972 121.144 78.7623 120.986 78.9275C120.67 79.0926 120.354 79.0926 120.038 79.0926C119.722 79.0926 119.406 79.0926 119.09 78.9275C118.773 78.7623 118.615 78.5972 118.457 78.4321C118.299 78.2669 118.141 77.9367 117.983 77.6064C117.825 77.2761 117.825 76.9459 117.825 76.7807C117.825 76.4504 117.825 76.1202 117.983 75.7899C118.141 75.4596 118.299 75.2945 118.457 74.9642C118.615 74.7991 118.931 74.634 119.09 74.4688C119.406 74.3037 119.722 74.3037 120.038 74.3037C120.354 74.3037 120.67 74.3037 120.986 74.4688C121.302 74.634 121.46 74.7991 121.777 74.9642C121.935 75.1294 122.093 75.4596 122.251 75.7899C122.409 76.1202 122.409 76.4504 122.409 76.7807C122.251 77.111 122.251 77.4413 122.093 77.6064ZM113.716 77.6064C113.557 77.9367 113.399 78.1018 113.241 78.4321C113.083 78.5972 112.767 78.7623 112.451 78.9275C112.135 79.0926 111.819 79.0926 111.503 79.0926C111.187 79.0926 110.87 79.0926 110.554 78.9275C110.238 78.7623 110.08 78.5972 109.922 78.4321C109.764 78.2669 109.606 77.9367 109.448 77.6064C109.29 77.2761 109.29 76.9459 109.29 76.7807C109.29 76.4504 109.29 76.1202 109.448 75.7899C109.606 75.4596 109.764 75.2945 109.922 74.9642C110.08 74.7991 110.396 74.634 110.554 74.4688C110.87 74.3037 111.187 74.3037 111.503 74.3037C111.819 74.3037 112.135 74.3037 112.451 74.4688C112.767 74.634 112.925 74.7991 113.241 74.9642C113.399 75.1294 113.557 75.4596 113.716 75.7899C113.874 76.1202 113.874 76.4504 113.874 76.7807C113.874 77.111 113.874 77.4413 113.716 77.6064ZM92.8518 78.1018H92.0615C91.7454 78.1018 91.4293 78.1018 91.1132 77.9367C90.7971 77.7715 90.639 77.7715 90.3229 77.4413C90.1648 77.2761 90.0068 77.111 89.8487 76.7807C89.6907 76.4504 89.6907 76.1202 89.6907 75.955C89.6907 75.6248 89.6907 75.2945 89.8487 75.1294C90.0068 74.9642 90.1648 74.634 90.3229 74.4688C90.481 74.3037 90.7971 74.1385 91.1132 73.9734C91.4293 73.8083 91.7454 73.8083 91.9035 73.8083H92.6938V78.1018H92.8518ZM125.886 78.1018H122.883C123.041 77.6064 123.199 77.2761 123.199 76.7807C123.199 76.2853 123.041 75.955 122.883 75.4596C122.725 75.1294 122.567 74.634 122.251 74.4688C121.935 74.1386 121.618 73.9734 121.302 73.8083C120.986 73.6431 120.512 73.6431 120.038 73.6431C119.564 73.6431 119.248 73.6431 118.773 73.8083C118.457 73.9734 118.141 74.1386 117.825 74.4688C117.509 74.7991 117.351 75.1294 117.193 75.4596C117.035 75.7899 116.877 76.2853 116.877 76.7807V77.4413C116.877 77.6064 117.035 77.7715 117.035 78.1018H114.348C114.506 77.6064 114.664 77.2761 114.664 76.7807C114.664 76.2853 114.506 75.955 114.348 75.4596C114.19 75.1294 114.032 74.634 113.716 74.4688C113.399 74.1386 113.083 73.9734 112.767 73.8083C112.451 73.6431 111.977 73.6431 111.503 73.6431C111.029 73.6431 110.712 73.6431 110.238 73.8083C109.922 73.9734 109.606 74.1386 109.29 74.4688C108.974 74.7991 108.816 75.1294 108.658 75.4596C108.5 75.7899 108.5 76.2853 108.5 76.7807V77.4413C108.5 77.6064 108.658 77.7715 108.658 78.1018H105.971V71.001H105.18V78.1018H102.493V76.7807C102.493 76.4504 102.493 76.1202 102.335 75.7899C102.177 75.4596 102.177 75.1294 101.861 74.9642C101.703 74.7991 101.387 74.4688 101.071 74.3037C100.755 74.1385 100.439 74.1385 99.9645 74.1385H96.1711L97.7516 70.8358H96.8033L95.2227 73.9734C95.2227 74.1385 95.2227 74.3037 95.3808 74.4688C95.3808 74.634 95.5388 74.7991 95.6969 74.7991H100.123C100.439 74.7991 100.597 74.7991 100.755 74.9642C100.913 74.9642 101.071 75.1294 101.229 75.2945C101.387 75.4596 101.387 75.6248 101.545 75.7899V76.4504V77.7715H93.6421V72.4872H92.2196C91.7454 72.4872 91.2713 72.6523 90.7971 72.6523C90.3229 72.8175 90.0068 72.9826 89.6907 73.3129C89.3746 73.6431 89.2165 73.9734 89.0584 74.3037C88.9004 74.634 88.7423 75.1294 88.7423 75.4596C88.7423 75.955 88.9004 76.4504 89.0584 76.7807C89.2165 77.111 89.5326 77.4413 89.8487 77.7715C90.1648 77.9367 90.481 78.1018 90.9551 78.2669C91.4293 78.4321 91.9035 78.4321 92.3777 78.4321H109.448C109.764 78.7623 110.08 79.0926 110.396 79.2578C110.87 79.4229 111.187 79.588 111.661 79.588C112.135 79.588 112.609 79.588 112.925 79.2578C113.399 79.0926 113.716 78.9275 113.874 78.4321H117.667C117.983 78.7623 118.299 79.0926 118.615 79.2578C119.09 79.4229 119.406 79.588 119.88 79.588C120.354 79.588 120.828 79.588 121.144 79.2578C121.618 79.0926 121.935 78.9275 122.093 78.4321H126.518V70.3404H125.728V78.1018H125.886ZM129.205 78.9275H129.996V70.8358H129.205V78.9275ZM92.2196 71.001H91.2713V71.9918H92.2196V71.001ZM93.6421 71.001H92.6938V71.9918H93.6421V71.001ZM9.55508 72.3221H8.76479V77.4413H5.2875V72.3221H3.86498C3.3908 72.3221 2.91663 72.3221 2.44245 72.4872C1.96828 72.6523 1.65216 72.8175 1.33605 73.1477C1.01993 73.478 0.86187 73.8083 0.703812 74.1385C0.545754 74.4688 0.387695 74.9642 0.387695 75.2945C0.387695 75.7899 0.545754 76.2853 0.703812 76.6156C0.86187 76.9459 1.17799 77.2761 1.4941 77.6064C1.81022 77.7715 2.12634 78.1018 2.60051 78.1018C3.07469 78.2669 3.54886 78.2669 4.02304 78.2669H9.71314V72.3221H9.55508ZM4.49721 77.6064H3.70692C3.3908 77.6064 3.07469 77.6064 2.75857 77.4413C2.44245 77.2761 2.2844 77.2761 1.96828 76.9459C1.81022 76.7807 1.65216 76.6156 1.4941 76.2853C1.33605 75.955 1.33605 75.7899 1.33605 75.4596C1.33605 75.1294 1.33605 74.7991 1.4941 74.634C1.65216 74.3037 1.81022 74.1385 1.96828 73.9734C2.12634 73.8083 2.44245 73.6431 2.75857 73.478C3.07469 73.3129 3.3908 73.3129 3.54886 73.3129H4.33915V77.6064H4.49721ZM21.0933 77.6064H20.3031C19.9869 77.6064 19.6708 77.6064 19.3547 77.4413C19.0386 77.2761 18.8805 77.2761 18.5644 76.9459C18.4063 76.7807 18.0902 76.6156 18.0902 76.2853C17.9322 75.955 17.9322 75.7899 17.9322 75.4596C17.9322 75.1294 17.9322 74.7991 18.0902 74.634C18.2483 74.3037 18.4063 74.1385 18.5644 73.9734C18.7225 73.8083 19.0386 73.6431 19.3547 73.478C19.6708 73.3129 19.9869 73.3129 20.3031 73.3129H21.0933V77.6064ZM25.8351 77.6064L24.4126 74.1385C24.7287 73.8083 25.0448 73.6431 25.3609 73.478C25.677 73.3129 25.9932 73.3129 26.4673 73.3129C26.7834 73.3129 27.2576 73.3129 27.5737 73.478C27.8899 73.6431 28.206 73.8083 28.5221 74.1385L27.2576 77.6064H25.8351Z" fill="#3F4254"/>
<path fill-rule="evenodd" clip-rule="evenodd" d="M106.129 21.2932H107.552V22.7576H106.129V21.2932ZM109.133 21.2932H110.555V22.7576H109.133V21.2932ZM79.7337 3.88354H78.3112V2.41917H79.7337V3.88354ZM115.455 14.6222C116.087 15.1103 116.719 15.273 117.352 15.5985C118.142 15.7612 118.932 15.9239 119.722 15.9239H120.039L120.513 14.7849V16.2493C120.513 17.0628 120.197 17.5509 119.881 18.0391C119.406 18.3645 118.774 18.5272 117.984 18.5272C117.51 18.5272 117.194 18.5272 116.719 18.3645C116.403 18.2018 115.929 18.2018 115.455 17.8764L114.981 19.3407C115.613 19.5034 116.087 19.6661 116.561 19.8288C117.035 19.9915 117.51 19.9915 117.826 19.9915C119.248 19.9915 120.355 19.6661 120.987 19.0153C121.619 18.3645 121.935 17.3882 121.935 16.2493V5.67332H119.564C118.616 5.67332 117.826 5.83602 117.035 5.99873C116.245 6.32414 115.613 6.64956 115.139 7.13768C114.507 7.6258 114.19 8.11392 113.874 8.76475C113.558 9.41558 113.4 10.0664 113.4 10.8799C113.4 11.6935 113.558 12.507 113.874 13.1578C114.348 13.646 114.823 14.1341 115.455 14.6222ZM115.455 9.09017C115.613 8.60205 115.929 8.27663 116.403 7.95122C116.719 7.6258 117.194 7.30039 117.668 7.13768C118.142 6.97497 118.616 6.81227 119.09 6.81227H121.461L120.671 7.30039V14.1341H119.09C118.458 14.1341 117.984 14.1341 117.51 13.9714C117.035 13.8087 116.561 13.4833 116.245 13.3206C115.929 12.9951 115.613 12.6697 115.455 12.1816C115.297 11.6935 115.139 11.2054 115.139 10.7172C114.981 10.0664 115.139 9.57829 115.455 9.09017ZM82.7368 3.88354H81.3143V2.41917H82.7368V3.88354ZM125.887 19.9915C125.413 19.9915 125.096 19.9915 124.622 19.8288L124.938 18.3645C125.096 18.3645 125.255 18.3645 125.413 18.5272H125.729C126.045 18.5272 126.203 18.5272 126.361 18.3645C126.519 18.3645 126.677 18.2018 126.835 18.0391C126.993 17.8764 126.993 17.5509 126.993 17.2255V16.0866V5.51061H128.416V16.0866C128.416 16.7374 128.416 17.2255 128.258 17.7136C128.1 18.2018 127.941 18.5272 127.783 19.0153C127.625 19.3407 127.309 19.6661 126.993 19.8288C126.835 19.8288 126.361 19.9915 125.887 19.9915ZM78.6273 19.8288H81.6304V18.6899C81.6304 18.6899 81.6304 18.8526 81.7884 18.8526C81.9465 19.178 82.2626 19.5034 82.7368 19.6661C83.0529 19.8288 83.5271 19.9915 84.0013 19.9915H111.029V5.67332H109.607V18.5272H108.026H84.0013C83.6851 18.5272 83.5271 18.5272 83.211 18.3645C83.0529 18.2018 82.8949 18.2018 82.7368 17.8764C82.5787 17.7136 82.5787 17.3882 82.4207 17.0628V15.9239V5.3479H78.4692C74.3597 5.3479 71.5146 8.60205 71.5146 12.507C71.8308 16.412 74.5178 19.8288 78.6273 19.8288ZM73.4114 12.507C73.4114 9.41558 75.6242 6.81227 78.6273 6.81227H82.1046L81.1562 7.30039V15.9239C81.1562 16.5747 81.1562 17.0628 81.3143 17.5509C81.3143 17.8764 81.4723 18.0391 81.4723 18.3645H78.6273C75.6242 18.2018 73.4114 15.7612 73.4114 12.507ZM120.355 0.629395H121.619V1.76834H120.513C120.197 1.76834 120.039 1.93105 120.039 2.25647V2.74459H121.935V3.88354H118.774V2.25647C118.774 1.44293 119.564 0.629395 120.355 0.629395Z" fill="#3F4254"/>
<path fill-rule="evenodd" clip-rule="evenodd" d="M63.6263 5.68423H65.1916V19.4405H63.9394L54.2344 7.09112L55.0171 9.1233V19.4405H53.4518V5.68423H54.8606L64.2524 17.5647L63.6263 15.8451V5.68423ZM6.33588 19.4405L0.387695 5.5279H2.10954L2.8922 7.56008L6.96201 17.252L7.4316 18.1899L7.27507 16.6267L11.971 5.37158H13.6929L7.74466 19.2842H6.33588V19.4405ZM32.6331 5.68423H34.1984V19.4405H32.6331V5.68423ZM49.382 12.5624C49.382 15.6888 47.1905 18.1899 44.0599 18.1899C40.9293 18.1899 38.5813 15.6888 38.5813 12.5624C38.5813 9.43594 40.7728 6.9348 43.9034 6.9348C47.034 6.77848 49.382 9.43594 49.382 12.5624ZM43.9034 5.37158C39.677 5.37158 36.8595 8.65433 36.8595 12.406C36.8595 16.1578 39.677 19.4405 43.9034 19.4405C48.1297 19.4405 50.9473 16.1578 50.9473 12.406C50.9473 8.65433 48.1297 5.37158 43.9034 5.37158ZM30.1286 15.6888C30.1286 18.0336 28.0937 19.5968 25.4327 19.5968C23.2413 19.5968 21.5194 18.8152 19.7976 17.4083L20.7368 16.3141C22.1455 17.5647 23.5543 18.1899 25.4327 18.1899C27.3111 18.1899 28.5633 17.252 28.5633 15.8451C28.5633 14.5946 27.9372 13.8129 24.9631 13.1877C21.8325 12.5624 20.4237 11.4681 20.4237 9.27962C20.4237 7.09112 22.3021 5.5279 24.9631 5.5279C26.998 5.5279 28.4068 6.15319 29.8156 7.24744L28.8764 8.49801C27.6241 7.40376 26.3719 6.9348 24.9631 6.9348C23.2413 6.9348 21.989 7.87273 21.989 9.1233C21.989 10.3739 22.7717 11.1555 25.7458 11.7808C28.7198 12.406 30.1286 13.5003 30.1286 15.6888ZM17.4496 19.4405H15.8843V5.68423H17.4496V19.4405Z" fill="#3F4254"/>
</svg>
