<svg width="221" height="95" viewBox="0 0 221 95" fill="none" xmlns="http://www.w3.org/2000/svg">
<g opacity="0.8">
<path d="M44.6598 1.51945C33.7364 2.65286 23.9464 7.28506 16.3246 14.9068C9.9184 21.313 5.45047 29.5919 3.70929 38.3142C2.97011 42.0101 2.85513 43.2584 2.87155 47.7592C2.87155 51.2909 2.93726 52.4243 3.23293 54.3297C4.87555 64.8753 9.57344 73.9426 17.1624 81.1701C28.0365 91.5515 43.165 95.9044 58.195 93.0134C76.6745 89.4489 91.5566 74.1233 94.6612 55.4795C95.3018 51.6522 95.4825 46.3466 95.1047 42.9135C93.9056 32.3022 89.6348 23.0706 82.4237 15.5803C75.229 8.08994 66.1617 3.4249 55.7475 1.83156C53.3164 1.45375 46.9923 1.27306 44.6598 1.51945ZM53.7764 3.67129C58.8028 4.16408 64.0099 5.69171 68.7078 8.04066C73.1921 10.2911 76.5924 12.755 80.239 16.3852C82.7686 18.8984 84.0827 20.4917 85.8403 23.1199C95.6303 37.7392 95.7289 57.0236 86.0867 71.7415C79.7298 81.4494 69.9069 88.2827 58.7042 90.7795C55.2219 91.5679 53.2343 91.765 49.0128 91.765C44.052 91.765 40.8161 91.3215 36.4796 90.0403C32.2745 88.7919 28.365 86.9522 24.5377 84.3897C21.6467 82.4678 19.6427 80.7923 17.1952 78.2627C2.82228 63.3313 0.736147 40.4003 12.2181 23.202C14.0742 20.4096 15.4705 18.7177 17.803 16.3852C22.8294 11.3588 28.7593 7.71214 35.4776 5.54388C41.4239 3.62201 47.2552 3.03067 53.7764 3.67129Z" fill="#3F4254"/>
<path d="M43.6423 7.17051C42.1311 7.36762 40.8663 7.56474 40.8334 7.59759C40.8006 7.64687 40.8006 8.00824 40.8499 8.40247L40.9156 9.1088L42.1311 8.99382C43.1003 8.91169 43.3467 8.92811 43.3467 9.1088C43.3467 9.22378 43.5273 10.7678 43.7573 12.5255C43.9873 14.2831 44.168 15.7778 44.168 15.86C44.168 15.9585 45.942 15.86 46.0898 15.745C46.1063 15.7286 45.942 14.2831 45.7285 12.5255C45.4985 10.7678 45.3178 9.15808 45.3178 8.96096C45.3178 8.63244 45.4328 8.59959 46.4841 8.4846L47.6503 8.36962L47.5518 7.77828C47.5025 7.44975 47.4532 7.08838 47.4532 6.97339C47.4532 6.71058 46.9933 6.74343 43.6423 7.17051Z" fill="#3F4254"/>
<path d="M50.0136 6.97345C49.8987 7.3184 49.603 15.3837 49.6851 15.5151C49.7344 15.5808 50.1615 15.6465 50.6378 15.6465H51.5084L51.607 14.0367C51.6727 13.1661 51.7712 11.1621 51.8205 9.60164L51.9355 6.77634H50.9992C50.3914 6.77634 50.0465 6.84204 50.0136 6.97345Z" fill="#3F4254"/>
<path d="M55.1073 7.54777C54.8609 8.41836 53.3661 15.6952 53.4318 15.7609C53.5303 15.8594 54.6802 16.1222 55.0087 16.1387C55.2058 16.1387 55.3372 15.7609 55.5672 14.6932C55.715 13.9047 55.8793 13.1491 55.9286 13.0013C55.9943 12.7713 56.1257 12.7713 57.3577 13.0341C59.0988 13.4283 59.0988 13.4283 59.2138 12.8863C59.2631 12.6399 59.3452 12.3278 59.3781 12.1635C59.4438 11.95 59.181 11.835 57.8669 11.5393C56.4049 11.2108 56.3064 11.1451 56.3885 10.8166C56.4378 10.6359 56.5363 10.1924 56.5856 9.84744C56.6513 9.50249 56.7827 9.23967 56.9141 9.23967C57.1441 9.23967 59.3616 9.68318 59.7887 9.83101C60.0023 9.88029 60.1008 9.73245 60.2487 9.14111C60.3636 8.71403 60.4294 8.36908 60.3965 8.33623C60.3308 8.30337 55.4522 7.26852 55.3044 7.26852C55.2387 7.26852 55.1565 7.39993 55.1073 7.54777Z" fill="#3F4254"/>
<path d="M35.296 9.14191C34.3925 9.40473 32.0107 10.3903 32.0107 10.5053C32.0107 10.6038 34.9839 18.5048 35.0496 18.5706C35.1317 18.6691 36.7743 18.0449 36.7743 17.9135C36.7743 17.8149 36.068 15.8438 35.7066 14.9568C35.6245 14.7432 35.7395 14.6447 36.2651 14.4804C37.1193 14.234 37.4971 14.464 38.417 15.7945C38.7783 16.3366 39.1561 16.8294 39.2383 16.8787C39.3697 16.9608 40.9794 16.5501 41.1766 16.3859C41.2094 16.353 40.8316 15.7781 40.3224 15.1046C39.3861 13.8398 38.6962 13.1828 38.3184 13.1828C38.0063 13.1828 38.0227 13.0842 38.4498 12.5257C39.1069 11.6223 38.7948 9.96322 37.8585 9.33903C37.2836 8.96122 36.183 8.87909 35.296 9.14191ZM36.4294 10.7188C36.5937 10.801 36.8236 11.0802 36.9222 11.3594C37.0864 11.7537 37.0864 11.9179 36.8729 12.3122C36.6101 12.8378 35.3781 13.5113 35.1481 13.2485C35.0167 13.1171 34.3104 11.3102 34.3104 11.1131C34.3104 10.9652 35.3617 10.571 35.7559 10.5546C35.9695 10.5546 36.2651 10.6203 36.4294 10.7188Z" fill="#3F4254"/>
<path d="M61.7424 13.3624C60.8882 15.5307 60.1655 17.354 60.1326 17.4361C60.0998 17.5511 61.1018 18.0111 61.7095 18.1425C61.8574 18.1753 62.4651 16.8448 63.5493 14.1673L65.159 10.1429L64.387 9.78153C63.9764 9.58442 63.5657 9.42016 63.4671 9.42016C63.385 9.42016 62.5966 11.1778 61.7424 13.3624Z" fill="#3F4254"/>
<path d="M65.8494 15.203C64.6338 17.207 63.6318 18.8825 63.6318 18.9154C63.6318 18.9482 64.6831 19.6217 65.9808 20.4266L68.3297 21.8721L68.7404 21.1986C69.0853 20.6565 69.1182 20.5087 68.9375 20.3773C68.8225 20.2952 68.149 19.8845 67.4591 19.4574C66.7528 19.0303 66.1779 18.6361 66.1779 18.5704C66.1779 18.5047 66.4079 18.0776 66.6871 17.6177C67.1635 16.8292 67.2292 16.7964 67.5577 17.0099C68.6747 17.7162 69.9888 18.4718 70.0216 18.4226C70.0381 18.3897 70.2352 18.0776 70.4323 17.7491L70.7937 17.1413L69.9231 16.5828C69.4467 16.2872 68.8225 15.8929 68.5433 15.7287L68.0176 15.433L68.5104 14.6281L69.0032 13.8397L69.5945 14.201C69.9395 14.3981 70.5965 14.8088 71.0565 15.1045L71.9271 15.6465L72.3541 14.9731C72.5841 14.5953 72.7155 14.2339 72.6334 14.1846C72.3377 13.9054 68.3462 11.54 68.2147 11.54C68.1326 11.54 67.0649 13.1826 65.8494 15.203Z" fill="#3F4254"/>
<path d="M26.6076 13.5934C25.4906 14.349 24.505 15.0389 24.4229 15.121C24.2093 15.3345 29.0551 22.5785 29.3015 22.4142C29.3836 22.3485 30.4513 21.6422 31.634 20.8373L33.8022 19.3918L33.3751 18.7512C33.1452 18.3898 32.9316 18.1106 32.8824 18.1106C32.8495 18.1106 32.1596 18.5541 31.3547 19.0961L29.9092 20.0653L29.3179 19.2604C28.9894 18.8005 28.7265 18.4062 28.7265 18.357C28.7265 18.3241 29.3015 17.897 30.0078 17.4371C30.6977 16.9607 31.289 16.5665 31.3219 16.5337C31.3547 16.5172 31.174 16.2051 30.9441 15.8273L30.5006 15.1539L29.1865 16.0573C28.4637 16.5501 27.8559 16.9607 27.8231 16.9607C27.7245 16.9607 26.7225 15.466 26.7882 15.4167C26.8047 15.3838 27.4289 14.9732 28.1516 14.4968C28.8744 14.0205 29.4986 13.6098 29.5314 13.5769C29.5971 13.5277 28.7594 12.1807 28.6773 12.2136C28.6608 12.2136 27.7245 12.8378 26.6076 13.5934Z" fill="#3F4254"/>
<path d="M72.6822 19.6048C71.0068 21.2474 69.627 22.6437 69.627 22.7422C69.627 22.8244 70.2347 23.4978 70.9903 24.2534C72.6987 25.9618 73.5528 26.4053 75.1297 26.4053C76.5095 26.4053 77.3965 25.9618 78.53 24.6969C79.7455 23.35 79.9426 21.8059 79.1377 20.1962C78.7928 19.5227 76.5588 17.0752 76.0167 16.7959C75.8032 16.681 75.0805 17.2887 72.6822 19.6048ZM76.9038 19.7362C77.2159 20.0812 77.5608 20.6397 77.6758 20.9846C78.2507 22.7094 75.7539 25.0912 73.947 24.5491C73.2407 24.3356 72.0909 23.4486 72.0909 23.12C72.0909 22.9065 75.9839 19.0956 76.1974 19.0956C76.2631 19.0956 76.5752 19.3749 76.9038 19.7362Z" fill="#3F4254"/>
<path d="M21.0709 17.7484C18.7877 19.4074 17.9992 21.937 19.1162 24.0067C20.0196 25.6494 21.613 26.6514 23.2885 26.6514C24.2248 26.6514 25.1939 26.2079 26.1138 25.3865C26.7544 24.8116 27.74 23.4811 27.74 23.1854C27.74 23.1197 27.4607 22.8898 27.1322 22.6927L26.5409 22.3148L26.278 22.7091C25.0953 24.516 23.7484 25.0745 22.3357 24.3681C20.9724 23.6618 20.2003 22.2327 20.5289 21.0336C20.7095 20.3437 21.498 19.3581 22.1879 18.9311L22.6314 18.6682L22.1715 17.9783L21.7115 17.2884L21.0709 17.7484Z" fill="#3F4254"/>
<path d="M46.0552 17.7813C34.1626 19.0625 24.274 26.9799 20.5289 38.2319C19.3298 41.8621 19.1326 43.1269 19.1162 47.5948C19.1162 51.0772 19.1655 51.7507 19.494 53.4097C21.6787 64.2182 29.3169 72.8912 39.5668 76.275C43.1149 77.4248 44.6918 77.6548 49.1762 77.6548C53.5784 77.6384 54.8103 77.4577 58.3748 76.3078C67.1793 73.4661 74.3739 66.4357 77.4128 57.7462C83.5562 40.0716 72.5506 21.3293 54.104 18.0934C52.0343 17.732 47.9935 17.5677 46.0552 17.7813ZM51.7386 18.6026C55.5331 18.9968 58.5227 19.851 61.9886 21.5757C65.0767 23.1034 66.9657 24.4832 69.6268 27.1442C74.9653 32.4663 77.8234 38.9547 78.1191 46.3793C78.2341 49.566 78.0041 51.9478 77.265 54.8224C73.2898 70.3123 57.7342 79.6588 42.1293 75.9465C38.2199 75.0102 34.1133 72.9897 30.7788 70.3287C29.2512 69.1296 26.4751 66.1564 25.2432 64.4317C23.9127 62.5591 22.0401 58.8632 21.3502 56.7114C18.1142 46.7242 20.4303 35.8337 27.4443 28.0641C29.7768 25.4852 33.2099 22.9227 36.3637 21.395C41.193 19.0789 46.6137 18.0934 51.7386 18.6026Z" fill="#3F4254"/>
<path d="M44.9885 20.0155C36.3155 21.3789 29.0223 26.4217 24.6693 34.0599C21.2198 40.1047 20.2507 47.9072 22.0904 54.9047C24.2587 63.2164 30.632 70.4111 38.6152 73.5977C50.4256 78.2956 63.8951 74.5505 71.4183 64.4812C75.147 59.4876 77.0196 53.8699 77.0196 47.6772C77.0196 39.9733 73.9972 32.8772 68.4452 27.5551C64.5193 23.7935 59.8707 21.346 54.5157 20.2454C52.2325 19.7691 47.2882 19.6541 44.9885 20.0155ZM46.3355 34.0435C46.9433 34.1256 47.8467 34.3884 48.3723 34.6184C49.5386 35.1276 49.7686 35.1276 50.2449 34.6184C50.5406 34.3063 50.8034 34.2077 51.3455 34.2077H52.0518V36.7538V39.2998H51.5262C51.2305 39.2998 50.8363 39.3491 50.6392 39.3984C50.3599 39.4805 50.2778 39.382 50.0971 38.7742C49.5715 37.0002 48.1752 36.146 45.8263 36.1296C44.8243 36.1296 44.2658 36.2117 43.888 36.4088C42.5903 37.0659 42.771 38.4128 44.2494 38.9713C44.5286 39.0699 45.6949 39.3491 46.8611 39.5627C50.4256 40.2526 51.7561 40.9425 52.4789 42.4701C52.9552 43.5049 53.0045 45.0819 52.6103 46.2481C52.2489 47.2994 51.1484 48.3835 49.9493 48.8435C49.1772 49.1556 48.6844 49.2213 47.1239 49.2213C45.3828 49.2213 45.1364 49.1884 43.888 48.6792C42.4918 48.1371 42.0318 48.1371 41.8019 48.7449C41.7362 48.9256 41.4733 48.9913 40.7999 48.9913H39.8964V46.3631V43.7349H40.2906C40.5042 43.7349 40.8984 43.6856 41.1448 43.6364C41.6047 43.5542 41.6376 43.5871 41.8347 44.3263C42.1468 45.4597 42.5739 45.9524 43.7894 46.5602C44.7914 47.053 44.9885 47.0859 46.5326 47.0859C47.9124 47.1023 48.2902 47.053 48.7666 46.7738C49.5057 46.3303 49.8836 45.4268 49.6043 44.7533C49.3251 44.0799 48.5202 43.7513 46.007 43.3078C42.5082 42.6672 41.0791 41.9609 40.3728 40.5154C39.9457 39.5955 39.7814 37.8543 40.0443 36.8688C40.4221 35.4725 41.8676 34.3391 43.658 34.0435C44.7257 33.8628 45.0871 33.8628 46.3355 34.0435ZM63.3859 34.0435C67.3446 34.5362 69.2993 37.0166 69.2993 41.5174C69.2993 44.2113 68.6587 45.9853 67.2296 47.3487C65.4063 49.0734 62.5646 49.6976 59.4929 49.057C58.7866 48.9092 57.9488 48.6628 57.6039 48.4821C55.452 47.3815 54.3515 45.1476 54.3515 41.928C54.3679 37.1809 56.2733 34.6512 60.2649 34.0599C61.5626 33.8628 61.8418 33.8628 63.3859 34.0435ZM38.2538 35.1769V35.9653L37.5639 36.0639C37.1861 36.1132 36.7754 36.2938 36.6605 36.4417C36.4962 36.6716 36.4469 37.92 36.4469 41.6981C36.4469 47.2501 36.4141 47.1023 37.6132 47.283L38.2538 47.398V48.1864V48.9913H34.4758H30.6977V48.17C30.6977 47.398 30.7306 47.3487 31.1248 47.3487C31.5848 47.3487 32.1925 47.0859 32.3732 46.7902C32.4389 46.6916 32.5046 44.392 32.5046 41.6652C32.5046 37.9036 32.4554 36.6716 32.2911 36.4417C32.1761 36.2938 31.7654 36.1132 31.3876 36.0639L30.6977 35.9653V35.1769V34.372H34.4758H38.2538V35.1769Z" fill="#3F4254"/>
<path d="M61.66 36.0967C61.5779 36.1295 61.2165 36.1953 60.888 36.261C60.1324 36.3759 59.3768 37.0001 58.9004 37.8871C58.5719 38.5113 58.5391 38.7906 58.5391 41.4352C58.5391 44.3098 58.5391 44.3098 59.0318 45.2954C59.7382 46.708 60.1488 46.938 61.8243 46.938C63.3519 46.938 63.7954 46.7244 64.5018 45.706C65.0931 44.819 65.2574 43.9484 65.2574 41.5995C65.2574 37.805 64.5511 36.4088 62.4814 36.1295C62.12 36.0803 61.7586 36.0638 61.66 36.0967Z" fill="#3F4254"/>
<path d="M28.0363 55.2493C27.6093 55.4957 27.4778 56.4648 27.8064 56.9576C28.3649 57.7953 29.5475 57.3025 29.5475 56.2513C29.5475 55.3642 28.7427 54.8222 28.0363 55.2493Z" fill="#3F4254"/>
<path d="M33.8185 55.316C33.3257 55.9073 33.3422 59.1105 33.8514 59.6032C34.2949 60.0467 34.9191 59.7839 35.1162 59.0447C35.4776 57.7964 35.264 55.5295 34.7713 55.201C34.4427 55.0039 34.0485 55.0532 33.8185 55.316Z" fill="#3F4254"/>
<path d="M39.4541 55.5128C39.027 56.1534 39.027 58.7487 39.4541 59.3893C39.7991 59.915 40.2261 59.9643 40.6532 59.4879C41.0967 58.9951 41.1131 56.1862 40.6696 55.5128C40.3083 54.9543 39.8155 54.9543 39.4541 55.5128Z" fill="#3F4254"/>
<path d="M58.4898 55.2014C57.9806 55.5464 57.7834 58.0267 58.1777 59.1765C58.3419 59.6529 58.4569 59.7515 58.8676 59.7515C59.2125 59.7515 59.4096 59.6365 59.5575 59.3408C59.8367 58.7987 59.8367 56.1048 59.5575 55.5628C59.3439 55.1357 58.8511 54.9714 58.4898 55.2014Z" fill="#3F4254"/>
<path d="M74.5721 67.8323C74.2107 68.2594 73.8986 68.7029 73.8986 68.8178C73.8986 68.9164 74.2271 69.7213 74.6378 70.6083C75.0484 71.4789 75.377 72.2509 75.377 72.3166C75.377 72.3823 74.5392 72.1195 73.5372 71.7417L71.6811 71.0354L70.909 71.791C70.4655 72.2016 70.1699 72.5959 70.252 72.6616C70.3177 72.7109 71.5825 73.0722 73.0444 73.4665L75.7383 74.1728L77.0524 75.4048L78.3501 76.6367L79.04 75.9468L79.7299 75.2405L78.3994 73.9921L77.0524 72.7273L76.1983 69.9348C75.7219 68.3908 75.3277 67.1259 75.2948 67.0931C75.2784 67.0602 74.9499 67.4052 74.5721 67.8323Z" fill="#3F4254"/>
<path d="M21.8424 69.2116C20.6104 69.573 19.2799 70.7557 18.7214 71.9877C18.2779 72.9404 18.2779 74.3038 18.705 75.2401C19.0664 76.0285 20.5283 77.6547 21.1854 77.9997C21.6124 78.2132 21.6453 78.1968 22.0395 77.589L22.4502 76.9648L21.711 76.3406C20.7419 75.5193 20.3476 74.8623 20.3476 73.9917C20.3476 73.1539 20.6269 72.579 21.3661 71.8891C22.1217 71.1664 22.5159 71.0021 23.4358 71.0021C24.4049 71.0021 25.3412 71.5934 25.9325 72.5954C26.1461 72.9404 26.3432 73.2525 26.3596 73.2853C26.3925 73.3182 27.4109 72.7761 27.723 72.5462C27.8873 72.4148 26.836 70.9528 26.1625 70.3615C24.8813 69.2445 23.2715 68.8174 21.8424 69.2116Z" fill="#3F4254"/>
<path d="M68.5264 73.7294L67.8365 74.1401L68.8385 75.7334C69.397 76.604 70.1854 77.8031 70.5961 78.3945C71.0067 78.9694 71.2367 79.38 71.1053 79.2979C70.9739 79.2158 70.4482 78.8873 69.9554 78.5587C68.937 77.8688 65.389 75.9305 65.159 75.9305C65.0769 75.9305 64.6005 76.1934 64.1077 76.5055L63.2207 77.0804L64.0092 78.3452C66.5224 82.386 67.8529 84.4722 67.9186 84.4722C68.0664 84.4722 69.2984 83.6509 69.2984 83.5359C69.2984 83.4209 67.7543 80.9405 66.6374 79.2486C66.1938 78.608 65.8817 78.0659 65.931 78.0659C65.9967 78.0659 66.276 78.2466 66.5552 78.4602C67.2287 78.9694 72.058 81.6797 72.3044 81.6797C72.3865 81.6797 72.83 81.4497 73.2571 81.1705L74.0456 80.6613L73.2571 79.4129C72.83 78.723 71.7952 77.064 70.9574 75.717C70.1197 74.3865 69.3805 73.3024 69.3312 73.3024C69.2655 73.3188 68.9042 73.4995 68.5264 73.7294Z" fill="#3F4254"/>
<path d="M28.9398 74.4681C28.0035 74.6488 27.445 74.9609 26.6566 75.7986C25.211 77.2934 24.7511 79.2152 25.441 80.825C26.6401 83.601 30.4839 84.2088 32.4714 81.9256C34.689 79.4124 34.3276 76.2257 31.683 74.9116C30.6481 74.4024 29.9089 74.2874 28.9398 74.4681ZM31.3544 76.5378C32.34 77.4248 32.1429 79.1824 30.8945 80.5622C29.7283 81.8599 28.5784 82.057 27.6421 81.1207C27.1658 80.6443 27.0836 80.4472 27.0836 79.8066C27.0836 78.936 27.3957 78.0818 28.0035 77.277C28.9726 76.0286 30.4182 75.7165 31.3544 76.5378Z" fill="#3F4254"/>
<path d="M37.1867 78.2953C36.8746 79.2481 34.6406 86.4263 34.6406 86.492C34.6406 86.5906 36.2832 87.0012 36.349 86.9191C36.3818 86.8862 36.7925 85.5229 37.2524 83.8967C37.7288 82.2705 38.1558 80.7921 38.2215 80.6114C38.2872 80.4307 38.3694 81.8598 38.4187 83.7981L38.5008 87.3133L39.1907 87.5104C39.7163 87.6747 39.9299 87.6747 40.0284 87.5269C40.3241 87.1491 42.8373 82.8947 43.1165 82.2869C43.3958 81.6956 43.8229 81.3999 43.5929 81.9584C43.4779 82.2869 42.1967 88.3153 42.246 88.3482C42.2624 88.3646 42.673 88.4796 43.1494 88.6274C43.9871 88.8738 44.0036 88.8574 44.0857 88.5124C44.3485 87.4283 45.6298 80.2993 45.5805 80.2501C45.5476 80.2008 44.9891 80.0365 44.3485 79.8723L43.1658 79.5766L42.9523 79.9215C42.8209 80.1186 42.4759 80.6936 42.1638 81.1864C41.8517 81.6791 41.2275 82.7468 40.784 83.5682L39.9791 85.0465L39.897 81.9748C39.8477 80.2993 39.782 78.8867 39.7327 78.8374C39.6835 78.7881 39.1086 78.6074 38.4515 78.4268C37.5973 78.1968 37.2195 78.1639 37.1867 78.2953Z" fill="#3F4254"/>
<path d="M58.0456 78.8049L56.8958 79.1498L56.7972 80.7924C56.7315 81.6795 56.6823 83.7656 56.6658 85.3918L56.6494 88.3813L57.6021 88.1021L58.5384 87.8229L58.5549 86.7059C58.5713 86.0981 58.637 85.5396 58.7191 85.4739C58.8505 85.3589 60.7067 84.8004 60.9531 84.8004C61.0024 84.8004 61.3309 85.2439 61.6758 85.786C62.1193 86.4595 62.3986 86.7387 62.5628 86.673C62.6943 86.6237 63.1213 86.5088 63.5156 86.3938C63.8934 86.2952 64.2055 86.1638 64.2055 86.0981C64.2055 85.9667 59.4911 78.7392 59.294 78.5421C59.2448 78.4928 58.6863 78.6078 58.0456 78.8049ZM59.3433 81.8273C59.8525 82.6322 60.2632 83.3221 60.2632 83.3714C60.2632 83.4535 58.5713 83.9956 58.522 83.9298C58.4563 83.8477 58.2756 80.3654 58.3413 80.3654C58.3742 80.3654 58.8341 81.0224 59.3433 81.8273Z" fill="#3F4254"/>
<path d="M48.8488 80.1516C48.6681 80.1844 48.3724 80.2501 48.1917 80.283C47.8632 80.3487 47.8632 80.398 48.0603 83.7653C48.1589 85.6379 48.2574 87.5762 48.2574 88.0361L48.2738 88.9067H49.2758H50.2778L50.1629 87.3791L50.0479 85.835L50.9677 85.7201C51.477 85.6708 52.1833 85.5065 52.5447 85.3587C54.7293 84.4881 54.8936 81.3014 52.8239 80.3651C52.2983 80.1187 51.7891 80.053 50.6556 80.053C49.8508 80.0694 49.0294 80.1023 48.8488 80.1516ZM52.0354 81.942C52.7582 82.8455 52.2326 83.9953 51.0006 84.2253C49.9986 84.4224 49.9165 84.3074 49.9165 82.829V81.5149H50.8035C51.5755 81.5149 51.7398 81.5807 52.0354 81.942Z" fill="#3F4254"/>
<path d="M34.8208 54.2271V63.0435H32.9568V55.9964H32.9051L30.8861 57.262V55.6089L33.0687 54.2271H34.8208ZM36.7827 61.4937V60.0257L40.4634 54.2271H41.729V56.259H40.98L38.6596 59.931V59.9999H43.8901V61.4937H36.7827ZM41.0144 63.0435V61.046L41.0488 60.396V54.2271H42.7966V63.0435H41.0144ZM48.5157 63.164C48.0622 63.1611 47.6245 63.0851 47.2027 62.9358C46.7837 62.7866 46.4077 62.5441 46.0748 62.2083C45.7419 61.8725 45.4778 61.4277 45.2827 60.8738C45.0904 60.3199 44.9943 59.6397 44.9943 58.8333C44.9971 58.0928 45.0818 57.4313 45.2483 56.8487C45.4176 56.2633 45.6587 55.7668 45.9715 55.3592C46.2872 54.9517 46.6646 54.6418 47.1037 54.4294C47.5428 54.2142 48.0349 54.1065 48.5802 54.1065C49.1686 54.1065 49.688 54.2213 50.1386 54.4509C50.5892 54.6776 50.9508 54.9862 51.2234 55.3765C51.4989 55.7668 51.6654 56.2044 51.7228 56.6895H49.8846C49.8129 56.3824 49.6622 56.1413 49.4326 55.9662C49.203 55.7912 48.9189 55.7036 48.5802 55.7036C48.0062 55.7036 47.57 55.9533 47.2715 56.4527C46.9759 56.9521 46.8253 57.6308 46.8195 58.4889H46.8798C47.0118 58.2277 47.1898 58.0053 47.4136 57.8216C47.6403 57.6351 47.8972 57.493 48.1842 57.3955C48.474 57.295 48.7797 57.2448 49.1011 57.2448C49.6234 57.2448 50.0884 57.3682 50.4959 57.615C50.9034 57.8589 51.2249 58.1947 51.4602 58.6223C51.6955 59.05 51.8132 59.5393 51.8132 60.0903C51.8132 60.6873 51.674 61.2182 51.3956 61.6831C51.1201 62.148 50.7341 62.5125 50.2376 62.7766C49.744 63.0377 49.17 63.1669 48.5157 63.164ZM48.507 61.7003C48.794 61.7003 49.0509 61.6315 49.2776 61.4937C49.5043 61.3559 49.6823 61.1694 49.8114 60.9341C49.9406 60.6987 50.0051 60.4347 50.0051 60.142C50.0051 59.8492 49.9406 59.5866 49.8114 59.3542C49.6852 59.1217 49.5101 58.9366 49.2862 58.7988C49.0624 58.6611 48.807 58.5922 48.52 58.5922C48.3047 58.5922 48.1053 58.6324 47.9216 58.7127C47.7408 58.7931 47.5815 58.905 47.4437 59.0485C47.3089 59.192 47.2027 59.3585 47.1252 59.5479C47.0477 59.7344 47.009 59.9339 47.009 60.1463C47.009 60.4304 47.0735 60.6901 47.2027 60.9255C47.3347 61.1608 47.5126 61.3488 47.7365 61.4894C47.9632 61.63 48.2201 61.7003 48.507 61.7003ZM53.0013 61.4937V60.0257L56.682 54.2271H57.9476V56.259H57.1986L54.8783 59.931V59.9999H60.1087V61.4937H53.0013ZM57.233 63.0435V61.046L57.2675 60.396V54.2271H59.0153V63.0435H57.233ZM65.0679 54.2271V63.0435H63.2039V55.9964H63.1522L61.1333 57.262V55.6089L63.3158 54.2271H65.0679Z" fill="white"/>
</g>
<g opacity="0.8">
<path d="M168.019 1.51945C157.096 2.65286 147.306 7.28506 139.684 14.9068C133.278 21.313 128.81 29.5919 127.069 38.3142C126.329 42.0101 126.215 43.2584 126.231 47.7592C126.231 51.2909 126.297 52.4243 126.592 54.3297C128.235 64.8753 132.933 73.9426 140.522 81.1701C151.396 91.5515 166.524 95.9044 181.554 93.0134C200.034 89.4489 214.916 74.1233 218.021 55.4795C218.661 51.6522 218.842 46.3466 218.464 42.9135C217.265 32.3022 212.994 23.0706 205.783 15.5803C198.588 8.08994 189.521 3.4249 179.107 1.83156C176.676 1.45375 170.352 1.27306 168.019 1.51945ZM177.136 3.67129C182.162 4.16408 187.369 5.69171 192.067 8.04066C196.552 10.2911 199.952 12.755 203.598 16.3852C206.128 18.8984 207.442 20.4917 209.2 23.1199C218.99 37.7392 219.088 57.0236 209.446 71.7415C203.089 81.4494 193.266 88.2827 182.064 90.7795C178.581 91.5679 176.594 91.765 172.372 91.765C167.411 91.765 164.175 91.3215 159.839 90.0403C155.634 88.7919 151.724 86.9522 147.897 84.3897C145.006 82.4678 143.002 80.7923 140.555 78.2627C126.182 63.3313 124.096 40.4003 135.577 23.202C137.434 20.4096 138.83 18.7177 141.162 16.3852C146.189 11.3588 152.119 7.71214 158.837 5.54388C164.783 3.62201 170.615 3.03067 177.136 3.67129Z" fill="#3F4254"/>
<path d="M167.002 7.17002C165.49 7.36714 164.226 7.56425 164.193 7.5971C164.16 7.64638 164.16 8.00776 164.209 8.40199L164.275 9.10831L165.49 8.99333C166.46 8.9112 166.706 8.92762 166.706 9.10831C166.706 9.2233 166.887 10.7674 167.117 12.525C167.347 14.2826 167.527 15.7774 167.527 15.8595C167.527 15.958 169.301 15.8595 169.449 15.7445C169.466 15.7281 169.301 14.2826 169.088 12.525C168.858 10.7674 168.677 9.15759 168.677 8.96048C168.677 8.63195 168.792 8.5991 169.843 8.48412L171.01 8.36913L170.911 7.77779C170.862 7.44927 170.813 7.08789 170.813 6.97291C170.813 6.71009 170.353 6.74294 167.002 7.17002Z" fill="#3F4254"/>
<path d="M173.374 6.97345C173.259 7.3184 172.963 15.3837 173.045 15.5151C173.095 15.5808 173.522 15.6465 173.998 15.6465H174.869L174.967 14.0367C175.033 13.1661 175.132 11.1621 175.181 9.60164L175.296 6.77634H174.36C173.752 6.77634 173.407 6.84204 173.374 6.97345Z" fill="#3F4254"/>
<path d="M178.467 7.54777C178.22 8.41836 176.725 15.6952 176.791 15.7609C176.89 15.8594 178.04 16.1222 178.368 16.1387C178.565 16.1387 178.697 15.7609 178.927 14.6932C179.074 13.9047 179.239 13.1491 179.288 13.0013C179.354 12.7713 179.485 12.7713 180.717 13.0341C182.458 13.4283 182.458 13.4283 182.573 12.8863C182.622 12.6399 182.705 12.3278 182.737 12.1635C182.803 11.95 182.54 11.835 181.226 11.5393C179.764 11.2108 179.666 11.1451 179.748 10.8166C179.797 10.6359 179.896 10.1924 179.945 9.84744C180.011 9.50249 180.142 9.23967 180.274 9.23967C180.503 9.23967 182.721 9.68318 183.148 9.83101C183.362 9.88029 183.46 9.73245 183.608 9.14111C183.723 8.71403 183.789 8.36908 183.756 8.33623C183.69 8.30337 178.812 7.26852 178.664 7.26852C178.598 7.26852 178.516 7.39993 178.467 7.54777Z" fill="#3F4254"/>
<path d="M158.655 9.14142C157.752 9.40424 155.37 10.3898 155.37 10.5048C155.37 10.6034 158.343 18.5044 158.409 18.5701C158.491 18.6686 160.134 18.0444 160.134 17.913C160.134 17.8145 159.427 15.8433 159.066 14.9563C158.984 14.7428 159.099 14.6442 159.625 14.4799C160.479 14.2335 160.856 14.4635 161.776 15.794C162.138 16.3361 162.516 16.8289 162.598 16.8782C162.729 16.9603 164.339 16.5496 164.536 16.3854C164.569 16.3525 164.191 15.7776 163.682 15.1041C162.745 13.8393 162.056 13.1823 161.678 13.1823C161.366 13.1823 161.382 13.0837 161.809 12.5252C162.466 11.6218 162.154 9.96273 161.218 9.33854C160.643 8.96073 159.542 8.8786 158.655 9.14142ZM159.789 10.7183C159.953 10.8005 160.183 11.0797 160.282 11.359C160.446 11.7532 160.446 11.9175 160.232 12.3117C159.969 12.8373 158.737 13.5108 158.508 13.248C158.376 13.1166 157.67 11.3097 157.67 11.1126C157.67 10.9647 158.721 10.5705 159.115 10.5541C159.329 10.5541 159.625 10.6198 159.789 10.7183Z" fill="#3F4254"/>
<path d="M185.102 13.3624C184.248 15.5307 183.525 17.354 183.492 17.4361C183.459 17.5511 184.461 18.0111 185.069 18.1425C185.217 18.1753 185.825 16.8448 186.909 14.1673L188.518 10.1429L187.746 9.78153C187.336 9.58442 186.925 9.42016 186.827 9.42016C186.744 9.42016 185.956 11.1778 185.102 13.3624Z" fill="#3F4254"/>
<path d="M189.209 15.2025C187.993 17.2065 186.991 18.882 186.991 18.9149C186.991 18.9477 188.042 19.6212 189.34 20.4261L191.689 21.8716L192.1 21.1981C192.445 20.656 192.478 20.5082 192.297 20.3768C192.182 20.2947 191.508 19.884 190.819 19.4569C190.112 19.0298 189.537 18.6356 189.537 18.5699C189.537 18.5042 189.767 18.0771 190.046 17.6172C190.523 16.8287 190.589 16.7959 190.917 17.0094C192.034 17.7158 193.348 18.4714 193.381 18.4221C193.397 18.3892 193.595 18.0771 193.792 17.7486L194.153 17.1408L193.282 16.5823C192.806 16.2867 192.182 15.8924 191.903 15.7282L191.377 15.4325L191.87 14.6276L192.363 13.8392L192.954 14.2005C193.299 14.3977 193.956 14.8083 194.416 15.104L195.286 15.6461L195.714 14.9726C195.943 14.5948 196.075 14.2334 195.993 14.1841C195.697 13.9049 191.706 11.5395 191.574 11.5395C191.492 11.5395 190.424 13.1821 189.209 15.2025Z" fill="#3F4254"/>
<path d="M149.967 13.5934C148.85 14.349 147.864 15.0389 147.782 15.121C147.569 15.3345 152.414 22.5785 152.661 22.4142C152.743 22.3485 153.811 21.6422 154.993 20.8373L157.162 19.3918L156.735 18.7512C156.505 18.3898 156.291 18.1106 156.242 18.1106C156.209 18.1106 155.519 18.5541 154.714 19.0961L153.269 20.0653L152.677 19.2604C152.349 18.8005 152.086 18.4062 152.086 18.357C152.086 18.3241 152.661 17.897 153.367 17.4371C154.057 16.9607 154.648 16.5665 154.681 16.5337C154.714 16.5172 154.533 16.2051 154.303 15.8273L153.86 15.1539L152.546 16.0573C151.823 16.5501 151.215 16.9607 151.182 16.9607C151.084 16.9607 150.082 15.466 150.148 15.4167C150.164 15.3838 150.788 14.9732 151.511 14.4968C152.234 14.0205 152.858 13.6098 152.891 13.5769C152.956 13.5277 152.119 12.1807 152.037 12.2136C152.02 12.2136 151.084 12.8378 149.967 13.5934Z" fill="#3F4254"/>
<path d="M196.042 19.6048C194.366 21.2474 192.986 22.6437 192.986 22.7422C192.986 22.8244 193.594 23.4978 194.35 24.2534C196.058 25.9618 196.912 26.4053 198.489 26.4053C199.869 26.4053 200.756 25.9618 201.889 24.6969C203.105 23.35 203.302 21.8059 202.497 20.1962C202.152 19.5227 199.918 17.0752 199.376 16.7959C199.163 16.681 198.44 17.2887 196.042 19.6048ZM200.263 19.7362C200.575 20.0812 200.92 20.6397 201.035 20.9846C201.61 22.7094 199.113 25.0912 197.306 24.5491C196.6 24.3356 195.45 23.4486 195.45 23.12C195.45 22.9065 199.343 19.0956 199.557 19.0956C199.623 19.0956 199.935 19.3749 200.263 19.7362Z" fill="#3F4254"/>
<path d="M144.43 17.7479C142.147 19.4069 141.359 21.9366 142.476 24.0063C143.379 25.6489 144.972 26.6509 146.648 26.6509C147.584 26.6509 148.553 26.2074 149.473 25.3861C150.114 24.8111 151.099 23.4806 151.099 23.185C151.099 23.1192 150.82 22.8893 150.492 22.6922L149.9 22.3144L149.637 22.7086C148.455 24.5155 147.108 25.074 145.695 24.3676C144.332 23.6613 143.56 22.2322 143.888 21.0331C144.069 20.3432 144.857 19.3576 145.547 18.9306L145.991 18.6677L145.531 17.9778L145.071 17.2879L144.43 17.7479Z" fill="#3F4254"/>
<path d="M169.415 17.7813C157.522 19.0625 147.633 26.9799 143.888 38.2319C142.689 41.8621 142.492 43.1269 142.476 47.5948C142.476 51.0772 142.525 51.7507 142.853 53.4097C145.038 64.2182 152.676 72.8912 162.926 76.275C166.474 77.4248 168.051 77.6548 172.536 77.6548C176.938 77.6384 178.17 77.4577 181.734 76.3078C190.539 73.4661 197.733 66.4357 200.772 57.7462C206.916 40.0716 195.91 21.3293 177.463 18.0934C175.394 17.732 171.353 17.5677 169.415 17.7813ZM175.098 18.6026C178.892 18.9968 181.882 19.851 185.348 21.5757C188.436 23.1034 190.325 24.4832 192.986 27.1442C198.325 32.4663 201.183 38.9547 201.478 46.3793C201.593 49.566 201.364 51.9478 200.624 54.8224C196.649 70.3123 181.094 79.6588 165.489 75.9465C161.579 75.0102 157.473 72.9897 154.138 70.3287C152.611 69.1296 149.835 66.1564 148.603 64.4317C147.272 62.5591 145.399 58.8632 144.71 56.7114C141.474 46.7242 143.79 35.8337 150.804 28.0641C153.136 25.4852 156.569 22.9227 159.723 21.395C164.552 19.0789 169.973 18.0934 175.098 18.6026Z" fill="#3F4254"/>
<path d="M168.349 20.0155C159.676 21.3789 152.383 26.4217 148.03 34.0599C144.58 40.1047 143.611 47.9072 145.451 54.9047C147.619 63.2164 153.992 70.4111 161.976 73.5977C173.786 78.2956 187.255 74.5505 194.779 64.4812C198.507 59.4876 200.38 53.8699 200.38 47.6772C200.38 39.9733 197.358 32.8772 191.806 27.5551C187.88 23.7935 183.231 21.346 177.876 20.2454C175.593 19.7691 170.649 19.6541 168.349 20.0155ZM169.696 34.0435C170.304 34.1256 171.207 34.3884 171.733 34.6184C172.899 35.1276 173.129 35.1276 173.605 34.6184C173.901 34.3063 174.164 34.2077 174.706 34.2077H175.412V36.7538V39.2998H174.887C174.591 39.2998 174.197 39.3491 174 39.3984C173.72 39.4805 173.638 39.382 173.457 38.7742C172.932 37.0002 171.536 36.146 169.187 36.1296C168.185 36.1296 167.626 36.2117 167.248 36.4088C165.951 37.0659 166.131 38.4128 167.61 38.9713C167.889 39.0699 169.055 39.3491 170.221 39.5627C173.786 40.2526 175.116 40.9425 175.839 42.4701C176.316 43.5049 176.365 45.0819 175.971 46.2481C175.609 47.2994 174.509 48.3835 173.31 48.8435C172.538 49.1556 172.045 49.2213 170.484 49.2213C168.743 49.2213 168.497 49.1884 167.248 48.6792C165.852 48.1371 165.392 48.1371 165.162 48.7449C165.097 48.9256 164.834 48.9913 164.16 48.9913H163.257V46.3631V43.7349H163.651C163.865 43.7349 164.259 43.6856 164.505 43.6364C164.965 43.5542 164.998 43.5871 165.195 44.3263C165.507 45.4597 165.934 45.9524 167.15 46.5602C168.152 47.053 168.349 47.0859 169.893 47.0859C171.273 47.1023 171.651 47.053 172.127 46.7738C172.866 46.3303 173.244 45.4268 172.965 44.7533C172.685 44.0799 171.881 43.7513 169.367 43.3078C165.869 42.6672 164.439 41.9609 163.733 40.5154C163.306 39.5955 163.142 37.8543 163.405 36.8688C163.782 35.4725 165.228 34.3391 167.018 34.0435C168.086 33.8628 168.447 33.8628 169.696 34.0435ZM186.746 34.0435C190.705 34.5362 192.66 37.0166 192.66 41.5174C192.66 44.2113 192.019 45.9853 190.59 47.3487C188.767 49.0734 185.925 49.6976 182.853 49.057C182.147 48.9092 181.309 48.6628 180.964 48.4821C178.812 47.3815 177.712 45.1476 177.712 41.928C177.728 37.1809 179.634 34.6512 183.625 34.0599C184.923 33.8628 185.202 33.8628 186.746 34.0435ZM161.614 35.1769V35.9653L160.924 36.0639C160.546 36.1132 160.136 36.2938 160.021 36.4417C159.857 36.6716 159.807 37.92 159.807 41.6981C159.807 47.2501 159.774 47.1023 160.974 47.283L161.614 47.398V48.1864V48.9913H157.836H154.058V48.17C154.058 47.398 154.091 47.3487 154.485 47.3487C154.945 47.3487 155.553 47.0859 155.734 46.7902C155.799 46.6916 155.865 44.392 155.865 41.6652C155.865 37.9036 155.816 36.6716 155.651 36.4417C155.536 36.2938 155.126 36.1132 154.748 36.0639L154.058 35.9653V35.1769V34.372H157.836H161.614V35.1769Z" fill="#3F4254"/>
<path d="M185.021 36.0962C184.939 36.1291 184.578 36.1948 184.249 36.2605C183.494 36.3755 182.738 36.9996 182.262 37.8867C181.933 38.5109 181.9 38.7901 181.9 41.4347C181.9 44.3093 181.9 44.3093 182.393 45.2949C183.1 46.7075 183.51 46.9375 185.186 46.9375C186.713 46.9375 187.157 46.724 187.863 45.7055C188.454 44.8185 188.619 43.9479 188.619 41.599C188.619 37.8045 187.912 36.4083 185.843 36.1291C185.481 36.0798 185.12 36.0634 185.021 36.0962Z" fill="#3F4254"/>
<path d="M151.396 55.2493C150.969 55.4957 150.837 56.4648 151.166 56.9576C151.724 57.7953 152.907 57.3025 152.907 56.2513C152.907 55.3642 152.102 54.8222 151.396 55.2493Z" fill="#3F4254"/>
<path d="M157.179 55.316C156.686 55.9073 156.703 59.1105 157.212 59.6032C157.655 60.0467 158.279 59.7839 158.477 59.0447C158.838 57.7964 158.624 55.5295 158.132 55.201C157.803 55.0039 157.409 55.0532 157.179 55.316Z" fill="#3F4254"/>
<path d="M162.813 55.5128C162.386 56.1534 162.386 58.7487 162.813 59.3893C163.158 59.915 163.586 59.9643 164.013 59.4879C164.456 58.9951 164.473 56.1862 164.029 55.5128C163.668 54.9543 163.175 54.9543 162.813 55.5128Z" fill="#3F4254"/>
<path d="M181.849 55.2009C181.34 55.5459 181.143 58.0262 181.537 59.1761C181.701 59.6524 181.816 59.751 182.227 59.751C182.572 59.751 182.769 59.636 182.917 59.3403C183.196 58.7983 183.196 56.1044 182.917 55.5623C182.703 55.1352 182.211 54.971 181.849 55.2009Z" fill="#3F4254"/>
<path d="M197.931 67.8323C197.57 68.2594 197.258 68.7029 197.258 68.8178C197.258 68.9164 197.586 69.7213 197.997 70.6083C198.408 71.4789 198.736 72.2509 198.736 72.3166C198.736 72.3823 197.899 72.1195 196.897 71.7417L195.04 71.0354L194.268 71.791C193.825 72.2016 193.529 72.5959 193.611 72.6616C193.677 72.7109 194.942 73.0722 196.404 73.4665L199.098 74.1728L200.412 75.4048L201.709 76.6367L202.399 75.9468L203.089 75.2405L201.759 73.9921L200.412 72.7273L199.558 69.9348C199.081 68.3908 198.687 67.1259 198.654 67.0931C198.638 67.0602 198.309 67.4052 197.931 67.8323Z" fill="#3F4254"/>
<path d="M145.202 69.2116C143.97 69.573 142.639 70.7557 142.081 71.9877C141.637 72.9404 141.637 74.3038 142.064 75.2401C142.426 76.0285 143.888 77.6547 144.545 77.9997C144.972 78.2132 145.005 78.1968 145.399 77.589L145.81 76.9648L145.07 76.3406C144.101 75.5193 143.707 74.8623 143.707 73.9917C143.707 73.1539 143.986 72.579 144.725 71.8891C145.481 71.1664 145.875 71.0021 146.795 71.0021C147.764 71.0021 148.701 71.5934 149.292 72.5954C149.505 72.9404 149.703 73.2525 149.719 73.2853C149.752 73.3182 150.77 72.7761 151.082 72.5462C151.247 72.4148 150.195 70.9528 149.522 70.3615C148.241 69.2445 146.631 68.8174 145.202 69.2116Z" fill="#3F4254"/>
<path d="M191.886 73.7289L191.196 74.1396L192.198 75.7329C192.756 76.6035 193.545 77.8026 193.955 78.394C194.366 78.9689 194.596 79.3796 194.465 79.2974C194.333 79.2153 193.808 78.8868 193.315 78.5582C192.296 77.8683 188.748 75.9301 188.518 75.9301C188.436 75.9301 187.96 76.1929 187.467 76.505L186.58 77.0799L187.369 78.3447C189.882 82.3856 191.212 84.4717 191.278 84.4717C191.426 84.4717 192.658 83.6504 192.658 83.5354C192.658 83.4204 191.114 80.94 189.997 79.2481C189.553 78.6075 189.241 78.0655 189.29 78.0655C189.356 78.0655 189.635 78.2461 189.915 78.4597C190.588 78.9689 195.417 81.6792 195.664 81.6792C195.746 81.6792 196.189 81.4493 196.616 81.17L197.405 80.6608L196.616 79.4124C196.189 78.7225 195.155 77.0635 194.317 75.7165C193.479 74.386 192.74 73.3019 192.691 73.3019C192.625 73.3183 192.264 73.499 191.886 73.7289Z" fill="#3F4254"/>
<path d="M152.299 74.4681C151.363 74.6488 150.804 74.9609 150.016 75.7986C148.57 77.2934 148.11 79.2152 148.8 80.825C150 83.601 153.843 84.2088 155.831 81.9256C158.048 79.4124 157.687 76.2257 155.042 74.9116C154.007 74.4024 153.268 74.2874 152.299 74.4681ZM154.714 76.5378C155.699 77.4248 155.502 79.1824 154.254 80.5622C153.088 81.8599 151.938 82.057 151.002 81.1207C150.525 80.6443 150.443 80.4472 150.443 79.8066C150.443 78.936 150.755 78.0818 151.363 77.277C152.332 76.0286 153.778 75.7165 154.714 76.5378Z" fill="#3F4254"/>
<path d="M160.546 78.2949C160.234 79.2476 158 86.4258 158 86.4915C158 86.5901 159.643 87.0007 159.708 86.9186C159.741 86.8858 160.152 85.5224 160.612 83.8962C161.088 82.27 161.515 80.7916 161.581 80.6109C161.647 80.4303 161.729 81.8593 161.778 83.7976L161.86 87.3128L162.55 87.51C163.076 87.6742 163.289 87.6742 163.388 87.5264C163.683 87.1486 166.197 82.8942 166.476 82.2864C166.755 81.6951 167.182 81.3994 166.952 81.9579C166.837 82.2864 165.556 88.3148 165.605 88.3477C165.622 88.3641 166.032 88.4791 166.509 88.6269C167.347 88.8733 167.363 88.8569 167.445 88.512C167.708 87.4278 168.989 80.2989 168.94 80.2496C168.907 80.2003 168.349 80.036 167.708 79.8718L166.525 79.5761L166.312 79.921C166.18 80.1182 165.835 80.6931 165.523 81.1859C165.211 81.6787 164.587 82.7464 164.143 83.5677L163.339 85.046L163.256 81.9743C163.207 80.2989 163.141 78.8862 163.092 78.8369C163.043 78.7876 162.468 78.607 161.811 78.4263C160.957 78.1963 160.579 78.1634 160.546 78.2949Z" fill="#3F4254"/>
<path d="M181.405 78.8044L180.255 79.1493L180.157 80.792C180.091 81.679 180.042 83.7651 180.025 85.3913L180.009 88.3809L180.962 88.1016L181.898 87.8224L181.914 86.7054C181.931 86.0976 181.996 85.5391 182.078 85.4734C182.21 85.3584 184.066 84.7999 184.312 84.7999C184.362 84.7999 184.69 85.2435 185.035 85.7855C185.479 86.459 185.758 86.7382 185.922 86.6725C186.054 86.6233 186.481 86.5083 186.875 86.3933C187.253 86.2947 187.565 86.1633 187.565 86.0976C187.565 85.9662 182.851 78.7387 182.653 78.5416C182.604 78.4923 182.046 78.6073 181.405 78.8044ZM182.703 81.8268C183.212 82.6317 183.623 83.3216 183.623 83.3709C183.623 83.453 181.931 83.9951 181.881 83.9294C181.816 83.8472 181.635 80.3649 181.701 80.3649C181.734 80.3649 182.193 81.0219 182.703 81.8268Z" fill="#3F4254"/>
<path d="M172.208 80.1516C172.027 80.1844 171.732 80.2501 171.551 80.283C171.223 80.3487 171.223 80.398 171.42 83.7653C171.518 85.6379 171.617 87.5762 171.617 88.0361L171.633 88.9067H172.635H173.637L173.522 87.3791L173.407 85.835L174.327 85.7201C174.836 85.6708 175.543 85.5065 175.904 85.3587C178.089 84.4881 178.253 81.3014 176.183 80.3651C175.658 80.1187 175.148 80.053 174.015 80.053C173.21 80.0694 172.389 80.1023 172.208 80.1516ZM175.395 81.942C176.118 82.8455 175.592 83.9953 174.36 84.2253C173.358 84.4224 173.276 84.3074 173.276 82.829V81.5149H174.163C174.935 81.5149 175.099 81.5807 175.395 81.942Z" fill="#3F4254"/>
<path d="M159.315 54.1135C159.819 54.1135 160.303 54.198 160.769 54.367C161.238 54.5361 161.656 54.8055 162.022 55.1754C162.392 55.5453 162.684 56.0364 162.898 56.6486C163.114 57.2577 163.224 58.0055 163.228 58.892C163.228 59.7242 163.134 60.4672 162.945 61.1209C162.76 61.7714 162.494 62.3247 162.147 62.7807C161.799 63.2367 161.38 63.5843 160.889 63.8234C160.398 64.0594 159.849 64.1774 159.243 64.1774C158.589 64.1774 158.012 64.0514 157.512 63.7995C157.011 63.5444 156.608 63.1984 156.302 62.7616C155.999 62.3215 155.815 61.8272 155.751 61.2788H157.794C157.874 61.6359 158.041 61.9133 158.296 62.111C158.551 62.3056 158.867 62.4028 159.243 62.4028C159.881 62.4028 160.366 62.1254 160.697 61.5705C161.029 61.0125 161.196 60.2488 161.2 59.2794H161.133C160.986 59.5664 160.788 59.8135 160.539 60.0208C160.291 60.2249 160.005 60.3827 159.683 60.4943C159.364 60.6059 159.025 60.6617 158.664 60.6617C158.087 60.6617 157.572 60.5262 157.119 60.2552C156.667 59.9841 156.309 59.611 156.048 59.1359C155.787 58.6608 155.656 58.1187 155.656 57.5096C155.653 56.8527 155.804 56.2676 156.11 55.7542C156.416 55.2408 156.844 54.839 157.392 54.5488C157.944 54.2554 158.585 54.1103 159.315 54.1135ZM159.329 55.7398C159.007 55.7398 158.72 55.8164 158.468 55.9694C158.22 56.1225 158.022 56.3282 157.875 56.5865C157.732 56.8447 157.662 57.1333 157.665 57.4522C157.665 57.7743 157.735 58.0645 157.875 58.3228C158.019 58.5779 158.213 58.7819 158.459 58.935C158.707 59.0849 158.991 59.1598 159.31 59.1598C159.549 59.1598 159.771 59.1152 159.975 59.0259C160.179 58.9366 160.356 58.8138 160.506 58.6576C160.659 58.4981 160.779 58.3148 160.865 58.1075C160.951 57.9002 160.994 57.6802 160.994 57.4474C160.991 57.1381 160.917 56.8543 160.774 56.596C160.63 56.3377 160.433 56.1305 160.181 55.9742C159.929 55.8179 159.645 55.7398 159.329 55.7398ZM168.503 64.2587C167.681 64.2555 166.973 64.053 166.38 63.6512C165.79 63.2494 165.335 62.6675 165.016 61.9054C164.701 61.1432 164.545 60.2265 164.548 59.155C164.548 58.0868 164.706 57.1764 165.021 56.4238C165.34 55.6713 165.795 55.0989 166.384 54.7067C166.978 54.3112 167.684 54.1135 168.503 54.1135C169.323 54.1135 170.028 54.3112 170.618 54.7067C171.211 55.1021 171.667 55.676 171.986 56.4286C172.304 57.178 172.462 58.0868 172.459 59.155C172.459 60.2297 172.3 61.148 171.981 61.9102C171.665 62.6723 171.212 63.2542 170.622 63.656C170.032 64.0578 169.326 64.2587 168.503 64.2587ZM168.503 62.5415C169.065 62.5415 169.513 62.2593 169.848 61.6949C170.182 61.1305 170.348 60.2839 170.345 59.155C170.345 58.412 170.268 57.7934 170.115 57.2991C169.966 56.8049 169.752 56.4334 169.474 56.1847C169.2 55.9359 168.877 55.8116 168.503 55.8116C167.945 55.8116 167.499 56.0906 167.164 56.6486C166.829 57.2067 166.66 58.0421 166.657 59.155C166.657 59.9076 166.732 60.5358 166.882 61.0396C167.035 61.5402 167.25 61.9165 167.528 62.1684C167.805 62.4172 168.13 62.5415 168.503 62.5415ZM177.777 64.2587C176.954 64.2555 176.246 64.053 175.653 63.6512C175.063 63.2494 174.609 62.6675 174.29 61.9054C173.974 61.1432 173.818 60.2265 173.821 59.155C173.821 58.0868 173.979 57.1764 174.295 56.4238C174.614 55.6713 175.068 55.0989 175.658 54.7067C176.251 54.3112 176.957 54.1135 177.777 54.1135C178.596 54.1135 179.301 54.3112 179.891 54.7067C180.484 55.1021 180.94 55.676 181.259 56.4286C181.578 57.178 181.736 58.0868 181.733 59.155C181.733 60.2297 181.573 61.148 181.254 61.9102C180.939 62.6723 180.486 63.2542 179.896 63.656C179.306 64.0578 178.6 64.2587 177.777 64.2587ZM177.777 62.5415C178.338 62.5415 178.786 62.2593 179.121 61.6949C179.456 61.1305 179.622 60.2839 179.618 59.155C179.618 58.412 179.542 57.7934 179.389 57.2991C179.239 56.8049 179.025 56.4334 178.748 56.1847C178.474 55.9359 178.15 55.8116 177.777 55.8116C177.219 55.8116 176.772 56.0906 176.438 56.6486C176.103 57.2067 175.934 58.0421 175.931 59.155C175.931 59.9076 176.005 60.5358 176.155 61.0396C176.308 61.5402 176.524 61.9165 176.801 62.1684C177.079 62.4172 177.404 62.5415 177.777 62.5415ZM187.471 54.2475V64.0435H185.4V56.2134H185.343L183.099 57.6196V55.7829L185.524 54.2475H187.471Z" fill="white"/>
</g>
</svg>
