<svg width="70" height="48" viewBox="0 0 70 48" fill="none" xmlns="http://www.w3.org/2000/svg">
<g opacity="0.8">
<path fill-rule="evenodd" clip-rule="evenodd" d="M23.937 31.2267C23.5505 31.432 23.2606 31.5347 22.874 31.7401C23.0673 32.1508 23.2606 32.4588 23.4538 32.8695C23.8404 32.6642 24.2269 32.4588 24.5169 32.2535C24.3236 31.9454 24.1303 31.5347 23.937 31.2267Z" fill="#17BBB1"/>
<path fill-rule="evenodd" clip-rule="evenodd" d="M3.62521 20.6211L0.862735 18.4694C0.862735 18.4694 3.45779 14.4142 8.06192 14.828C8.06192 14.828 11.9964 14.9935 13.252 18.1384C13.252 18.1384 14.5914 22.3591 11.4941 25.0902C11.4941 25.0902 6.4714 29.3936 4.54604 30.4695L6.88996 29.4764H13.838V32.8695H0.695312V29.6419L7.97821 23.8488C9.48502 22.6074 10.657 20.1246 8.81532 18.6349C8.31306 18.2211 7.72708 18.0556 6.97367 18.2211C5.55058 18.4694 4.29491 19.7936 3.62521 20.6211Z" fill="#3F4254"/>
<path fill-rule="evenodd" clip-rule="evenodd" d="M37.7467 18.0124V14.7983H49.6445V17.6828L45.1828 22.0507C45.1828 22.0507 48.9009 22.4627 49.8097 25.9241C50.8012 29.8799 47.331 33.1764 43.1999 32.8468C43.1999 32.8468 39.6471 33.0116 36.8379 29.7151L39.3166 27.3251C39.3166 27.3251 41.1343 29.7151 43.7782 29.3854C43.7782 29.3854 46.0917 29.3854 46.1743 27.3251C46.3395 24.6879 43.1172 24.5231 41.1343 24.7703L40.5559 22.3803L46.2569 16.6938L44.0261 18.0124H37.7467Z" fill="#3F4254"/>
<path fill-rule="evenodd" clip-rule="evenodd" d="M60.249 14.7983C65.432 14.7983 69.6954 18.8321 69.6954 23.8339C69.6954 28.8358 65.432 32.8696 60.249 32.8696C55.0661 32.8696 50.8027 28.8358 50.8027 23.8339C50.8863 18.8321 55.0661 14.7983 60.249 14.7983ZM60.249 18.2674C63.2585 18.2674 65.6828 20.7683 65.6828 23.8339C65.6828 26.8996 63.2585 29.4005 60.249 29.4005C57.2396 29.4005 54.8153 26.8996 54.8153 23.8339C54.8153 20.7683 57.3232 18.2674 60.249 18.2674Z" fill="#3F4254"/>
<path fill-rule="evenodd" clip-rule="evenodd" d="M26.1593 16.4412C26.4673 16.1513 26.6727 15.958 26.9807 15.6681C26.6727 15.3782 26.4673 15.0883 26.1593 14.7983C25.8513 15.0883 25.5432 15.3782 25.3379 15.6681C25.5432 15.8614 25.8513 16.1513 26.1593 16.4412Z" fill="#17BBB1"/>
<path fill-rule="evenodd" clip-rule="evenodd" d="M26.1593 13.1555C26.458 12.8817 26.682 12.6764 26.9807 12.4026C26.682 12.1288 26.458 11.7865 26.1593 11.5127C25.8606 11.7865 25.5619 12.0603 25.3379 12.4026C25.6366 12.6764 25.8606 12.8817 26.1593 13.1555Z" fill="#17BBB1"/>
<path fill-rule="evenodd" clip-rule="evenodd" d="M26.8519 14.7984C27.1977 14.5519 27.4571 14.3876 27.803 14.1412C27.5436 13.8127 27.3707 13.4841 27.1113 13.1555C26.7654 13.4019 26.4196 13.6484 26.1602 13.8948C26.3331 14.2234 26.5925 14.5519 26.8519 14.7984Z" fill="#17BBB1"/>
<path fill-rule="evenodd" clip-rule="evenodd" d="M28.8587 18.0839C28.8 17.8785 28.6827 17.6732 28.624 17.4678C28.8 17.3994 29.0347 17.3309 29.2108 17.2625C29.2694 17.4678 29.3868 17.6732 29.4454 17.947C29.2694 17.947 29.0347 18.0154 28.8587 18.0839Z" fill="#17BBB1"/>
<path fill-rule="evenodd" clip-rule="evenodd" d="M28.144 18.9054C28.0756 18.7561 27.9387 18.532 27.8018 18.3827C28.0071 18.308 28.144 18.1587 28.3494 18.084C28.4863 18.308 28.5547 18.4574 28.6232 18.6814C28.4863 18.7561 28.2809 18.8307 28.144 18.9054Z" fill="#17BBB1"/>
<path fill-rule="evenodd" clip-rule="evenodd" d="M28.3816 17.2625C28.1883 16.9544 27.995 16.5437 27.8018 16.2357C28.1883 16.0303 28.4782 15.825 28.8648 15.6196C29.058 16.0303 29.2513 16.441 29.4446 16.7491C29.058 16.9544 28.7681 17.1598 28.3816 17.2625Z" fill="#17BBB1"/>
<path fill-rule="evenodd" clip-rule="evenodd" d="M26.8789 17.2626C26.6735 17.0866 26.3655 16.9692 26.1602 16.7932C26.4682 16.6759 26.7762 16.5585 27.0843 16.4412C27.2896 16.6172 27.495 16.7932 27.803 16.9692C27.495 17.0866 27.1869 17.2039 26.8789 17.2626Z" fill="#17BBB1"/>
<path fill-rule="evenodd" clip-rule="evenodd" d="M24.6464 15.6198C24.9058 15.3604 25.0788 15.0145 25.3381 14.7551C24.9923 14.4957 24.7329 14.2363 24.387 13.9769C24.1276 14.3228 23.9547 14.6687 23.6953 15.0145C24.0412 15.1874 24.387 15.4468 24.6464 15.6198Z" fill="#17BBB1"/>
<path fill-rule="evenodd" clip-rule="evenodd" d="M26.1593 32.0481C26.4673 32.338 26.6727 32.5313 26.9807 32.8212C26.6727 33.1111 26.4673 33.401 26.1593 33.6909C25.8513 33.401 25.5432 33.1111 25.3379 32.8212C25.5432 32.5313 25.8513 32.2414 26.1593 32.0481Z" fill="#17BBB1"/>
<path fill-rule="evenodd" clip-rule="evenodd" d="M26.1593 34.5123C26.458 34.7861 26.682 34.9915 26.9807 35.2653C26.682 35.5391 26.458 35.8814 26.1593 36.1552C25.8606 35.8814 25.5619 35.6076 25.3379 35.2653C25.6366 34.9915 25.8606 34.7177 26.1593 34.5123Z" fill="#17BBB1"/>
<path fill-rule="evenodd" clip-rule="evenodd" d="M26.8519 32.8695C27.1977 33.1159 27.4571 33.2802 27.803 33.5266C27.5436 33.8552 27.3707 34.1838 27.1113 34.5123C26.7654 34.2659 26.4196 34.0195 26.1602 33.7731C26.3331 33.4445 26.5925 33.1981 26.8519 32.8695Z" fill="#17BBB1"/>
<path fill-rule="evenodd" clip-rule="evenodd" d="M24.6464 32.8695C24.9058 33.1289 25.0788 33.4748 25.3381 33.7342C24.9923 33.9936 24.7329 34.2529 24.387 34.5123C24.1276 34.1665 23.9547 33.8206 23.6953 33.4748C24.0412 33.3018 24.387 33.1289 24.6464 32.8695Z" fill="#17BBB1"/>
<path fill-rule="evenodd" clip-rule="evenodd" d="M30.4416 17.2625C30.6763 17.1993 30.8524 17.1993 31.087 17.1993C31.087 16.9465 31.0284 16.6938 30.9697 16.441C30.735 16.5042 30.5003 16.5042 30.2656 16.5674C30.383 16.8202 30.383 17.0729 30.4416 17.2625Z" fill="#17BBB1"/>
<path fill-rule="evenodd" clip-rule="evenodd" d="M32.1686 15.6198C32.6009 15.5333 33.0332 15.4468 33.552 15.4468C33.552 14.928 33.4656 14.4957 33.3791 13.9769C32.8603 14.0634 32.428 14.1499 31.9092 14.3228C31.9956 14.6687 32.0821 15.1874 32.1686 15.6198Z" fill="#17BBB1"/>
<path fill-rule="evenodd" clip-rule="evenodd" d="M32.1282 17.2626H33.552V16.4412C33.0044 16.4412 32.4568 16.4412 31.9092 16.4998C32.0187 16.7345 32.1282 16.9692 32.1282 17.2626Z" fill="#17BBB1"/>
<path fill-rule="evenodd" clip-rule="evenodd" d="M31.9092 19.3983C31.9092 18.9602 31.9724 18.5221 31.9724 18.084C32.2251 18.084 32.4779 18.1935 32.7306 18.303C32.6674 18.7411 32.6674 19.1792 32.6042 19.7268C32.4147 19.6173 32.1619 19.5078 31.9092 19.3983Z" fill="#17BBB1"/>
<path fill-rule="evenodd" clip-rule="evenodd" d="M30.3403 18.7685C30.3403 18.5631 30.2656 18.2893 30.2656 18.084C30.5643 18.084 30.7883 18.084 31.087 18.1524V18.9054C30.7883 18.7685 30.5643 18.7685 30.3403 18.7685Z" fill="#17BBB1"/>
<path fill-rule="evenodd" clip-rule="evenodd" d="M29.6693 19.5928C29.5947 19.3637 29.52 19.2109 29.4453 18.9818C29.6693 18.9054 29.8934 18.9054 30.1174 18.9054C30.1921 19.1345 30.1921 19.3637 30.2667 19.5928C30.1174 19.5164 29.8934 19.5164 29.6693 19.5928Z" fill="#17BBB1"/>
<path fill-rule="evenodd" clip-rule="evenodd" d="M29.8319 16.4412C30.2184 16.3445 30.605 16.2479 31.0881 16.1513C30.9915 15.6681 30.8949 15.2815 30.7016 14.7983C30.315 14.9916 29.8319 15.0883 29.4453 15.2815C29.542 15.5714 29.7352 15.958 29.8319 16.4412Z" fill="#17BBB1"/>
<path fill-rule="evenodd" clip-rule="evenodd" d="M21.1142 30.4053C21.1729 30.658 21.1729 30.8476 21.2316 31.1003C20.9969 31.1635 20.7622 31.2267 20.5275 31.2267C20.4688 30.9739 20.4688 30.7212 20.4102 30.4685C20.7035 30.4685 20.8795 30.4685 21.1142 30.4053Z" fill="#17BBB1"/>
<path fill-rule="evenodd" clip-rule="evenodd" d="M21.1569 28.8994C21.1569 29.1047 21.2316 29.3785 21.2316 29.5839C20.9329 29.5839 20.7089 29.5839 20.4102 29.5154V28.7625C20.6342 28.8309 20.9329 28.8309 21.1569 28.8994Z" fill="#17BBB1"/>
<path fill-rule="evenodd" clip-rule="evenodd" d="M20.15 32.048C20.2365 32.4803 20.323 32.9126 20.4094 33.345C19.8906 33.5179 19.4583 33.6043 18.9395 33.6908C18.8531 33.172 18.8531 32.7397 18.7666 32.2209C19.1989 32.2209 19.7177 32.1344 20.15 32.048Z" fill="#17BBB1"/>
<path fill-rule="evenodd" clip-rule="evenodd" d="M22.3901 32.0481C22.4868 32.4132 22.68 32.7782 22.8733 33.2346C22.4868 33.4171 22.0036 33.5084 21.617 33.6909C21.5204 33.2346 21.3271 32.8695 21.2305 32.4132C21.617 32.3219 22.0036 32.2306 22.3901 32.0481Z" fill="#17BBB1"/>
<path fill-rule="evenodd" clip-rule="evenodd" d="M25.3928 30.4053C25.0642 30.5226 24.7356 30.5813 24.5166 30.6986C24.7356 30.8747 24.9547 31.0507 25.1737 31.2267C25.5023 31.1093 25.8309 30.992 26.1594 30.8747C25.9404 30.6986 25.6118 30.5226 25.3928 30.4053Z" fill="#17BBB1"/>
<path fill-rule="evenodd" clip-rule="evenodd" d="M24.2008 29.5839C24.0112 29.6585 23.8849 29.7332 23.6953 29.8079C23.7585 30.0319 23.8849 30.1813 24.0112 30.4053C24.2008 30.3306 24.3904 30.1813 24.5167 30.1066C24.3904 29.8826 24.3272 29.7332 24.2008 29.5839Z" fill="#17BBB1"/>
<path fill-rule="evenodd" clip-rule="evenodd" d="M22.5994 29.5837C22.4351 29.6522 22.216 29.7206 22.0518 29.7206C22.1065 29.926 22.216 30.1998 22.2708 30.4052C22.4898 30.3367 22.6541 30.2683 22.8732 30.1314C22.7637 29.9945 22.7089 29.7891 22.5994 29.5837Z" fill="#17BBB1"/>
<path fill-rule="evenodd" clip-rule="evenodd" d="M22.6492 28.7622H22.0518C22.0518 28.9913 22.1264 29.2205 22.2011 29.4496C22.4251 29.4496 22.6492 29.3732 22.8732 29.3732C22.7985 29.1441 22.7238 28.9913 22.6492 28.7622Z" fill="#17BBB1"/>
<path fill-rule="evenodd" clip-rule="evenodd" d="M19.5333 30.4053C19.5333 30.64 19.5333 30.9333 19.588 31.168C19.3142 31.2267 19.0404 31.2267 18.7666 31.2267V30.4053C19.0404 30.4053 19.2595 30.4053 19.5333 30.4053Z" fill="#17BBB1"/>
<path fill-rule="evenodd" clip-rule="evenodd" d="M33.5527 21.5751C33.8608 21.7805 34.2715 21.9858 34.5795 22.1912C34.7849 21.7805 34.9902 21.4724 35.1956 21.0617C34.7849 20.8564 34.4768 20.651 34.0661 20.5483C33.8608 20.959 33.6554 21.2671 33.5527 21.5751Z" fill="#17BBB1"/>
<path fill-rule="evenodd" clip-rule="evenodd" d="M30.2656 20.3988C30.4947 20.4734 30.6473 20.4734 30.8764 20.5481C30.8764 20.3241 30.9527 20.1001 30.9527 19.876C30.7237 19.8014 30.4947 19.8014 30.2656 19.7267V20.3988Z" fill="#17BBB1"/>
<path fill-rule="evenodd" clip-rule="evenodd" d="M31.9092 21.1169C32.0987 21.1801 32.2883 21.3065 32.541 21.3696C32.6042 21.1801 32.6674 20.9273 32.7306 20.7378C32.4779 20.6746 32.2883 20.6114 32.0356 20.5482C31.9724 20.7378 31.9724 20.9273 31.9092 21.1169Z" fill="#17BBB1"/>
<path fill-rule="evenodd" clip-rule="evenodd" d="M36.0166 20.8469C36.3737 20.9963 36.6595 21.2203 37.0166 21.3696C37.2309 20.9963 37.4452 20.6229 37.6594 20.2495C37.3023 20.1002 36.9452 19.8762 36.5166 19.7268C36.3737 20.1002 36.1595 20.4736 36.0166 20.8469Z" fill="#17BBB1"/>
<path fill-rule="evenodd" clip-rule="evenodd" d="M34.373 22.3207C34.7016 22.5801 34.948 22.7531 35.2766 23.0125C35.523 22.6666 35.7695 22.4072 36.0159 22.0614C35.6873 21.802 35.3587 21.629 35.0302 21.3696C34.7838 21.7155 34.5373 22.0613 34.373 22.3207Z" fill="#17BBB1"/>
<path fill-rule="evenodd" clip-rule="evenodd" d="M33.5527 20.092C33.9393 20.1833 34.3258 20.3658 34.7124 20.5484C34.9057 20.1833 35.0989 19.7269 35.1956 19.2706C34.809 19.1793 34.3258 18.9968 33.8426 18.9055C33.746 19.3619 33.6494 19.7269 33.5527 20.092Z" fill="#17BBB1"/>
<path fill-rule="evenodd" clip-rule="evenodd" d="M18.7659 26.0929C18.5605 26.4009 18.4579 26.8116 18.2525 27.1196C17.8418 26.9143 17.5338 26.8116 17.123 26.6063C17.3284 26.1955 17.5338 25.8875 17.7391 25.4768C18.0471 25.7848 18.4579 25.9902 18.7659 26.0929Z" fill="#17BBB1"/>
<path fill-rule="evenodd" clip-rule="evenodd" d="M20.4093 23.4232C20.26 23.5405 20.1106 23.6579 20.0359 23.8339C19.8866 23.7165 19.7372 23.5992 19.5879 23.4232C19.7372 23.3058 19.8866 23.1298 20.0359 23.0125C20.1106 23.1298 20.26 23.3058 20.4093 23.4232Z" fill="#17BBB1"/>
<path fill-rule="evenodd" clip-rule="evenodd" d="M18.7677 25.3741C18.6413 25.6822 18.515 25.9902 18.4518 26.2982C18.2622 26.0929 18.0727 25.8875 17.9463 25.5795C18.0727 25.2715 18.199 24.9634 18.3886 24.6554C18.4518 24.9634 18.5781 25.1688 18.7677 25.3741Z" fill="#17BBB1"/>
<path fill-rule="evenodd" clip-rule="evenodd" d="M16.302 26.8955C16.1592 27.2689 15.9449 27.5676 15.802 27.9409C15.4449 27.7916 15.0163 27.6422 14.6592 27.4182C14.8735 27.0448 15.0877 26.6715 15.302 26.2981C15.6592 26.5221 15.9449 26.6715 16.302 26.8955Z" fill="#17BBB1"/>
<path fill-rule="evenodd" clip-rule="evenodd" d="M17.9456 28.3974C17.8543 28.7625 17.6718 29.2188 17.5805 29.5839C17.1242 29.4926 16.7591 29.4013 16.3027 29.2188C16.4853 28.7625 16.5765 28.3974 16.7591 27.941C17.2154 28.1236 17.5805 28.2148 17.9456 28.3974Z" fill="#17BBB1"/>
<path fill-rule="evenodd" clip-rule="evenodd" d="M21.0972 27.2689C20.8682 27.1942 20.7155 27.1942 20.4865 27.1195C20.4865 27.3435 20.4102 27.5676 20.4102 27.7916C20.6392 27.8662 20.8682 27.8663 21.0972 27.9409C21.0209 27.7169 21.0209 27.4929 21.0972 27.2689Z" fill="#17BBB1"/>
<path fill-rule="evenodd" clip-rule="evenodd" d="M19.588 28.1171C19.3353 28.0584 19.0825 27.9997 18.893 27.941C18.8298 28.1757 18.8298 28.4104 18.7666 28.6451C19.0193 28.7038 19.2721 28.7038 19.588 28.7625C19.5248 28.5278 19.588 28.2931 19.588 28.1171Z" fill="#17BBB1"/>
<path fill-rule="evenodd" clip-rule="evenodd" d="M19.588 26.551C19.3985 26.4878 19.1457 26.3614 18.9562 26.2982C18.893 26.4878 18.8298 26.7405 18.7666 26.9301C19.0193 26.9933 19.2089 27.0565 19.4616 27.1196C19.4616 26.9933 19.5248 26.7405 19.588 26.551Z" fill="#17BBB1"/>
<path fill-rule="evenodd" clip-rule="evenodd" d="M20.4093 25.7927C20.26 25.6664 20.0359 25.6032 19.8866 25.4768C19.8119 25.6664 19.6626 25.7927 19.5879 25.9823C19.8119 26.1087 19.9613 26.1719 20.1853 26.2982C20.26 26.1719 20.3346 25.9823 20.4093 25.7927Z" fill="#17BBB1"/>
<path fill-rule="evenodd" clip-rule="evenodd" d="M17.1233 25.347C16.9504 25.6929 16.691 25.9523 16.5181 26.2981C16.1722 26.1252 15.8263 25.8658 15.4805 25.6064C15.7399 25.2605 15.9993 24.9147 16.2587 24.6553C16.4316 24.9147 16.7774 25.0876 17.1233 25.347Z" fill="#17BBB1"/>
<path fill-rule="evenodd" clip-rule="evenodd" d="M33.5527 26.0929C33.7581 26.4009 33.8608 26.8116 34.0661 27.1196C34.4768 26.9143 34.7849 26.8116 35.1956 26.6063C34.9902 26.1955 34.7849 25.8875 34.5795 25.4768C34.1688 25.7848 33.8608 25.8875 33.5527 26.0929Z" fill="#17BBB1"/>
<path fill-rule="evenodd" clip-rule="evenodd" d="M32.7305 23.1153C32.8568 23.3206 33.0464 23.526 33.1728 23.834C33.2991 23.526 33.4255 23.2179 33.5519 22.9099C33.3623 22.7045 33.236 22.4992 33.0464 22.1912C32.9832 22.4992 32.8568 22.8072 32.7305 23.1153Z" fill="#17BBB1"/>
<path fill-rule="evenodd" clip-rule="evenodd" d="M31.9092 23.4232C32.0585 23.5405 32.2079 23.6579 32.2826 23.8339C32.4319 23.7165 32.5812 23.5992 32.7306 23.4232C32.5812 23.3058 32.4319 23.1885 32.2826 23.0125C32.2079 23.1298 32.0585 23.3058 31.9092 23.4232Z" fill="#17BBB1"/>
<path fill-rule="evenodd" clip-rule="evenodd" d="M33.5527 23.8339C33.8426 24.1077 34.0359 24.3815 34.3258 24.6553C34.6157 24.3815 34.9057 24.1077 35.1956 23.8339C34.9057 23.5601 34.6157 23.2863 34.3258 23.0125C34.1326 23.2863 33.8426 23.5601 33.5527 23.8339Z" fill="#17BBB1"/>
<path fill-rule="evenodd" clip-rule="evenodd" d="M32.7305 25.3741C32.8568 25.6822 32.9832 25.9902 33.0464 26.2982C33.236 26.0929 33.4255 25.8875 33.5519 25.5795C33.4255 25.2715 33.2991 24.9634 33.1096 24.6554C33.0464 24.9634 32.8568 25.1688 32.7305 25.3741Z" fill="#17BBB1"/>
<path fill-rule="evenodd" clip-rule="evenodd" d="M36.0166 26.8956C36.1595 27.269 36.3737 27.5677 36.5166 27.9411C36.8737 27.7917 37.3023 27.6424 37.6594 27.4183C37.4452 27.045 37.2309 26.6716 37.0166 26.2982C36.6595 26.5222 36.3737 26.7463 36.0166 26.8956Z" fill="#17BBB1"/>
<path fill-rule="evenodd" clip-rule="evenodd" d="M31.0879 21.9172C31.2406 21.9857 31.4696 22.1226 31.6223 22.191C31.6986 21.9857 31.775 21.7803 31.8513 21.6434C31.6223 21.575 31.4696 21.4381 31.2406 21.3696C31.2406 21.5065 31.1642 21.7119 31.0879 21.9172Z" fill="#17BBB1"/>
<path fill-rule="evenodd" clip-rule="evenodd" d="M34.373 27.5759C34.4643 27.9409 34.6469 28.306 34.7381 28.7623C35.1945 28.6711 35.5595 28.5798 36.0159 28.3973C35.8333 27.9409 35.7421 27.5759 35.5595 27.1195C35.1032 27.302 34.7381 27.4846 34.373 27.5759Z" fill="#17BBB1"/>
<path fill-rule="evenodd" clip-rule="evenodd" d="M34.373 25.347C34.6324 25.6929 34.8054 25.9523 34.9783 26.2981C35.3242 26.1252 35.67 25.8658 36.0159 25.6064C35.7565 25.2605 35.4971 25.0011 35.2377 24.6553C34.9783 24.9147 34.7189 25.1741 34.373 25.347Z" fill="#17BBB1"/>
<path fill-rule="evenodd" clip-rule="evenodd" d="M18.7659 21.5751C18.4579 21.7805 18.0471 21.9858 17.7391 22.1912C17.5338 21.8831 17.3284 21.4724 17.123 21.0617C17.5338 20.8564 17.8418 20.651 18.2525 20.5483C18.4579 20.8564 18.6632 21.1644 18.7659 21.5751Z" fill="#17BBB1"/>
<path fill-rule="evenodd" clip-rule="evenodd" d="M16.302 20.7722C15.9449 20.9216 15.6592 21.1456 15.302 21.3696C15.0877 20.9963 14.8735 20.6229 14.6592 20.2495C15.0163 20.0255 15.3735 19.8762 15.802 19.7268C15.9449 20.1002 16.1592 20.4736 16.302 20.7722Z" fill="#17BBB1"/>
<path fill-rule="evenodd" clip-rule="evenodd" d="M17.1233 22.3207C16.7947 22.5801 16.5483 22.7531 16.2197 23.0125C15.9733 22.6666 15.7269 22.4072 15.4805 22.0614C15.809 21.802 16.1376 21.5426 16.4662 21.3696C16.7126 21.629 16.8769 21.9749 17.1233 22.3207Z" fill="#17BBB1"/>
<path fill-rule="evenodd" clip-rule="evenodd" d="M18.7659 23.8339C18.476 23.5601 18.2827 23.2863 17.9928 23.0125C17.7029 23.2863 17.413 23.5601 17.123 23.8339C17.413 24.1077 17.7029 24.3815 17.9928 24.6553C18.2827 24.3815 18.476 24.1077 18.7659 23.8339Z" fill="#17BBB1"/>
<path fill-rule="evenodd" clip-rule="evenodd" d="M18.7677 23.1153C18.6413 22.8072 18.515 22.4992 18.4518 22.1912C18.2622 22.3965 18.0727 22.6019 17.9463 22.9099C18.0727 23.2179 18.199 23.526 18.3886 23.834C18.515 23.6286 18.6413 23.4233 18.7677 23.1153Z" fill="#17BBB1"/>
<path fill-rule="evenodd" clip-rule="evenodd" d="M17.9456 20.0916C17.559 20.1829 17.1725 20.3655 16.7859 20.548C16.5926 20.1829 16.3994 19.7266 16.3027 19.2702C16.6893 19.179 17.1725 18.9964 17.6557 18.9052C17.7523 19.2702 17.8489 19.7266 17.9456 20.0916Z" fill="#17BBB1"/>
<path fill-rule="evenodd" clip-rule="evenodd" d="M30.392 30.4053C30.3288 30.658 30.3288 30.8476 30.2656 31.1003C30.5184 31.1635 30.7711 31.2267 31.0239 31.2267C31.087 30.9739 31.087 30.7212 31.087 30.4685C30.8975 30.4685 30.6447 30.4685 30.392 30.4053Z" fill="#17BBB1"/>
<path fill-rule="evenodd" clip-rule="evenodd" d="M31.9092 26.551C31.9776 26.7405 31.9776 26.9301 32.0461 27.1196C32.2514 27.0565 32.5252 26.9933 32.7306 26.9301C32.6621 26.7405 32.5937 26.4878 32.5252 26.2982C32.3199 26.3614 32.1145 26.4246 31.9092 26.551Z" fill="#17BBB1"/>
<path fill-rule="evenodd" clip-rule="evenodd" d="M31.0879 27.3435V27.9409C31.3169 27.8663 31.546 27.8662 31.775 27.7916C31.775 27.5676 31.6986 27.3435 31.6986 27.1195C31.546 27.2689 31.3169 27.2689 31.0879 27.3435Z" fill="#17BBB1"/>
<path fill-rule="evenodd" clip-rule="evenodd" d="M31.9092 28.2696C31.9092 28.7077 31.9724 29.1458 31.9724 29.5839C32.2251 29.4744 32.4779 29.4744 32.7306 29.3648C32.6674 28.9267 32.6674 28.4887 32.6042 27.941C32.3515 28.0506 32.1619 28.1601 31.9092 28.2696Z" fill="#17BBB1"/>
<path fill-rule="evenodd" clip-rule="evenodd" d="M30.3403 28.8991C30.3403 29.1045 30.3403 29.3783 30.2656 29.5836C30.5643 29.5836 30.7883 29.5836 31.087 29.5152V28.7622C30.863 28.8307 30.639 28.8991 30.3403 28.8991Z" fill="#17BBB1"/>
<path fill-rule="evenodd" clip-rule="evenodd" d="M32.1686 32.0481C32.0821 32.4804 31.9956 32.9127 31.9092 33.3451C32.428 33.4315 32.8603 33.6045 33.3791 33.6909C33.4656 33.1721 33.4656 32.7398 33.552 32.221C33.0332 32.1346 32.6009 32.1346 32.1686 32.0481Z" fill="#17BBB1"/>
<path fill-rule="evenodd" clip-rule="evenodd" d="M31.0879 25.7927C31.1626 25.9823 31.2372 26.1087 31.3119 26.2982C31.5359 26.235 31.6853 26.1087 31.9093 25.9823C31.8346 25.7927 31.6853 25.6664 31.6106 25.4768C31.4613 25.6032 31.2372 25.7296 31.0879 25.7927Z" fill="#17BBB1"/>
<path fill-rule="evenodd" clip-rule="evenodd" d="M29.8319 32.0481C29.7352 32.4132 29.542 32.7782 29.4453 33.2346C29.8319 33.4171 30.315 33.5084 30.7016 33.6909C30.7982 33.2346 30.9915 32.8695 31.0881 32.4132C30.605 32.2306 30.2184 32.1394 29.8319 32.0481Z" fill="#17BBB1"/>
<path fill-rule="evenodd" clip-rule="evenodd" d="M26.5435 30.4053C26.7078 30.5226 26.8721 30.5813 26.9816 30.6986C26.8721 30.8747 26.7625 31.0507 26.653 31.2267C26.4887 31.1093 26.3244 30.992 26.1602 30.8747C26.3244 30.6986 26.434 30.5226 26.5435 30.4053Z" fill="#17BBB1"/>
<path fill-rule="evenodd" clip-rule="evenodd" d="M27.2553 29.584C27.4606 29.6587 27.5975 29.7333 27.8029 29.808C27.7344 30.032 27.5975 30.1814 27.5291 30.4054C27.3237 30.3307 27.1183 30.2561 26.9814 30.1067C27.0499 29.9574 27.1868 29.808 27.2553 29.584Z" fill="#17BBB1"/>
<path fill-rule="evenodd" clip-rule="evenodd" d="M28.3816 31.2266C28.7681 31.3361 29.058 31.3908 29.4446 31.4456C29.2513 31.6647 29.058 31.8837 28.8648 32.048C28.4782 31.9385 28.0917 31.8289 27.8018 31.7194C27.995 31.5551 28.1883 31.3908 28.3816 31.2266Z" fill="#17BBB1"/>
<path fill-rule="evenodd" clip-rule="evenodd" d="M28.8978 29.5837C29.0621 29.6522 29.2812 29.7206 29.4454 29.7206C29.3907 29.926 29.3359 30.1998 29.2264 30.4052C29.0074 30.3367 28.8431 30.2683 28.624 30.1998C28.7335 29.9944 28.8431 29.7891 28.8978 29.5837Z" fill="#17BBB1"/>
<path fill-rule="evenodd" clip-rule="evenodd" d="M25.717 29.5837C25.8434 29.7331 25.9698 29.8824 26.1593 29.9571C26.0329 30.1065 25.9066 30.2558 25.717 30.4052C25.5906 30.2558 25.4643 30.1065 25.3379 29.9571C25.4643 29.8824 25.5906 29.7331 25.717 29.5837Z" fill="#17BBB1"/>
<path fill-rule="evenodd" clip-rule="evenodd" d="M29.6693 28.7625H30.2667C30.2667 28.9916 30.1921 29.2207 30.1174 29.4498C29.8934 29.4498 29.6693 29.3735 29.4453 29.3735C29.52 29.2207 29.5947 28.9916 29.6693 28.7625Z" fill="#17BBB1"/>
<path fill-rule="evenodd" clip-rule="evenodd" d="M31.9639 30.4053C31.9639 30.64 31.9639 30.9333 31.9092 31.168C32.183 31.168 32.4568 31.2267 32.7306 31.2267C32.7306 30.9333 32.7306 30.6986 32.6758 30.4053C32.4568 30.4053 32.183 30.4053 31.9639 30.4053Z" fill="#17BBB1"/>
<path fill-rule="evenodd" clip-rule="evenodd" d="M21.1052 17.2626C20.8525 17.1994 20.6629 17.1994 20.4102 17.1994C20.4102 16.9467 20.4733 16.6939 20.4733 16.4412C20.7261 16.5043 20.9788 16.5043 21.2316 16.5675C21.2316 16.8203 21.1684 17.0098 21.1052 17.2626Z" fill="#17BBB1"/>
<path fill-rule="evenodd" clip-rule="evenodd" d="M24.9547 17.2625C24.7904 17.1451 24.6261 17.0864 24.5166 16.9691C24.6261 16.7931 24.7356 16.6171 24.8452 16.441C25.0095 16.5584 25.1737 16.6757 25.338 16.7931C25.2285 16.9104 25.0642 17.0864 24.9547 17.2625Z" fill="#17BBB1"/>
<path fill-rule="evenodd" clip-rule="evenodd" d="M24.2429 18.084C24.0376 18.0093 23.9007 17.9346 23.6953 17.86C23.7638 17.6359 23.9007 17.4866 23.9691 17.2626C24.1745 17.3372 24.3798 17.4119 24.5167 17.5613C24.4483 17.7106 24.3798 17.9346 24.2429 18.084Z" fill="#17BBB1"/>
<path fill-rule="evenodd" clip-rule="evenodd" d="M23.937 16.441C23.5505 16.3315 23.2606 16.2768 22.874 16.222C23.0673 16.003 23.2606 15.7839 23.4538 15.6196C23.8404 15.7292 24.2269 15.8387 24.5169 15.9482C24.2269 16.0577 24.0337 16.222 23.937 16.441Z" fill="#17BBB1"/>
<path fill-rule="evenodd" clip-rule="evenodd" d="M22.5994 18.0839C22.4351 18.0154 22.216 17.947 22.0518 17.947C22.1065 17.7416 22.1613 17.4678 22.2708 17.2625C22.4898 17.3309 22.6541 17.3994 22.8732 17.4678C22.7089 17.6732 22.6541 17.8785 22.5994 18.0839Z" fill="#17BBB1"/>
<path fill-rule="evenodd" clip-rule="evenodd" d="M20.15 15.6198C19.7177 15.5333 19.2854 15.5333 18.7666 15.4468C18.7666 14.928 18.8531 14.4957 18.9395 13.9769C19.4583 14.0634 19.8906 14.1499 20.4094 14.3228C20.2365 14.6687 20.15 15.101 20.15 15.6198Z" fill="#17BBB1"/>
<path fill-rule="evenodd" clip-rule="evenodd" d="M25.7802 18.0839C25.6538 17.9345 25.5274 17.7852 25.3379 17.7105C25.4643 17.5611 25.5906 17.4118 25.7802 17.2625C25.9066 17.4118 26.0329 17.5611 26.1593 17.7105C26.0961 17.8598 25.9698 17.9345 25.7802 18.0839Z" fill="#17BBB1"/>
<path fill-rule="evenodd" clip-rule="evenodd" d="M19.5333 17.2625H18.8214C18.8214 16.9691 18.7666 16.7344 18.7666 16.441C19.0404 16.441 19.3142 16.441 19.588 16.4997C19.5333 16.7931 19.5333 17.0278 19.5333 17.2625Z" fill="#17BBB1"/>
<path fill-rule="evenodd" clip-rule="evenodd" d="M19.588 21.1169C19.5196 20.9273 19.5196 20.7378 19.4511 20.5482C19.2458 20.6114 18.972 20.6746 18.7666 20.7378C18.8351 20.9273 18.9035 21.1801 18.972 21.3696C19.1773 21.2433 19.3827 21.1801 19.588 21.1169Z" fill="#17BBB1"/>
<path fill-rule="evenodd" clip-rule="evenodd" d="M21.0972 20.3242V19.7268C20.8682 19.8015 20.6392 19.8015 20.4102 19.8762C20.4102 20.1002 20.4865 20.3242 20.4865 20.5482C20.7155 20.4736 20.9446 20.3989 21.0972 20.3242Z" fill="#17BBB1"/>
<path fill-rule="evenodd" clip-rule="evenodd" d="M19.588 19.5623C19.588 19.3432 19.5248 19.1242 19.5248 18.9052C19.2721 18.9599 19.0193 18.9599 18.7666 19.0147C18.8298 19.2337 18.8298 19.4528 18.893 19.7266C19.0825 19.6718 19.3353 19.617 19.588 19.5623Z" fill="#17BBB1"/>
<path fill-rule="evenodd" clip-rule="evenodd" d="M21.1569 18.7685C21.1569 18.5631 21.1569 18.2893 21.2316 18.084C20.9329 18.084 20.7089 18.084 20.4102 18.1524V18.9054C20.7089 18.837 20.9329 18.837 21.1569 18.7685Z" fill="#17BBB1"/>
<path fill-rule="evenodd" clip-rule="evenodd" d="M20.4093 21.8752C20.3346 21.6857 20.26 21.5593 20.1853 21.3698C19.9613 21.4329 19.8119 21.5593 19.5879 21.6857C19.6626 21.8752 19.8119 22.0016 19.8866 22.1912C20.0359 22.0648 20.1853 22.0016 20.4093 21.8752Z" fill="#17BBB1"/>
<path fill-rule="evenodd" clip-rule="evenodd" d="M22.7238 19.5929C22.7985 19.3638 22.8732 19.211 22.8732 18.9819C22.6492 18.9819 22.4251 18.9055 22.2011 18.9055C22.1264 19.1347 22.1264 19.3638 22.0518 19.5929C22.2758 19.5929 22.4998 19.5929 22.7238 19.5929Z" fill="#17BBB1"/>
<path fill-rule="evenodd" clip-rule="evenodd" d="M22.4868 16.4412C22.1002 16.3445 21.7137 16.2479 21.2305 16.1513C21.3271 15.6681 21.4237 15.2815 21.617 14.7983C22.0036 14.895 22.4868 15.0883 22.8733 15.2815C22.7767 15.6681 22.5834 16.0546 22.4868 16.4412Z" fill="#17BBB1"/>
<path fill-rule="evenodd" clip-rule="evenodd" d="M0.695312 47.4802V43.7226H1.19055V45.6451L3.00642 43.7226H3.66674L2.01595 45.2956L3.5842 47.5676H2.92388L1.68579 45.6451L1.10801 46.2568V47.5676H0.695312V47.4802ZM65.4889 47.4802L66.8921 43.7226H67.3873L68.8731 47.4802H68.2953L67.8826 46.3442H66.3969L65.9842 47.4802H65.4889ZM66.4794 45.9946H67.7175L67.3048 44.946C67.2223 44.5965 67.1397 44.3343 67.0572 44.1595C66.9746 44.4217 66.9746 44.6839 66.8921 44.8586L66.4794 45.9946ZM64.581 43.7226H65.0762V47.4802H64.581V43.7226ZM61.1143 47.4802V43.7226H62.435C62.6826 43.7226 62.9302 43.7226 63.0953 43.81C63.2604 43.8974 63.4254 43.9848 63.508 44.1595C63.5905 44.3343 63.6731 44.5091 63.6731 44.6839C63.6731 44.8586 63.6731 45.0334 63.508 45.1208C63.4254 45.2956 63.2604 45.3829 63.0953 45.4703C63.3429 45.5577 63.508 45.6451 63.5905 45.8199C63.6731 45.9946 63.7556 46.1694 63.7556 46.4316C63.7556 46.6063 63.7556 46.7811 63.6731 46.9559C63.5905 47.1306 63.508 47.218 63.4254 47.3054C63.3429 47.3928 63.1778 47.4802 63.0127 47.4802C62.8477 47.4802 62.6826 47.5676 62.435 47.5676H61.1143V47.4802ZM61.6096 45.2956H62.3524C62.6 45.2956 62.6826 45.2956 62.7651 45.2082C62.8477 45.2082 63.0127 45.1208 63.0127 45.0334C63.0953 44.946 63.0953 44.8586 63.0953 44.6839C63.0953 44.5965 63.0953 44.4217 63.0127 44.3343C62.9302 44.2469 62.8477 44.1595 62.7651 44.1595C62.6826 44.1595 62.5175 44.0722 62.1873 44.0722H61.4445V45.2956H61.6096ZM61.6096 47.0432H62.5175H62.8477C62.9302 47.0432 63.0127 46.9559 63.0953 46.9559C63.1778 46.8685 63.2604 46.8685 63.2604 46.7811C63.3429 46.6937 63.3429 46.6063 63.3429 46.4316C63.3429 46.2568 63.3429 46.1694 63.2604 46.082C63.1778 45.9946 63.0953 45.9072 63.0127 45.8199C62.9302 45.8199 62.6826 45.7325 62.5175 45.7325H61.6921V47.0432H61.6096ZM57.4 47.4802L58.8032 43.7226H59.2985L60.7842 47.4802H60.2064L59.7937 46.3442H58.308L57.8953 47.4802H57.4ZM58.3905 45.9946H59.6286L59.2159 44.946C59.1334 44.5965 59.0508 44.3343 58.9683 44.1595C58.8858 44.4217 58.8858 44.6839 58.8032 44.8586L58.3905 45.9946ZM54.181 47.4802V43.7226H55.7493C56.0794 43.7226 56.327 43.7226 56.4921 43.81C56.6572 43.8974 56.8223 43.9848 56.9048 44.1595C56.9873 44.3343 57.0699 44.5091 57.0699 44.7712C57.0699 45.0334 56.9874 45.2956 56.8223 45.4703C56.6572 45.6451 56.4096 45.7325 56.0794 45.8199C56.2445 45.9072 56.327 45.9072 56.327 45.9946C56.4921 46.1694 56.5747 46.2568 56.7397 46.5189L57.4 47.5676H56.8223L56.327 46.7811C56.162 46.5189 56.0794 46.3442 55.9969 46.2568C55.9143 46.1694 55.8318 46.082 55.7493 45.9946C55.6667 45.9072 55.5842 45.9072 55.5016 45.9072H55.254H54.6762V47.5676H54.181V47.4802ZM54.6762 45.3829H55.6667C55.9143 45.3829 56.0794 45.3829 56.162 45.2956C56.2445 45.2082 56.4096 45.2082 56.4096 45.0334C56.4921 44.946 56.4921 44.8586 56.4921 44.6839C56.4921 44.5091 56.4096 44.3343 56.327 44.2469C56.2445 44.1595 55.9969 44.0722 55.7493 44.0722H54.5937V45.3829H54.6762ZM50.4667 47.4802L51.8699 43.7226H52.3651L53.8508 47.4802H53.2731L52.8604 46.3442H51.3747L50.962 47.4802H50.4667ZM51.4572 45.9946H52.6953L52.2826 44.946C52.2001 44.5965 52.1175 44.3343 52.035 44.1595C51.9524 44.4217 51.9524 44.6839 51.8699 44.8586L51.4572 45.9946ZM48.4032 43.7226H48.8985V47.4802H48.4032V43.7226ZM44.6889 47.4802V43.7226H45.927C46.1747 43.7226 46.4223 43.7226 46.5874 43.81C46.7524 43.8974 47.0001 43.9848 47.0826 44.0722C47.2477 44.2469 47.4128 44.4217 47.4953 44.6839C47.5778 44.946 47.6604 45.2082 47.6604 45.5577C47.6604 45.8199 47.6604 46.082 47.5778 46.3442C47.4953 46.6063 47.4128 46.7811 47.3302 46.8685C47.2477 47.0433 47.0826 47.1306 47.0001 47.218C46.9175 47.3054 46.7524 47.3928 46.5874 47.3928C46.4223 47.3928 46.2572 47.4802 46.0096 47.4802H44.6889ZM45.1842 47.0432H45.927C46.1747 47.0432 46.3397 47.0433 46.5048 46.9559C46.6699 46.8685 46.7524 46.8685 46.835 46.7811C46.9175 46.6937 47.0001 46.5189 47.0826 46.2568C47.1651 46.082 47.1651 45.8199 47.1651 45.5577C47.1651 45.1208 47.0826 44.8586 47.0001 44.6839C46.9175 44.5091 46.7524 44.3343 46.5874 44.2469C46.4223 44.1595 46.2572 44.1595 46.0096 44.1595H45.2667V47.0432H45.1842ZM43.4508 43.7226H43.9461V45.9072C43.9461 46.2568 43.9461 46.6063 43.8635 46.7811C43.781 47.0432 43.6159 47.218 43.4508 47.3054C43.2032 47.4802 42.9556 47.4802 42.6255 47.4802C42.2953 47.4802 42.0477 47.3928 41.8001 47.3054C41.5524 47.218 41.4699 47.0432 41.3048 46.7811C41.2223 46.5189 41.1397 46.2568 41.1397 45.8199V43.6352H41.635V45.8199C41.635 46.1694 41.635 46.4316 41.7175 46.5189C41.8001 46.6937 41.8826 46.7811 42.0477 46.8685C42.2128 46.9559 42.3778 46.9559 42.5429 46.9559C42.8731 46.9559 43.1207 46.8685 43.2858 46.6937C43.4509 46.5189 43.5334 46.1694 43.5334 45.7325V43.7226H43.4508ZM37.3429 47.4802L38.7461 43.7226H39.2413L40.727 47.4802H40.1493L39.7366 46.3442H38.2509L37.8382 47.4802H37.3429ZM38.3334 45.9946H39.5715L39.1588 44.946C39.0762 44.5965 38.9937 44.3343 38.9112 44.1595C38.8286 44.4217 38.8286 44.6839 38.7461 44.8586L38.3334 45.9946ZM34.2064 46.2568H34.6191C34.6191 46.4316 34.7016 46.6063 34.7842 46.6937C34.8667 46.7811 34.9493 46.9559 35.1143 46.9559C35.2794 47.0433 35.4445 47.0432 35.6921 47.0432C35.8572 47.0432 36.0223 47.0433 36.1874 46.9559C36.3524 46.8685 36.435 46.7811 36.5175 46.6937C36.6001 46.6063 36.6001 46.5189 36.6001 46.3442C36.6001 46.2568 36.6001 46.082 36.5175 45.9946C36.435 45.9072 36.3524 45.8199 36.1874 45.7325C36.1048 45.7325 35.8572 45.6451 35.527 45.5577C35.1969 45.4703 34.9493 45.3829 34.8667 45.2956C34.7016 45.2082 34.5366 45.1208 34.454 44.946C34.3715 44.7712 34.2889 44.6839 34.2889 44.5091C34.2889 44.3343 34.3715 44.1595 34.454 43.9848C34.5366 43.81 34.7016 43.7226 34.8667 43.6352C35.0318 43.5479 35.2794 43.5479 35.527 43.5479C35.7747 43.5479 36.0223 43.6352 36.2699 43.7226C36.435 43.81 36.6001 43.9848 36.7651 44.1595C36.8477 44.3343 36.9302 44.5091 36.9302 44.7712H36.435C36.435 44.5091 36.3524 44.3343 36.1874 44.2469C36.0223 44.1595 35.8572 44.0722 35.527 44.0722C35.2794 44.0722 35.0318 44.1595 34.8667 44.2469C34.7016 44.3343 34.7016 44.5091 34.7016 44.6839C34.7016 44.8586 34.7842 44.946 34.8667 45.0334C34.9493 45.1208 35.1969 45.2082 35.6096 45.2956C36.0223 45.3829 36.2699 45.4703 36.435 45.5577C36.6826 45.6451 36.7651 45.8199 36.9302 45.9072C37.0128 46.082 37.0953 46.2568 37.0953 46.4316C37.0953 46.6063 37.0128 46.7811 36.9302 47.0432C36.8477 47.218 36.6826 47.3928 36.435 47.4802C36.2699 47.5676 36.0223 47.6549 35.7747 47.6549C35.4445 47.6549 35.1969 47.5676 34.9493 47.4802C34.7016 47.3928 34.5366 47.218 34.454 47.0432C34.2889 46.7811 34.2064 46.5189 34.2064 46.2568ZM29.9143 47.4802V43.7226H32.308V44.1595H30.327V45.2956H31.9778V45.7325H30.327V47.4802H29.9143ZM25.8699 45.6451C25.8699 45.0334 26.035 44.5091 26.3651 44.1595C26.6953 43.81 27.108 43.6352 27.6032 43.6352C27.9334 43.6352 28.2636 43.7226 28.5112 43.8974C28.7588 44.0722 29.0064 44.3343 29.089 44.5965C29.254 44.8586 29.3366 45.2082 29.3366 45.6451C29.3366 45.9946 29.254 46.3442 29.089 46.6937C28.9239 46.9559 28.7588 47.218 28.4286 47.3928C28.181 47.5676 27.8509 47.6549 27.5207 47.6549C27.1905 47.6549 26.8604 47.5676 26.6128 47.3928C26.3651 47.218 26.1175 46.9559 26.035 46.6937C25.9524 46.3442 25.8699 45.9946 25.8699 45.6451ZM26.3651 45.6451C26.3651 46.082 26.4477 46.4316 26.6953 46.6937C26.9429 46.9559 27.1905 47.1306 27.6032 47.1306C27.9334 47.1306 28.2636 46.9559 28.5112 46.6937C28.7588 46.4316 28.8413 46.082 28.8413 45.5577C28.8413 45.2082 28.7588 44.946 28.6763 44.7712C28.5937 44.5091 28.4286 44.3343 28.2636 44.2469C28.0985 44.1595 27.8509 44.0722 27.6032 44.0722C27.2731 44.0722 26.9429 44.1595 26.6953 44.4217C26.5302 44.6839 26.3651 45.1208 26.3651 45.6451ZM20.4223 47.4802V43.7226H21.1651L21.9905 46.4316C22.0731 46.6937 22.1556 46.8685 22.1556 46.9559C22.1556 46.7811 22.2382 46.6063 22.3207 46.3442L23.1461 43.7226H23.8064V47.4802H23.3112V44.3343L22.2382 47.4802H21.8255L20.7524 44.2469V47.4802H20.4223ZM16.3778 45.6451C16.3778 45.0334 16.5429 44.5091 16.8731 44.1595C17.2032 43.81 17.6159 43.6352 18.1112 43.6352C18.4413 43.6352 18.7715 43.7226 19.0191 43.8974C19.2667 44.0722 19.5144 44.3343 19.5969 44.5965C19.762 44.8586 19.8445 45.2082 19.8445 45.6451C19.8445 45.9946 19.762 46.3442 19.5969 46.6937C19.4318 46.9559 19.2667 47.218 18.9366 47.3928C18.689 47.5676 18.3588 47.6549 18.0286 47.6549C17.6985 47.6549 17.3683 47.5676 17.1207 47.3928C16.8731 47.218 16.6255 46.9559 16.5429 46.6937C16.4604 46.3442 16.3778 45.9946 16.3778 45.6451ZM16.8731 45.6451C16.8731 46.082 16.9556 46.4316 17.2032 46.6937C17.4509 46.9559 17.6985 47.1306 18.1112 47.1306C18.4413 47.1306 18.7715 46.9559 19.0191 46.6937C19.2667 46.4316 19.3493 46.082 19.3493 45.5577C19.3493 45.2082 19.2667 44.946 19.1842 44.7712C19.1017 44.5091 18.9366 44.3343 18.7715 44.2469C18.6064 44.1595 18.3588 44.0722 18.1112 44.0722C17.781 44.0722 17.4509 44.1595 17.2032 44.4217C17.0382 44.6839 16.8731 45.1208 16.8731 45.6451ZM12.9112 47.4802V43.7226H14.1493C14.3969 43.7226 14.6445 43.7226 14.8096 43.81C14.9747 43.8974 15.2223 43.9848 15.3048 44.0722C15.4699 44.2469 15.635 44.4217 15.7175 44.6839C15.8001 44.946 15.8826 45.2082 15.8826 45.5577C15.8826 45.8199 15.8826 46.082 15.8001 46.3442C15.7175 46.6063 15.635 46.7811 15.5524 46.8685C15.4699 47.0433 15.3048 47.1306 15.2223 47.218C15.1398 47.3054 14.9747 47.3928 14.8096 47.3928C14.6445 47.3928 14.4794 47.4802 14.2318 47.4802H12.9112ZM13.4064 47.0432H14.1493C14.3969 47.0432 14.562 47.0433 14.7271 46.9559C14.8921 46.8685 14.9747 46.8685 15.0572 46.7811C15.1397 46.6937 15.2223 46.5189 15.3048 46.2568C15.3874 46.082 15.3874 45.8199 15.3874 45.5577C15.3874 45.1208 15.3048 44.8586 15.2223 44.6839C15.1398 44.5091 14.9747 44.3343 14.8096 44.2469C14.6445 44.1595 14.4794 44.1595 14.2318 44.1595H13.489V47.0432H13.4064ZM10.6826 45.9946V45.5577H12.1683V46.9559C11.9207 47.1306 11.6731 47.3054 11.4255 47.3928C11.1778 47.4802 10.9302 47.5676 10.6826 47.5676C10.3525 47.5676 10.0223 47.4802 9.69213 47.3054C9.44452 47.1306 9.1969 46.9559 9.03182 46.6063C8.86674 46.3442 8.7842 45.9946 8.7842 45.5577C8.7842 45.2082 8.86674 44.8586 9.03182 44.5091C9.1969 44.1595 9.36198 43.9848 9.69213 43.81C9.93975 43.6352 10.2699 43.5479 10.6001 43.5479C10.8477 43.5479 11.0953 43.6352 11.3429 43.7226C11.5905 43.81 11.7556 43.8974 11.8382 44.0722C11.9207 44.2469 12.0858 44.4217 12.0858 44.6839L11.6731 44.7712C11.5905 44.5965 11.5905 44.4217 11.508 44.3343C11.4255 44.2469 11.3429 44.1595 11.1778 44.0722C11.0128 43.9848 10.8477 43.9848 10.6826 43.9848C10.435 43.9848 10.2699 43.9848 10.1048 44.0722C9.93975 44.1595 9.85721 44.2469 9.69213 44.3343C9.60959 44.4217 9.52705 44.5965 9.44452 44.6839C9.36198 44.946 9.27944 45.2082 9.27944 45.4703C9.27944 45.8199 9.36198 46.082 9.44452 46.3442C9.52705 46.6063 9.69213 46.7811 9.93975 46.8685C10.1874 46.9559 10.3525 47.0432 10.6001 47.0432C10.7651 47.0432 11.0128 47.0433 11.1778 46.9559C11.3429 46.8685 11.508 46.7811 11.5905 46.6937V45.9946H10.6826ZM5.40007 47.4802V43.7226H5.89531L7.79372 46.6937V43.7226H8.28896V47.4802H7.79372L5.89531 44.5091V47.4802H5.40007ZM4.07944 43.7226H4.57468V47.4802H4.07944V43.7226Z" fill="#3F4254"/>
<path fill-rule="evenodd" clip-rule="evenodd" d="M26.159 18.9052C26.244 19.0698 26.4139 19.399 26.4139 19.6459C26.4139 19.6459 26.9237 18.8229 27.9434 19.4813C27.9434 19.4813 27.0937 19.399 26.8388 19.8105C26.8388 19.8105 28.1984 19.4813 28.4533 20.7158C28.4533 20.7158 27.8585 20.0574 27.2636 20.1397C27.2636 20.1397 28.5383 20.5512 28.1984 21.868C28.1984 21.868 28.1134 20.7158 27.1787 20.5512C27.1787 20.5512 28.0284 21.2096 27.6885 22.5264C27.6885 22.5264 27.6885 21.5388 27.0937 21.1273C27.0937 21.1273 27.5186 22.1149 26.8388 23.0202C26.8388 23.0202 27.1787 21.868 26.5839 21.4565C26.5839 21.4565 26.3289 21.2919 26.3289 21.7034C26.3289 21.7034 26.244 24.0901 26.4139 25.3246C26.4139 25.3246 28.8782 23.2671 31.0875 24.6662C31.0875 24.6662 28.9631 23.6786 26.4989 25.9007L28.1134 27.2998C28.1984 27.2175 28.2833 27.1352 28.4533 27.1352C28.7082 27.1352 28.8782 27.2998 28.8782 27.5467C28.8782 28.0405 28.1134 28.0405 27.8585 27.7113L26.159 26.1476L24.4595 27.7113C24.2046 28.0405 23.4398 28.0405 23.4398 27.5467C23.4398 27.2998 23.6097 27.1352 23.8647 27.1352C24.0346 27.1352 24.1196 27.2175 24.2046 27.2998L25.8191 25.9007C23.3548 23.6786 21.2305 24.6662 21.2305 24.6662C23.3548 23.2671 25.9041 25.3246 25.9041 25.3246C25.989 24.1724 25.989 21.7034 25.989 21.7034C25.989 21.2919 25.7341 21.4565 25.7341 21.4565C25.1393 21.868 25.4792 23.0202 25.4792 23.0202C24.7994 22.1149 25.2243 21.1273 25.2243 21.1273C24.6294 21.6211 24.6294 22.5264 24.6294 22.5264C24.2895 21.2096 25.1393 20.5512 25.1393 20.5512C24.2895 20.7158 24.1196 21.868 24.1196 21.868C23.7797 20.5512 25.0543 20.1397 25.0543 20.1397C24.4595 20.0574 23.8647 20.7158 23.8647 20.7158C24.1196 19.4813 25.4792 19.8105 25.4792 19.8105C25.3092 19.399 24.3745 19.4813 24.3745 19.4813C25.3942 18.8229 25.9041 19.6459 25.9041 19.6459C25.9041 19.399 26.074 19.0698 26.159 18.9052Z" fill="#17BBB1"/>
<path fill-rule="evenodd" clip-rule="evenodd" d="M4.30955 42.2974H4.80241V41.7825H4.30955V42.2974ZM3.24171 37.0624H2.74886V37.5773H3.24171V37.0624ZM5.13097 42.2974H5.62382V41.7825H5.13097V42.2974ZM2.50243 37.0624H2.00958V37.5773H2.50243V37.0624ZM8.33451 38.5213C8.25236 38.3497 8.08808 38.2639 7.9238 38.178C7.75951 38.0922 7.59523 38.0922 7.43094 38.0922H7.10238V38.5213H7.51309C7.59523 38.5213 7.67737 38.5213 7.84165 38.6071C7.9238 38.693 8.00594 38.693 8.08808 38.7788C8.17022 38.8646 8.17022 38.9504 8.25236 39.0362V39.3795V40.7526H6.19882V41.1817H8.74521V39.3795C8.74521 39.2079 8.74521 39.0362 8.66307 38.8646C8.49879 38.7788 8.41665 38.6071 8.33451 38.5213ZM25.6664 41.2676H26.0771V37.0624H25.6664V41.2676ZM23.8593 40.8385H23.12C22.8736 40.8385 22.6272 40.8385 22.4629 40.7526C22.2986 40.6668 22.2165 40.581 22.1343 40.4094C22.1343 40.3235 22.2165 40.1519 22.2165 39.9803V38.5213H21.8058V40.0661C21.8058 40.3235 21.7236 40.581 21.5593 40.7526C21.3951 40.9243 21.2308 41.0101 20.9022 41.0101C20.7379 41.0101 20.6558 41.0101 20.5736 40.9243C20.4915 40.9243 20.4094 40.8385 20.3272 40.7526C20.2451 40.6668 20.1629 40.581 20.1629 40.4952C20.0808 40.4094 20.0808 40.3235 20.0808 40.1519V38.5213H19.6701V40.1519C19.6701 40.3235 19.6701 40.4094 19.5879 40.4952C19.5879 40.581 19.5058 40.6668 19.4237 40.7526C19.3415 40.8385 19.2594 40.8385 19.1772 40.9243C19.0951 40.9243 19.0129 41.0101 18.9308 41.0101H18.0272V38.6071H17.6165V41.0101H15.3166L16.0558 39.0362C15.9737 38.9504 15.8094 38.8646 15.6451 38.693C15.4808 38.6071 15.3987 38.5213 15.2344 38.4355C15.0701 38.3497 14.9059 38.2639 14.8237 38.2639C14.6594 38.2639 14.4951 38.178 14.413 38.178C14.2487 38.178 14.0844 38.178 14.0023 38.2639C13.9202 38.3497 13.6737 38.3497 13.5916 38.4355C13.4273 38.5213 13.3452 38.6071 13.1809 38.693C13.0166 38.7788 12.9344 38.8646 12.7702 39.0362L13.5916 41.0101H12.0309V38.3497H11.2916C11.0452 38.3497 10.7988 38.3497 10.5523 38.4355C10.3059 38.5213 10.1416 38.6071 9.97734 38.7788C9.81306 38.9504 9.64878 39.1221 9.56663 39.2937C9.48449 39.4653 9.40235 39.7228 9.40235 39.8944C9.40235 40.1519 9.48449 40.4094 9.56663 40.581C9.64878 40.7526 9.81306 40.9243 9.97734 41.0959C10.1416 41.1817 10.3059 41.3534 10.5523 41.3534C10.7988 41.4392 11.0452 41.4392 11.2916 41.4392H11.538V41.525C11.538 41.7825 11.4559 41.9541 11.3738 42.0399C11.2095 42.1258 11.0452 42.2116 10.7988 42.2116H10.3881C10.3059 42.2116 10.1416 42.1258 9.97734 42.0399L9.81306 42.469C9.97734 42.5549 10.1416 42.5549 10.2238 42.6407C10.3881 42.6407 10.4702 42.7265 10.6345 42.7265C11.0452 42.7265 11.3738 42.6407 11.6202 42.3832C11.7845 42.2116 11.9487 41.8683 11.9487 41.525V41.4392H18.9308C19.1772 41.4392 19.3415 41.3534 19.5058 41.2676C19.6701 41.1817 19.8344 41.0101 19.9165 40.8385C19.9986 41.0101 20.1629 41.1817 20.3272 41.2676C20.4915 41.3534 20.7379 41.4392 20.9844 41.4392C21.2308 41.4392 21.4772 41.3534 21.6415 41.2676C21.8058 41.1817 21.9701 41.0101 22.0522 40.8385C22.0522 40.9243 22.1343 41.0101 22.2165 41.0101C22.2986 41.0959 22.2986 41.0959 22.3808 41.1817C22.4629 41.2676 22.545 41.2676 22.7093 41.2676H23.0379H24.3522V37.0624H23.9415V40.8385H23.8593ZM34.702 42.2974H35.1949V41.7825H34.702V42.2974ZM39.0556 40.8385L38.3984 39.0362C38.5627 38.8646 38.727 38.7788 38.8913 38.693C39.0556 38.6071 39.302 38.6071 39.4663 38.6071C39.6306 38.6071 39.877 38.6071 40.0413 38.693C40.2877 38.7788 40.452 38.8646 40.5341 39.0362L39.7948 40.8385H39.0556ZM42.2591 40.8385H40.3698L41.1912 38.8646C41.1091 38.7788 40.9448 38.693 40.7805 38.5213C40.6163 38.4355 40.5341 38.3497 40.3698 38.2639C40.2055 38.178 40.1234 38.178 39.9591 38.0922C39.7948 38.0922 39.6306 38.0064 39.5484 38.0064C39.3841 38.0064 39.2198 38.0064 39.1377 38.0922C38.9734 38.0922 38.8091 38.178 38.727 38.2639C38.5627 38.3497 38.4806 38.4355 38.3163 38.5213C38.152 38.6071 38.0699 38.693 37.9056 38.8646C38.727 40.7526 38.727 40.8385 38.727 40.8385H37.0842V38.0922H36.6734V41.3534V41.6967C36.6734 41.7825 36.6734 41.8683 36.5913 41.8683C36.5913 41.9541 36.5092 41.9541 36.427 41.9541H36.2627H36.1806H36.0985L36.0163 42.3832C36.1806 42.3832 36.2627 42.469 36.3449 42.469C36.5092 42.469 36.6734 42.469 36.7556 42.3832C36.8377 42.2974 36.9199 42.2974 37.002 42.1258C37.0842 42.0399 37.0842 41.8683 37.1663 41.7825V41.2676V41.1817H42.9162V36.9766H42.5055V40.8385H42.2591ZM33.0592 42.2974H33.5521V41.7825H33.0592V42.2974ZM30.3485 40.8385H29.9378C29.7735 40.8385 29.6092 40.8385 29.445 40.7526C29.2807 40.6668 29.1985 40.6668 29.0343 40.4952C28.9521 40.4094 28.87 40.3235 28.7878 40.1519C28.7057 39.9803 28.7057 39.8086 28.7057 39.7228C28.7057 39.5512 28.7057 39.3795 28.7878 39.2937C28.87 39.2079 28.9521 39.0362 29.0343 38.9504C29.1164 38.8646 29.2807 38.7788 29.445 38.693C29.6092 38.6071 29.7735 38.6071 29.8557 38.6071H30.2664V40.8385H30.3485ZM35.1128 38.0922H34.702V40.8385H33.0592V38.0922H32.6485V40.8385H30.8414V38.0922H30.1021C29.8557 38.0922 29.6092 38.178 29.3628 38.178C29.1164 38.2639 28.9521 38.3497 28.7878 38.5213C28.6235 38.693 28.4593 38.8646 28.3771 39.0362C28.295 39.2079 28.2128 39.4653 28.2128 39.637C28.2128 39.8944 28.295 40.1519 28.3771 40.3235C28.4593 40.4952 28.6235 40.6668 28.7878 40.8385C28.9521 40.9243 29.1164 41.0101 29.3628 41.0959C29.6092 41.1817 29.7735 41.1817 30.1021 41.1817H35.1949V38.0922H35.1128ZM32.3199 42.2974H32.8128V41.7825H32.3199V42.2974ZM30.7592 37.1482H30.3485V37.6631H30.8414V37.1482H30.7592ZM30.02 37.1482H29.5271V37.6631H30.02V37.1482ZM43.9841 41.2676H44.3948V37.0624H43.9841V41.2676ZM63.9445 40.8385C63.8624 41.0101 63.7803 41.0959 63.6981 41.2676C63.616 41.3534 63.4517 41.4392 63.3696 41.525C63.2053 41.6108 63.041 41.6108 62.8767 41.6108C62.7124 41.6108 62.5481 41.6108 62.3838 41.525C62.2196 41.4392 62.1374 41.3534 62.0553 41.2676C61.9731 41.1817 61.891 41.0101 61.8089 40.8385C61.7267 40.6668 61.7267 40.4952 61.7267 40.4094C61.7267 40.2377 61.7267 40.0661 61.8089 39.8944C61.891 39.7228 61.9731 39.637 62.0553 39.4653C62.1374 39.3795 62.3017 39.2937 62.3838 39.2079C62.5481 39.1221 62.7124 39.1221 62.8767 39.1221C63.041 39.1221 63.2053 39.1221 63.3696 39.2079C63.5338 39.2937 63.616 39.3795 63.7803 39.4653C63.8624 39.5512 63.9445 39.7228 64.0267 39.8944C64.1088 40.0661 64.1088 40.2377 64.1088 40.4094C64.0267 40.581 64.0267 40.7526 63.9445 40.8385ZM59.591 40.8385C59.5089 41.0101 59.4267 41.0959 59.3446 41.2676C59.2625 41.3534 59.0982 41.4392 58.9339 41.525C58.7696 41.6108 58.6053 41.6108 58.441 41.6108C58.2768 41.6108 58.1125 41.6108 57.9482 41.525C57.7839 41.4392 57.7018 41.3534 57.6196 41.2676C57.5375 41.1817 57.4553 41.0101 57.3732 40.8385C57.2911 40.6668 57.2911 40.4952 57.2911 40.4094C57.2911 40.2377 57.2911 40.0661 57.3732 39.8944C57.4553 39.7228 57.5375 39.637 57.6196 39.4653C57.7018 39.3795 57.866 39.2937 57.9482 39.2079C58.1125 39.1221 58.2768 39.1221 58.441 39.1221C58.6053 39.1221 58.7696 39.1221 58.9339 39.2079C59.0982 39.2937 59.1803 39.3795 59.3446 39.4653C59.4267 39.5512 59.5089 39.7228 59.591 39.8944C59.6732 40.0661 59.6732 40.2377 59.6732 40.4094C59.6732 40.581 59.6732 40.7526 59.591 40.8385ZM48.7483 41.0959H48.3376C48.1733 41.0959 48.009 41.0959 47.8447 41.0101C47.6805 40.9243 47.5983 40.9243 47.434 40.7526C47.3519 40.6668 47.2697 40.581 47.1876 40.4094C47.1055 40.2377 47.1055 40.0661 47.1055 39.9803C47.1055 39.8086 47.1055 39.637 47.1876 39.5512C47.2697 39.4653 47.3519 39.2937 47.434 39.2079C47.5162 39.1221 47.6805 39.0362 47.8447 38.9504C48.009 38.8646 48.1733 38.8646 48.2555 38.8646H48.6662V41.0959H48.7483ZM65.9159 41.0959H64.3553C64.4374 40.8385 64.5195 40.6668 64.5195 40.4094C64.5195 40.1519 64.4374 39.9803 64.3553 39.7228C64.2731 39.5512 64.191 39.2937 64.0267 39.2079C63.8624 39.0362 63.6981 38.9504 63.5338 38.8646C63.3695 38.7788 63.1231 38.7788 62.8767 38.7788C62.6303 38.7788 62.466 38.7788 62.2196 38.8646C62.0553 38.9504 61.891 39.0362 61.7267 39.2079C61.5624 39.3795 61.4803 39.5512 61.3981 39.7228C61.316 39.8944 61.2339 40.1519 61.2339 40.4094V40.7526C61.2339 40.8385 61.316 40.9243 61.316 41.0959H59.9196C60.0017 40.8385 60.0839 40.6668 60.0839 40.4094C60.0839 40.1519 60.0017 39.9803 59.9196 39.7228C59.8374 39.5512 59.7553 39.2937 59.591 39.2079C59.4267 39.0362 59.2625 38.9504 59.0982 38.8646C58.9339 38.7788 58.6875 38.7788 58.441 38.7788C58.1946 38.7788 58.0303 38.7788 57.7839 38.8646C57.6196 38.9504 57.4553 39.0362 57.2911 39.2079C57.1268 39.3795 57.0446 39.5512 56.9625 39.7228C56.8803 39.8944 56.8803 40.1519 56.8803 40.4094V40.7526C56.8803 40.8385 56.9625 40.9243 56.9625 41.0959H55.5661V37.4057H55.1554V41.0959H53.759V40.4094C53.759 40.2377 53.759 40.0661 53.6768 39.8944C53.5947 39.7228 53.5947 39.5512 53.4304 39.4653C53.3482 39.3795 53.184 39.2079 53.0197 39.1221C52.8554 39.0362 52.6911 39.0362 52.4447 39.0362H50.4733L51.2947 37.3198H50.8018L49.9804 38.9504C49.9804 39.0362 49.9804 39.1221 50.0626 39.2079C50.0626 39.2937 50.1447 39.3795 50.2269 39.3795H52.5268C52.6911 39.3795 52.7733 39.3795 52.8554 39.4653C52.9375 39.4653 53.0197 39.5512 53.1018 39.637C53.184 39.7228 53.184 39.8086 53.2661 39.8944V40.2377V40.9243H49.159V38.178H48.4197C48.1733 38.178 47.9269 38.2639 47.6805 38.2639C47.434 38.3497 47.2697 38.4355 47.1055 38.6071C46.9412 38.7788 46.859 38.9504 46.7769 39.1221C46.6948 39.2937 46.6126 39.5512 46.6126 39.7228C46.6126 39.9803 46.6948 40.2377 46.7769 40.4094C46.859 40.581 47.0233 40.7526 47.1876 40.9243C47.3519 41.0101 47.5162 41.0959 47.7626 41.1817C48.009 41.2676 48.2554 41.2676 48.5019 41.2676H57.3732C57.5375 41.4392 57.7018 41.6108 57.866 41.6967C58.1125 41.7825 58.2768 41.8683 58.5232 41.8683C58.7696 41.8683 59.016 41.8683 59.1803 41.6967C59.4267 41.6108 59.591 41.525 59.6732 41.2676H61.6446C61.8089 41.4392 61.9731 41.6108 62.1374 41.6967C62.3839 41.7825 62.5481 41.8683 62.7946 41.8683C63.041 41.8683 63.2874 41.8683 63.4517 41.6967C63.6981 41.6108 63.8624 41.525 63.9445 41.2676H66.2445V37.0624H65.8338V41.0959H65.9159ZM67.6409 41.525H68.0516V37.3198H67.6409V41.525ZM48.4197 37.4057H47.9269V37.9206H48.4197V37.4057ZM49.159 37.4057H48.6662V37.9206H49.159V37.4057ZM5.45954 38.0922H5.04883V40.7526H3.24171V38.0922H2.50243C2.25601 38.0922 2.00958 38.0922 1.76316 38.178C1.51673 38.2639 1.35245 38.3497 1.18816 38.5213C1.02388 38.693 0.941738 38.8646 0.859596 39.0362C0.777454 39.2079 0.695312 39.4653 0.695312 39.637C0.695312 39.8944 0.777454 40.1519 0.859596 40.3235C0.941738 40.4952 1.10602 40.6668 1.27031 40.8385C1.43459 40.9243 1.59887 41.0959 1.8453 41.0959C2.09172 41.1817 2.33815 41.1817 2.58458 41.1817H5.54168V38.0922H5.45954ZM2.831 40.8385H2.42029C2.25601 40.8385 2.09172 40.8385 1.92744 40.7526C1.76316 40.6668 1.68101 40.6668 1.51673 40.4952C1.43459 40.4094 1.35245 40.3235 1.27031 40.1519C1.18816 39.9803 1.18816 39.8944 1.18816 39.7228C1.18816 39.5512 1.18816 39.3795 1.27031 39.2937C1.35245 39.1221 1.43459 39.0362 1.51673 38.9504C1.59887 38.8646 1.76316 38.7788 1.92744 38.693C2.09172 38.6071 2.25601 38.6071 2.33815 38.6071H2.74886V40.8385H2.831ZM11.4559 40.8385H11.0452C10.8809 40.8385 10.7166 40.8385 10.5523 40.7526C10.3881 40.6668 10.3059 40.6668 10.1416 40.4952C10.0595 40.4094 9.8952 40.3235 9.8952 40.1519C9.81306 39.9803 9.81306 39.8944 9.81306 39.7228C9.81306 39.5512 9.81306 39.3795 9.8952 39.2937C9.97734 39.1221 10.0595 39.0362 10.1416 38.9504C10.2238 38.8646 10.3881 38.7788 10.5523 38.693C10.7166 38.6071 10.8809 38.6071 11.0452 38.6071H11.4559V40.8385ZM13.9202 40.8385L13.1809 39.0362C13.3452 38.8646 13.5094 38.7788 13.6737 38.693C13.838 38.6071 14.0023 38.6071 14.2487 38.6071C14.413 38.6071 14.6594 38.6071 14.8237 38.693C14.988 38.7788 15.1523 38.8646 15.3166 39.0362L14.6594 40.8385H13.9202Z" fill="#3F4254"/>
<path fill-rule="evenodd" clip-rule="evenodd" d="M55.6483 11.5729H56.3875V12.334H55.6483V11.5729ZM57.209 11.5729H57.9482V12.334H57.209V11.5729ZM41.9306 2.52526H41.1913V1.76424H41.9306V2.52526ZM60.4946 8.10608C60.8232 8.35975 61.1518 8.44431 61.4803 8.61343C61.891 8.69798 62.3017 8.78254 62.7125 8.78254H62.8767L63.1232 8.19064V8.95166C63.1232 9.37444 62.9589 9.62812 62.7946 9.88179C62.5482 10.0509 62.2196 10.1355 61.8089 10.1355C61.5625 10.1355 61.3982 10.1355 61.1518 10.0509C60.9875 9.96635 60.7411 9.96635 60.4946 9.79723L60.2482 10.5583C60.5768 10.6428 60.8232 10.7274 61.0696 10.8119C61.316 10.8965 61.5625 10.8965 61.7268 10.8965C62.466 10.8965 63.041 10.7274 63.3696 10.3891C63.6982 10.0509 63.8624 9.54356 63.8624 8.95166V3.4554H62.6303C62.1375 3.4554 61.7268 3.53996 61.316 3.62451C60.9053 3.79363 60.5768 3.96275 60.3303 4.21642C60.0018 4.47009 59.8375 4.72377 59.6732 5.062C59.5089 5.40023 59.4268 5.73846 59.4268 6.16125C59.4268 6.58404 59.5089 7.00683 59.6732 7.34506C59.9196 7.59873 60.1661 7.8524 60.4946 8.10608ZM60.4946 5.23111C60.5768 4.97744 60.7411 4.80832 60.9875 4.63921C61.1518 4.47009 61.3982 4.30098 61.6446 4.21642C61.891 4.13186 62.1375 4.0473 62.3839 4.0473H63.616L63.2053 4.30098V7.8524H62.3839C62.0553 7.8524 61.8089 7.8524 61.5625 7.76785C61.316 7.68329 61.0696 7.51417 60.9053 7.42962C60.7411 7.2605 60.5768 7.09138 60.4946 6.83771C60.4125 6.58404 60.3303 6.33036 60.3303 6.07669C60.2482 5.73846 60.3303 5.48479 60.4946 5.23111ZM43.4913 2.52526H42.752V1.76424H43.4913V2.52526ZM65.916 10.8965C65.6696 10.8965 65.5053 10.8965 65.2589 10.8119L65.4231 10.0509C65.5053 10.0509 65.5874 10.0509 65.6696 10.1355H65.8338C65.9981 10.1355 66.0803 10.1355 66.1624 10.0509C66.2446 10.0509 66.3267 9.96635 66.4088 9.88179C66.491 9.79723 66.491 9.62812 66.491 9.459V8.8671V3.37084H67.2303V8.8671C67.2303 9.20533 67.2303 9.459 67.1481 9.71268C67.066 9.96635 66.9838 10.1355 66.9017 10.3891C66.8195 10.5583 66.6553 10.7274 66.491 10.8119C66.4088 10.8119 66.1624 10.8965 65.916 10.8965ZM41.3556 10.8119H42.9163V10.22C42.9163 10.22 42.9163 10.3046 42.9984 10.3046C43.0805 10.4737 43.2448 10.6428 43.4913 10.7274C43.6555 10.8119 43.902 10.8965 44.1484 10.8965H58.1947V3.4554H57.4554V10.1355H56.634H44.1484C43.9841 10.1355 43.902 10.1355 43.7377 10.0509C43.6555 9.96635 43.5734 9.96635 43.4913 9.79723C43.4091 9.71268 43.4091 9.54356 43.327 9.37444V8.78254V3.28628H41.2734C39.1377 3.28628 37.6592 4.97744 37.6592 7.00683C37.8235 9.03621 39.2199 10.8119 41.3556 10.8119ZM38.6449 7.00683C38.6449 5.40023 39.7949 4.0473 41.3556 4.0473H43.1627L42.6698 4.30098V8.78254C42.6698 9.12077 42.6698 9.37444 42.752 9.62812C42.752 9.79723 42.8341 9.88179 42.8341 10.0509H41.3556C39.7949 9.96635 38.6449 8.69798 38.6449 7.00683ZM63.041 0.834106H63.6982V1.42601H63.1232C62.9589 1.42601 62.8767 1.51057 62.8767 1.67968V1.93336H63.8624V2.52526H62.2196V1.67968C62.2196 1.2569 62.6303 0.834106 63.041 0.834106Z" fill="#3F4254"/>
<path fill-rule="evenodd" clip-rule="evenodd" d="M33.56 3.46094H34.3735V10.61H33.7227L28.6791 4.19209L29.0858 5.2482V10.61H28.2724V3.46094H29.0045L33.8854 9.63512L33.56 8.74149V3.46094ZM3.78654 10.61L0.695312 3.3797H1.59014L1.99688 4.43581L4.11194 9.47264L4.35598 9.96008L4.27463 9.14769L6.71508 3.29846H7.60991L4.51868 10.5288H3.78654V10.61ZM17.453 3.46094H18.2665V10.61H17.453V3.46094ZM26.1573 7.03547C26.1573 8.66025 25.0184 9.96008 23.3915 9.96008C21.7645 9.96008 20.5443 8.66025 20.5443 7.03547C20.5443 5.41068 21.6832 4.11085 23.3101 4.11085C24.9371 4.02961 26.1573 5.41068 26.1573 7.03547ZM23.3101 3.29846C21.1137 3.29846 19.6494 5.00449 19.6494 6.95423C19.6494 8.90397 21.1137 10.61 23.3101 10.61C25.5065 10.61 26.9708 8.90397 26.9708 6.95423C26.9708 5.00449 25.5065 3.29846 23.3101 3.29846ZM16.1515 8.66025C16.1515 9.87884 15.0939 10.6912 13.711 10.6912C12.5722 10.6912 11.6773 10.285 10.7825 9.55388L11.2706 8.98521C12.0027 9.63512 12.7348 9.96008 13.711 9.96008C14.6872 9.96008 15.338 9.47264 15.338 8.74149C15.338 8.09158 15.0126 7.68538 13.467 7.36042C11.84 7.03547 11.1079 6.46679 11.1079 5.32944C11.1079 4.19209 12.0841 3.3797 13.467 3.3797C14.5245 3.3797 15.2566 3.70466 15.9888 4.27333L15.5007 4.92325C14.8499 4.35457 14.1991 4.11085 13.467 4.11085C12.5722 4.11085 11.9214 4.59829 11.9214 5.2482C11.9214 5.89812 12.3281 6.30431 13.8737 6.62927C15.4193 6.95423 16.1515 7.5229 16.1515 8.66025ZM9.56227 10.61H8.74879V3.46094H9.56227V10.61Z" fill="#3F4254"/>
</g>
</svg>
