<svg width="115" height="50" viewBox="0 0 115 50" fill="none" xmlns="http://www.w3.org/2000/svg">
<g opacity="0.8" clip-path="url(#clip0_8757_13454)">
<path d="M23.3536 1.25672C17.6767 1.84575 12.5889 4.25306 8.62795 8.21404C5.29868 11.5433 2.97673 15.8458 2.07185 20.3787C1.68771 22.2994 1.62795 22.9482 1.63649 25.2872C1.63649 27.1226 1.67064 27.7116 1.82429 28.7019C2.67795 34.1823 5.11942 38.8945 9.06332 42.6506C14.7145 48.0458 22.5767 50.308 30.3877 48.8055C39.9914 46.9531 47.7255 38.9884 49.3389 29.2994C49.6719 27.3104 49.7658 24.5531 49.5694 22.7689C48.9463 17.2543 46.7267 12.4567 42.9792 8.56404C39.2402 4.67136 34.528 2.24697 29.1158 1.41892C27.8523 1.22258 24.5658 1.12867 23.3536 1.25672ZM28.0914 2.37502C30.7036 2.63111 33.4097 3.42501 35.8511 4.64575C38.1816 5.81526 39.9487 7.09575 41.8438 8.98233C43.1584 10.2884 43.8414 11.1165 44.7548 12.4823C49.8426 20.0799 49.8938 30.1019 44.8828 37.7506C41.5792 42.7958 36.4743 46.347 30.6523 47.6445C28.8426 48.0543 27.8097 48.1567 25.6158 48.1567C23.0377 48.1567 21.356 47.9262 19.1023 47.2604C16.917 46.6116 14.8853 45.6555 12.8962 44.3238C11.3938 43.325 10.3523 42.4543 9.08039 41.1397C1.61088 33.3799 0.526733 21.4628 6.49381 12.525C7.45844 11.0738 8.18405 10.1945 9.39625 8.98233C12.0084 6.37014 15.0901 4.47502 18.5816 3.34819C21.6719 2.34941 24.7023 2.04209 28.0914 2.37502Z" fill="#3F4254"/>
<path d="M22.8242 4.19336C22.0388 4.2958 21.3815 4.39824 21.3644 4.41532C21.3474 4.44093 21.3474 4.62873 21.373 4.83361L21.4071 5.20068L22.0388 5.14093C22.5425 5.09824 22.6705 5.10678 22.6705 5.20068C22.6705 5.26044 22.7644 6.06288 22.884 6.97629C23.0035 7.88971 23.0974 8.66653 23.0974 8.70922C23.0974 8.76044 24.0193 8.70922 24.0961 8.64946C24.1047 8.64093 24.0193 7.88971 23.9083 6.97629C23.7888 6.06288 23.6949 5.22629 23.6949 5.12385C23.6949 4.95312 23.7547 4.93605 24.301 4.87629L24.9071 4.81653L24.8559 4.50922C24.8303 4.33849 24.8047 4.15068 24.8047 4.09093C24.8047 3.95434 24.5657 3.97141 22.8242 4.19336Z" fill="#3F4254"/>
<path d="M26.1361 4.09083C26.0764 4.2701 25.9227 8.46156 25.9654 8.52985C25.991 8.564 26.213 8.59814 26.4605 8.59814H26.913L26.9642 7.76156C26.9983 7.30912 27.0495 6.26766 27.0751 5.45668L27.1349 3.98839H26.6483C26.3325 3.98839 26.1532 4.02254 26.1361 4.09083Z" fill="#3F4254"/>
<path d="M28.783 4.38961C28.6549 4.84205 27.8781 8.62376 27.9122 8.65791C27.9634 8.70913 28.561 8.84571 28.7317 8.85425C28.8342 8.85425 28.9025 8.65791 29.022 8.10303C29.0988 7.69327 29.1842 7.30059 29.2098 7.22376C29.2439 7.10425 29.3122 7.10425 29.9525 7.24083C30.8573 7.44571 30.8573 7.44571 30.9171 7.164C30.9427 7.03596 30.9854 6.87376 31.0025 6.78839C31.0366 6.67742 30.9 6.61766 30.2171 6.464C29.4573 6.29327 29.4061 6.25913 29.4488 6.08839C29.4744 5.99449 29.5256 5.764 29.5512 5.58474C29.5854 5.40547 29.6537 5.26888 29.722 5.26888C29.8415 5.26888 30.9939 5.49937 31.2159 5.5762C31.3269 5.60181 31.3781 5.52498 31.4549 5.21766C31.5147 4.99571 31.5488 4.81644 31.5317 4.79937C31.4976 4.7823 28.9622 4.24449 28.8854 4.24449C28.8512 4.24449 28.8086 4.31279 28.783 4.38961Z" fill="#3F4254"/>
<path d="M18.4876 5.21771C18.0181 5.3543 16.7803 5.86649 16.7803 5.92625C16.7803 5.97747 18.3254 10.0836 18.3595 10.1177C18.4022 10.1689 19.2559 9.84454 19.2559 9.77625C19.2559 9.72503 18.8888 8.70064 18.701 8.23966C18.6583 8.12869 18.7181 8.07747 18.9912 7.9921C19.4352 7.86405 19.6315 7.98356 20.1095 8.67503C20.2973 8.95674 20.4937 9.21283 20.5364 9.23844C20.6047 9.28113 21.4412 9.06771 21.5437 8.98234C21.5608 8.96527 21.3644 8.66649 21.0998 8.31649C20.6132 7.65917 20.2547 7.31771 20.0583 7.31771C19.8961 7.31771 19.9047 7.26649 20.1266 6.97625C20.4681 6.50673 20.3059 5.64454 19.8193 5.32015C19.5205 5.12381 18.9486 5.08112 18.4876 5.21771ZM19.0766 6.03722C19.162 6.07991 19.2815 6.22503 19.3327 6.37015C19.4181 6.57503 19.4181 6.66039 19.3071 6.86527C19.1705 7.13844 18.5303 7.48844 18.4108 7.35186C18.3425 7.28356 17.9754 6.34454 17.9754 6.2421C17.9754 6.16527 18.5217 5.96039 18.7266 5.95186C18.8376 5.95186 18.9912 5.986 19.0766 6.03722Z" fill="#3F4254"/>
<path d="M32.2315 7.41166C31.7876 8.53849 31.412 9.48605 31.3949 9.52874C31.3779 9.58849 31.8986 9.82752 32.2145 9.89581C32.2913 9.91288 32.6071 9.22142 33.1706 7.82996L34.0071 5.73849L33.6059 5.55069C33.3925 5.44825 33.1791 5.36288 33.1279 5.36288C33.0852 5.36288 32.6754 6.2763 32.2315 7.41166Z" fill="#3F4254"/>
<path d="M34.3653 8.36776C33.7336 9.40923 33.2129 10.28 33.2129 10.297C33.2129 10.3141 33.7592 10.6641 34.4336 11.0824L35.6544 11.8336L35.8678 11.4836C36.047 11.2019 36.0641 11.1251 35.9702 11.0568C35.9105 11.0141 35.5605 10.8007 35.2019 10.5787C34.8348 10.3568 34.5361 10.1519 34.5361 10.1178C34.5361 10.0836 34.6556 9.86167 34.8007 9.62264C35.0483 9.21289 35.0824 9.19581 35.2531 9.30679C35.8336 9.67386 36.5165 10.0665 36.5336 10.0409C36.5422 10.0239 36.6446 9.86167 36.747 9.69094L36.9348 9.37508L36.4824 9.08484C36.2348 8.93118 35.9105 8.7263 35.7653 8.64094L35.4922 8.48728L35.7483 8.06898L36.0044 7.65923L36.3117 7.84703C36.4909 7.94947 36.8324 8.16289 37.0714 8.31655L37.5239 8.59825L37.7458 8.24825C37.8653 8.05191 37.9336 7.86411 37.8909 7.8385C37.7373 7.69337 35.6629 6.46411 35.5946 6.46411C35.5519 6.46411 34.997 7.31776 34.3653 8.36776Z" fill="#3F4254"/>
<path d="M13.9719 7.53112C13.3914 7.92381 12.8793 8.28234 12.8366 8.32503C12.7256 8.436 15.2439 12.2006 15.3719 12.1153C15.4146 12.0811 15.9695 11.714 16.5841 11.2958L17.711 10.5445L17.489 10.2116C17.3695 10.0238 17.2585 9.87868 17.2329 9.87868C17.2158 9.87868 16.8573 10.1092 16.439 10.3909L15.6878 10.8945L15.3805 10.4762C15.2097 10.2372 15.0732 10.0323 15.0732 10.0067C15.0732 9.98966 15.3719 9.76771 15.739 9.52868C16.0975 9.28112 16.4049 9.07624 16.4219 9.05917C16.439 9.05064 16.3451 8.88844 16.2256 8.6921L15.9951 8.3421L15.3122 8.81161C14.9366 9.06771 14.6207 9.28112 14.6036 9.28112C14.5524 9.28112 14.0317 8.50429 14.0658 8.47868C14.0744 8.46161 14.3988 8.2482 14.7744 8.00064C15.15 7.75307 15.4744 7.53966 15.4914 7.52259C15.5256 7.49698 15.0902 6.79698 15.0475 6.81405C15.039 6.81405 14.5524 7.13844 13.9719 7.53112Z" fill="#3F4254"/>
<path d="M37.9169 10.6556C37.0462 11.5092 36.3291 12.2348 36.3291 12.286C36.3291 12.3287 36.645 12.6787 37.0376 13.0714C37.9254 13.9592 38.3693 14.1897 39.1889 14.1897C39.9059 14.1897 40.3669 13.9592 40.9559 13.3019C41.5876 12.6019 41.6901 11.7995 41.2718 10.9629C41.0925 10.6129 39.9315 9.34092 39.6498 9.1958C39.5389 9.13604 39.1632 9.45189 37.9169 10.6556ZM40.1108 10.7238C40.273 10.9031 40.4523 11.1934 40.512 11.3726C40.8108 12.269 39.5132 13.5068 38.5742 13.2251C38.2072 13.1141 37.6096 12.6531 37.6096 12.4824C37.6096 12.3714 39.6328 10.3909 39.7437 10.3909C39.7779 10.3909 39.9401 10.536 40.1108 10.7238Z" fill="#3F4254"/>
<path d="M11.0951 9.69092C9.90849 10.5531 9.49873 11.8677 10.0792 12.9434C10.5487 13.797 11.3768 14.3177 12.2475 14.3177C12.7341 14.3177 13.2378 14.0873 13.7158 13.6604C14.0487 13.3617 14.5609 12.6702 14.5609 12.5165C14.5609 12.4824 14.4158 12.3629 14.2451 12.2604L13.9378 12.0641L13.8012 12.269C13.1865 13.208 12.4865 13.4982 11.7524 13.1312C11.0439 12.7641 10.6426 12.0214 10.8134 11.3982C10.9073 11.0397 11.317 10.5275 11.6756 10.3056L11.906 10.169L11.667 9.81043L11.428 9.4519L11.0951 9.69092Z" fill="#3F4254"/>
<path d="M24.0791 9.708C17.8986 10.3739 12.7596 14.4885 10.8132 20.336C10.1901 22.2226 10.0876 22.8799 10.0791 25.2019C10.0791 27.0117 10.1047 27.3617 10.2754 28.2239C11.4108 33.8409 15.3803 38.3482 20.7071 40.1068C22.5511 40.7043 23.3706 40.8239 25.7011 40.8239C27.9889 40.8153 28.6291 40.7214 30.4815 40.1239C35.0571 38.647 38.7962 34.9934 40.3754 30.4775C43.5681 21.2921 37.8486 11.5519 28.262 9.87019C27.1864 9.68239 25.0864 9.59702 24.0791 9.708ZM27.0328 10.1348C29.0047 10.3397 30.5584 10.7836 32.3596 11.6799C33.9645 12.4739 34.9462 13.1909 36.3291 14.5739C39.1035 17.3397 40.5889 20.7117 40.7425 24.5702C40.8023 26.2263 40.6828 27.4641 40.2986 28.958C38.2328 37.008 30.1486 41.8653 22.0389 39.936C20.0071 39.4495 17.873 38.3995 16.1401 37.0165C15.3462 36.3934 13.9035 34.8482 13.2632 33.9519C12.5718 32.9787 11.5986 31.058 11.2401 29.9397C9.55837 24.7495 10.762 19.0897 14.4071 15.0519C15.6193 13.7117 17.4035 12.3799 19.0425 11.586C21.5523 10.3824 24.3693 9.87019 27.0328 10.1348Z" fill="#3F4254"/>
<path d="M23.5243 10.8689C19.017 11.5774 15.2267 14.1982 12.9645 18.1677C11.1718 21.3091 10.6682 25.364 11.6243 29.0006C12.7511 33.3201 16.0633 37.0591 20.2121 38.7152C26.3499 41.1567 33.3499 39.2104 37.2596 33.9774C39.1974 31.3823 40.1706 28.4628 40.1706 25.2445C40.1706 21.2409 38.5999 17.5531 35.7145 14.7872C33.6743 12.8323 31.2584 11.5604 28.4755 10.9884C27.2889 10.7409 24.7194 10.6811 23.5243 10.8689ZM24.2243 18.1591C24.5401 18.2018 25.0096 18.3384 25.2828 18.4579C25.8889 18.7226 26.0084 18.7226 26.256 18.4579C26.4096 18.2957 26.5462 18.2445 26.8279 18.2445H27.195V19.5677V20.8909H26.9218C26.7682 20.8909 26.5633 20.9165 26.4609 20.9421C26.3157 20.9848 26.2731 20.9335 26.1792 20.6177C25.906 19.6957 25.1804 19.2518 23.9596 19.2433C23.4389 19.2433 23.1487 19.286 22.9523 19.3884C22.2779 19.7299 22.3718 20.4299 23.1401 20.7201C23.2853 20.7713 23.8913 20.9165 24.4974 21.0274C26.3499 21.386 27.0413 21.7445 27.417 22.5384C27.6645 23.0762 27.6901 23.8957 27.4853 24.5018C27.2974 25.0482 26.7255 25.6116 26.1023 25.8506C25.7011 26.0128 25.445 26.047 24.634 26.047C23.7292 26.047 23.6011 26.0299 22.9523 25.7652C22.2267 25.4835 21.9877 25.4835 21.8682 25.7994C21.834 25.8933 21.6974 25.9274 21.3474 25.9274H20.8779V24.5616V23.1957H21.0828C21.1938 23.1957 21.3987 23.1701 21.5267 23.1445C21.7657 23.1018 21.7828 23.1189 21.8853 23.5031C22.0474 24.0921 22.2694 24.3482 22.9011 24.664C23.4218 24.9201 23.5243 24.9372 24.3267 24.9372C25.0438 24.9457 25.2401 24.9201 25.4877 24.775C25.8718 24.5445 26.0682 24.075 25.9231 23.725C25.7779 23.375 25.3596 23.2043 24.0535 22.9738C22.2353 22.6409 21.4926 22.2738 21.1255 21.5226C20.9035 21.0445 20.8182 20.1396 20.9548 19.6274C21.1511 18.9018 21.9023 18.3128 22.8328 18.1591C23.3877 18.0652 23.5755 18.0652 24.2243 18.1591ZM33.0853 18.1591C35.1426 18.4152 36.1584 19.7043 36.1584 22.0433C36.1584 23.4433 35.8255 24.3652 35.0828 25.0738C34.1353 25.9701 32.6584 26.2945 31.0621 25.9616C30.695 25.8848 30.2596 25.7567 30.0804 25.6628C28.9621 25.0909 28.3901 23.9299 28.3901 22.2567C28.3987 19.7896 29.3889 18.475 31.4633 18.1677C32.1377 18.0652 32.2828 18.0652 33.0853 18.1591ZM20.0243 18.7482V19.1579L19.6657 19.2091C19.4694 19.2348 19.256 19.3287 19.1962 19.4055C19.1109 19.525 19.0853 20.1738 19.0853 22.1372C19.0853 25.0226 19.0682 24.9457 19.6913 25.0396L20.0243 25.0994V25.5091V25.9274H18.0609H16.0974V25.5006C16.0974 25.0994 16.1145 25.0738 16.3194 25.0738C16.5584 25.0738 16.8743 24.9372 16.9682 24.7835C17.0023 24.7323 17.0365 23.5372 17.0365 22.1201C17.0365 20.1652 17.0109 19.525 16.9255 19.4055C16.8657 19.3287 16.6523 19.2348 16.456 19.2091L16.0974 19.1579V18.7482V18.3299H18.0609H20.0243V18.7482Z" fill="#3F4254"/>
<path d="M32.1884 19.2262C32.1457 19.2433 31.9579 19.2774 31.7871 19.3116C31.3945 19.3713 31.0018 19.6957 30.7542 20.1567C30.5835 20.4811 30.5664 20.6262 30.5664 22.0006C30.5664 23.4945 30.5664 23.4945 30.8225 24.0067C31.1896 24.7408 31.403 24.8604 32.2737 24.8604C33.0676 24.8604 33.2981 24.7494 33.6652 24.2201C33.9725 23.7591 34.0579 23.3067 34.0579 22.086C34.0579 20.114 33.6908 19.3884 32.6152 19.2433C32.4274 19.2177 32.2396 19.2091 32.1884 19.2262Z" fill="#3F4254"/>
<path d="M14.7143 29.1799C14.4924 29.308 14.4241 29.8116 14.5948 30.0677C14.885 30.5031 15.4997 30.247 15.4997 29.7007C15.4997 29.2397 15.0814 28.958 14.7143 29.1799Z" fill="#3F4254"/>
<path d="M17.7191 29.2141C17.463 29.5214 17.4715 31.186 17.7362 31.4421C17.9666 31.6726 18.291 31.536 18.3935 31.1519C18.5813 30.5031 18.4703 29.3251 18.2142 29.1543C18.0435 29.0519 17.8386 29.0775 17.7191 29.2141Z" fill="#3F4254"/>
<path d="M20.6479 29.3165C20.426 29.6494 20.426 30.9982 20.6479 31.3312C20.8272 31.6043 21.0491 31.6299 21.2711 31.3824C21.5016 31.1263 21.5101 29.6665 21.2796 29.3165C21.0918 29.0263 20.8357 29.0263 20.6479 29.3165Z" fill="#3F4254"/>
<path d="M30.5413 29.1543C30.2766 29.3336 30.1742 30.6226 30.3791 31.2201C30.4644 31.4677 30.5242 31.5189 30.7376 31.5189C30.9169 31.5189 31.0193 31.4592 31.0962 31.3055C31.2413 31.0238 31.2413 29.6238 31.0962 29.3421C30.9852 29.1201 30.7291 29.0348 30.5413 29.1543Z" fill="#3F4254"/>
<path d="M38.8987 35.7189C38.7109 35.9409 38.5487 36.1714 38.5487 36.2311C38.5487 36.2824 38.7195 36.7007 38.9329 37.1616C39.1463 37.6141 39.317 38.0153 39.317 38.0494C39.317 38.0836 38.8817 37.947 38.3609 37.7507L37.3963 37.3836L36.9951 37.7763C36.7646 37.9897 36.6109 38.1946 36.6536 38.2287C36.6878 38.2543 37.3451 38.4421 38.1048 38.647L39.5048 39.0141L40.1878 39.6543L40.8621 40.2946L41.2207 39.936L41.5792 39.5689L40.8878 38.9202L40.1878 38.2628L39.7438 36.8116C39.4963 36.0092 39.2914 35.3519 39.2743 35.3348C39.2658 35.3177 39.0951 35.497 38.8987 35.7189Z" fill="#3F4254"/>
<path d="M11.4961 36.436C10.8559 36.6239 10.1644 37.2385 9.87414 37.8787C9.64366 38.3739 9.64366 39.0824 9.86561 39.569C10.0534 39.9787 10.8132 40.8239 11.1546 41.0031C11.3766 41.1141 11.3937 41.1056 11.5985 40.7897L11.8119 40.4653L11.4278 40.1409C10.9241 39.7141 10.7193 39.3726 10.7193 38.9202C10.7193 38.4848 10.8644 38.186 11.2485 37.8275C11.6412 37.4519 11.8461 37.3665 12.3241 37.3665C12.8278 37.3665 13.3144 37.6739 13.6217 38.1946C13.7327 38.3739 13.8351 38.536 13.8437 38.5531C13.8607 38.5702 14.39 38.2885 14.5522 38.169C14.6376 38.1007 14.0912 37.3409 13.7412 37.0336C13.0754 36.4531 12.2388 36.2312 11.4961 36.436Z" fill="#3F4254"/>
<path d="M35.7573 38.7835L35.3988 38.9969L35.9195 39.825C36.2098 40.2774 36.6195 40.9006 36.8329 41.2079C37.0463 41.5067 37.1659 41.7201 37.0976 41.6774C37.0293 41.6347 36.7561 41.464 36.5 41.2933C35.9707 40.9347 34.1268 39.9274 34.0073 39.9274C33.9646 39.9274 33.7171 40.064 33.461 40.2262L33 40.525L33.4098 41.1823C34.7159 43.2823 35.4073 44.3665 35.4415 44.3665C35.5183 44.3665 36.1585 43.9396 36.1585 43.8799C36.1585 43.8201 35.3561 42.5311 34.7756 41.6518C34.5451 41.3189 34.3829 41.0372 34.4085 41.0372C34.4427 41.0372 34.5878 41.1311 34.7329 41.2421C35.0829 41.5067 37.5927 42.9152 37.7207 42.9152C37.7634 42.9152 37.9939 42.7957 38.2159 42.6506L38.6256 42.386L38.2159 41.7372C37.9939 41.3787 37.4561 40.5165 37.0207 39.8165C36.5854 39.125 36.2012 38.5616 36.1756 38.5616C36.1415 38.5701 35.9537 38.664 35.7573 38.7835Z" fill="#3F4254"/>
<path d="M15.1842 39.1677C14.6976 39.2616 14.4073 39.4238 13.9976 39.8592C13.2464 40.636 13.0073 41.6348 13.3659 42.4714C13.989 43.9141 15.9866 44.2299 17.0195 43.0434C18.172 41.7373 17.9842 40.0812 16.6098 39.3982C16.072 39.1336 15.6878 39.0738 15.1842 39.1677ZM16.439 40.2434C16.9512 40.7043 16.8488 41.6177 16.2 42.3348C15.5939 43.0092 14.9964 43.1117 14.5098 42.6251C14.2622 42.3775 14.2195 42.2751 14.2195 41.9421C14.2195 41.4897 14.3817 41.0458 14.6976 40.6275C15.2012 39.9787 15.9525 39.8165 16.439 40.2434Z" fill="#3F4254"/>
<path d="M19.4697 41.1567C19.3075 41.6519 18.1465 45.3823 18.1465 45.4165C18.1465 45.4677 19.0001 45.6811 19.0343 45.6384C19.0514 45.6214 19.2648 44.9128 19.5038 44.0677C19.7514 43.2226 19.9733 42.4543 20.0075 42.3604C20.0416 42.2665 20.0843 43.0092 20.1099 44.0165L20.1526 45.8433L20.5111 45.9458C20.7843 46.0311 20.8953 46.0311 20.9465 45.9543C21.1001 45.7579 22.4062 43.547 22.5514 43.2311C22.6965 42.9238 22.9184 42.7701 22.7989 43.0604C22.7392 43.2311 22.0733 46.364 22.0989 46.3811C22.1075 46.3897 22.3209 46.4494 22.5684 46.5262C23.0038 46.6543 23.0123 46.6458 23.055 46.4665C23.1916 45.9031 23.8575 42.1982 23.8318 42.1726C23.8148 42.147 23.5245 42.0616 23.1916 41.9762L22.577 41.8226L22.466 42.0019C22.3977 42.1043 22.2184 42.4031 22.0562 42.6592C21.894 42.9153 21.5697 43.4701 21.3392 43.897L20.9209 44.6653L20.8782 43.0689C20.8526 42.1982 20.8184 41.464 20.7928 41.4384C20.7672 41.4128 20.4684 41.3189 20.127 41.225C19.6831 41.1055 19.4867 41.0884 19.4697 41.1567Z" fill="#3F4254"/>
<path d="M30.3106 41.4214L29.713 41.6006L29.6618 42.4543C29.6276 42.9153 29.602 43.9994 29.5935 44.8445L29.585 46.3982L30.0801 46.2531L30.5667 46.1079L30.5752 45.5275C30.5837 45.2116 30.6179 44.9214 30.6606 44.8872C30.7289 44.8275 31.6935 44.5372 31.8215 44.5372C31.8472 44.5372 32.0179 44.7677 32.1972 45.0494C32.4276 45.3994 32.5728 45.5445 32.6581 45.5104C32.7264 45.4848 32.9484 45.425 33.1533 45.3653C33.3496 45.314 33.5118 45.2458 33.5118 45.2116C33.5118 45.1433 31.0618 41.3872 30.9594 41.2848C30.9337 41.2592 30.6435 41.3189 30.3106 41.4214ZM30.985 42.9921C31.2496 43.4104 31.463 43.7689 31.463 43.7945C31.463 43.8372 30.5837 44.1189 30.5581 44.0848C30.524 44.0421 30.4301 42.2323 30.4642 42.2323C30.4813 42.2323 30.7203 42.5738 30.985 42.9921Z" fill="#3F4254"/>
<path d="M25.5304 42.1214C25.4365 42.1385 25.2829 42.1726 25.189 42.1897C25.0183 42.2238 25.0183 42.2494 25.1207 43.9994C25.1719 44.9726 25.2231 45.9799 25.2231 46.2189L25.2317 46.6714H25.7524H26.2731L26.2134 45.8775L26.1536 45.075L26.6317 45.0153C26.8963 44.9897 27.2634 44.9043 27.4512 44.8275C28.5865 44.375 28.6719 42.7189 27.5963 42.2324C27.3231 42.1043 27.0585 42.0702 26.4695 42.0702C26.0512 42.0787 25.6244 42.0958 25.5304 42.1214ZM27.1865 43.0519C27.5622 43.5214 27.289 44.1189 26.6487 44.2385C26.128 44.3409 26.0853 44.2811 26.0853 43.5129V42.8299H26.5463C26.9475 42.8299 27.0329 42.8641 27.1865 43.0519Z" fill="#3F4254"/>
<path d="M18.2407 28.4127V32.9945H17.272V29.3322H17.2452L16.1959 29.9899V29.1308L17.3302 28.4127H18.2407ZM19.2603 32.1891V31.4262L21.1731 28.4127H21.8309V29.4687H21.4416L20.2358 31.377V31.4128H22.954V32.1891H19.2603ZM21.4595 32.9945V31.9564L21.4774 31.6186V28.4127H22.3857V32.9945H21.4595ZM25.3579 33.0571C25.1222 33.0557 24.8948 33.0161 24.6755 32.9386C24.4577 32.861 24.2624 32.735 24.0894 32.5605C23.9163 32.386 23.7791 32.1548 23.6777 31.867C23.5778 31.5791 23.5278 31.2256 23.5278 30.8065C23.5293 30.4217 23.5733 30.0779 23.6598 29.7752C23.7478 29.4709 23.8731 29.2129 24.0357 29.0011C24.1997 28.7893 24.3959 28.6282 24.624 28.5178C24.8522 28.406 25.108 28.35 25.3914 28.35C25.6972 28.35 25.9671 28.4097 26.2013 28.529C26.4354 28.6469 26.6234 28.8072 26.7651 29.01C26.9082 29.2129 26.9948 29.4403 27.0246 29.6924H26.0693C26.032 29.5328 25.9537 29.4075 25.8344 29.3165C25.7151 29.2255 25.5674 29.1801 25.3914 29.1801C25.0931 29.1801 24.8664 29.3098 24.7113 29.5693C24.5577 29.8288 24.4794 30.1816 24.4764 30.6275H24.5077C24.5763 30.4918 24.6688 30.3762 24.7851 30.2808C24.903 30.1838 25.0364 30.11 25.1856 30.0593C25.3362 30.0071 25.4951 29.981 25.6621 29.981C25.9336 29.981 26.1752 30.0451 26.387 30.1734C26.5988 30.3002 26.7658 30.4747 26.8881 30.6969C27.0104 30.9191 27.0716 31.1734 27.0716 31.4598C27.0716 31.77 26.9992 32.0459 26.8546 32.2875C26.7114 32.5292 26.5108 32.7186 26.2527 32.8558C25.9962 32.9915 25.6979 33.0586 25.3579 33.0571ZM25.3534 32.2965C25.5025 32.2965 25.636 32.2607 25.7538 32.1891C25.8717 32.1175 25.9641 32.0206 26.0313 31.8983C26.0984 31.776 26.1319 31.6388 26.1319 31.4866C26.1319 31.3345 26.0984 31.198 26.0313 31.0772C25.9656 30.9564 25.8747 30.8602 25.7583 30.7886C25.642 30.717 25.5092 30.6812 25.3601 30.6812C25.2482 30.6812 25.1446 30.7021 25.0491 30.7439C24.9552 30.7856 24.8724 30.8438 24.8008 30.9184C24.7307 30.9929 24.6755 31.0795 24.6352 31.1779C24.595 31.2748 24.5748 31.3785 24.5748 31.4889C24.5748 31.6365 24.6084 31.7715 24.6755 31.8938C24.7441 32.0161 24.8366 32.1138 24.9529 32.1869C25.0707 32.26 25.2042 32.2965 25.3534 32.2965ZM27.689 32.1891V31.4262L29.6019 28.4127H30.2596V29.4687H29.8703L28.6645 31.377V31.4128H31.3827V32.1891H27.689ZM29.8882 32.9945V31.9564L29.9061 31.6186V28.4127H30.8144V32.9945H29.8882ZM33.96 28.4127V32.9945H32.9912V29.3322H32.9644L31.9151 29.9899V29.1308L33.0494 28.4127H33.96Z" fill="white"/>
</g>
<g opacity="0.8" clip-path="url(#clip1_8757_13454)">
<path d="M87.4629 1.25672C81.7861 1.84575 76.6983 4.25306 72.7373 8.21404C69.4081 11.5433 67.0861 15.8458 66.1812 20.3787C65.7971 22.2994 65.7373 22.9482 65.7459 25.2872C65.7459 27.1226 65.78 27.7116 65.9337 28.7019C66.7873 34.1823 69.2288 38.8945 73.1727 42.6506C78.8239 48.0458 86.6861 50.308 94.4971 48.8055C104.101 46.9531 111.835 38.9884 113.448 29.2994C113.781 27.3104 113.875 24.5531 113.679 22.7689C113.056 17.2543 110.836 12.4567 107.089 8.56404C103.35 4.67136 98.6373 2.24697 93.2251 1.41892C91.9617 1.22258 88.6751 1.12867 87.4629 1.25672ZM92.2007 2.37502C94.8129 2.63111 97.519 3.42501 99.9605 4.64575C102.291 5.81526 104.058 7.09575 105.953 8.98233C107.268 10.2884 107.951 11.1165 108.864 12.4823C113.952 20.0799 114.003 30.1019 108.992 37.7506C105.689 42.7958 100.584 46.347 94.7617 47.6445C92.952 48.0543 91.919 48.1567 89.7251 48.1567C87.1471 48.1567 85.4654 47.9262 83.2117 47.2604C81.0264 46.6116 78.9946 45.6555 77.0056 44.3238C75.5032 43.325 74.4617 42.4543 73.1898 41.1397C65.7203 33.3799 64.6361 21.4628 70.6032 12.525C71.5678 11.0738 72.2934 10.1945 73.5056 8.98233C76.1178 6.37014 79.1995 4.47502 82.691 3.34819C85.7812 2.34941 88.8117 2.04209 92.2007 2.37502Z" fill="#3F4254"/>
<path d="M86.9336 4.19336C86.1482 4.2958 85.4909 4.39824 85.4738 4.41532C85.4567 4.44093 85.4567 4.62873 85.4823 4.83361L85.5165 5.20068L86.1482 5.14093C86.6519 5.09824 86.7799 5.10678 86.7799 5.20068C86.7799 5.26044 86.8738 6.06288 86.9933 6.97629C87.1128 7.88971 87.2067 8.66653 87.2067 8.70922C87.2067 8.76044 88.1287 8.70922 88.2055 8.64946C88.2141 8.64093 88.1287 7.88971 88.0177 6.97629C87.8982 6.06288 87.8043 5.22629 87.8043 5.12385C87.8043 4.95312 87.8641 4.93605 88.4104 4.87629L89.0165 4.81653L88.9653 4.50922C88.9397 4.33849 88.9141 4.15068 88.9141 4.09093C88.9141 3.95434 88.675 3.97141 86.9336 4.19336Z" fill="#3F4254"/>
<path d="M90.2455 4.09083C90.1857 4.2701 90.0321 8.46156 90.0748 8.52985C90.1004 8.564 90.3223 8.59814 90.5699 8.59814H91.0223L91.0735 7.76156C91.1077 7.30912 91.1589 6.26766 91.1845 5.45668L91.2443 3.98839H90.7577C90.4418 3.98839 90.2626 4.02254 90.2455 4.09083Z" fill="#3F4254"/>
<path d="M92.8923 4.38961C92.7643 4.84205 91.9875 8.62376 92.0216 8.65791C92.0728 8.70913 92.6704 8.84571 92.8411 8.85425C92.9436 8.85425 93.0118 8.65791 93.1314 8.10303C93.2082 7.69327 93.2936 7.30059 93.3192 7.22376C93.3533 7.10425 93.4216 7.10425 94.0618 7.24083C94.9667 7.44571 94.9667 7.44571 95.0265 7.164C95.0521 7.03596 95.0948 6.87376 95.1118 6.78839C95.146 6.67742 95.0094 6.61766 94.3265 6.464C93.5667 6.29327 93.5155 6.25913 93.5582 6.08839C93.5838 5.99449 93.635 5.764 93.6606 5.58474C93.6948 5.40547 93.7631 5.26888 93.8314 5.26888C93.9509 5.26888 95.1033 5.49937 95.3253 5.5762C95.4362 5.60181 95.4875 5.52498 95.5643 5.21766C95.624 4.99571 95.6582 4.81644 95.6411 4.79937C95.607 4.7823 93.0716 4.24449 92.9948 4.24449C92.9606 4.24449 92.9179 4.31279 92.8923 4.38961Z" fill="#3F4254"/>
<path d="M82.597 5.21771C82.1275 5.3543 80.8896 5.86649 80.8896 5.92625C80.8896 5.97747 82.4348 10.0836 82.4689 10.1177C82.5116 10.1689 83.3653 9.84454 83.3653 9.77625C83.3653 9.72503 82.9982 8.70064 82.8104 8.23966C82.7677 8.12869 82.8275 8.07747 83.1006 7.9921C83.5445 7.86405 83.7409 7.98356 84.2189 8.67503C84.4067 8.95674 84.6031 9.21283 84.6457 9.23844C84.714 9.28113 85.5506 9.06771 85.6531 8.98234C85.6701 8.96527 85.4738 8.66649 85.2092 8.31649C84.7226 7.65917 84.364 7.31771 84.1677 7.31771C84.0055 7.31771 84.014 7.26649 84.236 6.97625C84.5775 6.50673 84.4153 5.64454 83.9287 5.32015C83.6299 5.12381 83.0579 5.08112 82.597 5.21771ZM83.186 6.03722C83.2714 6.07991 83.3909 6.22503 83.4421 6.37015C83.5275 6.57503 83.5275 6.66039 83.4165 6.86527C83.2799 7.13844 82.6396 7.48844 82.5201 7.35186C82.4518 7.28356 82.0848 6.34454 82.0848 6.2421C82.0848 6.16527 82.6311 5.96039 82.836 5.95186C82.947 5.95186 83.1006 5.986 83.186 6.03722Z" fill="#3F4254"/>
<path d="M96.3409 7.41166C95.897 8.53849 95.5214 9.48605 95.5043 9.52874C95.4872 9.58849 96.008 9.82752 96.3238 9.89581C96.4007 9.91288 96.7165 9.22142 97.2799 7.82996L98.1165 5.73849L97.7153 5.55069C97.5019 5.44825 97.2885 5.36288 97.2372 5.36288C97.1946 5.36288 96.7848 6.2763 96.3409 7.41166Z" fill="#3F4254"/>
<path d="M98.4747 8.36776C97.843 9.40923 97.3223 10.28 97.3223 10.297C97.3223 10.3141 97.8686 10.6641 98.543 11.0824L99.7637 11.8336L99.9771 11.4836C100.156 11.2019 100.173 11.1251 100.08 11.0568C100.02 11.0141 99.6698 10.8007 99.3113 10.5787C98.9442 10.3568 98.6454 10.1519 98.6454 10.1178C98.6454 10.0836 98.7649 9.86167 98.9101 9.62264C99.1576 9.21289 99.1918 9.19581 99.3625 9.30679C99.943 9.67386 100.626 10.0665 100.643 10.0409C100.652 10.0239 100.754 9.86167 100.856 9.69094L101.044 9.37508L100.592 9.08484C100.344 8.93118 100.02 8.7263 99.8747 8.64094L99.6015 8.48728L99.8576 8.06898L100.114 7.65923L100.421 7.84703C100.6 7.94947 100.942 8.16289 101.181 8.31655L101.633 8.59825L101.855 8.24825C101.975 8.05191 102.043 7.86411 102 7.8385C101.847 7.69337 99.7723 6.46411 99.704 6.46411C99.6613 6.46411 99.1064 7.31776 98.4747 8.36776Z" fill="#3F4254"/>
<path d="M78.0813 7.53112C77.5008 7.92381 76.9886 8.28234 76.9459 8.32503C76.835 8.436 79.3533 12.2006 79.4813 12.1153C79.524 12.0811 80.0789 11.714 80.6935 11.2958L81.8203 10.5445L81.5984 10.2116C81.4789 10.0238 81.3679 9.87868 81.3423 9.87868C81.3252 9.87868 80.9667 10.1092 80.5484 10.3909L79.7972 10.8945L79.4898 10.4762C79.3191 10.2372 79.1825 10.0323 79.1825 10.0067C79.1825 9.98966 79.4813 9.76771 79.8484 9.52868C80.2069 9.28112 80.5142 9.07624 80.5313 9.05917C80.5484 9.05064 80.4545 8.88844 80.335 8.6921L80.1045 8.3421L79.4216 8.81161C79.0459 9.06771 78.7301 9.28112 78.713 9.28112C78.6618 9.28112 78.1411 8.50429 78.1752 8.47868C78.1837 8.46161 78.5081 8.2482 78.8837 8.00064C79.2594 7.75307 79.5837 7.53966 79.6008 7.52259C79.635 7.49698 79.1996 6.79698 79.1569 6.81405C79.1484 6.81405 78.6618 7.13844 78.0813 7.53112Z" fill="#3F4254"/>
<path d="M102.026 10.6556C101.156 11.5092 100.438 12.2348 100.438 12.286C100.438 12.3287 100.754 12.6787 101.147 13.0714C102.035 13.9592 102.479 14.1897 103.298 14.1897C104.015 14.1897 104.476 13.9592 105.065 13.3019C105.697 12.6019 105.799 11.7995 105.381 10.9629C105.202 10.6129 104.041 9.34092 103.759 9.1958C103.648 9.13604 103.273 9.45189 102.026 10.6556ZM104.22 10.7238C104.382 10.9031 104.562 11.1934 104.621 11.3726C104.92 12.269 103.623 13.5068 102.684 13.2251C102.317 13.1141 101.719 12.6531 101.719 12.4824C101.719 12.3714 103.742 10.3909 103.853 10.3909C103.887 10.3909 104.049 10.536 104.22 10.7238Z" fill="#3F4254"/>
<path d="M75.2044 9.69092C74.0179 10.5531 73.6081 11.8677 74.1886 12.9434C74.6581 13.797 75.4862 14.3177 76.3569 14.3177C76.8435 14.3177 77.3471 14.0873 77.8252 13.6604C78.1581 13.3617 78.6703 12.6702 78.6703 12.5165C78.6703 12.4824 78.5252 12.3629 78.3544 12.2604L78.0471 12.0641L77.9105 12.269C77.2959 13.208 76.5959 13.4982 75.8618 13.1312C75.1532 12.7641 74.752 12.0214 74.9227 11.3982C75.0166 11.0397 75.4264 10.5275 75.7849 10.3056L76.0154 10.169L75.7764 9.81043L75.5374 9.4519L75.2044 9.69092Z" fill="#3F4254"/>
<path d="M88.1885 9.708C82.008 10.3739 76.869 14.4885 74.9226 20.336C74.2995 22.2226 74.197 22.8799 74.1885 25.2019C74.1885 27.0117 74.2141 27.3617 74.3848 28.2239C75.5202 33.8409 79.4897 38.3482 84.8165 40.1068C86.6604 40.7043 87.4799 40.8239 89.8104 40.8239C92.0982 40.8153 92.7385 40.7214 94.5909 40.1239C99.1665 38.647 102.906 34.9934 104.485 30.4775C107.677 21.2921 101.958 11.5519 92.3714 9.87019C91.2958 9.68239 89.1958 9.59702 88.1885 9.708ZM91.1421 10.1348C93.1141 10.3397 94.6677 10.7836 96.469 11.6799C98.0738 12.4739 99.0555 13.1909 100.438 14.5739C103.213 17.3397 104.698 20.7117 104.852 24.5702C104.912 26.2263 104.792 27.4641 104.408 28.958C102.342 37.008 94.258 41.8653 86.1482 39.936C84.1165 39.4495 81.9824 38.3995 80.2495 37.0165C79.4555 36.3934 78.0129 34.8482 77.3726 33.9519C76.6812 32.9787 75.708 31.058 75.3495 29.9397C73.6677 24.7495 74.8714 19.0897 78.5165 15.0519C79.7287 13.7117 81.5129 12.3799 83.1519 11.586C85.6616 10.3824 88.4787 9.87019 91.1421 10.1348Z" fill="#3F4254"/>
<path d="M87.6336 10.8689C83.1263 11.5774 79.3361 14.1982 77.0739 18.1677C75.2812 21.3091 74.7776 25.364 75.7336 29.0006C76.8605 33.3201 80.1727 37.0591 84.3215 38.7152C90.4593 41.1567 97.4593 39.2104 101.369 33.9774C103.307 31.3823 104.28 28.4628 104.28 25.2445C104.28 21.2409 102.709 17.5531 99.8239 14.7872C97.7836 12.8323 95.3678 11.5604 92.5849 10.9884C91.3983 10.7409 88.8288 10.6811 87.6336 10.8689ZM88.3336 18.1591C88.6495 18.2018 89.119 18.3384 89.3922 18.4579C89.9983 18.7226 90.1178 18.7226 90.3654 18.4579C90.519 18.2957 90.6556 18.2445 90.9373 18.2445H91.3044V19.5677V20.8909H91.0312C90.8776 20.8909 90.6727 20.9165 90.5702 20.9421C90.4251 20.9848 90.3824 20.9335 90.2885 20.6177C90.0154 19.6957 89.2897 19.2518 88.069 19.2433C87.5483 19.2433 87.258 19.286 87.0617 19.3884C86.3873 19.7299 86.4812 20.4299 87.2495 20.7201C87.3946 20.7713 88.0007 20.9165 88.6068 21.0274C90.4593 21.386 91.1507 21.7445 91.5263 22.5384C91.7739 23.0762 91.7995 23.8957 91.5946 24.5018C91.4068 25.0482 90.8349 25.6116 90.2117 25.8506C89.8105 26.0128 89.5544 26.047 88.7434 26.047C87.8385 26.047 87.7105 26.0299 87.0617 25.7652C86.3361 25.4835 86.0971 25.4835 85.9776 25.7994C85.9434 25.8933 85.8068 25.9274 85.4568 25.9274H84.9873V24.5616V23.1957H85.1922C85.3032 23.1957 85.508 23.1701 85.6361 23.1445C85.8751 23.1018 85.8922 23.1189 85.9946 23.5031C86.1568 24.0921 86.3788 24.3482 87.0105 24.664C87.5312 24.9201 87.6336 24.9372 88.4361 24.9372C89.1532 24.9457 89.3495 24.9201 89.5971 24.775C89.9812 24.5445 90.1776 24.075 90.0324 23.725C89.8873 23.375 89.469 23.2043 88.1629 22.9738C86.3446 22.6409 85.6019 22.2738 85.2349 21.5226C85.0129 21.0445 84.9276 20.1396 85.0641 19.6274C85.2605 18.9018 86.0117 18.3128 86.9422 18.1591C87.4971 18.0652 87.6849 18.0652 88.3336 18.1591ZM97.1946 18.1591C99.2519 18.4152 100.268 19.7043 100.268 22.0433C100.268 23.4433 99.9349 24.3652 99.1922 25.0738C98.2446 25.9701 96.7678 26.2945 95.1715 25.9616C94.8044 25.8848 94.369 25.7567 94.1897 25.6628C93.0715 25.0909 92.4995 23.9299 92.4995 22.2567C92.508 19.7896 93.4983 18.475 95.5727 18.1677C96.2471 18.0652 96.3922 18.0652 97.1946 18.1591ZM84.1336 18.7482V19.1579L83.7751 19.2091C83.5788 19.2348 83.3654 19.3287 83.3056 19.4055C83.2202 19.525 83.1946 20.1738 83.1946 22.1372C83.1946 25.0226 83.1776 24.9457 83.8007 25.0396L84.1336 25.0994V25.5091V25.9274H82.1702H80.2068V25.5006C80.2068 25.0994 80.2239 25.0738 80.4288 25.0738C80.6678 25.0738 80.9836 24.9372 81.0776 24.7835C81.1117 24.7323 81.1458 23.5372 81.1458 22.1201C81.1458 20.1652 81.1202 19.525 81.0349 19.4055C80.9751 19.3287 80.7617 19.2348 80.5654 19.2091L80.2068 19.1579V18.7482V18.3299H82.1702H84.1336V18.7482Z" fill="#3F4254"/>
<path d="M96.2987 19.2262C96.256 19.2433 96.0682 19.2774 95.8975 19.3116C95.5048 19.3713 95.1121 19.6957 94.8646 20.1567C94.6938 20.4811 94.6768 20.6262 94.6768 22.0006C94.6768 23.4945 94.6768 23.4945 94.9329 24.0067C95.2999 24.7408 95.5133 24.8604 96.3841 24.8604C97.178 24.8604 97.4085 24.7494 97.7755 24.2201C98.0829 23.7591 98.1682 23.3067 98.1682 22.086C98.1682 20.114 97.8011 19.3884 96.7255 19.2433C96.5377 19.2177 96.3499 19.2091 96.2987 19.2262Z" fill="#3F4254"/>
<path d="M78.8237 29.1799C78.6017 29.308 78.5334 29.8116 78.7042 30.0677C78.9944 30.5031 79.6091 30.247 79.6091 29.7007C79.6091 29.2397 79.1908 28.958 78.8237 29.1799Z" fill="#3F4254"/>
<path d="M81.8294 29.2141C81.5733 29.5214 81.5819 31.186 81.8465 31.4421C82.077 31.6726 82.4014 31.536 82.5038 31.1519C82.6916 30.5031 82.5807 29.3251 82.3246 29.1543C82.1538 29.0519 81.9489 29.0775 81.8294 29.2141Z" fill="#3F4254"/>
<path d="M84.7573 29.3165C84.5353 29.6494 84.5353 30.9982 84.7573 31.3312C84.9366 31.6043 85.1585 31.6299 85.3805 31.3824C85.6109 31.1263 85.6195 29.6665 85.389 29.3165C85.2012 29.0263 84.9451 29.0263 84.7573 29.3165Z" fill="#3F4254"/>
<path d="M94.6506 29.1543C94.386 29.3336 94.2836 30.6226 94.4885 31.2201C94.5738 31.4677 94.6336 31.5189 94.847 31.5189C95.0263 31.5189 95.1287 31.4592 95.2055 31.3055C95.3506 31.0238 95.3506 29.6238 95.2055 29.3421C95.0946 29.1201 94.8385 29.0348 94.6506 29.1543Z" fill="#3F4254"/>
<path d="M103.008 35.7189C102.82 35.9409 102.658 36.1714 102.658 36.2311C102.658 36.2824 102.829 36.7007 103.042 37.1616C103.256 37.6141 103.426 38.0153 103.426 38.0494C103.426 38.0836 102.991 37.947 102.47 37.7507L101.506 37.3836L101.104 37.7763C100.874 37.9897 100.72 38.1946 100.763 38.2287C100.797 38.2543 101.454 38.4421 102.214 38.647L103.614 39.0141L104.297 39.6543L104.972 40.2946L105.33 39.936L105.689 39.5689L104.997 38.9202L104.297 38.2628L103.853 36.8116C103.606 36.0092 103.401 35.3519 103.384 35.3348C103.375 35.3177 103.204 35.497 103.008 35.7189Z" fill="#3F4254"/>
<path d="M75.6055 36.436C74.9652 36.6239 74.2738 37.2385 73.9835 37.8787C73.753 38.3739 73.753 39.0824 73.975 39.569C74.1628 39.9787 74.9225 40.8239 75.264 41.0031C75.486 41.1141 75.503 41.1056 75.7079 40.7897L75.9213 40.4653L75.5372 40.1409C75.0335 39.7141 74.8286 39.3726 74.8286 38.9202C74.8286 38.4848 74.9738 38.186 75.3579 37.8275C75.7506 37.4519 75.9555 37.3665 76.4335 37.3665C76.9372 37.3665 77.4238 37.6739 77.7311 38.1946C77.8421 38.3739 77.9445 38.536 77.953 38.5531C77.9701 38.5702 78.4994 38.2885 78.6616 38.169C78.7469 38.1007 78.2006 37.3409 77.8506 37.0336C77.1847 36.4531 76.3482 36.2312 75.6055 36.436Z" fill="#3F4254"/>
<path d="M99.8667 38.7835L99.5082 38.9969L100.029 39.825C100.319 40.2774 100.729 40.9006 100.942 41.2079C101.156 41.5067 101.275 41.7201 101.207 41.6774C101.139 41.6347 100.865 41.464 100.609 41.2933C100.08 40.9347 98.2362 39.9274 98.1167 39.9274C98.074 39.9274 97.8264 40.064 97.5704 40.2262L97.1094 40.525L97.5191 41.1823C98.8252 43.2823 99.5167 44.3665 99.5508 44.3665C99.6277 44.3665 100.268 43.9396 100.268 43.8799C100.268 43.8201 99.4655 42.5311 98.885 41.6518C98.6545 41.3189 98.4923 41.0372 98.5179 41.0372C98.5521 41.0372 98.6972 41.1311 98.8423 41.2421C99.1923 41.5067 101.702 42.9152 101.83 42.9152C101.873 42.9152 102.103 42.7957 102.325 42.6506L102.735 42.386L102.325 41.7372C102.103 41.3787 101.565 40.5165 101.13 39.8165C100.695 39.125 100.311 38.5616 100.285 38.5616C100.251 38.5701 100.063 38.664 99.8667 38.7835Z" fill="#3F4254"/>
<path d="M79.2935 39.1677C78.807 39.2616 78.5167 39.4238 78.107 39.8592C77.3557 40.636 77.1167 41.6348 77.4752 42.4714C78.0984 43.9141 80.096 44.2299 81.1289 43.0434C82.2813 41.7373 82.0935 40.0812 80.7191 39.3982C80.1813 39.1336 79.7972 39.0738 79.2935 39.1677ZM80.5484 40.2434C81.0606 40.7043 80.9582 41.6177 80.3094 42.3348C79.7033 43.0092 79.1057 43.1117 78.6191 42.6251C78.3716 42.3775 78.3289 42.2751 78.3289 41.9421C78.3289 41.4897 78.4911 41.0458 78.807 40.6275C79.3106 39.9787 80.0618 39.8165 80.5484 40.2434Z" fill="#3F4254"/>
<path d="M83.579 41.1567C83.4168 41.6519 82.2559 45.3823 82.2559 45.4165C82.2559 45.4677 83.1095 45.6811 83.1437 45.6384C83.1607 45.6214 83.3742 44.9128 83.6132 44.0677C83.8607 43.2226 84.0827 42.4543 84.1168 42.3604C84.151 42.2665 84.1937 43.0092 84.2193 44.0165L84.262 45.8433L84.6205 45.9458C84.8937 46.0311 85.0046 46.0311 85.0559 45.9543C85.2095 45.7579 86.5156 43.547 86.6607 43.2311C86.8059 42.9238 87.0278 42.7701 86.9083 43.0604C86.8485 43.2311 86.1827 46.364 86.2083 46.3811C86.2168 46.3897 86.4302 46.4494 86.6778 46.5262C87.1132 46.6543 87.1217 46.6458 87.1644 46.4665C87.301 45.9031 87.9668 42.1982 87.9412 42.1726C87.9242 42.147 87.6339 42.0616 87.301 41.9762L86.6863 41.8226L86.5754 42.0019C86.5071 42.1043 86.3278 42.4031 86.1656 42.6592C86.0034 42.9153 85.679 43.4701 85.4485 43.897L85.0302 44.6653L84.9876 43.0689C84.962 42.1982 84.9278 41.464 84.9022 41.4384C84.8766 41.4128 84.5778 41.3189 84.2363 41.225C83.7924 41.1055 83.5961 41.0884 83.579 41.1567Z" fill="#3F4254"/>
<path d="M94.4199 41.4214L93.8224 41.6006L93.7712 42.4543C93.737 42.9153 93.7114 43.9994 93.7029 44.8445L93.6943 46.3982L94.1895 46.2531L94.676 46.1079L94.6846 45.5275C94.6931 45.2116 94.7273 44.9214 94.7699 44.8872C94.8382 44.8275 95.8029 44.5372 95.9309 44.5372C95.9565 44.5372 96.1273 44.7677 96.3065 45.0494C96.537 45.3994 96.6821 45.5445 96.7675 45.5104C96.8358 45.4848 97.0578 45.425 97.2626 45.3653C97.459 45.314 97.6212 45.2458 97.6212 45.2116C97.6212 45.1433 95.1712 41.3872 95.0687 41.2848C95.0431 41.2592 94.7529 41.3189 94.4199 41.4214ZM95.0943 42.9921C95.359 43.4104 95.5724 43.7689 95.5724 43.7945C95.5724 43.8372 94.6931 44.1189 94.6675 44.0848C94.6334 44.0421 94.5395 42.2323 94.5736 42.2323C94.5907 42.2323 94.8297 42.5738 95.0943 42.9921Z" fill="#3F4254"/>
<path d="M89.6398 42.1213C89.5459 42.1383 89.3923 42.1725 89.2984 42.1896C89.1276 42.2237 89.1276 42.2493 89.2301 43.9993C89.2813 44.9725 89.3325 45.9798 89.3325 46.2188L89.341 46.6713H89.8618H90.3825L90.3227 45.8774L90.263 45.0749L90.741 45.0152C91.0057 44.9896 91.3727 44.9042 91.5606 44.8274C92.6959 44.3749 92.7813 42.7188 91.7057 42.2322C91.4325 42.1042 91.1679 42.07 90.5788 42.07C90.1606 42.0786 89.7337 42.0957 89.6398 42.1213ZM91.2959 43.0518C91.6715 43.5213 91.3984 44.1188 90.7581 44.2383C90.2374 44.3408 90.1947 44.281 90.1947 43.5127V42.8298H90.6557C91.0569 42.8298 91.1423 42.8639 91.2959 43.0518Z" fill="#3F4254"/>
<path d="M82.9392 28.834C83.201 28.834 83.4529 28.8779 83.6949 28.9657C83.9385 29.0536 84.1556 29.1936 84.3461 29.3858C84.5384 29.5781 84.69 29.8333 84.801 30.1515C84.9137 30.468 84.9709 30.8566 84.9726 31.3173C84.9726 31.7498 84.9237 32.136 84.8259 32.4757C84.7298 32.8138 84.5914 33.1013 84.4108 33.3383C84.2301 33.5752 84.0122 33.7559 83.757 33.8802C83.5018 34.0028 83.2168 34.0641 82.9019 34.0641C82.5622 34.0641 82.2622 33.9986 82.002 33.8677C81.7419 33.7352 81.5322 33.5553 81.3731 33.3283C81.2157 33.0996 81.1204 32.8428 81.0873 32.5577H82.1487C82.1901 32.7433 82.2771 32.8875 82.4097 32.9902C82.5423 33.0913 82.7064 33.1419 82.9019 33.1419C83.2333 33.1419 83.4852 32.9977 83.6576 32.7094C83.8299 32.4193 83.9169 32.0224 83.9186 31.5187H83.8838C83.8076 31.6678 83.7048 31.7962 83.5756 31.904C83.4463 32.01 83.298 32.092 83.1306 32.15C82.9649 32.208 82.7884 32.237 82.6011 32.237C82.3012 32.237 82.0335 32.1666 81.7982 32.0258C81.5629 31.8849 81.3773 31.691 81.2414 31.4441C81.1055 31.1972 81.0376 30.9154 81.0376 30.5989C81.0359 30.2575 81.1146 29.9534 81.2737 29.6866C81.4328 29.4198 81.6549 29.211 81.9399 29.0602C82.2266 28.9077 82.5597 28.8323 82.9392 28.834ZM82.9466 29.6792C82.7793 29.6792 82.6301 29.7189 82.4992 29.7985C82.3699 29.878 82.2672 29.9849 82.191 30.1192C82.1164 30.2534 82.0799 30.4034 82.0816 30.5691C82.0816 30.7365 82.118 30.8873 82.191 31.0215C82.2655 31.1541 82.3666 31.2601 82.4942 31.3397C82.6235 31.4176 82.771 31.4565 82.9367 31.4565C83.061 31.4565 83.1762 31.4333 83.2822 31.3869C83.3883 31.3405 83.4803 31.2767 83.5581 31.1955C83.6377 31.1126 83.6998 31.0174 83.7446 30.9096C83.7893 30.8019 83.8117 30.6876 83.8117 30.5666C83.81 30.4058 83.7719 30.2584 83.6974 30.1241C83.6228 29.9899 83.52 29.8822 83.3891 29.801C83.2582 29.7198 83.1107 29.6792 82.9466 29.6792ZM87.7144 34.1064C87.2868 34.1047 86.9189 33.9995 86.6107 33.7907C86.3041 33.5819 86.068 33.2794 85.9023 32.8834C85.7382 32.4873 85.657 32.0108 85.6586 31.454C85.6586 30.8989 85.7407 30.4257 85.9047 30.0346C86.0705 29.6435 86.3066 29.3461 86.6132 29.1422C86.9214 28.9367 87.2885 28.834 87.7144 28.834C88.1403 28.834 88.5065 28.9367 88.8131 29.1422C89.1214 29.3477 89.3583 29.646 89.5241 30.0371C89.6898 30.4266 89.7718 30.8989 89.7702 31.454C89.7702 32.0125 89.6873 32.4898 89.5216 32.8858C89.3575 33.2819 89.1222 33.5844 88.8156 33.7932C88.509 34.002 88.142 34.1064 87.7144 34.1064ZM87.7144 33.214C88.0061 33.214 88.2389 33.0673 88.4129 32.774C88.5869 32.4807 88.6731 32.0407 88.6714 31.454C88.6714 31.0679 88.6317 30.7464 88.5521 30.4895C88.4742 30.2327 88.3632 30.0396 88.219 29.9103C88.0765 29.7811 87.9083 29.7165 87.7144 29.7165C87.4244 29.7165 87.1924 29.8615 87.0184 30.1515C86.8444 30.4415 86.7565 30.8757 86.7549 31.454C86.7549 31.8451 86.7938 32.1716 86.8717 32.4334C86.9513 32.6936 87.0631 32.8892 87.2073 33.0201C87.3515 33.1493 87.5205 33.214 87.7144 33.214ZM92.5337 34.1064C92.1062 34.1047 91.7383 33.9995 91.43 33.7907C91.1235 33.5819 90.8873 33.2794 90.7216 32.8834C90.5575 32.4873 90.4763 32.0108 90.478 31.454C90.478 30.8989 90.56 30.4257 90.7241 30.0346C90.8898 29.6435 91.1259 29.3461 91.4325 29.1422C91.7408 28.9367 92.1078 28.834 92.5337 28.834C92.9596 28.834 93.3259 28.9367 93.6325 29.1422C93.9407 29.3477 94.1777 29.646 94.3434 30.0371C94.5091 30.4266 94.5911 30.8989 94.5895 31.454C94.5895 32.0125 94.5066 32.4898 94.3409 32.8858C94.1768 33.2819 93.9415 33.5844 93.6349 33.7932C93.3284 34.002 92.9613 34.1064 92.5337 34.1064ZM92.5337 33.214C92.8254 33.214 93.0582 33.0673 93.2322 32.774C93.4063 32.4807 93.4924 32.0407 93.4908 31.454C93.4908 31.0679 93.451 30.7464 93.3714 30.4895C93.2936 30.2327 93.1825 30.0396 93.0384 29.9103C92.8958 29.7811 92.7276 29.7165 92.5337 29.7165C92.2437 29.7165 92.0117 29.8615 91.8377 30.1515C91.6637 30.4415 91.5759 30.8757 91.5742 31.454C91.5742 31.8451 91.6132 32.1716 91.6911 32.4334C91.7706 32.6936 91.8825 32.8892 92.0266 33.0201C92.1708 33.1493 92.3398 33.214 92.5337 33.214ZM97.5718 28.9036V33.9945H96.4955V29.9253H96.4656L95.2998 30.6561V29.7015L96.5601 28.9036H97.5718Z" fill="white"/>
</g>
<defs>
<clipPath id="clip0_8757_13454">
<rect width="50.1098" height="49" fill="white" transform="translate(0.475586 0.744507)"/>
</clipPath>
<clipPath id="clip1_8757_13454">
<rect width="50.1098" height="49" fill="white" transform="translate(64.585 0.744507)"/>
</clipPath>
</defs>
</svg>
