<svg width="200" height="200" viewBox="0 0 200 200" fill="none" xmlns="http://www.w3.org/2000/svg">
<path d="M200 152.96H0V153.06H200V152.96Z" fill="#EBEBEB"/>
<path d="M34.2324 156.768H20.9844V156.868H34.2324V156.768Z" fill="#EBEBEB"/>
<path d="M90.6241 155.684H68.4561V155.784H90.6241V155.684Z" fill="#EBEBEB"/>
<path d="M44.0764 159.144H36.4004V159.244H44.0764V159.144Z" fill="#EBEBEB"/>
<path d="M171.46 156.72H154.184V156.82H171.46V156.72Z" fill="#EBEBEB"/>
<path d="M177.556 156.72H175.024V156.82H177.556V156.72Z" fill="#EBEBEB"/>
<path d="M129.62 158.124H110.884V158.224H129.62V158.124Z" fill="#EBEBEB"/>
<path d="M94.8002 135.12H17.5642C16.9591 135.119 16.3792 134.878 15.9517 134.45C15.5243 134.021 15.2842 133.441 15.2842 132.836V24.264C15.2894 23.6624 15.5319 23.0872 15.9588 22.6633C16.3857 22.2394 16.9626 22.001 17.5642 22H94.8002C95.4059 22 95.9869 22.2406 96.4152 22.669C96.8436 23.0973 97.0842 23.6782 97.0842 24.284V132.836C97.0842 133.442 96.8436 134.023 96.4152 134.451C95.9869 134.879 95.4059 135.12 94.8002 135.12ZM17.5642 22.08C16.9856 22.0811 16.4312 22.3116 16.0224 22.7211C15.6137 23.1306 15.3842 23.6855 15.3842 24.264V132.836C15.3842 133.415 15.6137 133.969 16.0224 134.379C16.4312 134.788 16.9856 135.019 17.5642 135.02H94.8002C95.3791 135.019 95.934 134.789 96.3433 134.379C96.7527 133.97 96.9831 133.415 96.9842 132.836V24.264C96.9831 23.6851 96.7527 23.1302 96.3433 22.7208C95.934 22.3115 95.3791 22.0811 94.8002 22.08H17.5642Z" fill="#EBEBEB"/>
<path d="M181.324 135.12H104.084C103.478 135.119 102.898 134.878 102.47 134.45C102.042 134.022 101.801 133.441 101.8 132.836V24.264C101.806 23.662 102.049 23.0868 102.477 22.663C102.904 22.2392 103.482 22.001 104.084 22H181.324C181.925 22.0021 182.501 22.2409 182.927 22.6647C183.353 23.0885 183.595 23.6631 183.6 24.264V132.836C183.6 133.44 183.36 134.02 182.934 134.448C182.507 134.876 181.928 135.118 181.324 135.12ZM104.084 22.08C103.505 22.0811 102.95 22.3115 102.541 22.7208C102.131 23.1302 101.901 23.6851 101.9 24.264V132.836C101.901 133.415 102.131 133.97 102.541 134.379C102.95 134.789 103.505 135.019 104.084 135.02H181.324C181.903 135.019 182.458 134.789 182.867 134.379C183.276 133.97 183.507 133.415 183.508 132.836V24.264C183.507 23.6851 183.276 23.1302 182.867 22.7208C182.458 22.3115 181.903 22.0811 181.324 22.08H104.084Z" fill="#EBEBEB"/>
<path d="M119.136 29.756H41.9121V85.192H119.136V29.756Z" fill="#FAFAFA"/>
<path d="M114.74 85.196L95.1004 29.756H80.3604L100 85.196H114.74Z" fill="white"/>
<path d="M75.1039 85.196L55.4639 29.756H50.0879L69.7279 85.196H75.1039Z" fill="white"/>
<path d="M38.2317 27.852H122.82C122.865 27.852 122.909 27.8609 122.951 27.8783C122.992 27.8956 123.03 27.921 123.062 27.953C123.093 27.985 123.118 28.023 123.135 28.0647C123.152 28.1064 123.16 28.151 123.16 28.196C123.16 28.2862 123.124 28.3727 123.06 28.4364C122.996 28.5002 122.91 28.536 122.82 28.536H38.2317C38.1411 28.536 38.0543 28.5003 37.9899 28.4367C37.9255 28.373 37.8887 28.2865 37.8877 28.196C37.8877 28.1048 37.9239 28.0173 37.9884 27.9528C38.053 27.8882 38.1405 27.852 38.2317 27.852Z" fill="#E0E0E0"/>
<path d="M80.9844 29.64H80.0684V85.316H80.9844V29.64Z" fill="#F0F0F0"/>
<path d="M80.0644 29.64H79.6084V85.316H80.0644V29.64Z" fill="#E0E0E0"/>
<path d="M41.3799 57.016V57.932L119.672 57.932V57.016L41.3799 57.016Z" fill="#F0F0F0"/>
<path d="M41.3799 84.8V29.2H119.668V84.8V85.716H41.3799V84.8ZM118.756 84.8V30.14H42.2959V84.8H118.756Z" fill="#F0F0F0"/>
<path d="M41.3759 29.224H40.9199V85.728H41.3759V29.224Z" fill="#E0E0E0"/>
<path opacity="0.5" d="M52.7321 27.012V92.116H36.2041L39.2361 27.012H52.7321Z" fill="#EBEBEB"/>
<path opacity="0.5" d="M107.86 27.012V92.116H124.388L121.356 27.012H107.86Z" fill="#EBEBEB"/>
<path d="M31.0716 99.916H24.7676V151.048H31.0716V99.916Z" fill="#F0F0F0"/>
<path d="M95.4325 151.048H25.9805V152.96H95.4325V151.048Z" fill="#F0F0F0"/>
<path d="M31.0756 151.048H96.6436V99.916H31.0756V151.048Z" fill="#F5F5F5"/>
<path d="M30.4196 98.248H23.9756V99.916H30.4196V98.248Z" fill="#F0F0F0"/>
<path d="M30.4156 99.916L97.4316 99.916V98.248L30.4156 98.248V99.916Z" fill="#FAFAFA"/>
<path d="M94.3758 128.692H33.3398V103.416H94.3758V128.692ZM33.7638 128.268H93.9518V103.84H33.7638V128.268Z" fill="#E0E0E0"/>
<path d="M94.3758 147.544H33.3398V131.22H94.3758V147.544ZM33.7638 147.12H93.9518V131.644H33.7638V147.12Z" fill="#E0E0E0"/>
<path d="M85.5924 103.628H42.1245C41.8152 103.628 41.5645 103.879 41.5645 104.188V104.424C41.5645 104.733 41.8152 104.984 42.1245 104.984H85.5924C85.9017 104.984 86.1525 104.733 86.1525 104.424V104.188C86.1525 103.879 85.9017 103.628 85.5924 103.628Z" fill="#E0E0E0"/>
<path d="M85.5924 131.432H42.1245C41.8152 131.432 41.5645 131.683 41.5645 131.992V132.228C41.5645 132.537 41.8152 132.788 42.1245 132.788H85.5924C85.9017 132.788 86.1525 132.537 86.1525 132.228V131.992C86.1525 131.683 85.9017 131.432 85.5924 131.432Z" fill="#E0E0E0"/>
<path d="M139.144 150.504H175.816V38.616H139.144V150.504Z" fill="#F0F0F0"/>
<path d="M139.144 38.62H137.98V150.508H139.144V38.62Z" fill="#E0E0E0"/>
<path d="M145.096 146.236H169.868V42.884H145.096V146.236Z" fill="#FAFAFA"/>
<path d="M100 171.024C142.833 171.024 177.556 168.997 177.556 166.496C177.556 163.995 142.833 161.968 100 161.968C57.1673 161.968 22.4443 163.995 22.4443 166.496C22.4443 168.997 57.1673 171.024 100 171.024Z" fill="#F5F5F5"/>
<path d="M57.3448 163.012L60.4768 161.824L58.5568 154.256L55.4248 155.444L57.3448 163.012Z" fill="#B55B52"/>
<path d="M33.8125 163.076H37.1605L37.6645 155.316H34.3125L33.8125 163.076Z" fill="#B55B52"/>
<path d="M37.4961 162.688H33.4121C33.3465 162.687 33.2827 162.709 33.2321 162.751C33.1816 162.793 33.1475 162.851 33.1361 162.916L32.6241 165.892C32.6138 165.966 32.6196 166.042 32.641 166.114C32.6624 166.186 32.699 166.252 32.7483 166.308C32.7976 166.365 32.8584 166.41 32.9267 166.441C32.995 166.472 33.0691 166.488 33.1441 166.488C34.4561 166.464 35.4121 166.388 37.0681 166.388C38.0841 166.388 41.1601 166.496 42.5681 166.496C43.9761 166.496 44.0881 165.104 43.5041 164.976C40.8961 164.412 38.9121 163.636 38.0481 162.892C37.894 162.761 37.6984 162.689 37.4961 162.688Z" fill="#263238"/>
<path d="M60.3167 161.472L56.8967 162.768C56.8343 162.792 56.7818 162.836 56.7477 162.893C56.7135 162.951 56.6998 163.018 56.7087 163.084L57.1487 166.1C57.1564 166.174 57.1812 166.246 57.2212 166.309C57.2612 166.372 57.3153 166.425 57.3793 166.464C57.4432 166.503 57.5152 166.526 57.5897 166.532C57.6643 166.539 57.7392 166.528 57.8087 166.5C59.0327 166.012 60.0767 165.392 61.6367 164.832C63.4189 164.253 65.1329 163.481 66.7487 162.532C67.9087 161.796 67.4207 160.396 66.8727 160.616C64.3847 161.616 63.7727 161.944 61.1607 161.44C60.8818 161.372 60.5896 161.383 60.3167 161.472Z" fill="#263238"/>
<path d="M51.4802 60.996C52.5322 62.86 53.6442 64.78 54.7642 66.636C55.8842 68.492 57.0322 70.348 58.2522 72.076C58.5442 72.512 58.8722 72.932 59.1682 73.336C59.2338 73.4536 59.3222 73.557 59.4282 73.64C59.6155 73.7359 59.8285 73.7696 60.0362 73.736C60.4185 73.697 60.7939 73.6068 61.1522 73.468C62.0598 73.1119 62.9262 72.6586 63.7362 72.116C64.1682 71.832 64.6082 71.54 65.0362 71.228C65.4642 70.916 65.8962 70.58 66.2882 70.28L68.1642 71.952C67.8221 72.4464 67.4549 72.923 67.0642 73.38C66.6865 73.841 66.286 74.2829 65.8642 74.704C65.4315 75.14 64.9733 75.55 64.4922 75.932C63.9909 76.342 63.4556 76.7086 62.8922 77.028C62.2563 77.3964 61.5725 77.6751 60.8602 77.856C59.9747 78.0845 59.0457 78.0845 58.1602 77.856C57.2032 77.5896 56.3452 77.0486 55.6922 76.3C55.2922 75.836 54.8922 75.4 54.5322 74.94C53.0838 73.1429 51.7363 71.2667 50.4962 69.32C49.2562 67.392 48.0962 65.46 47.0322 63.404L51.4802 60.996Z" fill="#B65B52"/>
<path d="M45.5365 61.152C44.6365 64.224 50.9925 72.6 50.9925 72.6L57.3925 68.476C56.1854 65.8121 54.6955 63.2856 52.9485 60.94C50.3365 57.6 46.5285 57.78 45.5365 61.152Z" fill="#02C499"/>
<path opacity="0.2" d="M45.5365 61.152C44.6365 64.224 50.9925 72.6 50.9925 72.6L57.3925 68.476C56.1854 65.8121 54.6955 63.2856 52.9485 60.94C50.3365 57.6 46.5285 57.78 45.5365 61.152Z" fill="black"/>
<path opacity="0.2" d="M49.4443 64.756C50.7643 65.32 52.7043 68.496 53.7163 70.852L50.9923 72.6C49.4738 70.5703 48.1074 68.4311 46.9043 66.2C47.7643 65.244 48.7483 64.46 49.4443 64.756Z" fill="black"/>
<path d="M65.8926 71.324L67.0686 68.032L70.4006 69.632C70.4006 69.632 69.7086 72.564 67.2686 72.56L65.8926 71.324Z" fill="#B55B52"/>
<path d="M70.0324 65.868L71.4444 67.424L70.4004 69.624L67.0684 68.032L70.0324 65.868Z" fill="#B55B52"/>
<path opacity="0.2" d="M58.5568 154.26L59.5448 158.16L56.4128 159.348L55.4248 155.448L58.5568 154.26Z" fill="black"/>
<path opacity="0.2" d="M34.3127 155.32H37.6647L37.4047 159.316H34.0527L34.3127 155.32Z" fill="black"/>
<path d="M30.6084 59.792C34.2084 72.516 33.6244 86.016 33.8484 88.76L51.7524 88.088C54.7964 69.12 49.3524 58.564 49.3524 58.564C49.3524 58.564 48.2044 58.344 46.6404 58.184C46.1524 58.132 45.6244 58.088 45.0724 58.06C44.7684 58.04 44.4604 58.032 44.1484 58.024C41.6063 58.067 39.0687 58.2566 36.5484 58.592C36.0724 58.652 35.5884 58.72 35.1164 58.8C34.6444 58.88 34.2564 58.952 33.8524 59.032C32.0004 59.396 30.6084 59.792 30.6084 59.792Z" fill="#02C499"/>
<path opacity="0.2" d="M30.6084 59.792C34.2084 72.516 33.6244 86.016 33.8484 88.76L51.7524 88.088C54.7964 69.12 49.3524 58.564 49.3524 58.564C49.3524 58.564 48.2044 58.344 46.6404 58.184C46.1524 58.132 45.6244 58.088 45.0724 58.06C44.7684 58.04 44.4604 58.032 44.1484 58.024C41.6063 58.067 39.0687 58.2566 36.5484 58.592C36.0724 58.652 35.5884 58.72 35.1164 58.8C34.6444 58.88 34.2564 58.952 33.8524 59.032C32.0004 59.396 30.6084 59.792 30.6084 59.792Z" fill="black"/>
<path opacity="0.2" d="M34.4202 65.252C34.7402 66.48 34.3722 72.1 33.0882 73.484C32.9122 71.684 32.6882 69.808 32.3682 67.884L34.4202 65.252Z" fill="black"/>
<path d="M36.6482 50C37.3082 52.4 38.1202 56.848 36.5322 58.604C37.9602 59.828 39.8082 61.224 42.7162 61.108C45.6242 60.992 44.9722 59.036 44.1282 58.04C41.3522 57.592 41.2722 55.568 41.6082 53.64L36.6482 50Z" fill="#B55B52"/>
<path d="M42.7926 60.68L43.3206 61.036L41.3926 61.6L41.8886 60.704L42.7926 60.68Z" fill="#02C499"/>
<path d="M43.5203 60.492L43.3203 61.036L45.2563 61.6L45.1243 60.564L43.5203 60.492Z" fill="#02C499"/>
<path d="M35.3761 58.4L36.1361 58.02C36.2577 57.9591 36.3936 57.9328 36.5291 57.9441C36.6646 57.9554 36.7943 58.0038 36.9041 58.084C38.6622 59.3593 40.6724 60.2443 42.8001 60.68C41.2721 61.408 41.6481 63.368 41.6481 63.368C41.6481 63.368 36.7881 61.768 35.2481 58.864C35.2045 58.7853 35.1935 58.6926 35.2175 58.6059C35.2414 58.5191 35.2984 58.4452 35.3761 58.4Z" fill="white"/>
<path d="M44.9765 57.9L43.8605 57.732C43.8317 57.7274 43.8022 57.7314 43.7756 57.7435C43.7491 57.7556 43.7267 57.7753 43.7113 57.8001C43.6959 57.8249 43.6882 57.8536 43.6891 57.8828C43.69 57.912 43.6996 57.9402 43.7165 57.964C44.1165 58.52 44.7565 59.74 43.5205 60.492C45.0485 61.22 45.5205 63.008 45.5205 63.008C45.5205 63.008 47.5205 60.86 45.1925 58.024C45.1369 57.9591 45.0606 57.9153 44.9765 57.9Z" fill="white"/>
<path opacity="0.2" d="M38.668 51.464L41.6 53.6C41.5153 54.0511 41.4711 54.509 41.468 54.968C40.416 54.896 38.9 53.86 38.708 52.776C38.617 52.3445 38.6034 51.9002 38.668 51.464Z" fill="black"/>
<path d="M45.1484 45.044C45.0124 46.208 43.8964 47.208 43.1764 47.444L42.2764 42.4C44.2964 40.972 45.3364 43.412 45.1484 45.044Z" fill="#263238"/>
<path d="M35.6367 46.44C36.2207 49.712 36.3927 51.66 38.2527 53.16C41.0527 55.416 44.9447 53.436 45.3527 50.056C45.7207 47.012 44.7047 42.172 41.3287 41.232C40.5851 41.0216 39.8 41.0046 39.0479 41.1828C38.2959 41.361 37.6018 41.7283 37.0316 42.25C36.4614 42.7718 36.034 43.4305 35.7899 44.1638C35.5457 44.8971 35.493 45.6806 35.6367 46.44Z" fill="#B55B52"/>
<path d="M36.26 48.648C37.776 49.448 38.44 47.644 38.456 46.908C38.456 45.74 37.968 44.456 37.364 43.988C40.292 43.988 46.084 43.844 44.62 41.056C43.156 38.268 40.22 38.584 38.032 40.112C36.868 40.912 33.1 40.216 34.032 42.388C32.068 43.432 33.772 47.324 36.26 48.648Z" fill="#263238"/>
<path d="M34.3522 42.208C33.8302 42.2054 33.3232 42.0327 32.9082 41.716C32.9762 42.0084 33.1382 42.2704 33.3694 42.4619C33.6006 42.6533 33.8883 42.7637 34.1882 42.776L34.3522 42.208Z" fill="#263238"/>
<path d="M34.4001 49.132C34.7754 49.8849 35.4321 50.4597 36.2281 50.732C37.2841 51.072 37.5241 50.104 37.2681 49.088C37.0361 48.168 36.5401 46.924 35.4641 47.024C34.3881 47.124 33.9521 48.212 34.4001 49.132Z" fill="#B55B52"/>
<path d="M55.652 123.5C54.292 113.368 51.752 88.088 51.752 88.088L40 88.532C40 88.532 45.552 113.792 47.56 124.036C49.568 134.28 55.16 159 55.16 159L60.464 157C60.464 157 57.072 134.036 55.652 123.5Z" fill="#263238"/>
<path opacity="0.2" d="M44.4003 95.34C43.4325 95.5711 42.5341 96.0306 41.7803 96.68C42.8923 101.788 44.3443 108.512 45.5923 114.436C46.4243 109.304 46.4483 99.62 44.4003 95.34Z" fill="black"/>
<path d="M45.4046 88.328C45.4046 88.328 42.9046 115.752 41.7606 125.496C40.5086 136.172 38.9606 158.544 38.9606 158.544H32.8006C32.8006 158.544 32.5486 138.756 33.3446 128.308C34.2526 116.408 33.8446 88.76 33.8446 88.76L45.4046 88.328Z" fill="#263238"/>
<path d="M39.7608 158.676H32.5368L32.3848 156.516L40.4488 156.376L39.7608 158.676Z" fill="#02C499"/>
<path d="M61.1565 156.864L54.8365 159.26L54.0645 157.216L61.0885 154.432L61.1565 156.864Z" fill="#02C499"/>
<path d="M40.7446 46.8C40.7726 47.072 40.9406 47.272 41.1166 47.252C41.2926 47.232 41.4086 46.996 41.3766 46.728C41.3446 46.46 41.1806 46.26 41.0046 46.28C40.8286 46.3 40.7126 46.516 40.7446 46.8Z" fill="#263238"/>
<path d="M43.7768 46.436C43.8088 46.704 43.9768 46.904 44.1488 46.884C44.3208 46.864 44.4448 46.632 44.4128 46.364C44.3808 46.096 44.2128 45.892 44.0368 45.912C43.8608 45.932 43.7448 46.168 43.7768 46.436Z" fill="#263238"/>
<path d="M42.8281 46.68C43.2418 47.4635 43.7613 48.1862 44.3721 48.828C44.2057 48.9827 44.0072 49.0987 43.7908 49.1679C43.5744 49.237 43.3454 49.2575 43.1201 49.228L42.8281 46.68Z" fill="#A02724"/>
<path d="M42.0724 50.064C41.7686 50.0633 41.4682 50.0005 41.1896 49.8794C40.9111 49.7583 40.6602 49.5816 40.4524 49.36C40.4446 49.352 40.4386 49.3425 40.4347 49.3321C40.4308 49.3216 40.4292 49.3105 40.4298 49.2994C40.4305 49.2883 40.4335 49.2774 40.4386 49.2675C40.4437 49.2576 40.4508 49.2489 40.4595 49.2419C40.4681 49.2349 40.4782 49.2298 40.4889 49.2269C40.4997 49.224 40.5109 49.2234 40.5219 49.2251C40.5329 49.2268 40.5435 49.2308 40.5528 49.2368C40.5622 49.2428 40.5702 49.2507 40.5764 49.26C40.8103 49.5012 41.0975 49.6841 41.4151 49.7938C41.7326 49.9036 42.0715 49.9372 42.4044 49.892C42.4147 49.8903 42.4252 49.8907 42.4353 49.8933C42.4454 49.8959 42.4549 49.9005 42.4632 49.9068C42.4714 49.9132 42.4783 49.9212 42.4833 49.9304C42.4883 49.9395 42.4914 49.9496 42.4924 49.96C42.4947 49.9806 42.4889 50.0013 42.4762 50.0177C42.4635 50.0342 42.4449 50.045 42.4244 50.048C42.3077 50.063 42.19 50.0684 42.0724 50.064Z" fill="#263238"/>
<path d="M39.6965 45.912C39.6704 45.9198 39.6426 45.9198 39.6165 45.912C39.5985 45.9017 39.5827 45.8878 39.5701 45.8713C39.5575 45.8548 39.5483 45.8359 39.5431 45.8158C39.5379 45.7957 39.5367 45.7747 39.5397 45.7541C39.5427 45.7336 39.5498 45.7138 39.5605 45.696C39.6825 45.4768 39.8549 45.2898 40.0637 45.1507C40.2724 45.0115 40.5113 44.9242 40.7605 44.896C40.7816 44.8949 40.8026 44.898 40.8224 44.9051C40.8422 44.9121 40.8605 44.923 40.8761 44.9371C40.8917 44.9513 40.9044 44.9683 40.9134 44.9873C40.9224 45.0064 40.9275 45.027 40.9285 45.048C40.9296 45.0688 40.9265 45.0896 40.9194 45.1092C40.9123 45.1288 40.9013 45.1468 40.8872 45.1621C40.873 45.1774 40.8559 45.1897 40.8369 45.1982C40.8179 45.2068 40.7974 45.2115 40.7765 45.212C40.5785 45.2371 40.389 45.3085 40.2237 45.4203C40.0583 45.5322 39.9215 45.6815 39.8245 45.856C39.8097 45.8754 39.7902 45.8908 39.7678 45.9006C39.7454 45.9104 39.7209 45.9143 39.6965 45.912Z" fill="#263238"/>
<path d="M44.9642 45.244C44.9377 45.2429 44.9118 45.2355 44.8888 45.2222C44.8658 45.209 44.8464 45.1904 44.8322 45.168C44.7306 44.9963 44.5893 44.8516 44.4201 44.7458C44.251 44.64 44.059 44.5763 43.8602 44.56C43.8178 44.56 43.7771 44.5431 43.7471 44.5131C43.7171 44.4831 43.7002 44.4424 43.7002 44.4C43.7002 44.3576 43.7171 44.3169 43.7471 44.2869C43.7771 44.2568 43.8178 44.24 43.8602 44.24C44.1115 44.2603 44.3545 44.3398 44.5693 44.4718C44.7841 44.6039 44.9646 44.7849 45.0962 45C45.1073 45.0173 45.1148 45.0366 45.1184 45.0569C45.122 45.0771 45.1216 45.0979 45.1171 45.118C45.1127 45.138 45.1043 45.157 45.0924 45.1739C45.0806 45.1907 45.0656 45.205 45.0482 45.216C45.0236 45.2335 44.9944 45.2432 44.9642 45.244Z" fill="#263238"/>
<path d="M38.632 163.272C38.3338 163.264 38.0374 163.224 37.748 163.152C37.7328 163.148 37.7191 163.14 37.7084 163.129C37.6978 163.118 37.6907 163.103 37.688 163.088C37.684 163.073 37.6849 163.057 37.6907 163.043C37.6965 163.028 37.7067 163.016 37.72 163.008C37.836 162.932 38.884 162.268 39.264 162.456C39.3059 162.477 39.3416 162.509 39.3675 162.548C39.3935 162.588 39.4088 162.633 39.412 162.68C39.4261 162.756 39.4203 162.835 39.3951 162.909C39.3699 162.982 39.3261 163.048 39.268 163.1C39.0826 163.23 38.8576 163.291 38.632 163.272ZM37.976 163.04C38.548 163.152 38.984 163.132 39.176 162.98C39.2146 162.944 39.2436 162.898 39.2603 162.848C39.2771 162.798 39.2811 162.744 39.272 162.692C39.272 162.628 39.236 162.608 39.216 162.6C39.004 162.5 38.4 162.8 37.976 163.04Z" fill="#02C499"/>
<path d="M37.7686 163.152C37.7541 163.156 37.739 163.156 37.7246 163.152C37.7125 163.144 37.7026 163.134 37.6956 163.121C37.6887 163.108 37.6849 163.094 37.6846 163.08C37.6846 163.04 37.7206 162.072 38.0846 161.756C38.1285 161.715 38.1812 161.684 38.2387 161.666C38.2962 161.648 38.357 161.643 38.4166 161.652C38.4773 161.653 38.5361 161.674 38.5839 161.711C38.6316 161.749 38.6656 161.801 38.6806 161.86C38.7686 162.232 38.1366 162.968 37.7966 163.156C37.787 163.157 37.7774 163.156 37.7686 163.152ZM38.3766 161.796C38.3116 161.797 38.2491 161.821 38.2006 161.864C37.9792 162.17 37.859 162.538 37.8566 162.916C38.1886 162.652 38.5846 162.116 38.5326 161.876C38.5326 161.856 38.5326 161.812 38.4126 161.796H38.3766Z" fill="#02C499"/>
<path d="M60.8 161.788C60.785 161.789 60.7702 161.785 60.7574 161.777C60.7445 161.769 60.7343 161.758 60.728 161.744C60.7194 161.731 60.7148 161.716 60.7148 161.7C60.7148 161.684 60.7194 161.669 60.728 161.656C60.844 161.528 61.86 160.412 62.328 160.48C62.3715 160.485 62.4128 160.501 62.4479 160.527C62.4831 160.553 62.5107 160.588 62.528 160.628C62.5596 160.69 62.5761 160.758 62.5761 160.828C62.5761 160.898 62.5596 160.966 62.528 161.028C62.3 161.46 61.356 161.68 60.812 161.768L60.8 161.788ZM62.276 160.636C62.008 160.636 61.424 161.16 61.016 161.588C61.752 161.44 62.256 161.212 62.384 160.968C62.4058 160.926 62.4171 160.879 62.4171 160.832C62.4171 160.785 62.4058 160.738 62.384 160.696C62.3778 160.68 62.3675 160.666 62.3542 160.656C62.3408 160.645 62.3249 160.638 62.308 160.636H62.276Z" fill="#02C499"/>
<path d="M60.8007 161.788H60.7767C60.7633 161.784 60.7511 161.777 60.7413 161.767C60.7315 161.758 60.7244 161.745 60.7207 161.732C60.7207 161.696 60.4767 160.82 60.7487 160.34C60.7871 160.271 60.8392 160.211 60.9018 160.162C60.9644 160.114 61.0362 160.079 61.1127 160.06C61.3247 160 61.4207 160.084 61.4687 160.16C61.6607 160.492 61.1687 161.456 60.8527 161.76C60.8469 161.769 60.8392 161.775 60.8301 161.78C60.8211 161.785 60.811 161.788 60.8007 161.788ZM61.2367 160.188H61.1527C61.0963 160.201 61.0434 160.227 60.9978 160.263C60.9522 160.299 60.915 160.344 60.8887 160.396C60.7563 160.757 60.7395 161.149 60.8407 161.52C61.1367 161.12 61.4447 160.416 61.3287 160.216C61.3127 160.224 61.2927 160.192 61.2247 160.196L61.2367 160.188Z" fill="#02C499"/>
<path d="M34.2883 64.528C33.2843 66.596 32.2603 68.732 31.2683 70.836C30.7763 71.896 30.2803 72.952 29.8163 74.012L29.1203 75.612L28.8003 76.4L28.7203 76.6L28.6603 76.748C28.6203 76.84 28.5923 76.94 28.5563 77.032C28.3081 77.8201 28.2641 78.6583 28.4283 79.468C28.6243 80.4083 28.9802 81.308 29.4803 82.128C30.031 83.0457 30.6686 83.9084 31.3843 84.704C31.7483 85.104 32.1323 85.528 32.5323 85.904C32.7323 86.096 32.9323 86.304 33.1443 86.476C33.3563 86.648 33.5683 86.876 33.7443 87.016L32.4003 89.156C31.8223 88.8621 31.2626 88.5335 30.7243 88.172C30.1923 87.824 29.6723 87.456 29.1683 87.056C28.1303 86.2336 27.1908 85.294 26.3683 84.256C25.4725 83.1415 24.7879 81.8727 24.3483 80.512C23.8804 79.0115 23.8128 77.4147 24.1523 75.88C24.2043 75.692 24.2443 75.48 24.3043 75.312L24.4603 74.816L24.7403 73.932C24.9403 73.352 25.1403 72.768 25.3483 72.196C25.7683 71.048 26.2083 69.912 26.6843 68.792C27.6003 66.56 28.6283 64.4 29.7723 62.212L34.2883 64.528Z" fill="#B65B52"/>
<path d="M30.6079 59.792C27.5519 60.748 24.5479 71.112 24.5479 71.112L31.5999 74.208C31.5999 74.208 33.8879 69.2 35.1999 65.276C36.6519 61 34.3079 58.632 30.6079 59.792Z" fill="#02C499"/>
<path opacity="0.2" d="M30.6079 59.792C27.5519 60.748 24.5479 71.112 24.5479 71.112L31.5999 74.208C31.5999 74.208 33.8879 69.2 35.1999 65.276C36.6519 61 34.3079 58.632 30.6079 59.792Z" fill="black"/>
<path d="M32.9844 86.368L35.9084 88.104L33.0644 90.936C33.0644 90.936 30.5964 89.036 31.3324 87.548L32.9844 86.368Z" fill="#B55B52"/>
<path d="M37.8645 90.876L34.9285 92.932L33.0645 90.936L35.9085 88.104L37.8645 90.876Z" fill="#B55B52"/>
<path d="M179.347 85.6161L179.207 87.5431L179.606 87.572L179.745 85.645L179.347 85.6161Z" fill="#02C499"/>
<path d="M179.873 78.3197L179.469 83.9091L179.868 83.938L180.272 78.3486L179.873 78.3197Z" fill="#02C499"/>
<path d="M168.928 141.2H70.9562C70.2565 141.208 69.5628 141.07 68.9198 140.794C68.2768 140.518 67.6986 140.111 67.2224 139.598C66.7463 139.085 66.3826 138.478 66.1549 137.817C65.9272 137.155 65.8404 136.453 65.9002 135.756L71.1002 63.436C71.2291 61.9717 71.8947 60.6066 72.969 59.6032C74.0432 58.5998 75.4504 58.0289 76.9202 58H174.892C175.592 57.9913 176.285 58.1291 176.928 58.4046C177.571 58.6801 178.149 59.0871 178.626 59.5995C179.102 60.1119 179.466 60.7184 179.693 61.3798C179.921 62.0412 180.008 62.743 179.948 63.44L174.748 135.76C174.62 137.225 173.955 138.591 172.881 139.595C171.806 140.599 170.399 141.171 168.928 141.2Z" fill="#02C499"/>
<path d="M146.14 166.496H114.336L108.668 127.2H140.472L146.14 166.496Z" fill="#02C499"/>
<path d="M141.088 164.152H106.688L106.004 166.496H140.408L141.088 164.152Z" fill="#02C499"/>
<path d="M142.148 146.116L111.152 144.424L108.668 127.2H139.42L142.148 146.116Z" fill="#263238"/>
<path d="M167.824 141.2H69.8484C69.1477 141.208 68.4532 141.069 67.8096 140.792C67.1661 140.514 66.5878 140.105 66.1121 139.591C65.6364 139.076 65.2739 138.468 65.048 137.805C64.822 137.141 64.7377 136.438 64.8004 135.74L70.0004 63.4201C70.1329 61.96 70.7989 60.5999 71.8712 59.6C72.9434 58.6001 74.3466 58.0305 75.8124 58.0001H173.788C174.488 57.9919 175.181 58.1302 175.823 58.4059C176.466 58.6816 177.043 59.0888 177.519 59.6011C177.995 60.1134 178.358 60.7197 178.586 61.3808C178.813 62.042 178.9 62.7434 178.84 63.4401L173.64 135.76C173.513 137.225 172.849 138.591 171.775 139.595C170.702 140.599 169.294 141.171 167.824 141.2Z" fill="#263238"/>
<path d="M178.587 64.1182L175.613 105.604L175.996 105.631L178.97 64.1457L178.587 64.1182Z" fill="white"/>
<path d="M175.369 109.216L174.339 123.583L174.722 123.61L175.752 109.243L175.369 109.216Z" fill="white"/>
<path d="M167.6 139.832H70.2483C69.7037 139.838 69.1639 139.73 68.6636 139.515C68.1633 139.3 67.7135 138.982 67.3432 138.583C66.9729 138.184 66.6902 137.711 66.5134 137.196C66.3365 136.681 66.2694 136.135 66.3163 135.592L71.4803 63.568C71.5799 62.4258 72.099 61.3609 72.9373 60.5787C73.7756 59.7965 74.8739 59.3524 76.0203 59.332H173.388C173.932 59.3261 174.472 59.4341 174.972 59.649C175.472 59.8639 175.921 60.1809 176.292 60.5798C176.662 60.9787 176.945 61.4506 177.122 61.9652C177.299 62.4798 177.367 63.0257 177.32 63.568L172.156 135.6C172.055 136.744 171.534 137.81 170.692 138.592C169.85 139.374 168.749 139.816 167.6 139.832Z" fill="white"/>
<path opacity="0.2" d="M167.6 139.832H70.2483C69.7037 139.838 69.1639 139.73 68.6636 139.515C68.1633 139.3 67.7135 138.982 67.3432 138.583C66.9729 138.184 66.6902 137.711 66.5134 137.196C66.3365 136.681 66.2694 136.135 66.3163 135.592L71.4803 63.568C71.5799 62.4258 72.099 61.3609 72.9373 60.5787C73.7756 59.7965 74.8739 59.3524 76.0203 59.332H173.388C173.932 59.3261 174.472 59.4341 174.972 59.649C175.472 59.8639 175.921 60.1809 176.292 60.5798C176.662 60.9787 176.945 61.4506 177.122 61.9652C177.299 62.4798 177.367 63.0257 177.32 63.568L172.156 135.6C172.055 136.744 171.534 137.81 170.692 138.592C169.85 139.374 168.749 139.816 167.6 139.832Z" fill="#02C499"/>
<path opacity="0.5" d="M95.2242 136.64H72.4882C72.225 136.643 71.9641 136.591 71.7222 136.488C71.4804 136.384 71.2629 136.23 71.0839 136.037C70.9049 135.845 70.7683 135.616 70.6829 135.367C70.5975 135.118 70.5653 134.854 70.5882 134.592L75.6042 64.592C75.6517 64.0393 75.9026 63.5239 76.3082 63.1456C76.7139 62.7672 77.2456 62.5529 77.8002 62.544H100.536C100.8 62.5401 101.061 62.5917 101.303 62.6952C101.545 62.7988 101.763 62.9521 101.942 63.1452C102.121 63.3383 102.258 63.5668 102.343 63.8161C102.428 64.0653 102.46 64.3297 102.436 64.592L97.4202 134.592C97.3719 135.144 97.1207 135.659 96.7152 136.037C96.3097 136.416 95.7786 136.63 95.2242 136.64Z" fill="white"/>
<path opacity="0.4" d="M94.3445 72.4H82.5765C82.3396 72.4025 82.1048 72.3555 81.8871 72.2619C81.6695 72.1684 81.4737 72.0304 81.3126 71.8568C81.1514 71.6831 81.0282 71.4777 80.9511 71.2537C80.8739 71.0297 80.8444 70.7921 80.8645 70.556L80.9925 68.752C81.0359 68.2548 81.2618 67.7913 81.6267 67.4508C81.9916 67.1103 82.4695 66.917 82.9685 66.908H94.7405C94.9774 66.9055 95.2122 66.9525 95.4299 67.046C95.6476 67.1396 95.8433 67.2776 96.0045 67.4512C96.1657 67.6249 96.2888 67.8303 96.366 68.0543C96.4431 68.2783 96.4726 68.5159 96.4525 68.752L96.3205 70.556C96.2815 71.0548 96.0569 71.5209 95.6911 71.8623C95.3253 72.2037 94.8448 72.3955 94.3445 72.4Z" fill="#02C499"/>
<path d="M86.8602 100.72H68.8962C68.4841 100.725 68.0754 100.644 67.6964 100.483C67.3173 100.321 66.9762 100.082 66.695 99.7804C66.4137 99.4791 66.1984 99.1225 66.0629 98.7332C65.9275 98.344 65.8748 97.9308 65.9082 97.52L67.2002 79.536C67.2799 78.6716 67.6758 77.867 68.3121 77.2764C68.9484 76.6859 69.7802 76.351 70.6482 76.336H88.6162C89.028 76.3313 89.4362 76.4126 89.8148 76.5746C90.1933 76.7367 90.5339 76.9759 90.8148 77.2771C91.0956 77.5783 91.3105 77.9347 91.4458 78.3237C91.581 78.7126 91.6336 79.1255 91.6002 79.536L90.3122 97.504C90.237 98.3723 89.8424 99.1818 89.2047 99.7759C88.567 100.37 87.7316 100.706 86.8602 100.72Z" fill="#02C499"/>
<path d="M89.4367 86C89.105 86.0067 88.7875 86.1358 88.5453 86.3625C88.3031 86.5892 88.1533 86.8975 88.1247 87.228L87.9367 89.836C87.9233 89.993 87.9429 90.1511 87.9943 90.3001C88.0457 90.449 88.1278 90.5856 88.2352 90.7009C88.3426 90.8162 88.473 90.9077 88.6179 90.9696C88.7629 91.0314 88.9191 91.0622 89.0767 91.06H90.9007C90.983 91.0592 91.062 91.0275 91.122 90.9712C91.182 90.9149 91.2187 90.8381 91.2247 90.756L91.5447 86.304C91.5481 86.2649 91.5432 86.2256 91.5304 86.1885C91.5176 86.1514 91.4971 86.1175 91.4704 86.0888C91.4436 86.0601 91.4111 86.0374 91.375 86.0221C91.3389 86.0068 91.2999 85.9993 91.2607 86H89.4367Z" fill="white"/>
<path d="M82.504 80.892H71.2C71.1367 80.8928 71.0741 80.8803 71.016 80.8554C70.9579 80.8305 70.9057 80.7937 70.8627 80.7473C70.8197 80.7009 70.7869 80.6461 70.7665 80.5862C70.746 80.5264 70.7384 80.463 70.744 80.4C70.7549 80.267 70.8151 80.1428 70.9128 80.0518C71.0104 79.9608 71.1385 79.9095 71.272 79.908H82.596C82.6592 79.9072 82.7219 79.9196 82.78 79.9446C82.8381 79.9695 82.8903 80.0063 82.9333 80.0527C82.9762 80.0991 83.009 80.1539 83.0294 80.2138C83.0499 80.2736 83.0576 80.337 83.052 80.4C83.0398 80.5361 82.9765 80.6626 82.8748 80.7539C82.7732 80.8452 82.6406 80.8946 82.504 80.892Z" fill="white"/>
<path d="M82.3287 83.392H71.0007C70.9375 83.3928 70.8749 83.3803 70.8168 83.3554C70.7587 83.3305 70.7064 83.2936 70.6635 83.2473C70.6205 83.2009 70.5877 83.146 70.5673 83.0862C70.5468 83.0264 70.5391 82.9629 70.5447 82.9C70.5566 82.7677 70.6172 82.6445 70.7148 82.5543C70.8123 82.4641 70.9399 82.4134 71.0727 82.412H82.4007C82.4638 82.4106 82.5264 82.4225 82.5845 82.447C82.6426 82.4715 82.6948 82.5079 82.7379 82.554C82.7809 82.6001 82.8138 82.6547 82.8342 82.7143C82.8547 82.7739 82.8624 82.8372 82.8567 82.9C82.8458 83.033 82.7856 83.1572 82.688 83.2481C82.5903 83.3391 82.4622 83.3904 82.3287 83.392Z" fill="white"/>
<path d="M78.2327 85.896H70.8207C70.7577 85.8962 70.6953 85.8833 70.6375 85.8582C70.5797 85.8331 70.5277 85.7962 70.4848 85.75C70.442 85.7037 70.4092 85.6491 70.3885 85.5896C70.3678 85.53 70.3597 85.4668 70.3647 85.404C70.3757 85.271 70.4358 85.1468 70.5335 85.0558C70.6311 84.9648 70.7592 84.9135 70.8927 84.912H78.3047C78.3679 84.9112 78.4306 84.9236 78.4887 84.9486C78.5468 84.9735 78.599 85.0103 78.642 85.0567C78.685 85.1031 78.7177 85.1579 78.7382 85.2178C78.7586 85.2776 78.7663 85.341 78.7607 85.404C78.7489 85.5367 78.6884 85.6603 78.591 85.7512C78.4935 85.842 78.3659 85.8936 78.2327 85.896Z" fill="white"/>
<path opacity="0.5" d="M82.5359 97.816H71.5999C71.3296 97.8193 71.0615 97.7658 70.8131 97.6592C70.5646 97.5526 70.3413 97.3951 70.1574 97.1969C69.9735 96.9987 69.8331 96.7641 69.7454 96.5084C69.6577 96.2526 69.6245 95.9814 69.6479 95.712L70.0479 89.956C70.0964 89.3892 70.3536 88.8605 70.7697 88.4725C71.1858 88.0845 71.7311 87.8648 72.2999 87.856H83.2559C83.5259 87.8528 83.7936 87.9061 84.0418 88.0125C84.2899 88.1189 84.5131 88.276 84.6969 88.4738C84.8808 88.6716 85.0212 88.9056 85.1092 89.1608C85.1972 89.4161 85.2308 89.687 85.2079 89.956L84.8079 95.712C84.7583 96.2823 84.4981 96.8137 84.0781 97.2026C83.6581 97.5915 83.1083 97.8102 82.5359 97.816Z" fill="white"/>
<path opacity="0.4" d="M92.7643 107.448H79.1323C79.015 107.45 78.8987 107.426 78.7908 107.38C78.683 107.334 78.586 107.266 78.5061 107.18C78.4262 107.094 78.3652 106.992 78.327 106.882C78.2888 106.771 78.2743 106.653 78.2843 106.536C78.3061 106.29 78.4182 106.06 78.5992 105.892C78.7802 105.723 79.0172 105.628 79.2643 105.624H92.8963C93.0133 105.623 93.1292 105.646 93.2366 105.693C93.344 105.739 93.4405 105.808 93.5199 105.893C93.5994 105.979 93.66 106.081 93.698 106.191C93.736 106.302 93.7504 106.419 93.7403 106.536C93.7196 106.782 93.6082 107.011 93.4279 107.18C93.2476 107.348 93.0111 107.444 92.7643 107.448Z" fill="#02C499"/>
<path opacity="0.8" d="M90.0007 111.028H81.3687C81.2514 111.03 81.135 111.007 81.0272 110.96C80.9193 110.914 80.8223 110.846 80.7424 110.76C80.6625 110.674 80.6015 110.572 80.5633 110.462C80.5251 110.351 80.5106 110.233 80.5207 110.116C80.5415 109.87 80.6528 109.641 80.8331 109.472C81.0134 109.304 81.2499 109.208 81.4967 109.204H90.1487C90.2658 109.202 90.382 109.225 90.4897 109.272C90.5974 109.318 90.6941 109.386 90.7737 109.472C90.8533 109.558 90.9139 109.66 90.9516 109.771C90.9894 109.882 91.0033 109.999 90.9927 110.116C90.9716 110.365 90.858 110.596 90.6743 110.765C90.4906 110.934 90.2502 111.028 90.0007 111.028Z" fill="white"/>
<path opacity="0.4" d="M92.056 117.324H78.424C78.3069 117.325 78.1908 117.301 78.0832 117.255C77.9757 117.209 77.8789 117.141 77.7992 117.055C77.7194 116.969 77.6584 116.868 77.6199 116.757C77.5815 116.646 77.5665 116.529 77.576 116.412C77.5977 116.166 77.7099 115.936 77.8909 115.768C78.0718 115.599 78.3088 115.504 78.556 115.5H92.188C92.305 115.499 92.4209 115.522 92.5282 115.569C92.6356 115.615 92.7321 115.684 92.8116 115.769C92.891 115.855 92.9517 115.957 92.9896 116.067C93.0276 116.178 93.042 116.295 93.032 116.412C93.0112 116.658 92.8999 116.887 92.7195 117.056C92.5392 117.224 92.3028 117.32 92.056 117.324Z" fill="#02C499"/>
<path opacity="0.8" d="M89.3087 120.9H80.6607C80.5436 120.902 80.4273 120.88 80.3195 120.834C80.2116 120.788 80.1145 120.72 80.0346 120.635C79.9546 120.549 79.8936 120.448 79.8553 120.337C79.8171 120.226 79.8026 120.109 79.8127 119.992C79.8337 119.744 79.9467 119.513 80.1296 119.344C80.3124 119.175 80.5518 119.081 80.8007 119.08H89.4407C89.558 119.078 89.6743 119.101 89.7822 119.148C89.8901 119.194 89.9871 119.262 90.0669 119.348C90.1468 119.434 90.2078 119.536 90.246 119.646C90.2842 119.757 90.2988 119.875 90.2887 119.992C90.2669 120.238 90.1546 120.467 89.9735 120.635C89.7924 120.802 89.5555 120.897 89.3087 120.9Z" fill="white"/>
<path opacity="0.4" d="M91.348 127.2H77.716C77.5988 127.201 77.4828 127.177 77.3752 127.131C77.2677 127.085 77.1709 127.017 77.0911 126.931C77.0114 126.845 76.9503 126.744 76.9119 126.633C76.8735 126.522 76.8585 126.405 76.868 126.288C76.8888 126.041 77.0007 125.811 77.1819 125.643C77.3631 125.474 77.6005 125.379 77.848 125.376H91.48C91.5971 125.374 91.7133 125.397 91.821 125.444C91.9287 125.49 92.0254 125.558 92.105 125.644C92.1846 125.73 92.2452 125.832 92.2829 125.943C92.3207 126.054 92.3346 126.171 92.324 126.288C92.3032 126.534 92.1919 126.763 92.0115 126.932C91.8312 127.1 91.5947 127.196 91.348 127.2Z" fill="#02C499"/>
<path opacity="0.8" d="M88.6007 130.776H79.9527C79.8354 130.778 79.719 130.754 79.6112 130.708C79.5033 130.662 79.4063 130.594 79.3264 130.508C79.2465 130.422 79.1855 130.32 79.1473 130.21C79.1091 130.099 79.0946 129.981 79.1047 129.864C79.1263 129.618 79.2379 129.389 79.4181 129.221C79.5982 129.053 79.8342 128.957 80.0807 128.952H88.7327C88.8498 128.951 88.9658 128.975 89.0734 129.021C89.181 129.067 89.2777 129.135 89.3575 129.221C89.4373 129.307 89.4983 129.408 89.5367 129.519C89.5751 129.63 89.5901 129.747 89.5807 129.864C89.5598 130.111 89.4479 130.341 89.2667 130.509C89.0856 130.678 88.8481 130.773 88.6007 130.776Z" fill="white"/>
<path opacity="0.5" d="M168.672 116.108C169.264 115.204 170.62 115.584 170.544 116.628L169.232 134.932C169.164 135.872 168.452 136.64 167.632 136.64H101.708C100.908 136.64 100.3 135.872 100.368 134.932L101.168 124.056C101.195 123.71 101.298 123.374 101.469 123.073C101.641 122.771 101.877 122.511 102.16 122.312C102.444 122.112 102.768 121.977 103.109 121.917C103.451 121.857 103.802 121.873 104.136 121.964C107.852 123.12 111.036 122.44 113.996 120.972C120.324 117.832 125.62 111.088 132.896 111.088C133.176 111.088 133.452 111.088 133.72 111.112C144.544 111.764 147.84 125.212 156.224 125.212C158.704 125.212 160.964 124.14 162.936 122.616C165.328 120.748 167.3 118.2 168.672 116.108Z" fill="#02C499"/>
<path opacity="0.5" d="M170.04 123.648L169.24 134.932C169.172 135.872 168.46 136.64 167.64 136.64H101.708C100.908 136.64 100.3 135.872 100.368 134.932L101.968 112.508C102.076 110.972 104.088 110.324 104.904 111.568C107.008 114.768 110.244 118.924 113.968 120.972C115.322 121.762 116.854 122.195 118.42 122.232C123.748 122.232 128.28 115.916 133.692 111.112C137.008 108.168 140.656 105.792 145.02 105.792C154.128 105.792 155.472 120.592 162.908 122.616C164.34 123.016 166 122.924 167.984 122.164C168.219 122.063 168.476 122.024 168.73 122.052C168.984 122.079 169.227 122.172 169.434 122.322C169.641 122.472 169.806 122.672 169.912 122.905C170.019 123.137 170.063 123.393 170.04 123.648Z" fill="#02C499"/>
<g opacity="0.8">
<path d="M170.364 119.272C170.328 119.271 170.294 119.257 170.268 119.232C170.255 119.22 170.246 119.205 170.24 119.188C170.236 119.171 170.236 119.153 170.24 119.136C170.24 119.118 170.243 119.1 170.25 119.084C170.257 119.067 170.267 119.052 170.28 119.04C170.306 119.015 170.34 119 170.376 119C170.412 119 170.447 119.015 170.472 119.04C170.485 119.052 170.496 119.067 170.503 119.084C170.51 119.1 170.513 119.118 170.512 119.136C170.514 119.153 170.514 119.171 170.512 119.188C170.504 119.204 170.493 119.219 170.48 119.232C170.465 119.247 170.447 119.258 170.427 119.265C170.407 119.272 170.385 119.275 170.364 119.272Z" fill="white"/>
<path d="M106.257 128.644C106.22 128.644 106.186 128.63 106.16 128.604C106.135 128.579 106.121 128.544 106.121 128.508C106.122 128.473 106.136 128.439 106.162 128.414C106.187 128.39 106.221 128.376 106.257 128.376C106.293 128.376 106.327 128.39 106.353 128.416C106.378 128.441 106.393 128.476 106.393 128.512C106.393 128.548 106.378 128.583 106.353 128.61C106.328 128.636 106.293 128.651 106.257 128.652V128.644ZM104.885 128.568C104.866 128.567 104.849 128.562 104.833 128.554C104.816 128.546 104.802 128.535 104.79 128.521C104.779 128.507 104.77 128.491 104.765 128.474C104.76 128.456 104.758 128.438 104.761 128.42C104.763 128.402 104.768 128.385 104.777 128.369C104.786 128.353 104.797 128.339 104.811 128.328C104.826 128.317 104.842 128.309 104.859 128.304C104.877 128.299 104.895 128.298 104.913 128.3C104.948 128.304 104.98 128.322 105.003 128.349C105.025 128.377 105.036 128.413 105.033 128.448C105.029 128.482 105.013 128.513 104.988 128.535C104.963 128.558 104.93 128.571 104.897 128.572L104.885 128.568ZM107.473 128.448C107.47 128.43 107.472 128.412 107.476 128.395C107.481 128.377 107.49 128.361 107.501 128.347C107.512 128.333 107.526 128.321 107.542 128.312C107.557 128.304 107.575 128.298 107.593 128.296C107.61 128.294 107.629 128.295 107.646 128.3C107.663 128.305 107.679 128.313 107.694 128.324C107.708 128.335 107.72 128.349 107.728 128.365C107.737 128.381 107.743 128.398 107.745 128.416C107.747 128.434 107.745 128.452 107.741 128.469C107.736 128.487 107.727 128.503 107.716 128.517C107.705 128.531 107.691 128.543 107.676 128.552C107.66 128.561 107.642 128.566 107.625 128.568C107.607 128.57 107.589 128.569 107.571 128.564C107.554 128.559 107.538 128.551 107.523 128.54C107.509 128.529 107.498 128.515 107.489 128.499C107.48 128.483 107.475 128.466 107.473 128.448ZM103.533 128.36C103.497 128.351 103.466 128.33 103.446 128.299C103.426 128.269 103.418 128.232 103.425 128.196C103.433 128.161 103.455 128.13 103.485 128.11C103.516 128.09 103.553 128.082 103.589 128.088C103.624 128.097 103.655 128.118 103.675 128.149C103.695 128.179 103.703 128.216 103.697 128.252C103.689 128.283 103.672 128.31 103.647 128.33C103.623 128.349 103.592 128.36 103.561 128.36H103.533ZM108.809 128.224C108.804 128.206 108.803 128.188 108.805 128.17C108.808 128.152 108.814 128.134 108.823 128.119C108.832 128.103 108.845 128.089 108.859 128.079C108.874 128.068 108.891 128.06 108.909 128.056C108.943 128.049 108.98 128.055 109.01 128.073C109.041 128.092 109.063 128.122 109.073 128.156C109.081 128.192 109.075 128.229 109.057 128.26C109.038 128.292 109.008 128.315 108.973 128.324H108.941C108.909 128.327 108.878 128.318 108.852 128.3C108.826 128.282 108.808 128.255 108.801 128.224H108.809ZM152.557 128.28C152.52 128.28 152.486 128.266 152.46 128.24C152.435 128.215 152.421 128.18 152.421 128.144C152.421 128.108 152.435 128.073 152.46 128.048C152.486 128.022 152.52 128.008 152.557 128.008C152.593 128.008 152.627 128.022 152.653 128.048C152.678 128.073 152.693 128.108 152.693 128.144C152.693 128.18 152.678 128.215 152.653 128.24C152.627 128.266 152.593 128.28 152.557 128.28ZM153.777 128.088C153.774 128.07 153.776 128.052 153.781 128.035C153.785 128.018 153.794 128.002 153.805 127.988C153.816 127.975 153.83 127.963 153.846 127.955C153.862 127.947 153.879 127.941 153.897 127.94C153.914 127.937 153.933 127.938 153.95 127.943C153.968 127.947 153.984 127.956 153.999 127.967C154.013 127.978 154.025 127.992 154.033 128.008C154.042 128.024 154.047 128.042 154.049 128.06C154.052 128.097 154.041 128.133 154.018 128.161C153.994 128.19 153.961 128.208 153.925 128.212C153.889 128.214 153.853 128.203 153.826 128.18C153.798 128.157 153.781 128.124 153.777 128.088ZM151.189 128.196C151.171 128.194 151.154 128.189 151.138 128.18C151.122 128.171 151.109 128.159 151.098 128.145C151.087 128.131 151.079 128.114 151.075 128.097C151.071 128.08 151.07 128.062 151.073 128.044C151.075 128.026 151.08 128.009 151.089 127.993C151.098 127.977 151.109 127.963 151.123 127.952C151.138 127.941 151.154 127.933 151.171 127.928C151.189 127.923 151.207 127.922 151.225 127.924C151.26 127.929 151.293 127.948 151.315 127.976C151.337 128.004 151.348 128.04 151.345 128.076C151.341 128.11 151.325 128.141 151.3 128.163C151.275 128.186 151.242 128.199 151.209 128.2L151.189 128.196ZM102.205 128.032C102.187 128.027 102.171 128.019 102.157 128.008C102.142 127.997 102.13 127.984 102.121 127.968C102.113 127.952 102.107 127.935 102.105 127.917C102.102 127.899 102.104 127.881 102.109 127.864C102.12 127.829 102.144 127.8 102.176 127.782C102.207 127.764 102.245 127.759 102.281 127.768C102.315 127.779 102.344 127.803 102.361 127.835C102.379 127.867 102.383 127.905 102.373 127.94C102.364 127.968 102.347 127.993 102.323 128.011C102.299 128.028 102.27 128.037 102.241 128.036H102.205V128.032ZM155.121 127.9C155.116 127.882 155.116 127.864 155.119 127.846C155.123 127.828 155.13 127.812 155.14 127.797C155.15 127.782 155.163 127.769 155.178 127.759C155.194 127.749 155.211 127.743 155.229 127.74C155.246 127.737 155.264 127.737 155.282 127.74C155.299 127.744 155.316 127.751 155.331 127.761C155.346 127.771 155.359 127.784 155.368 127.799C155.378 127.814 155.385 127.83 155.389 127.848C155.392 127.866 155.392 127.884 155.388 127.901C155.385 127.919 155.378 127.936 155.368 127.95C155.358 127.965 155.345 127.978 155.33 127.988C155.315 127.998 155.298 128.005 155.281 128.008H155.257C155.225 128.008 155.194 127.997 155.17 127.978C155.145 127.958 155.128 127.931 155.121 127.9ZM149.845 127.948C149.827 127.945 149.81 127.938 149.795 127.928C149.78 127.917 149.767 127.904 149.757 127.889C149.748 127.873 149.742 127.856 149.74 127.838C149.738 127.82 149.739 127.801 149.745 127.784C149.753 127.749 149.775 127.719 149.806 127.7C149.837 127.681 149.874 127.676 149.909 127.684C149.944 127.693 149.974 127.715 149.992 127.745C150.011 127.776 150.017 127.813 150.009 127.848C150.001 127.878 149.984 127.904 149.961 127.923C149.937 127.942 149.907 127.952 149.877 127.952H149.845V127.948ZM110.105 127.836C110.098 127.819 110.094 127.801 110.094 127.783C110.095 127.765 110.099 127.747 110.106 127.731C110.114 127.714 110.125 127.699 110.138 127.687C110.151 127.675 110.167 127.666 110.185 127.66C110.218 127.647 110.255 127.647 110.288 127.662C110.321 127.676 110.347 127.703 110.361 127.736C110.367 127.753 110.37 127.771 110.369 127.789C110.369 127.807 110.365 127.824 110.357 127.841C110.35 127.857 110.339 127.872 110.326 127.884C110.313 127.896 110.297 127.906 110.281 127.912C110.265 127.916 110.248 127.916 110.233 127.912C110.206 127.913 110.18 127.906 110.158 127.892C110.135 127.879 110.117 127.859 110.105 127.836ZM156.445 127.6C156.439 127.582 156.437 127.564 156.439 127.546C156.441 127.527 156.447 127.51 156.456 127.493C156.465 127.477 156.477 127.463 156.491 127.452C156.506 127.441 156.523 127.433 156.541 127.428C156.558 127.423 156.576 127.422 156.594 127.424C156.612 127.426 156.629 127.432 156.645 127.441C156.66 127.45 156.674 127.462 156.685 127.476C156.696 127.49 156.704 127.507 156.709 127.524C156.713 127.541 156.715 127.559 156.713 127.577C156.71 127.595 156.705 127.612 156.696 127.628C156.687 127.644 156.675 127.657 156.66 127.668C156.646 127.679 156.63 127.687 156.613 127.692H156.577C156.548 127.693 156.519 127.684 156.495 127.668C156.472 127.651 156.454 127.627 156.445 127.6ZM148.533 127.552C148.499 127.54 148.471 127.515 148.455 127.483C148.439 127.451 148.437 127.414 148.449 127.38C148.461 127.346 148.487 127.318 148.519 127.302C148.552 127.287 148.59 127.284 148.625 127.296C148.659 127.309 148.687 127.334 148.702 127.367C148.718 127.4 148.72 127.438 148.709 127.472C148.698 127.498 148.68 127.521 148.656 127.537C148.633 127.552 148.605 127.56 148.577 127.56C148.561 127.562 148.546 127.559 148.533 127.552ZM111.333 127.296C111.324 127.28 111.319 127.263 111.318 127.245C111.316 127.227 111.319 127.209 111.324 127.191C111.33 127.174 111.339 127.159 111.35 127.145C111.362 127.131 111.376 127.12 111.393 127.112C111.426 127.097 111.463 127.095 111.497 127.107C111.532 127.119 111.56 127.144 111.577 127.176C111.585 127.192 111.59 127.209 111.591 127.227C111.592 127.244 111.59 127.262 111.585 127.279C111.579 127.296 111.57 127.311 111.558 127.324C111.547 127.338 111.532 127.348 111.517 127.356C111.496 127.362 111.473 127.362 111.453 127.356C111.432 127.355 111.412 127.349 111.394 127.338C111.376 127.328 111.36 127.313 111.349 127.296H111.333ZM157.733 127.2C157.726 127.183 157.723 127.166 157.724 127.148C157.724 127.13 157.729 127.113 157.736 127.097C157.744 127.081 157.754 127.067 157.767 127.055C157.78 127.043 157.796 127.034 157.813 127.028C157.847 127.018 157.883 127.02 157.915 127.036C157.947 127.052 157.972 127.079 157.985 127.112C157.996 127.147 157.994 127.184 157.978 127.217C157.963 127.25 157.935 127.275 157.901 127.288H157.857C157.832 127.285 157.808 127.275 157.788 127.26C157.768 127.244 157.753 127.224 157.745 127.2H157.733ZM147.257 127.032C147.24 127.025 147.226 127.014 147.213 127.001C147.201 126.988 147.192 126.973 147.185 126.956C147.179 126.939 147.176 126.922 147.177 126.904C147.177 126.886 147.181 126.868 147.189 126.852C147.204 126.82 147.232 126.795 147.265 126.782C147.298 126.77 147.336 126.77 147.369 126.784C147.385 126.791 147.4 126.802 147.413 126.815C147.426 126.829 147.435 126.844 147.442 126.862C147.448 126.879 147.451 126.897 147.45 126.915C147.449 126.934 147.445 126.952 147.437 126.968C147.425 126.992 147.408 127.012 147.386 127.026C147.364 127.04 147.339 127.048 147.313 127.048C147.297 127.047 147.282 127.041 147.269 127.032H147.257ZM159.001 126.72C158.993 126.704 158.99 126.686 158.99 126.668C158.99 126.65 158.994 126.632 159.001 126.616C159.008 126.599 159.018 126.584 159.031 126.572C159.044 126.56 159.06 126.55 159.077 126.544C159.093 126.536 159.11 126.532 159.128 126.531C159.146 126.531 159.164 126.534 159.181 126.541C159.197 126.548 159.212 126.558 159.225 126.571C159.237 126.584 159.246 126.599 159.253 126.616C159.26 126.633 159.264 126.65 159.264 126.668C159.264 126.686 159.261 126.704 159.254 126.721C159.248 126.738 159.238 126.753 159.225 126.766C159.212 126.779 159.197 126.789 159.181 126.796C159.163 126.8 159.146 126.8 159.129 126.796C159.104 126.795 159.081 126.787 159.06 126.773C159.04 126.76 159.024 126.742 159.013 126.72H159.001ZM112.521 126.64C112.501 126.609 112.495 126.571 112.503 126.535C112.511 126.499 112.533 126.468 112.565 126.448C112.58 126.438 112.597 126.432 112.614 126.429C112.632 126.426 112.65 126.427 112.668 126.431C112.685 126.435 112.702 126.442 112.716 126.453C112.731 126.463 112.743 126.477 112.753 126.492C112.762 126.507 112.768 126.524 112.771 126.542C112.774 126.56 112.774 126.578 112.77 126.595C112.766 126.613 112.758 126.629 112.748 126.644C112.737 126.658 112.724 126.671 112.709 126.68C112.688 126.696 112.662 126.704 112.637 126.704C112.616 126.702 112.595 126.695 112.577 126.684C112.559 126.673 112.544 126.658 112.533 126.64H112.521ZM146.037 126.42C146.004 126.402 145.981 126.373 145.97 126.337C145.96 126.302 145.963 126.264 145.981 126.232C145.999 126.201 146.029 126.178 146.064 126.168C146.099 126.158 146.137 126.163 146.169 126.18C146.2 126.198 146.223 126.227 146.232 126.261C146.242 126.296 146.238 126.333 146.221 126.364C146.209 126.385 146.191 126.403 146.17 126.416C146.149 126.429 146.125 126.436 146.101 126.436C146.083 126.433 146.065 126.428 146.049 126.42H146.037ZM160.245 126.172C160.229 126.14 160.228 126.103 160.24 126.069C160.252 126.035 160.276 126.008 160.309 125.992C160.341 125.977 160.379 125.975 160.413 125.987C160.448 125.999 160.476 126.024 160.493 126.056C160.5 126.072 160.504 126.09 160.505 126.108C160.505 126.126 160.502 126.143 160.496 126.16C160.49 126.177 160.48 126.192 160.468 126.205C160.455 126.218 160.441 126.229 160.425 126.236H160.365C160.343 126.235 160.321 126.228 160.303 126.217C160.284 126.206 160.268 126.191 160.257 126.172H160.245ZM113.649 125.888C113.628 125.858 113.62 125.821 113.626 125.786C113.632 125.75 113.651 125.718 113.681 125.696C113.71 125.675 113.746 125.666 113.782 125.671C113.818 125.677 113.85 125.695 113.873 125.724C113.893 125.754 113.901 125.791 113.895 125.826C113.889 125.862 113.87 125.894 113.841 125.916C113.817 125.933 113.789 125.943 113.761 125.944C113.741 125.942 113.722 125.936 113.705 125.927C113.687 125.917 113.672 125.904 113.661 125.888H113.649ZM144.849 125.736C144.833 125.727 144.82 125.715 144.81 125.701C144.799 125.687 144.792 125.67 144.788 125.653C144.784 125.636 144.783 125.618 144.786 125.601C144.789 125.584 144.795 125.567 144.805 125.552C144.813 125.536 144.824 125.522 144.838 125.511C144.852 125.5 144.869 125.492 144.886 125.487C144.903 125.483 144.921 125.482 144.939 125.485C144.957 125.488 144.974 125.494 144.989 125.504C145.004 125.513 145.018 125.525 145.029 125.54C145.04 125.554 145.047 125.57 145.052 125.588C145.056 125.605 145.057 125.624 145.055 125.642C145.052 125.659 145.046 125.677 145.037 125.692C145.024 125.712 145.007 125.729 144.987 125.741C144.967 125.753 144.944 125.759 144.921 125.76C144.902 125.755 144.884 125.747 144.869 125.736H144.849ZM161.453 125.564C161.436 125.532 161.432 125.495 161.442 125.46C161.453 125.426 161.477 125.397 161.509 125.38C161.541 125.364 161.577 125.361 161.612 125.371C161.646 125.382 161.675 125.405 161.693 125.436C161.71 125.468 161.713 125.506 161.703 125.541C161.692 125.577 161.669 125.606 161.637 125.624C161.615 125.628 161.594 125.628 161.573 125.624C161.552 125.622 161.533 125.616 161.516 125.605C161.498 125.595 161.484 125.581 161.473 125.564H161.453ZM114.729 125.068C114.717 125.054 114.709 125.038 114.704 125.021C114.698 125.004 114.697 124.986 114.699 124.968C114.7 124.95 114.706 124.933 114.714 124.917C114.723 124.901 114.735 124.887 114.749 124.876C114.777 124.854 114.813 124.844 114.849 124.848C114.884 124.851 114.917 124.869 114.941 124.896C114.965 124.923 114.979 124.958 114.979 124.994C114.979 125.03 114.965 125.065 114.941 125.092C114.915 125.111 114.884 125.121 114.853 125.12C114.832 125.121 114.812 125.117 114.794 125.107C114.776 125.098 114.76 125.085 114.749 125.068H114.729ZM143.697 125.008C143.666 124.988 143.645 124.958 143.638 124.922C143.63 124.887 143.637 124.85 143.657 124.82C143.677 124.79 143.708 124.768 143.744 124.761C143.78 124.753 143.818 124.76 143.849 124.78C143.878 124.8 143.898 124.831 143.906 124.866C143.913 124.901 143.907 124.937 143.889 124.968C143.876 124.988 143.859 125.004 143.839 125.015C143.819 125.026 143.796 125.032 143.773 125.032C143.753 125.028 143.734 125.019 143.717 125.008H143.697ZM162.641 124.908C162.631 124.893 162.625 124.875 162.622 124.858C162.62 124.84 162.621 124.821 162.625 124.804C162.63 124.786 162.637 124.77 162.648 124.756C162.659 124.741 162.673 124.729 162.689 124.72C162.72 124.702 162.757 124.697 162.792 124.706C162.827 124.715 162.857 124.737 162.877 124.768C162.894 124.799 162.899 124.837 162.89 124.872C162.881 124.907 162.859 124.937 162.829 124.956C162.806 124.968 162.782 124.975 162.757 124.976C162.736 124.973 162.717 124.965 162.701 124.953C162.684 124.941 162.67 124.926 162.661 124.908H162.641ZM142.565 124.252C142.535 124.231 142.514 124.199 142.508 124.163C142.501 124.127 142.508 124.09 142.529 124.06C142.55 124.031 142.582 124.011 142.617 124.004C142.653 123.998 142.69 124.005 142.721 124.024C142.75 124.046 142.769 124.077 142.776 124.113C142.783 124.149 142.776 124.185 142.757 124.216C142.744 124.235 142.726 124.25 142.706 124.26C142.686 124.271 142.663 124.276 142.641 124.276C142.62 124.272 142.601 124.264 142.585 124.252H142.565ZM163.801 124.204C163.782 124.172 163.776 124.135 163.785 124.099C163.793 124.064 163.814 124.032 163.845 124.012C163.86 124.002 163.877 123.996 163.894 123.993C163.912 123.99 163.93 123.991 163.948 123.995C163.965 123.999 163.982 124.006 163.996 124.017C164.011 124.027 164.023 124.041 164.033 124.056C164.042 124.071 164.048 124.088 164.051 124.106C164.054 124.124 164.054 124.142 164.05 124.159C164.046 124.177 164.038 124.193 164.028 124.208C164.017 124.222 164.004 124.235 163.989 124.244C163.968 124.26 163.943 124.269 163.917 124.268C163.897 124.265 163.878 124.257 163.862 124.246C163.845 124.235 163.831 124.221 163.821 124.204H163.801ZM115.801 124.204C115.776 124.178 115.762 124.144 115.762 124.108C115.762 124.072 115.776 124.038 115.801 124.012C115.827 123.987 115.862 123.974 115.899 123.974C115.935 123.974 115.97 123.987 115.997 124.012C116.022 124.037 116.036 124.072 116.036 124.108C116.036 124.144 116.022 124.179 115.997 124.204C115.985 124.215 115.971 124.223 115.956 124.229C115.941 124.234 115.925 124.237 115.909 124.236C115.89 124.24 115.871 124.239 115.852 124.235C115.833 124.231 115.816 124.223 115.801 124.212V124.204ZM164.961 123.452C164.94 123.422 164.932 123.385 164.938 123.35C164.944 123.314 164.963 123.282 164.993 123.26C165.007 123.249 165.024 123.242 165.042 123.238C165.06 123.234 165.078 123.234 165.096 123.237C165.114 123.241 165.131 123.248 165.146 123.258C165.161 123.268 165.174 123.281 165.185 123.296C165.205 123.326 165.212 123.362 165.205 123.397C165.198 123.433 165.178 123.464 165.149 123.484C165.126 123.499 165.1 123.508 165.073 123.508C165.051 123.509 165.03 123.506 165.011 123.497C164.991 123.489 164.974 123.476 164.961 123.46V123.452ZM141.461 123.484C141.445 123.474 141.433 123.462 141.422 123.447C141.412 123.432 141.406 123.415 141.402 123.398C141.399 123.38 141.399 123.362 141.403 123.345C141.407 123.327 141.414 123.311 141.425 123.296C141.444 123.266 141.475 123.245 141.51 123.237C141.546 123.23 141.582 123.236 141.613 123.256C141.628 123.266 141.641 123.279 141.651 123.294C141.661 123.309 141.668 123.326 141.671 123.344C141.675 123.362 141.674 123.381 141.67 123.398C141.666 123.416 141.659 123.433 141.649 123.448C141.637 123.467 141.62 123.482 141.601 123.493C141.581 123.503 141.559 123.509 141.537 123.508C141.51 123.51 141.484 123.504 141.461 123.492V123.484ZM116.845 123.332C116.831 123.32 116.821 123.305 116.814 123.288C116.807 123.272 116.803 123.254 116.803 123.236C116.803 123.218 116.807 123.2 116.814 123.184C116.821 123.167 116.831 123.152 116.845 123.14C116.87 123.116 116.905 123.102 116.941 123.102C116.976 123.102 117.011 123.116 117.037 123.14C117.062 123.166 117.076 123.2 117.076 123.236C117.076 123.272 117.062 123.307 117.037 123.332C117.012 123.353 116.981 123.365 116.949 123.364C116.93 123.368 116.912 123.368 116.894 123.363C116.876 123.359 116.859 123.351 116.845 123.34V123.332ZM140.333 122.732C140.317 122.723 140.304 122.71 140.293 122.696C140.283 122.681 140.276 122.664 140.272 122.647C140.268 122.629 140.268 122.611 140.272 122.593C140.275 122.576 140.282 122.559 140.293 122.544C140.302 122.529 140.314 122.515 140.329 122.505C140.344 122.494 140.36 122.487 140.378 122.483C140.395 122.48 140.414 122.48 140.431 122.483C140.449 122.487 140.466 122.494 140.481 122.504C140.511 122.524 140.532 122.554 140.539 122.59C140.547 122.625 140.54 122.662 140.521 122.692C140.509 122.711 140.492 122.726 140.472 122.737C140.453 122.747 140.431 122.753 140.409 122.752C140.383 122.756 140.356 122.752 140.333 122.74V122.732ZM166.073 122.668C166.062 122.654 166.054 122.638 166.049 122.621C166.045 122.604 166.044 122.586 166.047 122.568C166.049 122.551 166.055 122.534 166.065 122.519C166.074 122.503 166.086 122.49 166.101 122.48C166.13 122.459 166.166 122.45 166.202 122.455C166.238 122.461 166.27 122.479 166.293 122.508C166.313 122.538 166.321 122.575 166.315 122.61C166.309 122.646 166.29 122.678 166.261 122.7C166.237 122.716 166.209 122.724 166.181 122.724C166.16 122.726 166.139 122.722 166.12 122.714C166.102 122.705 166.085 122.692 166.073 122.676V122.668ZM117.889 122.464C117.863 122.439 117.849 122.404 117.849 122.368C117.849 122.332 117.863 122.297 117.889 122.272C117.917 122.25 117.953 122.24 117.989 122.244C118.024 122.247 118.057 122.265 118.081 122.292C118.092 122.306 118.1 122.322 118.106 122.339C118.111 122.356 118.112 122.374 118.111 122.392C118.109 122.41 118.103 122.427 118.095 122.443C118.086 122.459 118.075 122.473 118.061 122.484C118.049 122.495 118.035 122.503 118.02 122.509C118.005 122.514 117.989 122.517 117.973 122.516C117.94 122.512 117.91 122.497 117.889 122.472V122.464ZM139.201 122C139.185 121.991 139.172 121.978 139.161 121.964C139.151 121.949 139.143 121.933 139.139 121.915C139.135 121.898 139.135 121.88 139.138 121.862C139.141 121.844 139.147 121.827 139.157 121.812C139.166 121.797 139.178 121.783 139.193 121.773C139.207 121.762 139.224 121.755 139.241 121.751C139.259 121.747 139.277 121.746 139.295 121.749C139.312 121.752 139.329 121.758 139.345 121.768C139.36 121.777 139.373 121.79 139.384 121.804C139.394 121.819 139.402 121.835 139.406 121.853C139.41 121.87 139.41 121.888 139.407 121.906C139.404 121.924 139.398 121.941 139.389 121.956C139.376 121.976 139.359 121.993 139.339 122.005C139.319 122.017 139.296 122.023 139.273 122.024C139.247 122.024 139.221 122.016 139.201 122ZM167.169 121.856C167.157 121.842 167.149 121.826 167.144 121.808C167.14 121.791 167.138 121.773 167.14 121.755C167.143 121.737 167.148 121.72 167.157 121.704C167.166 121.689 167.178 121.675 167.193 121.664C167.207 121.653 167.223 121.645 167.24 121.64C167.258 121.635 167.276 121.634 167.294 121.636C167.311 121.638 167.329 121.644 167.344 121.653C167.36 121.662 167.374 121.674 167.385 121.688C167.405 121.717 167.414 121.753 167.41 121.789C167.405 121.824 167.388 121.857 167.361 121.88C167.338 121.898 167.31 121.908 167.281 121.908C167.258 121.911 167.236 121.909 167.215 121.901C167.194 121.893 167.175 121.881 167.161 121.864L167.169 121.856ZM118.961 121.624C118.939 121.595 118.931 121.558 118.936 121.522C118.941 121.487 118.96 121.454 118.989 121.432C119.018 121.411 119.054 121.402 119.09 121.407C119.126 121.413 119.158 121.431 119.181 121.46C119.202 121.489 119.21 121.526 119.205 121.562C119.2 121.597 119.181 121.63 119.153 121.652C119.129 121.669 119.101 121.679 119.073 121.68C119.05 121.682 119.028 121.679 119.007 121.671C118.986 121.662 118.967 121.649 118.953 121.632L118.961 121.624ZM138.037 121.308C138.021 121.299 138.007 121.287 137.996 121.272C137.985 121.258 137.978 121.242 137.973 121.224C137.969 121.207 137.968 121.188 137.97 121.17C137.973 121.153 137.979 121.135 137.989 121.12C137.997 121.105 138.009 121.091 138.023 121.08C138.037 121.069 138.053 121.061 138.07 121.057C138.087 121.052 138.105 121.051 138.123 121.054C138.141 121.057 138.157 121.063 138.173 121.072C138.188 121.08 138.202 121.092 138.214 121.106C138.225 121.12 138.233 121.136 138.238 121.153C138.243 121.17 138.244 121.188 138.242 121.206C138.24 121.224 138.234 121.241 138.225 121.256C138.213 121.277 138.195 121.295 138.174 121.308C138.153 121.321 138.129 121.328 138.105 121.328C138.079 121.33 138.053 121.326 138.029 121.316L138.037 121.308ZM168.229 121.008C168.217 120.994 168.209 120.978 168.204 120.961C168.198 120.944 168.197 120.926 168.199 120.908C168.2 120.89 168.206 120.873 168.214 120.857C168.223 120.841 168.235 120.827 168.249 120.816C168.262 120.805 168.278 120.796 168.296 120.791C168.313 120.786 168.331 120.784 168.349 120.786C168.367 120.788 168.384 120.793 168.4 120.802C168.415 120.81 168.429 120.822 168.441 120.836C168.465 120.862 168.479 120.896 168.479 120.932C168.479 120.968 168.465 121.002 168.441 121.028C168.415 121.047 168.384 121.058 168.353 121.06C168.329 121.065 168.304 121.064 168.28 121.056C168.257 121.048 168.237 121.035 168.221 121.016L168.229 121.008ZM120.065 120.832C120.054 120.817 120.047 120.8 120.043 120.782C120.039 120.765 120.039 120.746 120.042 120.728C120.045 120.71 120.052 120.693 120.062 120.678C120.072 120.663 120.085 120.65 120.101 120.64C120.131 120.62 120.169 120.613 120.205 120.621C120.241 120.628 120.272 120.65 120.293 120.68C120.312 120.71 120.319 120.747 120.311 120.782C120.304 120.818 120.283 120.848 120.253 120.868C120.23 120.884 120.204 120.892 120.177 120.892C120.154 120.894 120.131 120.89 120.11 120.881C120.089 120.872 120.071 120.858 120.057 120.84L120.065 120.832ZM136.865 120.664C136.833 120.647 136.809 120.618 136.798 120.584C136.788 120.549 136.792 120.512 136.809 120.48C136.817 120.464 136.828 120.45 136.841 120.438C136.855 120.426 136.871 120.417 136.888 120.412C136.905 120.406 136.923 120.404 136.941 120.405C136.959 120.407 136.977 120.412 136.993 120.42C137.024 120.438 137.047 120.468 137.058 120.503C137.07 120.537 137.067 120.575 137.053 120.608C137.04 120.63 137.022 120.647 137 120.66C136.978 120.673 136.954 120.68 136.929 120.68C136.899 120.688 136.868 120.685 136.841 120.672L136.865 120.664ZM169.265 120.132C169.239 120.107 169.225 120.072 169.225 120.036C169.225 120 169.239 119.966 169.265 119.94C169.291 119.916 169.325 119.902 169.361 119.902C169.396 119.902 169.431 119.916 169.457 119.94C169.481 119.966 169.495 120 169.495 120.036C169.495 120.072 169.481 120.106 169.457 120.132C169.445 120.143 169.431 120.153 169.416 120.159C169.401 120.165 169.385 120.168 169.369 120.168C169.35 120.171 169.33 120.17 169.312 120.166C169.293 120.161 169.276 120.152 169.261 120.14L169.265 120.132ZM121.201 120.116C121.191 120.1 121.185 120.083 121.183 120.065C121.181 120.047 121.182 120.029 121.187 120.011C121.192 119.993 121.2 119.977 121.211 119.963C121.223 119.949 121.237 119.937 121.253 119.928C121.284 119.911 121.321 119.906 121.355 119.916C121.39 119.926 121.419 119.949 121.437 119.98C121.446 119.996 121.452 120.013 121.454 120.031C121.456 120.049 121.455 120.067 121.45 120.085C121.445 120.103 121.437 120.119 121.426 120.133C121.415 120.147 121.4 120.159 121.385 120.168C121.362 120.173 121.339 120.173 121.317 120.168C121.294 120.169 121.272 120.165 121.252 120.156C121.232 120.147 121.214 120.133 121.201 120.116ZM135.621 120.092C135.604 120.085 135.59 120.074 135.577 120.061C135.565 120.048 135.556 120.033 135.549 120.016C135.543 119.999 135.54 119.982 135.541 119.964C135.541 119.946 135.545 119.928 135.553 119.912C135.56 119.896 135.57 119.881 135.583 119.869C135.596 119.857 135.612 119.847 135.628 119.841C135.645 119.834 135.663 119.831 135.681 119.832C135.699 119.833 135.716 119.837 135.733 119.844C135.749 119.851 135.764 119.861 135.777 119.874C135.789 119.887 135.799 119.902 135.805 119.919C135.812 119.936 135.815 119.954 135.814 119.972C135.813 119.99 135.808 120.008 135.801 120.024C135.79 120.048 135.772 120.068 135.75 120.082C135.728 120.096 135.703 120.104 135.677 120.104C135.659 120.103 135.641 120.099 135.625 120.092H135.621ZM134.377 119.6C134.359 119.594 134.343 119.585 134.33 119.573C134.317 119.561 134.306 119.546 134.298 119.529C134.291 119.513 134.287 119.495 134.286 119.477C134.286 119.459 134.29 119.441 134.297 119.424C134.31 119.391 134.336 119.364 134.368 119.349C134.401 119.334 134.439 119.332 134.473 119.344C134.506 119.357 134.533 119.383 134.548 119.416C134.563 119.449 134.564 119.486 134.553 119.52C134.543 119.546 134.526 119.569 134.503 119.585C134.48 119.601 134.452 119.609 134.425 119.608C134.408 119.609 134.392 119.607 134.377 119.6ZM122.401 119.488C122.387 119.455 122.386 119.418 122.399 119.384C122.411 119.351 122.436 119.324 122.469 119.308C122.485 119.3 122.503 119.295 122.521 119.295C122.54 119.294 122.558 119.296 122.575 119.303C122.592 119.309 122.608 119.319 122.621 119.332C122.635 119.344 122.645 119.359 122.653 119.376C122.66 119.393 122.664 119.41 122.664 119.428C122.664 119.446 122.661 119.464 122.654 119.481C122.648 119.498 122.638 119.513 122.625 119.526C122.612 119.539 122.597 119.549 122.581 119.556C122.562 119.56 122.543 119.56 122.525 119.556C122.5 119.557 122.475 119.551 122.453 119.539C122.431 119.527 122.413 119.51 122.401 119.488ZM133.093 119.164C133.058 119.153 133.029 119.129 133.012 119.097C132.994 119.065 132.99 119.027 133.001 118.992C133.012 118.957 133.036 118.928 133.068 118.911C133.1 118.894 133.138 118.89 133.173 118.9C133.207 118.911 133.236 118.935 133.253 118.967C133.271 118.999 133.275 119.037 133.265 119.072C133.255 119.1 133.238 119.124 133.214 119.141C133.19 119.158 133.162 119.168 133.133 119.168H133.093V119.164ZM123.657 118.976C123.651 118.959 123.649 118.941 123.65 118.923C123.652 118.905 123.656 118.888 123.665 118.872C123.673 118.856 123.684 118.841 123.698 118.83C123.712 118.818 123.727 118.809 123.745 118.804C123.762 118.798 123.78 118.796 123.798 118.798C123.815 118.799 123.833 118.804 123.849 118.812C123.865 118.82 123.879 118.832 123.891 118.845C123.902 118.859 123.911 118.875 123.917 118.892C123.922 118.909 123.924 118.927 123.923 118.945C123.921 118.963 123.917 118.98 123.908 118.996C123.9 119.012 123.889 119.027 123.875 119.038C123.862 119.05 123.846 119.059 123.829 119.064H123.785C123.757 119.063 123.731 119.055 123.709 119.039C123.687 119.023 123.67 119.001 123.661 118.976H123.657ZM131.789 118.832C131.754 118.824 131.723 118.803 131.704 118.773C131.684 118.743 131.677 118.707 131.685 118.672C131.688 118.654 131.695 118.637 131.705 118.622C131.715 118.607 131.728 118.594 131.744 118.584C131.759 118.574 131.776 118.568 131.794 118.565C131.812 118.562 131.831 118.563 131.849 118.568C131.866 118.571 131.883 118.578 131.898 118.588C131.912 118.598 131.925 118.611 131.935 118.626C131.944 118.641 131.951 118.657 131.954 118.675C131.957 118.693 131.957 118.711 131.953 118.728C131.946 118.759 131.929 118.787 131.904 118.807C131.879 118.826 131.848 118.837 131.817 118.836H131.789V118.832ZM124.957 118.604C124.952 118.586 124.952 118.568 124.955 118.55C124.959 118.531 124.965 118.514 124.976 118.499C124.986 118.484 124.999 118.471 125.014 118.46C125.029 118.45 125.046 118.443 125.065 118.44C125.1 118.433 125.136 118.44 125.166 118.459C125.196 118.479 125.217 118.509 125.225 118.544C125.229 118.562 125.229 118.58 125.226 118.598C125.223 118.616 125.217 118.633 125.207 118.648C125.197 118.663 125.185 118.676 125.17 118.687C125.155 118.697 125.138 118.704 125.121 118.708H125.093C125.062 118.707 125.033 118.697 125.009 118.678C124.985 118.659 124.968 118.633 124.961 118.604H124.957ZM130.465 118.604C130.429 118.598 130.397 118.579 130.375 118.549C130.353 118.52 130.344 118.484 130.349 118.448C130.35 118.43 130.356 118.413 130.365 118.397C130.374 118.382 130.385 118.368 130.4 118.357C130.414 118.347 130.43 118.339 130.447 118.334C130.465 118.33 130.483 118.329 130.501 118.332C130.536 118.338 130.568 118.357 130.59 118.387C130.612 118.416 130.621 118.452 130.617 118.488C130.611 118.52 130.594 118.549 130.569 118.571C130.545 118.592 130.513 118.604 130.481 118.604H130.461H130.465ZM126.293 118.376C126.289 118.341 126.3 118.305 126.322 118.277C126.345 118.25 126.377 118.232 126.413 118.228C126.43 118.225 126.449 118.226 126.466 118.231C126.484 118.235 126.5 118.244 126.515 118.255C126.529 118.266 126.541 118.28 126.549 118.296C126.558 118.312 126.563 118.33 126.565 118.348C126.568 118.385 126.557 118.421 126.534 118.449C126.51 118.478 126.477 118.496 126.441 118.5C126.405 118.501 126.37 118.489 126.343 118.465C126.316 118.441 126.3 118.408 126.297 118.372L126.293 118.376ZM129.125 118.464C129.106 118.464 129.089 118.459 129.072 118.452C129.056 118.444 129.041 118.433 129.029 118.42C129.017 118.406 129.008 118.39 129.003 118.373C128.997 118.356 128.995 118.338 128.997 118.32C128.998 118.302 129.002 118.285 129.01 118.269C129.018 118.252 129.029 118.238 129.042 118.226C129.055 118.214 129.071 118.205 129.088 118.199C129.105 118.193 129.123 118.191 129.141 118.192C129.177 118.195 129.211 118.212 129.235 118.24C129.259 118.268 129.271 118.304 129.269 118.34C129.266 118.375 129.251 118.407 129.226 118.431C129.201 118.455 129.167 118.468 129.133 118.468L129.125 118.464ZM127.645 118.288C127.644 118.27 127.647 118.252 127.654 118.235C127.66 118.219 127.67 118.203 127.683 118.191C127.696 118.178 127.711 118.168 127.728 118.161C127.745 118.155 127.763 118.151 127.781 118.152C127.817 118.152 127.851 118.166 127.877 118.192C127.902 118.217 127.917 118.252 127.917 118.288C127.917 118.324 127.902 118.359 127.877 118.384C127.851 118.41 127.817 118.424 127.781 118.424C127.763 118.423 127.745 118.419 127.729 118.412C127.712 118.405 127.698 118.394 127.686 118.381C127.673 118.368 127.664 118.353 127.657 118.336C127.651 118.32 127.648 118.302 127.649 118.284L127.645 118.288Z" fill="white"/>
<path d="M100.9 127.6C100.883 127.604 100.866 127.604 100.848 127.6C100.831 127.593 100.816 127.582 100.804 127.568C100.791 127.557 100.781 127.541 100.776 127.524C100.772 127.507 100.772 127.489 100.776 127.472C100.778 127.436 100.792 127.402 100.816 127.376C100.829 127.363 100.844 127.353 100.86 127.348C100.877 127.34 100.894 127.336 100.912 127.336C100.93 127.336 100.948 127.34 100.964 127.348C100.982 127.352 100.997 127.362 101.008 127.376C101.021 127.388 101.031 127.403 101.038 127.42C101.045 127.436 101.049 127.454 101.048 127.472C101.053 127.489 101.053 127.507 101.048 127.524C101.043 127.542 101.031 127.557 101.016 127.568C101.005 127.582 100.99 127.593 100.972 127.6C100.949 127.608 100.924 127.608 100.9 127.6Z" fill="white"/>
</g>
<path d="M122.832 86.644L121.9 85.636C120.217 87.228 117.993 88.1228 115.676 88.14C113.838 88.169 112.048 87.5499 110.621 86.3914C109.193 85.2329 108.219 83.6089 107.868 81.804L106.468 82.172L105.188 82.508C105.552 84.3976 106.437 86.1477 107.744 87.56C111.804 91.936 119 91.936 123.688 87.56L122.832 86.644Z" fill="white"/>
<path d="M124.828 71.62L123.6 72.76L122.756 73.56C123.501 74.3685 124.071 75.3226 124.429 76.3622C124.787 77.4017 124.926 78.5042 124.836 79.6C124.655 81.9128 123.606 84.0716 121.9 85.644L122.632 86.444L123.688 87.58C125.938 85.5026 127.321 82.6527 127.56 79.6C127.68 78.1534 127.499 76.6977 127.028 75.3244C126.558 73.9512 125.809 72.6899 124.828 71.62Z" fill="#263238"/>
<path d="M124.829 71.62C120.769 67.248 113.573 67.248 108.889 71.62C107.406 72.977 106.291 74.6867 105.646 76.5902C105.001 78.4938 104.848 80.5294 105.201 82.508L106.801 82.108L107.897 81.82C107.757 81.0915 107.714 80.3478 107.769 79.608C107.963 77.3007 109.008 75.148 110.701 73.5683C112.394 71.9885 114.613 71.0945 116.929 71.06C118.026 71.048 119.114 71.2644 120.124 71.6955C121.133 72.1265 122.042 72.7629 122.793 73.564L123.873 72.552L124.829 71.62Z" fill="#02C499"/>
<path d="M136.32 86.644L137.396 85.636C136.653 84.8272 136.086 83.8734 135.73 82.8345C135.374 81.7957 135.237 80.6944 135.328 79.6C135.492 77.6775 136.246 75.8525 137.485 74.3741C138.725 72.8958 140.391 71.8362 142.256 71.34L141.984 69.964L141.74 68.708C139.772 69.2327 137.963 70.2357 136.476 71.628C131.788 76 131.276 83.196 135.332 87.572L136.32 86.644Z" fill="white"/>
<path d="M151.276 87.564L150.216 86.42L149.488 85.62C147.806 87.2139 145.581 88.1102 143.264 88.128C142.166 88.1401 141.077 87.9237 140.067 87.4927C139.057 87.0616 138.147 86.4252 137.396 85.624L136.552 86.424L135.332 87.564C136.324 88.6177 137.524 89.4548 138.855 90.0227C140.186 90.5906 141.621 90.8771 143.068 90.864C146.122 90.8379 149.054 89.6592 151.276 87.564Z" fill="#263238"/>
<path d="M151.276 87.564C155.96 83.188 156.476 75.992 152.42 71.62C151.073 70.21 149.367 69.1934 147.485 68.679C145.604 68.1646 143.618 68.1719 141.74 68.7L142.044 70.256L142.256 71.332C142.985 71.1409 143.735 71.0441 144.488 71.044C145.588 71.0278 146.68 71.243 147.691 71.6756C148.703 72.1083 149.613 72.7487 150.361 73.5554C151.109 74.3622 151.679 75.3171 152.035 76.3584C152.39 77.3997 152.523 78.5041 152.424 79.6C152.242 81.9114 151.193 84.0686 149.488 85.64L150.424 86.652L151.276 87.564Z" fill="#02C499"/>
<path opacity="0.3" d="M170.168 69.324C170.278 69.3237 170.387 69.3461 170.488 69.3898C170.589 69.4334 170.68 69.4974 170.755 69.5777C170.83 69.6581 170.888 69.753 170.924 69.8566C170.961 69.9602 170.976 70.0703 170.968 70.18L170.472 77.08C170.449 77.3239 170.337 77.5508 170.158 77.718C169.979 77.8853 169.745 77.9813 169.5 77.988H162.596C162.486 77.9883 162.377 77.9658 162.276 77.9219C162.174 77.878 162.083 77.8136 162.008 77.7329C161.933 77.6521 161.876 77.5567 161.839 77.4526C161.803 77.3485 161.788 77.238 161.796 77.128L162.288 70.228C162.312 69.9845 162.424 69.758 162.603 69.5915C162.782 69.4249 163.016 69.3297 163.26 69.324H170.16M170.16 68.968H163.268C162.934 68.9746 162.614 69.1044 162.37 69.3325C162.125 69.5606 161.974 69.871 161.944 70.204L161.452 77.104C161.439 77.2619 161.459 77.4209 161.51 77.5707C161.562 77.7206 161.644 77.8581 161.752 77.9744C161.859 78.0907 161.99 78.1833 162.135 78.2462C162.281 78.3092 162.438 78.3411 162.596 78.34H169.496C169.831 78.3343 170.151 78.2048 170.396 77.9765C170.64 77.7482 170.792 77.4373 170.82 77.104L171.316 70.204C171.33 70.0457 171.31 69.8864 171.258 69.7363C171.206 69.5861 171.124 69.4485 171.016 69.3321C170.908 69.2157 170.776 69.1232 170.63 69.0605C170.485 68.9978 170.327 68.9663 170.168 68.968H170.16Z" fill="#02C499"/>
<path opacity="0.3" d="M169.317 81.2C169.427 81.1997 169.535 81.2221 169.636 81.2658C169.737 81.3094 169.828 81.3734 169.903 81.4538C169.978 81.5341 170.036 81.629 170.073 81.7326C170.109 81.8362 170.124 81.9463 170.117 82.056L169.625 88.956C169.601 89.1996 169.489 89.426 169.31 89.5931C169.131 89.7602 168.897 89.8565 168.653 89.864H161.749C161.638 89.8643 161.529 89.8418 161.428 89.7979C161.327 89.754 161.236 89.6896 161.161 89.6089C161.086 89.5281 161.028 89.4327 160.992 89.3286C160.955 89.2245 160.94 89.114 160.949 89.004L161.445 82.104C161.468 81.8605 161.58 81.6341 161.759 81.4675C161.938 81.3009 162.172 81.2057 162.417 81.2H169.313M169.313 80.844H162.421C162.086 80.8497 161.766 80.9792 161.521 81.2075C161.277 81.4358 161.125 81.7467 161.097 82.08L160.601 88.98C160.587 89.1383 160.607 89.2976 160.659 89.4477C160.711 89.5978 160.793 89.7355 160.901 89.8519C161.009 89.9682 161.141 90.0608 161.287 90.1235C161.433 90.1862 161.59 90.2177 161.749 90.216H168.649C168.983 90.2094 169.303 90.0796 169.547 89.8515C169.792 89.6233 169.943 89.313 169.973 88.98L170.465 82.08C170.478 81.9217 170.458 81.7624 170.407 81.6123C170.355 81.4622 170.272 81.3245 170.164 81.2081C170.056 81.0917 169.925 80.9992 169.779 80.9365C169.633 80.8738 169.476 80.8423 169.317 80.844H169.313Z" fill="#02C499"/>
<path d="M159.201 119.372C159.293 119.37 159.386 119.387 159.471 119.423C159.557 119.459 159.633 119.512 159.697 119.58C159.759 119.649 159.807 119.73 159.837 119.818C159.866 119.906 159.877 119.999 159.869 120.092C159.851 120.3 159.757 120.494 159.605 120.636C159.453 120.779 159.253 120.86 159.045 120.864C158.952 120.867 158.859 120.85 158.773 120.814C158.688 120.778 158.61 120.724 158.547 120.656C158.484 120.588 158.436 120.507 158.407 120.418C158.377 120.33 158.367 120.237 158.377 120.144C158.394 119.936 158.487 119.742 158.64 119.599C158.792 119.456 158.992 119.375 159.201 119.372ZM159.201 119.02C158.904 119.025 158.619 119.14 158.402 119.342C158.185 119.544 158.05 119.82 158.025 120.116C158.012 120.257 158.029 120.399 158.074 120.533C158.12 120.667 158.193 120.79 158.289 120.894C158.386 120.997 158.503 121.08 158.633 121.135C158.763 121.191 158.903 121.218 159.045 121.216C159.342 121.211 159.627 121.096 159.845 120.893C160.062 120.689 160.196 120.413 160.221 120.116C160.233 119.975 160.216 119.834 160.17 119.7C160.124 119.567 160.051 119.444 159.954 119.341C159.858 119.238 159.742 119.156 159.612 119.101C159.482 119.045 159.342 119.018 159.201 119.02Z" fill="#02C499"/>
<path d="M159.304 119.024L159.128 119.012L159.156 118.66L159.328 118.672L159.304 119.024Z" fill="#02C499"/>
<path d="M159.38 117.952H159.204L159.256 117.232H159.432L159.38 117.952ZM159.484 116.504H159.308L159.36 115.784H159.536L159.484 116.504ZM159.588 115.06H159.412L159.464 114.336H159.64L159.588 115.06ZM159.692 113.616H159.516L159.568 112.892H159.744L159.692 113.616ZM159.796 112.172H159.62L159.672 111.448H159.848L159.796 112.172ZM159.9 110.728H159.724L159.776 110.004H159.952L159.9 110.728ZM160.004 109.28H159.828L159.88 108.56H160.056L160.004 109.28ZM160.108 107.836H159.932L159.984 107.112H160.16L160.108 107.836ZM160.212 106.392H160.036L160.088 105.668H160.264L160.212 106.392ZM160.312 104.948H160.136L160.188 104.224H160.364L160.312 104.948ZM160.416 103.504H160.24L160.292 102.78H160.468L160.416 103.504Z" fill="#02C499"/>
<path d="M160.365 101.694L160.34 102.045L160.515 102.057L160.54 101.706L160.365 101.694Z" fill="#02C499"/>
<path d="M167.912 101.892H104.576C104.403 101.894 104.231 101.859 104.072 101.79C103.913 101.721 103.77 101.62 103.652 101.492C103.534 101.364 103.443 101.213 103.386 101.049C103.329 100.884 103.306 100.71 103.32 100.536L103.636 96.176C103.666 95.8193 103.828 95.4866 104.09 95.2425C104.351 94.9985 104.695 94.8607 105.052 94.856H168.4C168.573 94.8549 168.745 94.8897 168.904 94.9584C169.062 95.027 169.205 95.1279 169.323 95.2547C169.441 95.3814 169.531 95.5313 169.587 95.6947C169.644 95.8581 169.666 96.0315 169.652 96.204L169.34 100.564C169.311 100.924 169.149 101.26 168.884 101.505C168.62 101.751 168.273 101.889 167.912 101.892ZM105.052 95.24C104.79 95.244 104.539 95.3454 104.348 95.5243C104.156 95.7032 104.038 95.9469 104.016 96.208L103.704 100.568C103.694 100.689 103.709 100.811 103.749 100.926C103.788 101.041 103.85 101.146 103.932 101.236C104.015 101.323 104.115 101.393 104.226 101.44C104.337 101.487 104.456 101.51 104.576 101.508H167.912C168.175 101.505 168.426 101.404 168.618 101.225C168.81 101.046 168.928 100.801 168.948 100.54L169.264 96.18C169.274 96.0606 169.258 95.9405 169.219 95.8273C169.18 95.714 169.118 95.6101 169.037 95.5219C168.956 95.4337 168.858 95.3631 168.748 95.3146C168.639 95.2661 168.52 95.2407 168.4 95.24H105.052Z" fill="#02C499"/>
<path opacity="0.8" fill-rule="evenodd" clip-rule="evenodd" d="M166.552 97.672H106.512C106.436 97.6728 106.36 97.6576 106.289 97.6274C106.219 97.5972 106.156 97.5525 106.104 97.4964C106.052 97.4402 106.012 97.3738 105.988 97.3014C105.963 97.229 105.953 97.1522 105.96 97.076C105.975 96.9164 106.048 96.7678 106.165 96.6586C106.282 96.5494 106.436 96.4872 106.596 96.484H166.64C166.716 96.4831 166.791 96.4982 166.861 96.5282C166.931 96.5583 166.994 96.6026 167.045 96.6584C167.097 96.7142 167.136 96.7802 167.161 96.8521C167.186 96.924 167.195 97.0003 167.188 97.076C167.175 97.2366 167.103 97.3867 166.985 97.4969C166.868 97.6071 166.713 97.6695 166.552 97.672Z" fill="white"/>
<path opacity="0.8" fill-rule="evenodd" clip-rule="evenodd" d="M156.548 100.172H106.332C106.256 100.173 106.181 100.158 106.111 100.128C106.041 100.098 105.979 100.053 105.927 99.9976C105.875 99.9418 105.836 99.8758 105.811 99.8039C105.787 99.732 105.778 99.6557 105.784 99.58C105.797 99.4194 105.87 99.2693 105.987 99.1591C106.105 99.0489 106.259 98.9865 106.42 98.984H156.632C156.712 98.9805 156.792 98.9944 156.865 99.0248C156.939 99.0552 157.005 99.1013 157.06 99.16C157.114 99.2186 157.154 99.2884 157.179 99.3644C157.203 99.4404 157.21 99.5208 157.2 99.6C157.181 99.7587 157.103 99.9047 156.983 100.01C156.863 100.116 156.708 100.173 156.548 100.172Z" fill="white"/>
</svg>
