<svg width="17" height="18" viewBox="0 0 17 18" fill="none" xmlns="http://www.w3.org/2000/svg">
<path d="M8.49741 0.666016C13.0999 0.666016 16.8307 4.39685 16.8307 8.99935C16.8307 13.6018 13.0999 17.3327 8.49741 17.3327C7.0247 17.3352 5.57789 16.9455 4.30574 16.2035L0.167409 17.3327L1.29408 13.1927C0.551541 11.9201 0.161494 10.4727 0.164075 8.99935C0.164075 4.39685 3.89491 0.666016 8.49741 0.666016ZM5.65741 5.08268L5.49074 5.08935C5.38298 5.09677 5.2777 5.12508 5.18074 5.17268C5.09039 5.22394 5.00788 5.28793 4.93574 5.36268C4.83574 5.45685 4.77908 5.53852 4.71824 5.61768C4.41001 6.01843 4.24405 6.51044 4.24658 7.01602C4.24824 7.42435 4.35491 7.82185 4.52157 8.19352C4.86241 8.94518 5.42324 9.74102 6.16324 10.4785C6.34158 10.656 6.51658 10.8343 6.70491 11.0002C7.62443 11.8097 8.72014 12.3935 9.90491 12.7052L10.3782 12.7777C10.5324 12.786 10.6866 12.7743 10.8416 12.7668C11.0842 12.7541 11.3212 12.6884 11.5357 12.5743C11.6448 12.518 11.7513 12.4568 11.8549 12.391C11.8549 12.391 11.8902 12.3671 11.9591 12.316C12.0716 12.2327 12.1407 12.1735 12.2341 12.076C12.3041 12.0038 12.3624 11.9199 12.4091 11.8243C12.4741 11.6885 12.5391 11.4293 12.5657 11.2135C12.5857 11.0485 12.5799 10.9585 12.5774 10.9027C12.5741 10.8135 12.4999 10.721 12.4191 10.6818L11.9341 10.4643C11.9341 10.4643 11.2091 10.1485 10.7657 9.94685C10.7193 9.92665 10.6696 9.91507 10.6191 9.91268C10.5621 9.90672 10.5044 9.91308 10.4501 9.93134C10.3957 9.9496 10.3459 9.97933 10.3041 10.0185C10.2999 10.0168 10.2441 10.0643 9.64157 10.7943C9.60699 10.8408 9.55936 10.8759 9.50474 10.8952C9.45013 10.9145 9.391 10.9171 9.33491 10.9027C9.2806 10.8882 9.2274 10.8698 9.17574 10.8477C9.07241 10.8043 9.03658 10.7877 8.96574 10.7577C8.4873 10.5493 8.04444 10.2672 7.65324 9.92185C7.54824 9.83018 7.45074 9.73018 7.35074 9.63352C7.02292 9.31952 6.7372 8.96434 6.50074 8.57685L6.45157 8.49768C6.41679 8.44418 6.38827 8.38686 6.36658 8.32685C6.33491 8.20435 6.41741 8.10602 6.41741 8.10602C6.41741 8.10602 6.61991 7.88435 6.71408 7.76435C6.80574 7.64768 6.88324 7.53435 6.93324 7.45352C7.03158 7.29518 7.06241 7.13268 7.01074 7.00685C6.77741 6.43685 6.5363 5.8699 6.28741 5.30602C6.23824 5.19435 6.09241 5.11435 5.95991 5.09852C5.91491 5.09296 5.86991 5.08852 5.82491 5.08518C5.71302 5.07876 5.60082 5.07988 5.48908 5.08852L5.65741 5.08268Z" fill="#17BBB1"/>
</svg>
